<svg width="125" height="25" viewBox="0 0 125 25" fill="none" xmlns="http://www.w3.org/2000/svg">
<path d="M6.52409 2.36598V11.3739H10.6988C11.6563 11.3739 12.3577 11.1624 12.8032 10.7404C13.2482 10.3174 13.5439 9.481 13.6898 8.23025H14.3152V15.9879H13.6898C13.6788 15.0984 13.5635 14.4443 13.3434 14.0275C13.1238 13.6108 12.8195 13.2978 12.4314 13.0892C12.0424 12.8811 11.4649 12.7768 10.6988 12.7768H6.52409V19.976C6.52409 21.1368 6.5973 21.9028 6.74371 22.2746C6.85616 22.5569 7.093 22.7986 7.4533 23.0014C7.94901 23.2718 8.46768 23.4072 9.00884 23.4072H9.83662V24.0326H0V23.4072H0.811504C1.75794 23.4072 2.44504 23.1311 2.87328 22.5789C3.14362 22.2186 3.27903 21.3512 3.27903 19.976V5.17084C3.27903 4.011 3.20582 3.244 3.05941 2.8727C2.94697 2.59039 2.71538 2.34828 2.36705 2.14588C1.88234 1.87554 1.36367 1.74013 0.811504 1.74013H0V1.11523H17.0531L17.2727 6.15125H16.6818C16.3885 5.08136 16.0478 4.29522 15.6593 3.79425C15.2707 3.29232 14.7918 2.92964 14.2229 2.70379C13.6539 2.47843 12.7721 2.36598 11.5778 2.36598H6.52409Z" fill="url(#paint0_linear)"/>
<path d="M25.1148 8.09494V20.534C25.1148 21.5029 25.1847 22.1475 25.3253 22.469C25.466 22.7901 25.6746 23.0298 25.9507 23.1877C26.2273 23.3456 26.7311 23.4245 27.4637 23.4245V24.0327H19.9429V23.4245C20.697 23.4245 21.2047 23.3513 21.464 23.2044C21.7229 23.058 21.9286 22.8159 22.0812 22.4781C22.2329 22.1398 22.309 21.4919 22.309 20.5345V14.5683C22.309 12.8893 22.2583 11.8022 22.1573 11.3065C22.0784 10.9453 21.954 10.695 21.7855 10.5543C21.6166 10.4137 21.3855 10.3428 21.0922 10.3428C20.7774 10.3428 20.3936 10.4271 19.9434 10.596L19.7065 9.98782L24.3713 8.09494H25.1148ZM23.7119 0C24.1846 0 24.5875 0.166033 24.9201 0.498099C25.2526 0.830165 25.4191 1.23305 25.4191 1.70674C25.4191 2.17948 25.2521 2.58523 24.9201 2.92304C24.588 3.26133 24.1851 3.43023 23.7119 3.43023C23.2382 3.43023 22.8325 3.26133 22.4951 2.92304C22.1573 2.58523 21.9879 2.17948 21.9879 1.70674C21.9879 1.23305 22.154 0.830165 22.487 0.498099C22.8191 0.166033 23.2272 0 23.7119 0Z" fill="url(#paint1_linear)"/>
<path d="M33.9032 11.3738C35.7167 9.18853 37.4464 8.09473 39.0914 8.09473C39.9364 8.09473 40.6632 8.30621 41.2714 8.72871C41.88 9.15073 42.3642 9.84692 42.725 10.8158C42.9728 11.4915 43.0968 12.5283 43.0968 13.925V20.5333C43.0968 21.5133 43.1752 22.1783 43.3327 22.5281C43.4571 22.8095 43.6566 23.0291 43.9332 23.187C44.2092 23.3449 44.7188 23.4238 45.4624 23.4238V24.032H37.8067V23.4238H38.1273C38.8488 23.4238 39.3531 23.3138 39.6402 23.0937C39.9278 22.8741 40.1273 22.5506 40.2402 22.1224C40.2857 21.953 40.3082 21.4238 40.3082 20.5333V14.1958C40.3082 12.7872 40.1249 11.7652 39.7589 11.1283C39.3924 10.4919 38.7751 10.1737 37.9076 10.1737C36.5669 10.1737 35.2315 10.9063 33.9028 12.3709V20.5338C33.9028 21.5817 33.9645 22.23 34.0879 22.4774C34.2458 22.8042 34.4626 23.0434 34.7387 23.1951C35.0147 23.3473 35.5755 23.4238 36.42 23.4238V24.032H28.7643V23.4238H29.1026C29.8907 23.4238 30.4232 23.2233 30.6993 22.8233C30.9759 22.4238 31.1137 21.6606 31.1137 20.5338V14.7877C31.1137 12.9283 31.0711 11.7967 30.9869 11.391C30.9027 10.9852 30.7725 10.7096 30.5984 10.5627C30.4232 10.4163 30.1897 10.3431 29.8969 10.3431C29.5811 10.3431 29.2036 10.4273 28.7643 10.5962L28.5112 9.98808L33.1759 8.0952H33.9028V11.3738H33.9032Z" fill="url(#paint2_linear)"/>
<path d="M55.4675 21.8028C53.8794 23.0306 52.8818 23.7406 52.4765 23.932C51.8679 24.2134 51.2196 24.355 50.5329 24.355C49.4621 24.355 48.5807 23.989 47.8884 23.2559C47.1951 22.5234 46.8486 21.5607 46.8486 20.3664C46.8486 19.6113 47.0175 18.9577 47.3558 18.4056C47.8176 17.6395 48.62 16.9189 49.7645 16.2428C50.9081 15.5667 52.8091 14.7447 55.4685 13.7753V13.1667C55.4685 11.6231 55.2235 10.5637 54.7335 9.98955C54.2436 9.4149 53.5311 9.12733 52.5957 9.12733C51.8861 9.12733 51.3224 9.31968 50.9057 9.70198C50.4774 10.0857 50.2631 10.525 50.2631 11.0207L50.2966 12.0006C50.2966 12.5188 50.164 12.9188 49.8999 13.2002C49.6348 13.4825 49.2884 13.6231 48.8602 13.6231C48.4434 13.6231 48.1023 13.4767 47.8381 13.1839C47.5731 12.8906 47.4405 12.4906 47.4405 11.9843C47.4405 11.0154 47.9362 10.125 48.9281 9.31346C49.919 8.50195 51.3114 8.09668 53.1029 8.09668C54.4771 8.09668 55.6039 8.32779 56.4833 8.79C57.1479 9.13929 57.6379 9.68572 57.9537 10.4293C58.1561 10.914 58.2575 11.9059 58.2575 13.404V18.6601C58.2575 20.1357 58.2858 21.0406 58.3417 21.3726C58.3982 21.7047 58.4915 21.9277 58.6202 22.0396C58.7499 22.153 58.8997 22.209 59.0686 22.209C59.2485 22.209 59.4064 22.1693 59.5413 22.0903C59.7781 21.9439 60.2346 21.5329 60.9107 20.8568V21.8033C59.6485 23.4932 58.4432 24.3382 57.2934 24.3382C56.7417 24.3382 56.3025 24.1469 55.9757 23.7636C55.6484 23.3798 55.4785 22.7267 55.4675 21.8028ZM55.4675 20.7037V14.8059C53.766 15.482 52.6679 15.9605 52.1722 16.2423C51.2818 16.738 50.6449 17.2562 50.2621 17.7969C49.8793 18.3376 49.6875 18.9295 49.6875 19.5711C49.6875 20.3826 49.9296 21.0559 50.4143 21.5913C50.898 22.1267 51.4564 22.3942 52.0875 22.3942C52.944 22.3942 54.0708 21.831 55.4675 20.7037Z" fill="#6D6D6D"/>
<path d="M66.5722 11.3738C68.3856 9.18853 70.1153 8.09473 71.7604 8.09473C72.6053 8.09473 73.3322 8.30621 73.9403 8.72871C74.5489 9.15073 75.0332 9.84692 75.3939 10.8158C75.6418 11.4915 75.7657 12.5283 75.7657 13.925V20.5333C75.7657 21.5133 75.8442 22.1783 76.0016 22.5281C76.126 22.8095 76.3255 23.0291 76.6021 23.187C76.8782 23.3449 77.3878 23.4238 78.1313 23.4238V24.032H70.4756V23.4238H70.7962C71.5178 23.4238 72.0221 23.3138 72.3092 23.0937C72.5967 22.8741 72.7963 22.5506 72.9092 22.1224C72.9546 21.953 72.9771 21.4238 72.9771 20.5333V14.1958C72.9771 12.7872 72.7939 11.7652 72.4278 11.1283C72.0613 10.4919 71.4441 10.1737 70.5766 10.1737C69.2359 10.1737 67.9004 10.9063 66.5717 12.3709V20.5338C66.5717 21.5817 66.6334 22.23 66.7569 22.4774C66.9148 22.8042 67.1315 23.0434 67.4076 23.1951C67.6837 23.3473 68.2445 23.4238 69.089 23.4238V24.032H61.4333V23.4238H61.7716C62.5596 23.4238 63.0922 23.2233 63.3683 22.8233C63.6448 22.4238 63.7826 21.6606 63.7826 20.5338V14.7877C63.7826 12.9283 63.74 11.7967 63.6558 11.391C63.5716 10.9852 63.4415 10.7096 63.2673 10.5627C63.0922 10.4163 62.8587 10.3431 62.5659 10.3431C62.2501 10.3431 61.8725 10.4273 61.4333 10.5962L61.1802 9.98808L65.8449 8.0952H66.5717V11.3738H66.5722Z" fill="#6D6D6D"/>
<path d="M83.861 3.46484V8.55205H87.4783V9.73534H83.861V19.7744C83.861 20.7772 84.005 21.4533 84.2921 21.8026C84.5796 22.1519 84.9481 22.3266 85.3993 22.3266C85.7711 22.3266 86.1318 22.2113 86.4811 21.9802C86.8304 21.7495 87.1007 21.4084 87.2926 20.9581H87.9515C87.5577 22.0624 86.9993 22.8931 86.2787 23.4505C85.5572 24.0084 84.8131 24.2874 84.0471 24.2874C83.5289 24.2874 83.0217 24.1438 82.526 23.8563C82.0303 23.5692 81.6638 23.1582 81.4279 22.6228C81.191 22.0873 81.0728 21.2624 81.0728 20.1471V9.73534H78.6216V9.17743C79.2412 8.92958 79.8747 8.50947 80.5231 7.91855C81.1709 7.32667 81.7489 6.62521 82.2556 5.81419C82.515 5.38595 82.8753 4.60363 83.3375 3.46484H83.861Z" fill="#6D6D6D"/>
<path d="M94.3069 0.000478446V20.5345C94.3069 21.5034 94.3767 22.146 94.5174 22.4613C94.6581 22.7771 94.8748 23.0164 95.1682 23.18C95.4615 23.3432 96.0074 23.425 96.8079 23.425V24.0332H89.2192V23.425C89.9288 23.425 90.4135 23.3518 90.6723 23.2049C90.9317 23.0585 91.1341 22.8164 91.281 22.4786C91.4274 22.1403 91.5006 21.4924 91.5006 20.535V6.47289C91.5006 4.72692 91.4609 3.6532 91.3824 3.25367C91.3035 2.85366 91.1767 2.58045 91.002 2.43356C90.8269 2.28714 90.6044 2.21393 90.3341 2.21393C90.0408 2.21393 89.669 2.30437 89.2187 2.48427L88.9312 1.89239L93.5451 0H94.3069V0.000478446Z" fill="#6D6D6D"/>
<path d="M101.202 14.3821C101.191 16.6807 101.749 18.4832 102.876 19.7909C104.002 21.0976 105.326 21.7512 106.847 21.7512C107.861 21.7512 108.743 21.4727 109.492 20.9143C110.241 20.3564 110.87 19.4014 111.377 18.0492L111.901 18.3875C111.664 19.9311 110.977 21.3368 109.839 22.6039C108.701 23.8714 107.276 24.5053 105.563 24.5053C103.704 24.5053 102.113 23.7819 100.789 22.3335C99.465 20.8861 98.8032 18.9392 98.8032 16.4946C98.8032 13.8472 99.4812 11.782 100.84 10.3007C102.197 8.81881 103.901 8.07812 105.952 8.07812C107.687 8.07812 109.113 8.64991 110.228 9.79348C111.343 10.937 111.901 12.4668 111.901 14.3821H101.202ZM101.202 13.4022H108.368C108.312 12.4113 108.194 11.7122 108.013 11.3069C107.732 10.6753 107.312 10.1801 106.754 9.81932C106.196 9.45902 105.613 9.27863 105.005 9.27863C104.07 9.27863 103.233 9.6418 102.496 10.3686C101.757 11.0949 101.327 12.106 101.202 13.4022Z" fill="#6D6D6D"/>
<path d="M118.492 8.09568V11.5776C119.787 9.25648 121.116 8.09568 122.48 8.09568C123.099 8.09568 123.613 8.2842 124.019 8.66173C124.424 9.03925 124.627 9.47562 124.627 9.97133C124.627 10.4115 124.48 10.7828 124.187 11.0871C123.894 11.391 123.545 11.5427 123.14 11.5427C122.745 11.5427 122.303 11.3484 121.813 10.9599C121.323 10.5709 120.96 10.3766 120.723 10.3766C120.52 10.3766 120.3 10.49 120.064 10.7149C119.557 11.1766 119.033 11.9374 118.492 12.9963V20.4161C118.492 21.2721 118.599 21.92 118.813 22.3592C118.96 22.664 119.219 22.9171 119.59 23.1195C119.962 23.3229 120.497 23.4243 121.196 23.4243V24.0325H113.269V23.4243C114.058 23.4243 114.644 23.2999 115.027 23.0525C115.309 22.8721 115.506 22.5851 115.619 22.1903C115.676 21.9989 115.704 21.4525 115.704 20.551V14.5509C115.704 12.7484 115.667 11.6752 115.593 11.3317C115.52 10.9876 115.385 10.7374 115.188 10.5795C114.99 10.4216 114.745 10.3426 114.453 10.3426C114.103 10.3426 113.709 10.4268 113.269 10.5957L113.101 9.9876L117.783 8.09473H118.492V8.09568Z" fill="#6D6D6D"/>
<defs>
<linearGradient id="paint0_linear" x1="-4.78481e-05" y1="12.5739" x2="17.2725" y2="12.5739" gradientUnits="userSpaceOnUse">
<stop stop-color="#085FAB"/>
<stop offset="1" stop-color="#085FAB"/>
</linearGradient>
<linearGradient id="paint1_linear" x1="19.7063" y1="12.0163" x2="27.4636" y2="12.0163" gradientUnits="userSpaceOnUse">
<stop stop-color="#085FAB"/>
<stop offset="1" stop-color="#085FAB"/>
</linearGradient>
<linearGradient id="paint2_linear" x1="28.5119" y1="16.0636" x2="45.4632" y2="16.0636" gradientUnits="userSpaceOnUse">
<stop stop-color="#085FAB"/>
<stop offset="1" stop-color="#085FAB"/>
</linearGradient>
</defs>
</svg>
