<svg width="66" height="37" viewBox="0 0 66 37" fill="none" xmlns="http://www.w3.org/2000/svg">
<path d="M34.4791 26.0515C34.6429 25.4049 34.7929 24.8143 34.9421 24.2228C35.0291 23.8762 35.0283 23.8762 35.3611 23.8762C35.6232 23.8762 35.8853 23.8762 36.1759 23.8762C36.1138 24.1133 36.0578 24.3306 36 24.547C35.6879 25.7084 35.374 26.8689 35.0671 28.032C35.0378 28.1432 35.0266 28.2769 35.055 28.3864C35.1473 28.7347 35.2378 29.0891 35.3766 29.4184C35.5034 29.7211 35.7319 29.9384 36.0819 29.909C36.4596 29.878 36.6846 29.6418 36.7993 29.2762C36.8329 29.1675 36.8553 29.0555 36.8872 28.9279C36.9639 28.9279 37.0502 28.9279 37.1623 28.9279C37.1209 29.509 37.0493 30.0737 36.6337 30.5066C36.2768 30.8782 35.7336 30.8592 35.3533 30.4781C35.0136 30.1384 34.8653 29.6944 34.7532 29.2322C34.7343 29.1546 34.7188 29.0753 34.6972 28.9744C34.6713 29.021 34.6524 29.0477 34.6412 29.077C34.1661 30.2945 33.1038 30.8963 31.8157 30.754C30.4232 30.6005 29.574 29.7538 29.2791 28.2458C29.0359 26.9982 29.2265 25.8196 29.9387 24.778C30.5465 23.8891 31.4294 23.6132 32.4279 23.6899C32.7762 23.7167 33.0642 23.9245 33.322 24.1667C33.8126 24.6254 34.1247 25.2117 34.3868 25.8325C34.4101 25.886 34.4325 25.942 34.4791 26.0515ZM30.537 27.1681C30.5802 27.682 30.5948 28.0544 30.6457 28.4209C30.7104 28.8916 30.8414 29.3434 31.1234 29.7288C31.6062 30.3858 32.3942 30.4721 32.9711 29.9073C33.159 29.7237 33.3375 29.4935 33.4341 29.2477C33.7117 28.5381 33.9488 27.8113 34.1945 27.0879C34.2247 26.9991 34.2351 26.8784 34.2032 26.7939C34.0195 26.2929 33.8566 25.7765 33.6151 25.3066C33.4548 24.9962 33.2047 24.716 32.9417 24.4918C32.4701 24.0891 31.8761 24.1262 31.4027 24.5263C31.0966 24.7841 30.8819 25.1212 30.8 25.5144C30.6785 26.1033 30.6086 26.7051 30.537 27.1681Z" fill="#6D6D6D"/>
<path fill-rule="evenodd" clip-rule="evenodd" d="M32.9003 18.4102C33.0557 18.2856 33.2762 18.2837 33.4338 18.4055L40.678 24.009C40.788 24.0941 40.8502 24.227 40.8451 24.366L40.4143 24.35C40.8451 24.366 40.8451 24.3662 40.845 24.3664L40.845 24.3671L40.845 24.3689L40.8447 24.3751L40.8437 24.3972C40.8427 24.4161 40.8413 24.4434 40.8391 24.4786C40.8347 24.549 40.8275 24.651 40.8158 24.7808C40.7924 25.0403 40.7512 25.4113 40.6799 25.8629C40.5375 26.7649 40.2738 27.9945 39.7878 29.3015C38.8184 31.9085 36.9385 34.8858 33.3115 36.112C33.2246 36.1414 33.1305 36.1422 33.043 36.1145L33.1734 35.7036C33.043 36.1145 33.0428 36.1144 33.0425 36.1143L33.0418 36.1141L33.0399 36.1135L33.0342 36.1116L33.0156 36.1054C32.9999 36.1001 32.9778 36.0925 32.9498 36.0824C32.8937 36.0622 32.8137 36.0321 32.713 35.991C32.5118 35.9088 32.2277 35.7822 31.8876 35.6022C31.2078 35.2425 30.3006 34.6672 29.3826 33.8021C27.539 32.0645 25.6712 29.174 25.4949 24.5735C25.4897 24.437 25.5495 24.3061 25.656 24.2207L32.9003 18.4102ZM33.1754 35.2466C36.3644 34.1092 38.0685 31.4514 38.9796 29.001C39.4405 27.7614 39.6921 26.5904 39.8282 25.7284C39.8962 25.298 39.9351 24.9462 39.957 24.7034C39.9622 24.6465 39.9663 24.5957 39.9697 24.5512L33.1748 19.2953L26.3662 24.7563C26.5818 28.9837 28.3077 31.6042 29.974 33.1746C30.825 33.9767 31.6654 34.5091 32.2909 34.8402C32.6034 35.0055 32.8615 35.1202 33.0392 35.1928C33.0919 35.2144 33.1375 35.2322 33.1754 35.2466Z" fill="#085FAB"/>
<path d="M63.7874 0C62.6752 0 61.7725 0.901869 61.7725 2.01498C61.7725 3.12723 62.6743 4.02996 63.7874 4.02996C64.9005 4.02996 65.8024 3.12809 65.8024 2.01498C65.8016 0.901869 64.8997 0 63.7874 0ZM63.7874 3.13671C63.1675 3.13671 62.6657 2.63404 62.6657 2.01498C62.6657 1.39505 63.1684 0.893247 63.7874 0.893247C64.4065 0.893247 64.9092 1.39591 64.9092 2.01498C64.9092 2.63404 64.4065 3.13671 63.7874 3.13671Z" fill="#085FAB"/>
<path d="M58.6815 2.78125C57.5692 2.78125 56.6665 3.68312 56.6665 4.79623C56.6665 5.90848 57.5684 6.81121 58.6815 6.81121C59.7946 6.81121 60.6965 5.90934 60.6965 4.79623C60.6956 3.68398 59.7937 2.78125 58.6815 2.78125ZM58.6815 5.91796C58.0615 5.91796 57.5597 5.41529 57.5597 4.79623C57.5597 4.1763 58.0624 3.6745 58.6815 3.6745C59.3005 3.6745 59.8032 4.17716 59.8032 4.79623C59.8032 5.41616 59.3005 5.91796 58.6815 5.91796Z" fill="#085FAB"/>
<path d="M52.8045 7.39648C51.6923 7.39648 50.7896 8.29835 50.7896 9.41146C50.7896 10.5237 51.6914 11.4264 52.8045 11.4264C53.9176 11.4264 54.8195 10.5246 54.8195 9.41146C54.8195 8.29835 53.9176 7.39648 52.8045 7.39648ZM52.8045 10.5332C52.1846 10.5332 51.6828 10.0305 51.6828 9.41146C51.6828 8.79154 52.1855 8.28973 52.8045 8.28973C53.4236 8.28973 53.9263 8.7924 53.9263 9.41146C53.9271 10.0305 53.4245 10.5332 52.8045 10.5332Z" fill="#085FAB"/>
<path d="M50.7264 2.34863C49.6142 2.34863 48.7114 3.2505 48.7114 4.36361C48.7114 5.47586 49.6133 6.37859 50.7264 6.37859C51.8395 6.37859 52.7414 5.47672 52.7414 4.36361C52.7405 3.2505 51.8387 2.34863 50.7264 2.34863ZM50.7264 5.48534C50.1065 5.48534 49.6047 4.98268 49.6047 4.36361C49.6047 3.74368 50.1073 3.24188 50.7264 3.24188C51.3463 3.24188 51.8481 3.74455 51.8481 4.36361C51.8481 4.98268 51.3455 5.48534 50.7264 5.48534Z" fill="#085FAB"/>
<path d="M44.6727 6.6377C43.5605 6.6377 42.6577 7.53956 42.6577 8.65267C42.6577 9.76492 43.5596 10.6677 44.6727 10.6677C45.7858 10.6677 46.6877 9.76578 46.6877 8.65267C46.6877 7.53956 45.7849 6.6377 44.6727 6.6377ZM44.6727 9.77441C44.0528 9.77441 43.551 9.27174 43.551 8.65267C43.551 8.03275 44.0536 7.53094 44.6727 7.53094C45.2918 7.53094 45.7944 8.03361 45.7944 8.65267C45.7944 9.27174 45.2918 9.77441 44.6727 9.77441Z" fill="#085FAB"/>
<path fill-rule="evenodd" clip-rule="evenodd" d="M63.4094 3.12372C63.6305 3.21215 63.738 3.46304 63.6496 3.6841L58.9075 15.5395L58.6734 15.7771L41.9319 22.7739C41.7122 22.8657 41.4597 22.7621 41.3679 22.5424C41.2761 22.3227 41.3798 22.0702 41.5995 21.9784L58.1741 15.0513L62.8491 3.36388C62.9375 3.14282 63.1884 3.0353 63.4094 3.12372Z" fill="#085FAB"/>
<path fill-rule="evenodd" clip-rule="evenodd" d="M52.1821 10.5134C52.4032 10.6018 52.5107 10.8527 52.4223 11.0737L50.3581 16.2341L50.1189 16.4738L39.2681 20.8444C39.0472 20.9333 38.7961 20.8264 38.7071 20.6055C38.6182 20.3847 38.7251 20.1336 38.9459 20.0446L49.626 15.7429L51.6217 10.7535C51.7102 10.5325 51.9611 10.4249 52.1821 10.5134Z" fill="#085FAB"/>
<path fill-rule="evenodd" clip-rule="evenodd" d="M58.4488 6.1181C58.6719 6.20127 58.7854 6.44954 58.7022 6.67264L56.0966 13.6617L55.8697 13.9042L52.9813 15.2052C52.7642 15.303 52.509 15.2063 52.4112 14.9892C52.3134 14.7721 52.4101 14.5169 52.6272 14.4191L55.3515 13.1919L57.8943 6.37145C57.9775 6.14835 58.2257 6.03492 58.4488 6.1181Z" fill="#085FAB"/>
<path fill-rule="evenodd" clip-rule="evenodd" d="M50.3101 5.97456C50.5332 6.05775 50.6466 6.30604 50.5634 6.52912L47.6207 14.42L47.3624 14.6752L44.5232 15.6943C44.2991 15.7747 44.0522 15.6583 43.9718 15.4342C43.8913 15.2101 44.0078 14.9632 44.2319 14.8828L46.8828 13.9313L49.7555 6.22785C49.8387 6.00477 50.087 5.89136 50.3101 5.97456Z" fill="#085FAB"/>
<path fill-rule="evenodd" clip-rule="evenodd" d="M44.2701 9.86516C44.4932 9.94831 44.6067 10.1966 44.5235 10.4197L42.3482 16.256L42.1061 16.505L36.7518 18.6743C36.5311 18.7637 36.2798 18.6573 36.1904 18.4366C36.1009 18.2159 36.2074 17.9646 36.428 17.8752L41.6065 15.7771L43.7156 10.1185C43.7988 9.89545 44.047 9.782 44.2701 9.86516Z" fill="#085FAB"/>
<path d="M0.756348 2.07748C0.756348 3.18973 1.65822 4.09246 2.77133 4.09246C3.88444 4.09246 4.78631 3.19059 4.78631 2.07748C4.78631 0.965231 3.88444 0.0625 2.77133 0.0625C1.65822 0.0625 0.756348 0.965231 0.756348 2.07748ZM1.6496 2.07748C1.6496 1.45755 2.15226 0.955747 2.77133 0.955747C3.39125 0.955747 3.89306 1.45841 3.89306 2.07748C3.89306 2.69741 3.39039 3.19921 2.77133 3.19921C2.1514 3.19921 1.6496 2.69741 1.6496 2.07748Z" fill="#085FAB"/>
<path d="M5.8623 4.86068C5.8623 5.97293 6.76417 6.87566 7.87728 6.87566C8.99039 6.87566 9.89226 5.97379 9.89226 4.86068C9.89226 3.74843 8.99039 2.8457 7.87728 2.8457C6.76417 2.8457 5.8623 3.74843 5.8623 4.86068ZM6.75555 4.86068C6.75555 4.24076 7.25822 3.73895 7.87728 3.73895C8.49721 3.73895 8.99902 4.24162 8.99902 4.86068C8.99902 5.48061 8.49635 5.98241 7.87728 5.98241C7.25736 5.98328 6.75555 5.48061 6.75555 4.86068Z" fill="#085FAB"/>
<path d="M11.7378 9.47396C11.7378 10.5862 12.6397 11.4889 13.7528 11.4889C14.8659 11.4889 15.7678 10.5871 15.7678 9.47396C15.7678 8.36172 14.8659 7.45898 13.7528 7.45898C12.6397 7.45898 11.7378 8.36085 11.7378 9.47396ZM12.631 9.47396C12.631 8.85404 13.1337 8.35223 13.7528 8.35223C14.3718 8.35223 14.8745 8.8549 14.8745 9.47396C14.8745 10.0939 14.3718 10.5957 13.7528 10.5957C13.1337 10.5957 12.631 10.093 12.631 9.47396Z" fill="#085FAB"/>
<path d="M13.8169 4.42611C13.8169 5.53836 14.7188 6.44109 15.8319 6.44109C16.9441 6.44109 17.8468 5.53922 17.8468 4.42611C17.8468 3.31386 16.945 2.41113 15.8319 2.41113C14.7188 2.41113 13.8169 3.31386 13.8169 4.42611ZM14.7101 4.42611C14.7101 3.80618 15.2128 3.30438 15.8319 3.30438C16.4518 3.30438 16.9536 3.80705 16.9536 4.42611C16.9536 5.04604 16.4509 5.54784 15.8319 5.54784C15.212 5.54784 14.7101 5.04604 14.7101 4.42611Z" fill="#085FAB"/>
<path d="M19.8706 8.71517C19.8706 9.82742 20.7725 10.7302 21.8856 10.7302C22.9987 10.7302 23.9006 9.82828 23.9006 8.71517C23.9006 7.60293 22.9987 6.7002 21.8856 6.7002C20.7725 6.7002 19.8706 7.60206 19.8706 8.71517ZM20.763 8.71517C20.763 8.09525 21.2657 7.59344 21.8847 7.59344C22.5038 7.59344 23.0065 8.09611 23.0065 8.71517C23.0065 9.3351 22.5038 9.83691 21.8847 9.83691C21.2657 9.83691 20.763 9.33424 20.763 8.71517Z" fill="#085FAB"/>
<path fill-rule="evenodd" clip-rule="evenodd" d="M3.14953 3.18622C3.37059 3.0978 3.62148 3.20532 3.70991 3.42638L8.38488 15.1138L24.9587 22.0409C25.1783 22.1327 25.282 22.3852 25.1902 22.6049C25.0984 22.8246 24.8458 22.9282 24.6262 22.8364L7.88553 15.8396L7.65151 15.602L2.90937 3.7466C2.82094 3.52554 2.92847 3.27465 3.14953 3.18622Z" fill="#085FAB"/>
<path fill-rule="evenodd" clip-rule="evenodd" d="M14.3761 10.5778C14.5971 10.4894 14.848 10.5969 14.9365 10.818L16.9322 15.8065L27.6123 20.1082C27.8331 20.1971 27.9401 20.4483 27.8511 20.6691C27.7621 20.89 27.511 20.9969 27.2901 20.908L16.4393 16.5374L16.2001 16.2977L14.1359 11.1382C14.0475 10.9172 14.155 10.6663 14.3761 10.5778Z" fill="#085FAB"/>
<path fill-rule="evenodd" clip-rule="evenodd" d="M8.10826 6.1806C8.33136 6.09742 8.57963 6.21085 8.6628 6.43395L11.2055 13.2544L13.9299 14.4816C14.147 14.5794 14.2437 14.8346 14.1459 15.0517C14.0481 15.2688 13.7929 15.3655 13.5758 15.2677L10.6874 13.9667L10.4605 13.7242L7.85491 6.73514C7.77174 6.51204 7.88517 6.26377 8.10826 6.1806Z" fill="#085FAB"/>
<path fill-rule="evenodd" clip-rule="evenodd" d="M16.2489 6.03704C16.472 5.95387 16.7203 6.06731 16.8034 6.2904L19.6753 13.9946L22.3261 14.9452C22.5502 15.0256 22.6668 15.2725 22.5864 15.4966C22.506 15.7207 22.2592 15.8372 22.0351 15.7568L19.1958 14.7386L18.9374 14.4834L15.9955 6.59157C15.9124 6.36847 16.0258 6.1202 16.2489 6.03704Z" fill="#085FAB"/>
<path fill-rule="evenodd" clip-rule="evenodd" d="M22.2889 9.92962C22.512 9.84645 22.7603 9.95988 22.8435 10.183L24.9526 15.8407L30.1311 17.9396C30.3518 18.0291 30.4582 18.2804 30.3687 18.5011C30.2793 18.7218 30.0279 18.8281 29.8072 18.7387L24.4529 16.5685L24.2109 16.3196L22.0356 10.4841C21.9524 10.2611 22.0658 10.0128 22.2889 9.92962Z" fill="#085FAB"/>
</svg>
