<svg width="29" height="29" viewBox="0 0 29 29" fill="none" xmlns="http://www.w3.org/2000/svg">
<rect width="29" height="29" rx="5" fill="#F5FAFF"/>
<path d="M16.9454 13.7765C16.8604 13.607 16.6874 13.5 16.4979 13.5H15.4979V8.49999C15.4979 8.22399 15.2744 8 14.9979 8C14.7214 8 14.4979 8.22399 14.4979 8.49999V13.5H13.4979C13.3084 13.5 13.1354 13.607 13.0504 13.7765C12.9664 13.946 12.9844 14.1485 13.0979 14.3L14.5979 16.3C14.6044 16.3085 14.6144 16.3115 14.6214 16.3195C14.6544 16.3585 14.6934 16.3885 14.7369 16.416C14.7549 16.427 14.7689 16.4415 14.7884 16.4505C14.8524 16.4805 14.9224 16.5 14.9979 16.5C15.0734 16.5 15.1434 16.4805 15.2079 16.4505C15.2269 16.4415 15.2414 16.427 15.2589 16.416C15.3024 16.3885 15.3414 16.3585 15.3744 16.3195C15.3809 16.3115 15.3914 16.3085 15.3979 16.3L16.8979 14.3C17.0119 14.1485 17.0299 13.946 16.9454 13.7765Z" fill="#085FAB"/>
<path d="M20.5 15.5C20.2235 15.5 20 15.724 20 16V17.5C20 18.327 19.327 19 18.5 19H11.5C10.673 19 10 18.327 10 17.5V16C10 15.724 9.77651 15.5 9.50002 15.5C9.2235 15.5 9 15.724 9 16V17.5C9 18.8785 10.1215 20 11.5 20H18.5C19.8785 20 21 18.8785 21 17.5V16C21 15.724 20.7765 15.5 20.5 15.5Z" fill="#085FAB"/>
</svg>
