<svg width="35" height="33" viewBox="0 0 35 33" fill="none" xmlns="http://www.w3.org/2000/svg">
<rect width="29" height="29" rx="5" fill="#F5FAFF"/>
<mask id="path-2-inside-1" fill="white">
<path fill-rule="evenodd" clip-rule="evenodd" d="M11 6C9.34315 6 8 7.34315 8 9V21.7059H8.06037L14.3574 16.2213L20.6544 21.7059H20.7143V9C20.7143 7.34315 19.3711 6 17.7143 6H11Z"/>
</mask>
<path d="M8 21.7059H7V22.7059H8V21.7059ZM8.06037 21.7059V22.7059H8.43481L8.71716 22.46L8.06037 21.7059ZM14.3574 16.2213L15.0142 15.4673L14.3574 14.8952L13.7006 15.4673L14.3574 16.2213ZM20.6544 21.7059L19.9976 22.46L20.28 22.7059H20.6544V21.7059ZM20.7143 21.7059V22.7059H21.7143V21.7059H20.7143ZM9 9C9 7.89543 9.89543 7 11 7V5C8.79086 5 7 6.79086 7 9H9ZM9 21.7059V9H7V21.7059H9ZM8.06037 20.7059H8V22.7059H8.06037V20.7059ZM8.71716 22.46L15.0142 16.9754L13.7006 15.4673L7.40359 20.9518L8.71716 22.46ZM13.7006 16.9754L19.9976 22.46L21.3112 20.9518L15.0142 15.4673L13.7006 16.9754ZM20.7143 20.7059H20.6544V22.7059H20.7143V20.7059ZM19.7143 9V21.7059H21.7143V9H19.7143ZM17.7143 7C18.8189 7 19.7143 7.89543 19.7143 9H21.7143C21.7143 6.79086 19.9234 5 17.7143 5V7ZM11 7H17.7143V5H11V7Z" fill="#085FAB" mask="url(#path-2-inside-1)"/>
<circle cx="29" cy="27" r="6" fill="#085FAB"/>
<path d="M31.8713 25.1084C31.6942 24.9216 31.3989 24.9134 31.2119 25.091L28.2344 27.9148L26.8142 26.4566C26.6343 26.2721 26.3394 26.268 26.1547 26.4479C25.9701 26.6276 25.9662 26.9229 26.146 27.1074L27.8872 28.8952C27.9785 28.9889 28.0997 29.0362 28.2213 29.0362C28.3367 29.0362 28.452 28.9936 28.5424 28.9082L31.8539 25.7677C32.0407 25.5905 32.0486 25.2953 31.8713 25.1084Z" fill="#F5FAFF"/>
</svg>
