<svg width="29" height="29" viewBox="0 0 29 29" fill="none" xmlns="http://www.w3.org/2000/svg">
<rect width="29" height="29" rx="5" fill="#F5FAFF"/>
<path d="M21.3003 17.2082V13.8696C21.4349 13.8229 21.5587 13.7469 21.6639 13.6465C21.7691 13.5462 21.8533 13.4236 21.9112 13.2868C21.9691 13.15 21.9993 13.0018 22 12.8519C22.0007 12.702 21.9718 12.5536 21.9151 12.4161C21.8585 12.2787 21.7754 12.1554 21.6711 12.0539C21.5669 11.9525 21.4437 11.8752 21.3096 11.8271C21.1755 11.779 21.0334 11.7611 20.8924 11.7745C20.7514 11.7879 20.6145 11.8324 20.4907 11.905L18.3199 9.58623C18.3864 9.45465 18.4263 9.30986 18.4371 9.16107C18.448 9.01227 18.4295 8.86271 18.3828 8.72189C18.3362 8.58106 18.2624 8.45205 18.1661 8.34303C18.0699 8.23402 17.9533 8.14738 17.8237 8.08864C17.6942 8.02989 17.5545 8.0003 17.4136 8.00176C17.2726 8.00322 17.1335 8.0357 17.0051 8.09712C16.8766 8.15855 16.7616 8.24758 16.6674 8.35857C16.5732 8.46956 16.5018 8.60008 16.4578 8.74184H12.5422C12.4988 8.60105 12.4283 8.47129 12.3353 8.36065C12.2422 8.25002 12.1287 8.16091 12.0016 8.09889C11.8746 8.03688 11.7368 8.00329 11.597 8.00023C11.4571 7.99717 11.3182 8.02471 11.1888 8.08112C11.0595 8.13753 10.9425 8.2216 10.8452 8.32807C10.748 8.43454 10.6725 8.56112 10.6236 8.69989C10.5746 8.83866 10.5533 8.98662 10.5608 9.13454C10.5683 9.28245 10.6046 9.42712 10.6674 9.55951L8.47187 11.8841C8.34561 11.8172 8.20756 11.7788 8.06652 11.7715C7.92548 11.7641 7.78455 11.788 7.6527 11.8415C7.52085 11.8951 7.40097 11.9771 7.30072 12.0824C7.20046 12.1877 7.12202 12.3139 7.07039 12.4531C7.01876 12.5923 6.99508 12.7413 7.00085 12.8907C7.00662 13.0401 7.04172 13.1866 7.10392 13.3209C7.16611 13.4551 7.25403 13.5741 7.36208 13.6704C7.47012 13.7667 7.59592 13.8381 7.73146 13.88V15.3135C7.59246 15.3565 7.46375 15.4305 7.35394 15.5305C7.24413 15.6305 7.15576 15.7541 7.09475 15.8932C7.03373 16.0323 7.00148 16.1836 7.00015 16.3369C6.99883 16.4903 7.02845 16.6421 7.08705 16.7824C7.14564 16.9226 7.23186 17.048 7.33991 17.1501C7.44797 17.2522 7.57538 17.3286 7.71361 17.3744C7.85185 17.4201 7.99771 17.434 8.14144 17.4153C8.28517 17.3965 8.42345 17.3454 8.54702 17.2654L8.92425 17.679C8.84961 17.8113 8.80267 17.959 8.78661 18.1122C8.77054 18.2654 8.78573 18.4205 8.83114 18.5669C8.87655 18.7134 8.95113 18.8478 9.04983 18.9611C9.14853 19.0743 9.26905 19.1639 9.40325 19.2236C9.53744 19.2833 9.68218 19.3118 9.82767 19.3072C9.97317 19.3025 10.116 19.2649 10.2466 19.1967C10.3771 19.1286 10.4924 19.0315 10.5845 18.9122C10.6766 18.7928 10.7434 18.6539 10.7804 18.5048L13.6475 18.5188C13.685 18.662 13.7501 18.7954 13.8387 18.9106C13.9273 19.0258 14.0374 19.1203 14.1622 19.1883C14.2869 19.2562 14.4236 19.2961 14.5636 19.3054C14.7037 19.3147 14.844 19.2932 14.9758 19.2423L15.6265 20.2331C15.5293 20.3564 15.4593 20.5012 15.4218 20.6568C15.3843 20.8125 15.3802 20.975 15.4097 21.1326C15.4392 21.2902 15.5017 21.4387 15.5925 21.5674C15.6833 21.6961 15.8002 21.8016 15.9346 21.8762C16.0689 21.9508 16.2173 21.9927 16.3689 21.9987C16.5205 22.0047 16.6714 21.9746 16.8107 21.9108C16.9499 21.847 17.0738 21.751 17.1735 21.6298C17.2731 21.5087 17.3458 21.3655 17.3864 21.2107H19.2404C19.2843 21.3787 19.3662 21.533 19.4789 21.6601C19.5916 21.7873 19.7318 21.8836 19.8874 21.9407C20.043 21.9978 20.2094 22.014 20.3722 21.9879C20.535 21.9618 20.6895 21.8943 20.8222 21.791C20.9549 21.6878 21.0619 21.5519 21.1341 21.3952C21.2063 21.2384 21.2414 21.0655 21.2365 20.8912C21.2316 20.7169 21.1867 20.5464 21.1058 20.3945C21.0249 20.2426 20.9104 20.1138 20.772 20.0192L20.9917 19.3073C21.2327 19.305 21.465 19.2121 21.6473 19.0453C21.8296 18.8785 21.9501 18.6485 21.9871 18.3964C22.0242 18.1443 21.9755 17.8864 21.8497 17.6688C21.7239 17.4512 21.5292 17.2879 21.3003 17.2082ZM16.4066 19.846C16.281 19.8459 16.1564 19.8707 16.0393 19.9189L15.3943 18.9366C15.4922 18.8175 15.5642 18.6771 15.6052 18.5252L20.0066 18.532C20.0086 18.5393 20.0105 18.5466 20.0126 18.5539L17.1586 20.1986C17.0634 20.0875 16.9474 19.9987 16.8179 19.938C16.6884 19.8772 16.5483 19.8459 16.4066 19.846ZM14.0038 17.381L11.9992 15.7019C12.0158 15.6619 12.0301 15.6208 12.042 15.579H13.9073C13.9534 15.7403 14.0344 15.888 14.144 16.0103C14.2535 16.1326 14.3886 16.2261 14.5383 16.2833L14.468 17.1675C14.2987 17.1959 14.1389 17.2693 14.0038 17.381ZM9.79698 17.154C9.61737 17.1539 9.44097 17.2044 9.28594 17.3005L8.90102 16.8784C8.98851 16.7165 9.03447 16.5331 9.03433 16.3465C9.03427 16.3062 9.03208 16.2659 9.02778 16.2258L10.2204 15.8635C10.2854 15.9672 10.3667 16.0583 10.4609 16.1327L9.98393 17.1725C9.92228 17.1603 9.8597 17.1541 9.79698 17.154ZM8.67086 13.6712L10.1318 14.8497C10.0785 14.9825 10.0511 15.1254 10.0512 15.2697C10.0512 15.298 10.0526 15.326 10.0546 15.3538L8.84465 15.7214C8.69923 15.5058 8.48397 15.3543 8.2399 15.296V13.8975C8.39861 13.8597 8.54643 13.7821 8.67086 13.6712ZM11.5765 10.1551C11.6396 10.155 11.7025 10.1487 11.7645 10.1364L12.2311 11.184C12.021 11.3537 11.8814 11.6034 11.842 11.8801L8.92171 12.3552C8.90217 12.315 8.88026 12.2761 8.85612 12.2388L11.0023 9.96629C11.1712 10.0894 11.3714 10.1553 11.5765 10.1551ZM13.844 12.2548H15.156C15.2057 12.5105 15.3413 12.7384 15.5376 12.8963L15.0275 14.2042C14.8628 14.1788 14.6948 14.1966 14.5381 14.2562L13.6222 12.736C13.7333 12.598 13.8096 12.4324 13.844 12.2548ZM17.4235 10.1551C17.6192 10.1553 17.8107 10.0953 17.9748 9.98237L20.1214 12.2753C20.0931 12.3228 20.0683 12.3726 20.0474 12.4243L17.1598 11.8943C17.124 11.6176 16.9881 11.3664 16.7808 11.1938L17.2277 10.1349C17.2922 10.1483 17.3578 10.1551 17.4235 10.1551ZM19.9909 17.9936L15.6174 17.9868C15.6075 17.9419 15.595 17.8977 15.5798 17.8545L17.8137 16.1167C17.9647 16.2424 18.1463 16.3202 18.3373 16.3409C18.5284 16.3616 18.7211 16.3244 18.893 16.2336L20.1368 17.6339C20.0677 17.7433 20.0182 17.8652 19.9909 17.9936ZM15.8748 15.0406C15.823 14.7903 15.6888 14.5678 15.4962 14.4128L16.0063 13.1049C16.0547 13.1124 16.1035 13.1161 16.1524 13.1162C16.2929 13.1163 16.4318 13.0853 16.5604 13.0253L17.6358 14.6123C17.5436 14.7384 17.479 14.8846 17.4469 15.0405L15.8748 15.0406ZM14.8813 15.8081C14.7808 15.8081 14.6825 15.7765 14.5989 15.7174C14.5153 15.6582 14.4501 15.5741 14.4116 15.4757C14.3731 15.3774 14.3631 15.2691 14.3827 15.1647C14.4023 15.0602 14.4507 14.9643 14.5218 14.889C14.5929 14.8137 14.6835 14.7625 14.7821 14.7417C14.8808 14.7209 14.983 14.7316 15.0759 14.7723C15.1688 14.8131 15.2482 14.8821 15.3041 14.9706C15.36 15.0591 15.3898 15.1632 15.3898 15.2697C15.3896 15.4124 15.336 15.5493 15.2407 15.6502C15.1454 15.7511 15.0161 15.8079 14.8813 15.8081ZM13.8879 15.0406H12.0615C12.0231 14.854 11.9383 14.6817 11.8161 14.5412L12.5847 13.0795C12.7901 13.1378 13.0075 13.1264 13.2064 13.0467L14.1178 14.5597C14.0038 14.6967 13.9247 14.8622 13.8879 15.0406ZM10.4415 14.4226L8.96655 13.2329C9.00734 13.1206 9.02998 13.0019 9.0335 12.8817L11.8951 12.4163C11.9485 12.5667 12.033 12.7027 12.1424 12.8142L11.3884 14.248C11.2292 14.1918 11.0594 14.1784 10.8941 14.2089C10.7288 14.2393 10.5733 14.3128 10.4414 14.4226H10.4415ZM18.9488 15.2697C18.9488 15.3762 18.919 15.4803 18.8631 15.5688C18.8073 15.6574 18.7279 15.7264 18.635 15.7671C18.5421 15.8079 18.4398 15.8185 18.3412 15.7977C18.2426 15.777 18.152 15.7257 18.0809 15.6504C18.0098 15.5751 17.9613 15.4792 17.9417 15.3747C17.9221 15.2703 17.9322 15.1621 17.9707 15.0637C18.0091 14.9653 18.0743 14.8812 18.1579 14.8221C18.2415 14.7629 18.3398 14.7313 18.4404 14.7313C18.5752 14.7315 18.7044 14.7883 18.7997 14.8892C18.895 14.9901 18.9487 15.127 18.9488 15.2697ZM19.0274 14.3915C18.8852 14.2845 18.7194 14.2182 18.546 14.199C18.3725 14.1797 18.1973 14.2081 18.0373 14.2815L16.9603 12.6922C17.0182 12.6121 17.0652 12.5237 17.0999 12.4298L19.9709 12.9567C19.9858 13.1107 20.032 13.2595 20.1065 13.3927L19.0274 14.3915ZM16.6609 12.0394C16.6609 12.1459 16.631 12.25 16.5752 12.3385C16.5193 12.4271 16.4399 12.4961 16.347 12.5368C16.2541 12.5776 16.1519 12.5882 16.0532 12.5675C15.9546 12.5467 15.864 12.4954 15.7929 12.4201C15.7218 12.3448 15.6734 12.2489 15.6538 12.1445C15.6341 12.04 15.6442 11.9318 15.6827 11.8334C15.7212 11.735 15.7863 11.6509 15.87 11.5918C15.9536 11.5326 16.0519 11.501 16.1524 11.501C16.2872 11.5012 16.4165 11.558 16.5118 11.6589C16.6071 11.7598 16.6607 11.8967 16.6609 12.0394ZM12.8476 12.5778C12.747 12.5778 12.6487 12.5462 12.5651 12.4871C12.4815 12.4279 12.4163 12.3438 12.3779 12.2455C12.3394 12.1471 12.3293 12.0388 12.3489 11.9344C12.3685 11.83 12.417 11.734 12.4881 11.6587C12.5592 11.5834 12.6498 11.5322 12.7484 11.5114C12.847 11.4906 12.9493 11.5013 13.0422 11.542C13.1351 11.5828 13.2145 11.6518 13.2703 11.7403C13.3262 11.8289 13.356 11.9329 13.356 12.0394C13.3559 12.1822 13.3023 12.319 13.2069 12.4199C13.1116 12.5209 12.9824 12.5776 12.8476 12.5778ZM10.5596 15.2697C10.5596 15.1632 10.5895 15.0591 10.6453 14.9706C10.7012 14.8821 10.7806 14.8131 10.8735 14.7723C10.9664 14.7316 11.0686 14.7209 11.1673 14.7417C11.2659 14.7625 11.3565 14.8137 11.4276 14.889C11.4987 14.9643 11.5471 15.0602 11.5667 15.1647C11.5864 15.2691 11.5763 15.3774 11.5378 15.4757C11.4993 15.5741 11.4342 15.6582 11.3505 15.7174C11.2669 15.7765 11.1686 15.8081 11.0681 15.8081C10.9333 15.8079 10.804 15.7511 10.7087 15.6502C10.6134 15.5493 10.5598 15.4124 10.5596 15.2697ZM15.0447 16.3324C15.2328 16.2996 15.4085 16.2116 15.5517 16.0784C15.695 15.9452 15.8002 15.7722 15.8553 15.5789H17.4664C17.477 15.6165 17.4895 15.6534 17.5039 15.6895L15.2881 17.4135C15.1953 17.3291 15.089 17.2631 14.9742 17.2187L15.0447 16.3324ZM20.5157 17.2746L19.2772 15.8803C19.3793 15.724 19.4403 15.5419 19.4542 15.3524C19.4681 15.1629 19.4343 14.973 19.3562 14.8019L20.4667 13.7742C20.5672 13.8372 20.6772 13.8813 20.7919 13.9045V17.1733C20.6957 17.1927 20.6026 17.2269 20.5157 17.2747V17.2746ZM21.491 12.847C21.491 12.9535 21.4612 13.0576 21.4053 13.1461C21.3494 13.2346 21.27 13.3036 21.1771 13.3444C21.0842 13.3851 20.982 13.3958 20.8834 13.375C20.7847 13.3543 20.6942 13.303 20.623 13.2277C20.5519 13.1524 20.5035 13.0565 20.4839 12.952C20.4643 12.8476 20.4743 12.7393 20.5128 12.641C20.5513 12.5426 20.6165 12.4585 20.7001 12.3994C20.7837 12.3402 20.882 12.3086 20.9826 12.3086C21.1174 12.3088 21.2466 12.3656 21.3419 12.4665C21.4372 12.5674 21.4908 12.7043 21.491 12.847ZM17.4235 8.53995C17.5241 8.53995 17.6224 8.57152 17.706 8.63068C17.7896 8.68984 17.8548 8.77392 17.8932 8.8723C17.9317 8.97068 17.9418 9.07893 17.9222 9.18336C17.9026 9.2878 17.8541 9.38373 17.783 9.45902C17.7119 9.53432 17.6213 9.58559 17.5227 9.60637C17.4241 9.62714 17.3218 9.61648 17.2289 9.57573C17.136 9.53498 17.0566 9.46598 17.0008 9.37744C16.9449 9.2889 16.9151 9.18481 16.9151 9.07833C16.9152 8.93559 16.9689 8.79875 17.0642 8.69782C17.1595 8.59689 17.2887 8.54012 17.4235 8.53995ZM12.5752 9.28022H16.4248C16.4688 9.52308 16.5904 9.7425 16.7692 9.90165L16.3155 10.9767C16.0742 10.935 15.8268 10.9869 15.6187 11.1227C15.4105 11.2586 15.2556 11.4694 15.1824 11.7164H13.8177C13.7452 11.4721 13.5928 11.2631 13.3879 11.1271C13.1829 10.991 12.9389 10.9368 12.6997 10.9742L12.2246 9.9075C12.4068 9.74789 12.5307 9.52609 12.5752 9.28022ZM11.5765 8.53995C11.6771 8.53995 11.7754 8.57152 11.859 8.63068C11.9426 8.68984 12.0078 8.77392 12.0462 8.8723C12.0847 8.97068 12.0948 9.07893 12.0752 9.18336C12.0556 9.2878 12.0071 9.38373 11.936 9.45902C11.8649 9.53432 11.7743 9.58559 11.6757 9.60637C11.5771 9.62714 11.4748 9.61648 11.3819 9.57573C11.289 9.53498 11.2096 9.46598 11.1538 9.37744C11.0979 9.2889 11.0681 9.18481 11.0681 9.07833C11.0682 8.93559 11.1218 8.79875 11.2172 8.69782C11.3125 8.59689 11.4417 8.54012 11.5765 8.53995ZM7.50902 12.847C7.50902 12.7405 7.53884 12.6364 7.59471 12.5479C7.65057 12.4594 7.72998 12.3903 7.82289 12.3496C7.91579 12.3088 8.01802 12.2982 8.11665 12.319C8.21527 12.3397 8.30587 12.391 8.37697 12.4663C8.44808 12.5416 8.4965 12.6375 8.51612 12.742C8.53574 12.8464 8.52567 12.9547 8.48719 13.053C8.44871 13.1514 8.38354 13.2355 8.29993 13.2946C8.21632 13.3538 8.11802 13.3854 8.01746 13.3854C7.88266 13.3852 7.75343 13.3284 7.65811 13.2275C7.5628 13.1266 7.50918 12.9897 7.50902 12.847ZM8.01746 16.8849C7.9169 16.8849 7.8186 16.8533 7.73498 16.7941C7.65137 16.735 7.5862 16.6509 7.54772 16.5525C7.50924 16.4541 7.49917 16.3459 7.51879 16.2414C7.53841 16.137 7.58683 16.0411 7.65794 15.9658C7.72904 15.8905 7.81964 15.8392 7.91827 15.8184C8.01689 15.7977 8.11912 15.8083 8.21203 15.8491C8.30493 15.8898 8.38434 15.9588 8.4402 16.0474C8.49607 16.1359 8.52589 16.24 8.52589 16.3465C8.52573 16.4892 8.47211 16.6261 8.3768 16.727C8.28148 16.8279 8.15225 16.8847 8.01746 16.8849ZM9.79698 18.7692C9.69642 18.7692 9.59812 18.7376 9.51451 18.6785C9.4309 18.6193 9.36573 18.5352 9.32725 18.4368C9.28876 18.3385 9.2787 18.2302 9.29831 18.1258C9.31793 18.0213 9.36636 17.9254 9.43746 17.8501C9.50857 17.7748 9.59916 17.7235 9.69779 17.7028C9.79642 17.682 9.89865 17.6927 9.99155 17.7334C10.0845 17.7742 10.1639 17.8432 10.2197 17.9317C10.2756 18.0202 10.3054 18.1243 10.3054 18.2308C10.3053 18.3735 10.2516 18.5104 10.1563 18.6113C10.061 18.7122 9.93178 18.769 9.79698 18.7692ZM10.4443 17.4011L10.9326 16.3366C10.9775 16.3431 11.0228 16.3464 11.0681 16.3465C11.2911 16.3467 11.5079 16.2688 11.6848 16.125L13.6926 17.8068C13.6698 17.863 13.6517 17.921 13.6383 17.9804L10.7827 17.9665C10.7294 17.7448 10.6109 17.5468 10.4443 17.4011ZM14.1187 18.2308C14.1187 18.1243 14.1485 18.0202 14.2044 17.9317C14.2602 17.8432 14.3396 17.7742 14.4325 17.7334C14.5255 17.6927 14.6277 17.682 14.7263 17.7028C14.8249 17.7235 14.9155 17.7748 14.9866 17.8501C15.0577 17.9254 15.1062 18.0213 15.1258 18.1258C15.1454 18.2302 15.1353 18.3385 15.0969 18.4368C15.0584 18.5352 14.9932 18.6193 14.9096 18.6785C14.826 18.7376 14.7277 18.7692 14.6271 18.7692C14.4923 18.769 14.3631 18.7122 14.2678 18.6113C14.1725 18.5104 14.1188 18.3735 14.1187 18.2308ZM16.4066 21.4611C16.3061 21.4611 16.2078 21.4295 16.1242 21.3704C16.0406 21.3112 15.9754 21.2271 15.9369 21.1287C15.8984 21.0304 15.8884 20.9221 15.908 20.8177C15.9276 20.7132 15.976 20.6173 16.0471 20.542C16.1182 20.4667 16.2088 20.4155 16.3075 20.3947C16.4061 20.3739 16.5083 20.3846 16.6012 20.4253C16.6941 20.4661 16.7735 20.5351 16.8294 20.6236C16.8853 20.7121 16.9151 20.8162 16.9151 20.9227C16.9149 21.0654 16.8613 21.2023 16.766 21.3032C16.6707 21.4042 16.5414 21.4609 16.4066 21.4611ZM20.2199 21.4611C20.1194 21.4611 20.0211 21.4295 19.9374 21.3704C19.8538 21.3112 19.7887 21.2271 19.7502 21.1287C19.7117 21.0304 19.7016 20.9221 19.7212 20.8177C19.7409 20.7132 19.7893 20.6173 19.8604 20.542C19.9315 20.4667 20.0221 20.4155 20.1207 20.3947C20.2193 20.3739 20.3216 20.3846 20.4145 20.4253C20.5074 20.4661 20.5868 20.5351 20.6427 20.6236C20.6985 20.7121 20.7283 20.8162 20.7283 20.9227C20.7282 21.0654 20.6746 21.2023 20.5793 21.3032C20.4839 21.4042 20.3547 21.4609 20.2199 21.4611ZM20.2199 19.846C19.9914 19.8463 19.7697 19.928 19.5904 20.0779C19.411 20.2277 19.2845 20.4371 19.2311 20.6724H17.4L20.2828 19.011C20.3472 19.0759 20.4192 19.1316 20.4971 19.1767L20.2898 19.8488C20.2667 19.8471 20.2434 19.846 20.2199 19.846ZM20.9826 18.7692C20.882 18.7692 20.7837 18.7376 20.7001 18.6785C20.6165 18.6193 20.5513 18.5352 20.5128 18.4368C20.4743 18.3385 20.4643 18.2302 20.4839 18.1258C20.5035 18.0213 20.5519 17.9254 20.623 17.8501C20.6942 17.7748 20.7847 17.7235 20.8834 17.7028C20.982 17.682 21.0842 17.6927 21.1771 17.7334C21.27 17.7742 21.3494 17.8432 21.4053 17.9317C21.4612 18.0202 21.491 18.1243 21.491 18.2308C21.4908 18.3735 21.4372 18.5104 21.3419 18.6113C21.2466 18.7122 21.1174 18.769 20.9826 18.7692Z" fill="#085FAB"/>
</svg>
