<svg width="23" height="28" viewBox="0 0 23 28" fill="none" xmlns="http://www.w3.org/2000/svg">
<path d="M13.5098 5.06798C13.2016 5.06798 12.9515 4.81785 12.9515 4.50966V2.63369C12.9515 2.01842 12.4501 1.51704 11.8349 1.51704C11.2196 1.51704 10.7182 2.01842 10.7182 2.63369V4.50966C10.7182 4.81785 10.4681 5.06798 10.1599 5.06798C9.85169 5.06798 9.60156 4.81897 9.60156 4.50966V2.63369C9.60156 1.40202 10.6032 0.400391 11.8349 0.400391C13.0665 0.400391 14.0682 1.40202 14.0682 2.63369V4.50966C14.0682 4.81897 13.818 5.06798 13.5098 5.06798Z" fill="#085FAB"/>
<path d="M11.836 27.2C9.68087 27.2 7.92773 25.4469 7.92773 23.2917C7.92773 22.9835 8.17786 22.7334 8.48606 22.7334C8.79425 22.7334 9.04438 22.9835 9.04438 23.2917C9.04438 24.8305 10.2973 26.0833 11.836 26.0833C13.3747 26.0833 14.6276 24.8305 14.6276 23.2917C14.6276 22.9835 14.8778 22.7334 15.186 22.7334C15.4941 22.7334 15.7443 22.9835 15.7443 23.2917C15.7443 25.4469 13.9911 27.2 11.836 27.2Z" fill="#085FAB"/>
<path d="M21.326 23.8502H2.34294C1.41947 23.8502 0.667969 23.0987 0.667969 22.1752C0.667969 21.685 0.881249 21.2216 1.25421 20.9022C3.01405 19.4148 4.01792 17.2508 4.01792 14.9594V11.567C4.01792 7.25677 7.52419 3.75049 11.8345 3.75049C16.1447 3.75049 19.651 7.25677 19.651 11.567V14.9594C19.651 17.2519 20.6549 19.4148 22.4058 20.8944C22.7877 21.2216 23.0009 21.685 23.0009 22.1752C23.0009 23.0987 22.2506 23.8502 21.326 23.8502ZM11.8345 4.86714C8.13947 4.86714 5.13456 7.87204 5.13456 11.567V14.9594C5.13456 17.5813 3.98665 20.0547 1.9845 21.7475C1.85608 21.8569 1.78462 22.0122 1.78462 22.1752C1.78462 22.4834 2.03475 22.7335 2.34294 22.7335H21.326C21.6342 22.7335 21.8843 22.4834 21.8843 22.1752C21.8843 22.0122 21.8128 21.8569 21.6889 21.7509C19.6834 20.0547 18.5344 17.5802 18.5344 14.9594V11.567C18.5344 7.87204 15.5294 4.86714 11.8345 4.86714Z" fill="#085FAB"/>
</svg>
