<svg width="14" height="14" viewBox="0 0 14 14" fill="none" xmlns="http://www.w3.org/2000/svg">
<path fill-rule="evenodd" clip-rule="evenodd" d="M10.0002 3.41717C10.1478 3.56477 10.1478 3.80409 10.0002 3.9517L3.95164 10.0002C3.80404 10.1478 3.56472 10.1478 3.41711 10.0002C3.26951 9.85262 3.26951 9.61331 3.41711 9.4657L9.46564 3.41717C9.61325 3.26956 9.85257 3.26956 10.0002 3.41717Z" fill="#90A8BE"/>
<path fill-rule="evenodd" clip-rule="evenodd" d="M10.0003 9.99969C9.85271 10.1473 9.61339 10.1473 9.46578 9.99969L3.41725 3.95116C3.26964 3.80355 3.26965 3.56423 3.41725 3.41662C3.56486 3.26902 3.80418 3.26902 3.95178 3.41663L10.0003 9.46516C10.1479 9.61276 10.1479 9.85208 10.0003 9.99969Z" fill="#90A8BE"/>
</svg>
