<svg width="32" height="32" viewBox="0 0 32 32" fill="none" xmlns="http://www.w3.org/2000/svg">
<path d="M21.1929 15.404C20.9662 14.952 20.5049 14.6667 19.9996 14.6667H17.3329V1.33331C17.3329 0.597313 16.7369 0 15.9996 0C15.2623 0 14.6663 0.597313 14.6663 1.33331V14.6666H11.9996C11.4943 14.6666 11.0329 14.9519 10.8063 15.4039C10.5823 15.8559 10.6303 16.3959 10.933 16.7999L14.933 22.1332C14.9503 22.1559 14.977 22.1639 14.9956 22.1852C15.0836 22.2892 15.1876 22.3692 15.3036 22.4426C15.3516 22.4719 15.389 22.5106 15.441 22.5346C15.6116 22.6146 15.7983 22.6666 15.9996 22.6666C16.201 22.6666 16.3876 22.6146 16.5596 22.5346C16.6103 22.5106 16.649 22.4719 16.6956 22.4426C16.8116 22.3692 16.9156 22.2892 17.0036 22.1852C17.021 22.1639 17.049 22.1559 17.0663 22.1332L21.0663 16.7999C21.3703 16.396 21.4183 15.856 21.1929 15.404Z" fill="#085FAB"/>
<path d="M30.6667 20C29.9294 20 29.3334 20.5973 29.3334 21.3333V25.3333C29.3334 27.5386 27.5387 29.3333 25.3334 29.3333H6.66669C4.46137 29.3333 2.66669 27.5386 2.66669 25.3333V21.3333C2.66669 20.5973 2.07069 20 1.33337 20C0.596 20 0 20.5973 0 21.3333V25.3333C0 29.0093 2.99069 32 6.66669 32H25.3334C29.0093 32 32 29.0093 32 25.3333V21.3333C32 20.5973 31.404 20 30.6667 20Z" fill="#085FAB"/>
</svg>
