<svg width="15" height="15" viewBox="0 0 15 15" fill="none" xmlns="http://www.w3.org/2000/svg">
<path d="M14.5697 9.13001C14.3526 9.13001 14.1766 9.306 14.1766 9.52316V13.014C14.1758 13.6651 13.6483 14.1927 12.9971 14.1935H1.96575C1.31459 14.1927 0.787067 13.6651 0.786299 13.014V2.76897C0.787067 2.11782 1.31459 1.59029 1.96575 1.58952H5.45649C5.67364 1.58952 5.84964 1.41353 5.84964 1.19637C5.84964 0.979219 5.67364 0.803223 5.45649 0.803223H1.96575C0.880594 0.804451 0.00122859 1.68382 0 2.76897V13.014C0.00122859 14.0992 0.880594 14.9786 1.96575 14.9798H12.9971C14.0823 14.9786 14.9616 14.0992 14.9629 13.014V9.52331C14.9629 9.30616 14.7869 9.13001 14.5697 9.13001Z" fill="#085FAB"/>
<path d="M6.14758 7.0614L11.888 1.3208L13.7394 3.17214L7.99892 8.91273L6.14758 7.0614Z" fill="#085FAB"/>
<path d="M5.21094 9.84938L7.25685 9.28269L5.77763 7.80347L5.21094 9.84938Z" fill="#085FAB"/>
<path d="M14.2512 0.347922C13.8671 -0.0352449 13.2453 -0.0352449 12.8612 0.347922L12.4442 0.764876L14.2955 2.61621L14.7125 2.19926C15.0958 1.81517 15.0958 1.19335 14.7125 0.809259L14.2512 0.347922Z" fill="#085FAB"/>
</svg>
