<svg width="22" height="22" viewBox="0 0 22 22" fill="none" xmlns="http://www.w3.org/2000/svg">
<path d="M11.2261 5.82387C10.1234 5.82387 0.456299 5.74866 0.456299 3.15904C0.456299 0.569429 10.1234 0.492188 11.2261 0.492188C12.3287 0.492188 21.9958 0.567396 21.9958 3.15701C21.9958 5.74663 12.3287 5.82387 11.2261 5.82387ZM1.88132 3.15701C2.53839 3.66111 5.69232 4.49044 11.2261 4.49044C16.7598 4.49044 19.9138 3.66314 20.5708 3.15701C19.9138 2.65291 16.7598 1.82358 11.2261 1.82358C5.69232 1.82358 2.53839 2.65291 1.88132 3.15701ZM20.6755 3.26068H20.6838H20.6755Z" fill="#085FAB"/>
<path d="M11.2261 11.1533C10.1234 11.1533 0.456299 11.0781 0.456299 8.48849C0.456299 8.12058 0.75814 7.82178 1.12979 7.82178C1.47476 7.82178 1.76017 8.07993 1.79918 8.41125C2.21396 8.90316 5.40074 9.81989 11.2281 9.81989C17.0555 9.81989 20.2423 8.90112 20.6571 8.41125C20.6961 8.07993 20.9794 7.82178 21.3264 7.82178C21.6981 7.82178 21.9999 8.12058 21.9999 8.48849C21.9979 11.0801 12.3287 11.1533 11.2261 11.1533Z" fill="#085FAB"/>
<path d="M11.2261 16.4858C10.1234 16.4858 0.456299 16.4106 0.456299 13.821C0.456299 13.4531 0.75814 13.1543 1.12979 13.1543C1.47476 13.1543 1.76017 13.4124 1.79918 13.7438C2.21396 14.2357 5.40074 15.1524 11.2281 15.1524C17.0555 15.1524 20.2423 14.2336 20.6571 13.7438C20.6961 13.4124 20.9794 13.1543 21.3264 13.1543C21.6981 13.1543 21.9999 13.4531 21.9999 13.821C21.9979 16.4106 12.3287 16.4858 11.2261 16.4858ZM20.6509 13.819C20.6509 13.821 20.6509 13.821 20.6509 13.819V13.819ZM1.80124 13.819C1.80124 13.821 1.80124 13.821 1.80124 13.819V13.819Z" fill="#085FAB"/>
<path d="M11.2261 21.8168C10.1234 21.8168 0.456299 21.7416 0.456299 19.152V3.15695C0.456299 2.78904 0.75814 2.49023 1.12979 2.49023C1.50145 2.49023 1.80329 2.78904 1.80329 3.15695V19.0788C2.23449 19.5728 5.42127 20.4834 11.2281 20.4834C17.035 20.4834 20.2217 19.5728 20.6529 19.0788V3.15695C20.6529 2.78904 20.9548 2.49023 21.3264 2.49023C21.6981 2.49023 21.9999 2.78904 21.9999 3.15695V19.152C21.9979 21.7416 12.3287 21.8168 11.2261 21.8168Z" fill="#085FAB"/>
</svg>
