<svg width="35" height="35" viewBox="0 0 35 35" fill="none" xmlns="http://www.w3.org/2000/svg">
<path d="M17.0769 0C7.63772 0 0 7.63839 0 17.0769C0 26.5161 7.63839 34.1538 17.0769 34.1538C26.5161 34.1538 34.1538 26.5155 34.1538 17.0769C34.1538 7.63772 26.5154 0 17.0769 0ZM17.0769 31.4856C9.11261 31.4856 2.66827 25.0407 2.66827 17.0769C2.66827 9.11261 9.11314 2.66827 17.0769 2.66827C25.0412 2.66827 31.4856 9.11314 31.4856 17.0769C31.4856 25.0412 25.0406 31.4856 17.0769 31.4856Z" fill="#085FAB"/>
<path d="M17.0769 14.2975C16.3401 14.2975 15.7428 14.8948 15.7428 15.6316V24.223C15.7428 24.9598 16.3401 25.5571 17.0769 25.5571C17.8138 25.5571 18.4111 24.9598 18.4111 24.2229V15.6316C18.4111 14.8948 17.8138 14.2975 17.0769 14.2975Z" fill="#085FAB"/>
<path d="M17.0769 12.6632C18.0716 12.6632 18.878 11.8568 18.878 10.8621C18.878 9.86741 18.0716 9.06104 17.0769 9.06104C16.0822 9.06104 15.2758 9.86741 15.2758 10.8621C15.2758 11.8568 16.0822 12.6632 17.0769 12.6632Z" fill="#085FAB"/>
</svg>
