<svg width="54" height="54" viewBox="0 0 54 54" fill="none" xmlns="http://www.w3.org/2000/svg">
<g clip-path="url(#clip0)">
<path d="M48.375 49.5H5.625C2.5245 49.5 0 46.9778 0 43.875V28.125C0 27.9675 0.03375 27.8078 0.099 27.6638L9.02925 7.81875C9.93825 5.80275 11.952 4.5 14.1593 4.5H39.8408C42.048 4.5 44.0617 5.80275 44.9707 7.81875L53.901 27.6638C53.9662 27.8078 54 27.9675 54 28.125V43.875C54 46.9778 51.4755 49.5 48.375 49.5ZM2.25 28.3658V43.875C2.25 45.7358 3.76425 47.25 5.625 47.25H48.375C50.2357 47.25 51.75 45.7358 51.75 43.875V28.3658L42.9188 8.739C42.3743 7.533 41.166 6.75 39.8408 6.75H14.1593C12.834 6.75 11.6258 7.533 11.0813 8.74125L2.25 28.3658Z" fill="#A1A1A1"/>
<path d="M37.8158 38.25H16.1843C14.7848 38.25 13.5158 37.3702 13.0253 36.0607L10.7438 29.979C10.5818 29.5425 10.1588 29.25 9.69075 29.25H1.6875C1.0665 29.25 0.5625 28.746 0.5625 28.125C0.5625 27.504 1.0665 27 1.6875 27H9.69075C11.0903 27 12.3593 27.8797 12.852 29.1892L15.1313 35.271C15.2955 35.7075 15.7185 36 16.1843 36H37.8135C38.2815 36 38.7045 35.7075 38.8665 35.271L41.1458 29.1892C41.6408 27.8797 42.9098 27 44.3093 27H52.875C53.496 27 54 27.504 54 28.125C54 28.746 53.496 29.25 52.875 29.25H44.3093C43.8413 29.25 43.4183 29.5425 43.2563 29.979L40.977 36.0607C40.4843 37.3702 39.213 38.25 37.8158 38.25Z" fill="#A1A1A1"/>
</g>
<defs>
<clipPath id="clip0">
<rect width="54" height="54" fill="white"/>
</clipPath>
</defs>
</svg>
