<svg width="15" height="15" viewBox="0 0 15 15" fill="none" xmlns="http://www.w3.org/2000/svg">
<path d="M14.8999 2.8271L12.1727 0.0998745C12.1088 0.0359548 12.0222 0 11.9317 0H1.36363C0.611903 0 0 0.611552 0 1.36363V13.6362C0 14.3883 0.611903 14.9998 1.36363 14.9998H13.6362C14.3879 14.9998 14.9998 14.3883 14.9998 13.6362V3.06815C14.9998 2.9776 14.9639 2.89102 14.8999 2.8271ZM3.40906 0.6818H10.909V4.77266C10.909 5.14851 10.6034 5.45446 10.2272 5.45446H4.09086C3.71466 5.45446 3.40906 5.14851 3.40906 4.77266V0.6818ZM12.2726 14.318H2.72723V8.18172H12.2726V14.318ZM14.318 13.6362C14.318 14.0121 14.0124 14.318 13.6362 14.318H12.9544V7.84081C12.9544 7.65237 12.8019 7.49989 12.6135 7.49989H2.38635C2.19791 7.49989 2.04543 7.65237 2.04543 7.84081V14.318H1.36363C0.987432 14.318 0.681832 14.0121 0.681832 13.6362V1.36363C0.681832 0.987783 0.987464 0.681832 1.36363 0.681832H2.72726V4.77269C2.72723 5.52474 3.33913 6.13629 4.09086 6.13629H10.2272C10.9789 6.13629 11.5908 5.52474 11.5908 4.77266V0.6818H11.7905L14.318 3.20931V13.6362Z" fill="#085FAB"/>
<path d="M8.52256 4.77283H9.88619C10.0746 4.77283 10.2271 4.62035 10.2271 4.43192V1.70469C10.2271 1.51625 10.0746 1.36377 9.88619 1.36377H8.52256C8.33412 1.36377 8.18164 1.51625 8.18164 1.70469V4.43192C8.18164 4.62035 8.33412 4.77283 8.52256 4.77283ZM8.86344 2.0456H9.54524V4.09103H8.86344V2.0456V2.0456Z" fill="#085FAB"/>
</svg>
