<svg width="15" height="15" viewBox="0 0 15 15" fill="none" xmlns="http://www.w3.org/2000/svg">
<path d="M14.0768 7.93945C13.8595 11.2247 11.2247 13.8595 7.93945 14.0768V15H7.06055V14.0768C3.77528 13.8595 1.14053 11.2247 0.923203 7.93945H0V7.06055H0.923203C1.14053 3.77528 3.77528 1.14053 7.06055 0.923203V0H7.93945V0.923203C11.2247 1.14053 13.8595 3.77528 14.0768 7.06055H15V7.93945H14.0768ZM7.06055 13.1962V11.4305C5.23011 11.2272 3.77276 9.76989 3.56947 7.93945H1.80384C2.01788 10.74 4.26003 12.9821 7.06055 13.1962ZM7.06055 1.80384C4.26003 2.01788 2.01788 4.26003 1.80384 7.06055H3.56947C3.77276 5.23011 5.23011 3.77276 7.06055 3.56947V1.80384ZM7.06055 5.30273V4.45535C5.71535 4.64862 4.64862 5.71535 4.45535 7.06055H5.30273V7.93945H4.45535C4.64862 9.28465 5.71535 10.3514 7.06055 10.5446V9.69727H7.93945V10.5446C9.28465 10.3514 10.3514 9.28465 10.5446 7.93945H9.69727V7.06055H10.5446C10.3514 5.71535 9.28465 4.64862 7.93945 4.45535V5.30273H7.06055ZM7.93945 1.80384V3.56947C9.76989 3.77276 11.2272 5.23014 11.4305 7.06055H13.1962C12.9821 4.26003 10.74 2.01788 7.93945 1.80384ZM11.4305 7.93945C11.2272 9.76989 9.76989 11.2272 7.93945 11.4305V13.1962C10.74 12.9821 12.9821 10.74 13.1962 7.93945H11.4305Z" fill="#085FAB"/>
<path d="M7.5 8.81836C6.77306 8.81836 6.18164 8.22694 6.18164 7.5C6.18164 6.77306 6.77306 6.18164 7.5 6.18164C8.22694 6.18164 8.81836 6.77306 8.81836 7.5C8.81836 8.22694 8.22694 8.81836 7.5 8.81836Z" fill="#085FAB"/>
</svg>
