<svg width="22" height="22" viewBox="0 0 22 22" fill="none" xmlns="http://www.w3.org/2000/svg">
<path d="M7.43123 4.99304C7.58707 5.30379 7.90422 5.49994 8.25163 5.49994L10.085 5.49994L10.085 14.6666C10.085 15.1726 10.4947 15.5833 11.0016 15.5833C11.5085 15.5833 11.9183 15.1726 11.9183 14.6666L11.9183 5.49999L13.7516 5.49999C14.099 5.49999 14.4162 5.30384 14.572 4.99309C14.726 4.68234 14.693 4.31109 14.4849 4.03334L11.7349 0.366704C11.723 0.351106 11.7047 0.345606 11.6918 0.330954C11.6313 0.259454 11.5598 0.204455 11.4801 0.154052C11.4471 0.1339 11.4214 0.107302 11.3857 0.0908015C11.2683 0.0358022 11.14 5.27605e-05 11.0016 5.27726e-05C10.8631 5.27847e-05 10.7348 0.0358022 10.6166 0.0908016C10.5817 0.107302 10.5552 0.1339 10.5231 0.154052C10.4433 0.204455 10.3718 0.259454 10.3113 0.330954C10.2994 0.345606 10.2802 0.351106 10.2682 0.366704L7.51824 4.03334C7.30928 4.31105 7.27628 4.6823 7.43123 4.99304Z" fill="#085FAB"/>
<path d="M21.0833 13.75C20.5764 13.75 20.1666 14.1607 20.1666 14.6666V17.4166C20.1666 18.9328 18.9328 20.1666 17.4166 20.1666H4.58333C3.06718 20.1666 1.83334 18.9328 1.83334 17.4166V14.6666C1.83334 14.1607 1.42359 13.75 0.916692 13.75C0.409748 13.75 0 14.1607 0 14.6666V17.4166C0 19.9439 2.05609 22 4.58333 22H17.4166C19.9438 22 21.9999 19.9439 21.9999 17.4166V14.6666C21.9999 14.1607 21.5902 13.75 21.0833 13.75Z" fill="#085FAB"/>
</svg>
