<svg width="15" height="16" viewBox="0 0 15 16" fill="none" xmlns="http://www.w3.org/2000/svg">
<path d="M8.17442 2.53664C7.65544 2.53664 3.10156 2.5011 3.10156 1.26852C3.10156 0.0359484 7.65544 0 8.17442 0C8.6934 0 13.2477 0.0355352 13.2477 1.26811C13.2477 2.50069 8.69381 2.53664 8.17442 2.53664ZM3.77301 1.26811C4.0825 1.50818 5.56754 1.90237 8.17483 1.90237C10.7821 1.90237 12.2672 1.50818 12.5762 1.26811C12.2668 1.02804 10.7817 0.633849 8.17483 0.633849C5.56795 0.633849 4.0825 1.02804 3.77301 1.26811ZM12.625 1.31728H12.6291H12.625Z" fill="#085FAB"/>
<path d="M8.17442 5.07271C7.65544 5.07271 3.10156 5.03717 3.10156 3.8046C3.10156 3.6294 3.2437 3.48767 3.41849 3.48767C3.58129 3.48767 3.71516 3.61039 3.73335 3.76823C3.92879 4.0021 5.42953 4.43886 8.17442 4.43886C10.9193 4.43886 12.4201 4.0021 12.6155 3.76823C12.6337 3.60998 12.7676 3.48767 12.9304 3.48767C13.1055 3.48767 13.2473 3.62981 13.2473 3.8046C13.2477 5.03717 8.69381 5.07271 8.17442 5.07271ZM12.6134 3.80418C12.6134 3.8046 12.6134 3.8046 12.6134 3.80418V3.80418ZM3.73582 3.80418C3.73582 3.8046 3.73582 3.8046 3.73582 3.80418V3.80418Z" fill="#085FAB"/>
<path d="M8.17442 7.60933C7.65544 7.60933 3.10156 7.57379 3.10156 6.34122C3.10156 6.16602 3.2437 6.02429 3.41849 6.02429C3.58129 6.02429 3.71516 6.14701 3.73335 6.30485C3.92879 6.53873 5.42953 6.97548 8.17442 6.97548C10.9193 6.97548 12.4201 6.53873 12.6155 6.30485C12.6337 6.1466 12.7676 6.02429 12.9304 6.02429C13.1055 6.02429 13.2473 6.16643 13.2473 6.34122C13.2477 7.57379 8.69381 7.60933 8.17442 7.60933ZM12.6134 6.34039C12.6134 6.3408 12.6134 6.3408 12.6134 6.34039V6.34039ZM3.73582 6.34039C3.73582 6.3408 3.73582 6.3408 3.73582 6.34039V6.34039Z" fill="#085FAB"/>
<path d="M8.17442 8.86466C7.65544 8.86466 3.10156 9.24232 3.10156 8.00975V1.26797C3.10156 1.09278 3.2437 0.95105 3.41849 0.95105C3.59368 0.95105 3.73541 1.09319 3.73541 1.26797V7.97545C3.93871 8.21056 5.43904 8.406 8.17442 8.406C10.9098 8.406 12.4097 8.21056 12.6134 7.97545V1.26797C12.6134 1.09278 12.7556 0.95105 12.9304 0.95105C13.1051 0.95105 13.2473 1.09319 13.2473 1.26797V8.00975C13.2477 9.24232 8.69381 8.86466 8.17442 8.86466Z" fill="#085FAB"/>
<path d="M14.1136 8.39341C14.1099 8.33349 14.1054 8.27358 14.1 8.19424C13.8012 8.19424 13.5149 8.19424 13.2281 8.19424C13.2265 8.18846 13.2252 8.18391 13.224 8.17896H12.2964C9.43868 8.17896 6.58182 8.17896 3.71917 8.17896H2.57791C2.56716 8.18226 2.55642 8.18433 2.54692 8.18515C2.29487 8.19796 2.04157 8.19052 1.7668 8.19052C1.7668 8.41861 1.7639 8.62356 1.76721 8.82809C1.77465 9.26815 1.84902 9.73424 1.911 10.1664L2.53246 13.1531C2.78492 13.1055 3.01218 13.0601 3.24109 13.0208C3.36464 12.9998 3.39191 12.9374 3.37084 12.8184L2.63286 9.09337C6.18432 9.09337 9.68784 9.09337 13.2079 9.09337L12.5406 12.6386C12.3646 13.646 12.1865 14.6534 12.01 15.6608H12.9087L14.1136 8.39341Z" fill="#085FAB"/>
<path d="M3.70569 14.7363C5.38576 14.0843 5.91218 13.6967 6.99394 12.3365C7.03443 12.2856 7.11418 12.2489 7.18112 12.2385C7.69968 12.1567 8.03066 11.6815 7.92198 11.1642C7.8224 10.6886 7.30094 10.38 6.82163 10.5126C6.3291 10.649 6.07043 11.1601 6.2291 11.6576C6.25307 11.7328 6.24067 11.851 6.19522 11.9121C5.37874 13.005 4.33954 13.7628 2.96648 13.9847C2.45576 14.0674 1.95124 14.0273 1.49176 13.7442C0.877749 13.3662 0.644705 12.2443 1.23145 11.565C1.27979 11.5088 1.33268 11.4225 1.32442 11.3572C1.28682 11.0605 1.22773 10.7663 1.17567 10.4651C0.417444 10.9196 -0.162275 11.8208 0.0410193 12.9166C0.328607 14.4673 1.40995 14.9338 2.83384 14.8991C2.87929 15.1549 2.92474 15.4082 2.96978 15.6611H3.86684C3.8123 15.3512 3.75858 15.0421 3.70569 14.7363Z" fill="#085FAB"/>
</svg>
