<svg width="106" height="106" viewBox="0 0 106 106" fill="none" xmlns="http://www.w3.org/2000/svg">
<path d="M15.7342 8.27641C33.9996 8.27641 48.8591 23.1285 48.8591 41.3836L48.8591 90.1564L33.1249 74.431L27.2689 80.2836L52.9996 106L78.7303 80.2836L72.8752 74.431L57.1401 90.1564L57.1401 41.3836C57.1401 23.1285 72.0004 8.27641 90.2658 8.27641L106 8.27641L106 1.52588e-05L90.2658 1.38833e-05C73.8963 1.24522e-05 59.7165 9.54367 52.9996 23.3549C46.2835 9.54286 32.1037 8.79857e-06 15.7342 7.3675e-06L1.63742e-06 5.99197e-06L9.13873e-07 8.2764L15.7342 8.27641Z" fill="#085FAB" fill-opacity="0.5"/>
</svg>
