<svg width="18" height="18" viewBox="0 0 18 18" fill="none" xmlns="http://www.w3.org/2000/svg">
<path d="M0.357969 3.19915C0.423922 3.03276 0.569187 2.91073 0.74444 2.87452C0.919941 2.83824 1.10152 2.89266 1.22805 3.01922L3.97003 5.7612L5.4442 5.44423L5.76113 3.97006L3.01915 1.22805C2.89259 1.10148 2.83824 0.919726 2.87445 0.744472C2.9107 0.569183 3.03273 0.423952 3.19908 0.357929C5.0816 -0.388578 7.22314 0.0540384 8.65488 1.48567C9.34408 2.17487 9.81735 3.04049 10.0235 3.98901C10.1999 4.80048 10.1751 5.63892 9.95351 6.43391L17.2711 13.7515C17.7411 14.2215 18 14.8465 18 15.5113C18 16.1761 17.7411 16.801 17.271 17.2711C16.801 17.7412 16.176 18 15.5113 18C14.8465 18 14.2215 17.7412 13.7515 17.2711L6.43388 9.95354C5.63889 10.1751 4.80049 10.1999 3.98901 10.0235C3.04049 9.81735 2.17484 9.34404 1.48564 8.65487C0.0540428 7.2232 -0.388575 5.08173 0.357969 3.19915ZM2.23756 7.90302C3.32196 8.98741 4.95785 9.35856 6.40533 8.84837C6.59834 8.78038 6.81322 8.82917 6.95795 8.97388L14.5034 16.5193C14.7726 16.7885 15.1306 16.9368 15.5113 16.9368C15.8921 16.9368 16.25 16.7885 16.5193 16.5193C16.7885 16.25 16.9368 15.892 16.9368 15.5113C16.9368 15.1305 16.7885 14.7726 16.5193 14.5033L8.97388 6.95795C8.82918 6.81325 8.78038 6.59834 8.84838 6.40533C9.35853 4.95791 8.98745 3.32195 7.90306 2.23756C7.13665 1.47115 6.11294 1.06341 5.06961 1.06341C4.85072 1.06341 4.63089 1.08134 4.41254 1.11773L6.71773 3.42292C6.84535 3.5505 6.89952 3.73412 6.86159 3.91057L6.41163 6.00353C6.36765 6.20793 6.208 6.36757 6.00364 6.41152L3.91065 6.86152C3.73409 6.89945 3.55061 6.84527 3.42296 6.71766L1.1178 4.41246C0.908094 5.67186 1.31042 6.97584 2.23756 7.90302Z" fill="#085FAB"/>
<circle cx="15.375" cy="15.375" r="0.375" fill="#085FAB"/>
</svg>
