<svg width="113" height="21" viewBox="0 0 113 21" fill="none" xmlns="http://www.w3.org/2000/svg">
<path d="M41.005 11.493C41.005 12.447 40.846 13.323 40.528 14.121C40.21 14.919 39.763 15.606 39.187 16.182C38.611 16.758 37.918 17.205 37.108 17.523C36.298 17.841 35.398 18 34.408 18H29.449V4.986H34.408C35.398 4.986 36.298 5.148 37.108 5.472C37.918 5.79 38.611 6.237 39.187 6.813C39.763 7.383 40.21 8.067 40.528 8.865C40.846 9.663 41.005 10.539 41.005 11.493ZM38.521 11.493C38.521 10.779 38.425 10.14 38.233 9.576C38.047 9.006 37.774 8.526 37.414 8.136C37.06 7.74 36.628 7.437 36.118 7.227C35.614 7.017 35.044 6.912 34.408 6.912H31.879V16.074H34.408C35.044 16.074 35.614 15.969 36.118 15.759C36.628 15.549 37.06 15.249 37.414 14.859C37.774 14.463 38.047 13.983 38.233 13.419C38.425 12.849 38.521 12.207 38.521 11.493ZM47.4408 14.058C46.7988 14.088 46.2588 14.145 45.8208 14.229C45.3828 14.307 45.0318 14.409 44.7678 14.535C44.5038 14.661 44.3148 14.808 44.2008 14.976C44.0868 15.144 44.0298 15.327 44.0298 15.525C44.0298 15.915 44.1438 16.194 44.3718 16.362C44.6058 16.53 44.9088 16.614 45.2808 16.614C45.7368 16.614 46.1298 16.533 46.4598 16.371C46.7958 16.203 47.1228 15.951 47.4408 15.615V14.058ZM42.3468 10.053C43.4088 9.081 44.6868 8.595 46.1808 8.595C46.7208 8.595 47.2038 8.685 47.6298 8.865C48.0558 9.039 48.4158 9.285 48.7098 9.603C49.0038 9.915 49.2258 10.29 49.3758 10.728C49.5318 11.166 49.6098 11.646 49.6098 12.168V18H48.6018C48.3918 18 48.2298 17.97 48.1158 17.91C48.0018 17.844 47.9118 17.715 47.8458 17.523L47.6478 16.857C47.4138 17.067 47.1858 17.253 46.9638 17.415C46.7418 17.571 46.5108 17.703 46.2708 17.811C46.0308 17.919 45.7728 18 45.4968 18.054C45.2268 18.114 44.9268 18.144 44.5968 18.144C44.2068 18.144 43.8468 18.093 43.5168 17.991C43.1868 17.883 42.9018 17.724 42.6618 17.514C42.4218 17.304 42.2358 17.043 42.1038 16.731C41.9718 16.419 41.9058 16.056 41.9058 15.642C41.9058 15.408 41.9448 15.177 42.0228 14.949C42.1008 14.715 42.2268 14.493 42.4008 14.283C42.5808 14.073 42.8118 13.875 43.0938 13.689C43.3758 13.503 43.7208 13.341 44.1288 13.203C44.5428 13.065 45.0228 12.954 45.5688 12.87C46.1148 12.78 46.7388 12.726 47.4408 12.708V12.168C47.4408 11.55 47.3088 11.094 47.0448 10.8C46.7808 10.5 46.3998 10.35 45.9018 10.35C45.5418 10.35 45.2418 10.392 45.0018 10.476C44.7678 10.56 44.5608 10.656 44.3808 10.764C44.2008 10.866 44.0358 10.959 43.8858 11.043C43.7418 11.127 43.5798 11.169 43.3998 11.169C43.2438 11.169 43.1118 11.13 43.0038 11.052C42.8958 10.968 42.8088 10.872 42.7428 10.764L42.3468 10.053ZM54.6584 18.144C53.8544 18.144 53.2364 17.919 52.8044 17.469C52.3784 17.013 52.1654 16.386 52.1654 15.588V10.431H51.2204C51.1004 10.431 50.9984 10.392 50.9144 10.314C50.8304 10.236 50.7884 10.119 50.7884 9.963V9.081L52.2734 8.838L52.7414 6.318C52.7714 6.198 52.8284 6.105 52.9124 6.039C52.9964 5.973 53.1044 5.94 53.2364 5.94H54.3884V8.847H56.8544V10.431H54.3884V15.435C54.3884 15.723 54.4574 15.948 54.5954 16.11C54.7394 16.272 54.9344 16.353 55.1804 16.353C55.3184 16.353 55.4324 16.338 55.5224 16.308C55.6184 16.272 55.6994 16.236 55.7654 16.2C55.8374 16.164 55.9004 16.131 55.9544 16.101C56.0084 16.065 56.0624 16.047 56.1164 16.047C56.1824 16.047 56.2364 16.065 56.2784 16.101C56.3204 16.131 56.3654 16.179 56.4134 16.245L57.0794 17.325C56.7554 17.595 56.3834 17.799 55.9634 17.937C55.5434 18.075 55.1084 18.144 54.6584 18.144ZM63.1557 14.058C62.5137 14.088 61.9737 14.145 61.5357 14.229C61.0977 14.307 60.7467 14.409 60.4827 14.535C60.2187 14.661 60.0297 14.808 59.9157 14.976C59.8017 15.144 59.7447 15.327 59.7447 15.525C59.7447 15.915 59.8587 16.194 60.0867 16.362C60.3207 16.53 60.6237 16.614 60.9957 16.614C61.4517 16.614 61.8447 16.533 62.1747 16.371C62.5107 16.203 62.8377 15.951 63.1557 15.615V14.058ZM58.0617 10.053C59.1237 9.081 60.4017 8.595 61.8957 8.595C62.4357 8.595 62.9187 8.685 63.3447 8.865C63.7707 9.039 64.1307 9.285 64.4247 9.603C64.7187 9.915 64.9407 10.29 65.0907 10.728C65.2467 11.166 65.3247 11.646 65.3247 12.168V18H64.3167C64.1067 18 63.9447 17.97 63.8307 17.91C63.7167 17.844 63.6267 17.715 63.5607 17.523L63.3627 16.857C63.1287 17.067 62.9007 17.253 62.6787 17.415C62.4567 17.571 62.2257 17.703 61.9857 17.811C61.7457 17.919 61.4877 18 61.2117 18.054C60.9417 18.114 60.6417 18.144 60.3117 18.144C59.9217 18.144 59.5617 18.093 59.2317 17.991C58.9017 17.883 58.6167 17.724 58.3767 17.514C58.1367 17.304 57.9507 17.043 57.8187 16.731C57.6867 16.419 57.6207 16.056 57.6207 15.642C57.6207 15.408 57.6597 15.177 57.7377 14.949C57.8157 14.715 57.9417 14.493 58.1157 14.283C58.2957 14.073 58.5267 13.875 58.8087 13.689C59.0907 13.503 59.4357 13.341 59.8437 13.203C60.2577 13.065 60.7377 12.954 61.2837 12.87C61.8297 12.78 62.4537 12.726 63.1557 12.708V12.168C63.1557 11.55 63.0237 11.094 62.7597 10.8C62.4957 10.5 62.1147 10.35 61.6167 10.35C61.2567 10.35 60.9567 10.392 60.7167 10.476C60.4827 10.56 60.2757 10.656 60.0957 10.764C59.9157 10.866 59.7507 10.959 59.6007 11.043C59.4567 11.127 59.2947 11.169 59.1147 11.169C58.9587 11.169 58.8267 11.13 58.7187 11.052C58.6107 10.968 58.5237 10.872 58.4577 10.764L58.0617 10.053ZM79.7693 16.002V18H72.1463V4.986H74.5673V16.002H79.7693ZM86.0248 14.058C85.3828 14.088 84.8428 14.145 84.4048 14.229C83.9668 14.307 83.6158 14.409 83.3518 14.535C83.0878 14.661 82.8988 14.808 82.7848 14.976C82.6708 15.144 82.6138 15.327 82.6138 15.525C82.6138 15.915 82.7278 16.194 82.9558 16.362C83.1898 16.53 83.4928 16.614 83.8648 16.614C84.3208 16.614 84.7138 16.533 85.0438 16.371C85.3798 16.203 85.7068 15.951 86.0248 15.615V14.058ZM80.9308 10.053C81.9928 9.081 83.2708 8.595 84.7648 8.595C85.3048 8.595 85.7878 8.685 86.2138 8.865C86.6398 9.039 86.9998 9.285 87.2938 9.603C87.5878 9.915 87.8098 10.29 87.9598 10.728C88.1158 11.166 88.1938 11.646 88.1938 12.168V18H87.1858C86.9758 18 86.8138 17.97 86.6998 17.91C86.5858 17.844 86.4958 17.715 86.4298 17.523L86.2318 16.857C85.9978 17.067 85.7698 17.253 85.5478 17.415C85.3258 17.571 85.0948 17.703 84.8548 17.811C84.6148 17.919 84.3568 18 84.0808 18.054C83.8108 18.114 83.5108 18.144 83.1808 18.144C82.7908 18.144 82.4308 18.093 82.1008 17.991C81.7708 17.883 81.4858 17.724 81.2458 17.514C81.0058 17.304 80.8198 17.043 80.6878 16.731C80.5558 16.419 80.4898 16.056 80.4898 15.642C80.4898 15.408 80.5288 15.177 80.6068 14.949C80.6848 14.715 80.8108 14.493 80.9848 14.283C81.1648 14.073 81.3958 13.875 81.6778 13.689C81.9598 13.503 82.3048 13.341 82.7128 13.203C83.1268 13.065 83.6068 12.954 84.1528 12.87C84.6988 12.78 85.3228 12.726 86.0248 12.708V12.168C86.0248 11.55 85.8928 11.094 85.6288 10.8C85.3648 10.5 84.9838 10.35 84.4858 10.35C84.1258 10.35 83.8258 10.392 83.5858 10.476C83.3518 10.56 83.1448 10.656 82.9648 10.764C82.7848 10.866 82.6198 10.959 82.4698 11.043C82.3258 11.127 82.1638 11.169 81.9838 11.169C81.8278 11.169 81.6958 11.13 81.5878 11.052C81.4798 10.968 81.3928 10.872 81.3268 10.764L80.9308 10.053ZM92.5105 4.626V12.285H92.9245C93.0745 12.285 93.1915 12.267 93.2755 12.231C93.3655 12.189 93.4555 12.108 93.5455 11.988L95.8405 9.153C95.9365 9.027 96.0415 8.931 96.1555 8.865C96.2755 8.799 96.4285 8.766 96.6145 8.766H98.6485L95.7775 12.195C95.5735 12.465 95.3515 12.672 95.1115 12.816C95.2375 12.906 95.3485 13.011 95.4445 13.131C95.5465 13.251 95.6425 13.38 95.7325 13.518L98.8105 18H96.8035C96.6295 18 96.4795 17.973 96.3535 17.919C96.2275 17.859 96.1225 17.754 96.0385 17.604L93.6805 14.103C93.5965 13.965 93.5095 13.875 93.4195 13.833C93.3295 13.791 93.1945 13.77 93.0145 13.77H92.5105V18H90.2875V4.626H92.5105ZM105.377 12.321C105.377 12.033 105.335 11.763 105.251 11.511C105.173 11.253 105.053 11.028 104.891 10.836C104.729 10.644 104.522 10.494 104.27 10.386C104.024 10.272 103.736 10.215 103.406 10.215C102.764 10.215 102.257 10.398 101.885 10.764C101.519 11.13 101.285 11.649 101.183 12.321H105.377ZM101.138 13.662C101.174 14.136 101.258 14.547 101.39 14.895C101.522 15.237 101.696 15.522 101.912 15.75C102.128 15.972 102.383 16.14 102.677 16.254C102.977 16.362 103.307 16.416 103.667 16.416C104.027 16.416 104.336 16.374 104.594 16.29C104.858 16.206 105.086 16.113 105.278 16.011C105.476 15.909 105.647 15.816 105.791 15.732C105.941 15.648 106.085 15.606 106.223 15.606C106.409 15.606 106.547 15.675 106.637 15.813L107.276 16.623C107.03 16.911 106.754 17.154 106.448 17.352C106.142 17.544 105.821 17.7 105.485 17.82C105.155 17.934 104.816 18.015 104.468 18.063C104.126 18.111 103.793 18.135 103.469 18.135C102.827 18.135 102.23 18.03 101.678 17.82C101.126 17.604 100.646 17.289 100.238 16.875C99.8301 16.455 99.5091 15.939 99.2751 15.327C99.0411 14.709 98.9241 13.995 98.9241 13.185C98.9241 12.555 99.0261 11.964 99.2301 11.412C99.4341 10.854 99.7251 10.371 100.103 9.963C100.487 9.549 100.952 9.222 101.498 8.982C102.05 8.742 102.671 8.622 103.361 8.622C103.943 8.622 104.48 8.715 104.972 8.901C105.464 9.087 105.887 9.36 106.241 9.72C106.595 10.074 106.871 10.512 107.069 11.034C107.273 11.55 107.375 12.141 107.375 12.807C107.375 13.143 107.339 13.371 107.267 13.491C107.195 13.605 107.057 13.662 106.853 13.662H101.138Z" fill="black"/>
<g clip-path="url(#clip0)">
<path d="M1.94531 17.368V4.54683C1.94531 4.54683 3.34403 2.30899 8.8177 2.30899C8.8177 2.30899 14.655 2.24717 16.0538 4.24391V17.368" stroke="#085FAB" stroke-miterlimit="10"/>
<path d="M1.94531 4.54688C1.94531 4.54688 3.36579 6.90526 9.00109 6.86508C9.00109 6.86508 14.2727 7.16799 16.0569 4.54688" stroke="#085FAB" stroke-miterlimit="10"/>
<path d="M1.94531 8.95752C1.94531 8.95752 3.36579 11.3159 9.00109 11.2757C9.00109 11.2757 14.2727 11.5786 16.0569 8.95752" stroke="#085FAB" stroke-miterlimit="10"/>
<path d="M1.94531 12.8522C1.94531 12.8522 3.36579 15.2106 9.00109 15.1704C9.00109 15.1704 14.2727 15.4734 16.0569 12.8522" stroke="#085FAB" stroke-miterlimit="10"/>
<path d="M16.8324 20.2518C15.987 20.2518 15.5798 19.9427 15.1073 19.5873C14.5945 19.2009 14.0163 18.7589 12.8912 18.7589C11.7691 18.7589 11.1878 19.1978 10.6781 19.5873C10.2087 19.9427 9.80153 20.2518 8.95608 20.2518C8.11063 20.2518 7.70345 19.9427 7.2341 19.5873C6.72123 19.2009 6.1431 18.7589 5.02101 18.7589C3.89892 18.7589 3.31768 19.1978 2.80792 19.5873C2.33857 19.9427 1.93139 20.2518 1.08594 20.2518V20.9967C2.20802 20.9967 2.78616 20.5578 3.29903 20.1684C3.76838 19.8129 4.17556 19.5038 5.02101 19.5038C5.86646 19.5038 6.27364 19.8129 6.74299 20.1684C7.25586 20.5547 7.83399 20.9967 8.95608 20.9967C10.0782 20.9967 10.6594 20.5578 11.1692 20.1684C11.6385 19.8129 12.0457 19.5038 12.8912 19.5038C13.7366 19.5038 14.1438 19.8129 14.6162 20.1684C15.1291 20.5547 15.7072 20.9967 16.8324 20.9967C16.8635 20.9967 16.8884 20.9937 16.9164 20.9937V20.2487C16.8884 20.2487 16.8635 20.2518 16.8324 20.2518Z" fill="#085FAB"/>
<path d="M17.6488 17.7453C16.7132 17.7453 16.2625 17.4331 15.7403 17.0746C15.1746 16.682 14.5312 16.2369 13.2879 16.2369C12.0446 16.2369 11.4042 16.682 10.8354 17.0746C10.3164 17.4331 9.86565 17.7453 8.93006 17.7453C7.99447 17.7453 7.54378 17.4331 7.02469 17.0746C6.45899 16.682 5.81558 16.2369 4.57538 16.2369C3.33207 16.2369 2.68865 16.682 2.12295 17.0746C1.60076 17.4362 1.15317 17.7453 0.214471 17.7453C0.139872 17.7453 0.0714903 17.7391 0 17.736V18.4902C0.0714903 18.4933 0.136764 18.4995 0.214471 18.4995C1.45778 18.4995 2.10119 18.0544 2.6669 17.6619C3.18909 17.3002 3.63668 16.9911 4.57538 16.9911C5.51097 16.9911 5.96167 17.3033 6.48075 17.6619C7.04645 18.0544 7.68986 18.4995 8.93317 18.4995C10.1765 18.4995 10.8168 18.0544 11.3856 17.6619C11.9047 17.3002 12.3554 16.9911 13.291 16.9911C14.2266 16.9911 14.6773 17.3033 15.1994 17.6619C15.7652 18.0544 16.4086 18.4995 17.6519 18.4995C17.7762 18.4995 17.8912 18.4933 18.0031 18.4841V17.7299C17.8912 17.7391 17.7762 17.7453 17.6488 17.7453Z" fill="#085FAB"/>
</g>
<defs>
<clipPath id="clip0">
<rect width="18" height="19" fill="white" transform="translate(0 2)"/>
</clipPath>
</defs>
</svg>
