<svg width="20" height="20" viewBox="0 0 20 20" fill="none" xmlns="http://www.w3.org/2000/svg">
<path d="M8.44895 4.1306C7.57612 4.1306 0 4.07896 0 2.0653C0 0.0688432 7.59358 0 8.44895 0C9.32177 0 16.8979 0.0516325 16.8979 2.0653C16.8979 4.06175 9.30431 4.1306 8.44895 4.1306ZM1.09976 2.0653C1.62345 2.46115 4.08482 3.09795 8.43149 3.09795C12.7782 3.09795 15.257 2.46115 15.7632 2.0653C15.2395 1.66945 12.7782 1.03265 8.43149 1.03265C4.10228 1.03265 1.62345 1.66945 1.09976 2.0653Z" fill="#1DDFA9"/>
<path d="M8.44895 7.88571C7.57612 7.88571 0 7.84065 0 6.08327C0 5.82792 0.244391 5.63266 0.523695 5.63266C0.802999 5.63266 1.01248 5.8129 1.04739 6.03821C1.37906 6.36866 3.87534 6.98449 8.44895 6.98449C13.0225 6.98449 15.5188 6.36866 15.8505 6.03821C15.8854 5.8129 16.1124 5.63266 16.3742 5.63266C16.671 5.63266 16.8979 5.82792 16.8979 6.08327C16.8979 7.84065 9.30431 7.88571 8.44895 7.88571Z" fill="#1DDFA9"/>
<path d="M8.44895 12.3918C7.57612 12.3918 0 12.3392 0 10.289C0 9.99105 0.244391 9.76324 0.523695 9.76324C0.802999 9.76324 1.01248 9.97353 1.04739 10.2364C1.37906 10.6219 3.87534 11.3404 8.44895 11.3404C13.0225 11.3404 15.5188 10.6219 15.8505 10.2364C15.8854 9.97353 16.1124 9.76324 16.3742 9.76324C16.671 9.76324 16.8979 9.99105 16.8979 10.289C16.8979 12.3392 9.30431 12.3918 8.44895 12.3918Z" fill="#1DDFA9"/>
<path d="M8.44895 16.5224C7.57612 16.5224 0 16.4705 0 14.4482V2.02058C0 1.72674 0.244391 1.50204 0.523695 1.50204C0.820456 1.50204 1.04739 1.72674 1.04739 2.02058V14.3964C1.37906 14.7766 3.8928 15.4853 8.44895 15.4853C13.0051 15.4853 15.5014 14.7766 15.8505 14.3964V2.02058C15.8505 1.72674 16.0949 1.50204 16.3742 1.50204C16.6535 1.50204 16.8979 1.72674 16.8979 2.02058V14.4482C16.8979 16.4705 9.30431 16.5224 8.44895 16.5224Z" fill="#1DDFA9"/>
<path d="M14.0772 19.5264C16.8769 19.5264 19.1466 17.2568 19.1466 14.4571C19.1466 11.6573 16.8769 9.3877 14.0772 9.3877C11.2774 9.3877 9.00781 11.6573 9.00781 14.4571C9.00781 17.2568 11.2774 19.5264 14.0772 19.5264Z" fill="white"/>
<path fill-rule="evenodd" clip-rule="evenodd" d="M13.8899 10.066C11.3611 10.066 9.31115 12.116 9.31115 14.6448C9.31115 17.1736 11.3611 19.2236 13.8899 19.2236C16.4187 19.2236 18.4687 17.1736 18.4687 14.6448C18.4687 12.116 16.4187 10.066 13.8899 10.066ZM8.63281 14.6448C8.63281 11.7414 10.9865 9.3877 13.8899 9.3877C16.7934 9.3877 19.1471 11.7414 19.1471 14.6448C19.1471 17.5482 16.7934 19.9019 13.8899 19.9019C10.9865 19.9019 8.63281 17.5482 8.63281 14.6448Z" fill="#1DDFA9"/>
<path fill-rule="evenodd" clip-rule="evenodd" d="M12.8707 11.4975C12.9243 11.1491 13.2035 10.8897 13.5679 10.8897H14.2157C14.5606 10.8897 14.8816 11.1328 14.9145 11.5098L14.962 11.8774C15.0073 11.8931 15.0525 11.9107 15.0969 11.93L15.4025 11.6978C15.6849 11.4741 16.0785 11.5059 16.327 11.7544L16.7822 12.2096C17.0307 12.4581 17.0625 12.8517 16.8388 13.1341L16.5989 13.4499C16.6149 13.4904 16.6308 13.5317 16.6465 13.573L17.0276 13.6222C17.3786 13.6551 17.6469 13.9673 17.6469 14.3209V14.9687C17.6469 15.3136 17.4038 15.6346 17.0268 15.6675L16.6592 15.715C16.6435 15.7603 16.6259 15.8055 16.6066 15.8499L16.8388 16.1554C17.0625 16.4379 17.0307 16.8315 16.7822 17.08L16.327 17.5352C16.0785 17.7837 15.6849 17.8155 15.4025 17.5918L15.0867 17.3518C15.0462 17.3679 15.0049 17.3838 14.9636 17.3995L14.9134 17.7889L14.9129 17.7921C14.8593 18.1405 14.5801 18.3999 14.2157 18.3999H13.5679C13.223 18.3999 12.902 18.1568 12.8691 17.7798L12.8216 17.4122C12.7763 17.3965 12.7312 17.3789 12.6867 17.3596L12.3812 17.5918C12.0987 17.8155 11.7051 17.7837 11.4566 17.5352L11.0014 17.08C10.7529 16.8315 10.7211 16.4379 10.9448 16.1554L11.1848 15.8397C11.1687 15.7991 11.1528 15.7579 11.1371 15.7166L10.7477 15.6663L10.7445 15.6659C10.3961 15.6123 10.1367 15.3331 10.1367 14.9687V14.3209C10.1367 13.976 10.3798 13.655 10.7568 13.6221L11.1244 13.5746C11.1401 13.5293 11.1577 13.4841 11.177 13.4397L10.9448 13.1342C10.7211 12.8517 10.7529 12.4581 11.0014 12.2096L11.4566 11.7544C11.7051 11.5059 12.0987 11.4741 12.3812 11.6978L12.6969 11.9377C12.7375 11.9217 12.7787 11.9058 12.82 11.8901L12.8703 11.5007L12.8707 11.4975ZM13.3902 11.5747L13.3005 12.2705L13.1525 12.326C13.011 12.3791 12.877 12.4294 12.7611 12.4791L12.6205 12.5393L12.0585 12.1122L12.0559 12.1101C11.9884 12.0561 11.8937 12.06 11.8279 12.1258L11.3728 12.5809C11.307 12.6467 11.3031 12.7414 11.3571 12.8089L11.3592 12.8115L11.7989 13.39L11.7127 13.5409C11.6567 13.6388 11.6122 13.7556 11.5819 13.8769L11.5384 14.0508L10.8113 14.1446L10.8046 14.1451C10.7307 14.1508 10.6619 14.213 10.6619 14.3209V14.9687C10.6619 15.0587 10.7167 15.1292 10.8217 15.1464L11.5175 15.2361L11.573 15.3841C11.6261 15.5256 11.6764 15.6596 11.7261 15.7755L11.7863 15.9161L11.3592 16.4781L11.3571 16.4807C11.3031 16.5482 11.307 16.6429 11.3728 16.7087L11.8279 17.1638C11.8937 17.2296 11.9884 17.2335 12.0559 17.1795L12.0585 17.1774L12.6371 16.7377L12.7879 16.8239C12.8858 16.8799 13.0026 16.9244 13.1239 16.9547L13.2978 16.9982L13.3916 17.7253L13.3921 17.732C13.3978 17.8059 13.46 17.8747 13.5679 17.8747H14.2157C14.3057 17.8747 14.3762 17.8199 14.3934 17.7149L14.4831 17.0191L14.6312 16.9636C14.7726 16.9105 14.9067 16.8602 15.0226 16.8105L15.1631 16.7503L15.7251 17.1774L15.7277 17.1795C15.7952 17.2335 15.8899 17.2296 15.9557 17.1638L16.4108 16.7087C16.4766 16.6429 16.4805 16.5482 16.4265 16.4807L16.4244 16.4781L15.9847 15.8996L16.0709 15.7487C16.1269 15.6508 16.1714 15.534 16.2017 15.4127L16.2452 15.2388L16.9723 15.145L16.979 15.1445C17.053 15.1388 17.1217 15.0766 17.1217 14.9687V14.3209C17.1217 14.2217 17.0433 14.1505 16.9774 14.145L16.9714 14.1445L16.2661 14.0535L16.2106 13.9055C16.1575 13.764 16.1072 13.6299 16.0576 13.514L15.9973 13.3735L16.4244 12.8115L16.4265 12.8089C16.4805 12.7414 16.4766 12.6467 16.4108 12.5809L15.9557 12.1258C15.8899 12.06 15.7952 12.0561 15.7277 12.1101L15.7251 12.1122L15.1466 12.5519L14.9957 12.4657C14.8978 12.4097 14.781 12.3652 14.6597 12.3349L14.4858 12.2914L14.392 11.5643L14.3915 11.5576C14.3858 11.4836 14.3236 11.4149 14.2157 11.4149H13.5679C13.4779 11.4149 13.4074 11.4697 13.3902 11.5747ZM13.8831 13.4631C13.2228 13.4631 12.6926 13.9933 12.6926 14.6536C12.6926 15.3138 13.2228 15.844 13.8831 15.844C14.5413 15.844 15.0735 15.2984 15.0735 14.6536C15.0735 13.9933 14.5433 13.4631 13.8831 13.4631ZM12.1674 14.6536C12.1674 13.7032 12.9327 12.9379 13.8831 12.9379C14.8334 12.9379 15.5987 13.7032 15.5987 14.6536C15.5987 15.5843 14.8354 16.3692 13.8831 16.3692C12.9327 16.3692 12.1674 15.6039 12.1674 14.6536Z" fill="#1DDFA9"/>
</svg>
