<svg width="16" height="16" viewBox="0 0 16 16" fill="none" xmlns="http://www.w3.org/2000/svg">
<circle cx="8" cy="8" r="8" fill="#EAF2FD"/>
<path fill-rule="evenodd" clip-rule="evenodd" d="M11.6749 4.32333C11.8535 4.5019 11.8535 4.79143 11.6749 4.97L4.9691 11.6758C4.79053 11.8544 4.50101 11.8544 4.32244 11.6758C4.14386 11.4972 4.14386 11.2077 4.32244 11.0291L11.0282 4.32333C11.2068 4.14476 11.4963 4.14476 11.6749 4.32333Z" fill="#6D6D6D"/>
<path fill-rule="evenodd" clip-rule="evenodd" d="M11.6767 11.6759C11.4981 11.8544 11.2086 11.8544 11.03 11.6759L4.32421 4.97008C4.14564 4.79151 4.14564 4.50198 4.32421 4.32341C4.50278 4.14484 4.7923 4.14484 4.97087 4.32341L11.6767 11.0292C11.8552 11.2078 11.8552 11.4973 11.6767 11.6759Z" fill="#6D6D6D"/>
</svg>
