<svg width="134" height="80" viewBox="0 0 134 80" fill="none" xmlns="http://www.w3.org/2000/svg">
<path d="M9.408 66.969V77H8.729C8.62167 77 8.53067 76.9813 8.456 76.944C8.386 76.9067 8.316 76.8437 8.246 76.755L2.443 69.195C2.45233 69.3117 2.45933 69.426 2.464 69.538C2.46867 69.65 2.471 69.755 2.471 69.853V77H1.281V66.969H1.981C2.04167 66.969 2.093 66.9737 2.135 66.983C2.177 66.9877 2.21433 66.9993 2.247 67.018C2.27967 67.032 2.31233 67.0553 2.345 67.088C2.37767 67.116 2.41267 67.1533 2.45 67.2L8.253 74.753C8.24367 74.6317 8.23433 74.515 8.225 74.403C8.22033 74.2863 8.218 74.1767 8.218 74.074V66.969H9.408ZM14.4487 69.797C14.9667 69.797 15.4333 69.8833 15.8487 70.056C16.264 70.2287 16.6187 70.4737 16.9127 70.791C17.2067 71.1083 17.4307 71.4933 17.5847 71.946C17.7433 72.394 17.8227 72.8957 17.8227 73.451C17.8227 74.011 17.7433 74.515 17.5847 74.963C17.4307 75.411 17.2067 75.7937 16.9127 76.111C16.6187 76.4283 16.264 76.6733 15.8487 76.846C15.4333 77.014 14.9667 77.098 14.4487 77.098C13.926 77.098 13.4547 77.014 13.0347 76.846C12.6193 76.6733 12.2647 76.4283 11.9707 76.111C11.6767 75.7937 11.4503 75.411 11.2917 74.963C11.1377 74.515 11.0607 74.011 11.0607 73.451C11.0607 72.8957 11.1377 72.394 11.2917 71.946C11.4503 71.4933 11.6767 71.1083 11.9707 70.791C12.2647 70.4737 12.6193 70.2287 13.0347 70.056C13.4547 69.8833 13.926 69.797 14.4487 69.797ZM14.4487 76.125C15.1487 76.125 15.6713 75.8917 16.0167 75.425C16.362 74.9537 16.5347 74.298 16.5347 73.458C16.5347 72.6133 16.362 71.9553 16.0167 71.484C15.6713 71.0127 15.1487 70.777 14.4487 70.777C14.094 70.777 13.7837 70.8377 13.5177 70.959C13.2563 71.0803 13.037 71.2553 12.8597 71.484C12.687 71.7127 12.5563 71.995 12.4677 72.331C12.3837 72.6623 12.3417 73.038 12.3417 73.458C12.3417 74.298 12.5143 74.9537 12.8597 75.425C13.2097 75.8917 13.7393 76.125 14.4487 76.125ZM21.457 77.112C20.897 77.112 20.4653 76.9557 20.162 76.643C19.8633 76.3303 19.714 75.88 19.714 75.292V70.952H18.86C18.7853 70.952 18.7223 70.931 18.671 70.889C18.6196 70.8423 18.594 70.7723 18.594 70.679V70.182L19.756 70.035L20.043 67.844C20.057 67.774 20.0873 67.718 20.134 67.676C20.1853 67.6293 20.2506 67.606 20.33 67.606H20.96V70.049H23.011V70.952H20.96V75.208C20.96 75.5067 21.0323 75.7283 21.177 75.873C21.3216 76.0177 21.5083 76.09 21.737 76.09C21.8676 76.09 21.9796 76.0737 22.073 76.041C22.171 76.0037 22.255 75.964 22.325 75.922C22.395 75.88 22.4533 75.8427 22.5 75.81C22.5513 75.7727 22.5956 75.754 22.633 75.754C22.6983 75.754 22.7566 75.7937 22.808 75.873L23.172 76.468C22.9573 76.6687 22.6983 76.8273 22.395 76.944C22.0916 77.056 21.779 77.112 21.457 77.112ZM25.5505 70.854C25.8539 70.532 26.1899 70.2753 26.5585 70.084C26.9272 69.8927 27.3519 69.797 27.8325 69.797C28.2199 69.797 28.5605 69.8623 28.8545 69.993C29.1532 70.119 29.4005 70.301 29.5965 70.539C29.7972 70.7723 29.9489 71.0547 30.0515 71.386C30.1542 71.7173 30.2055 72.0837 30.2055 72.485V77H28.9525V72.485C28.9525 71.9483 28.8289 71.533 28.5815 71.239C28.3389 70.9403 27.9679 70.791 27.4685 70.791C27.0999 70.791 26.7545 70.8797 26.4325 71.057C26.1152 71.2343 25.8212 71.4747 25.5505 71.778V77H24.2975V66.689H25.5505V70.854ZM33.4202 69.909V77H32.1742V69.909H33.4202ZM33.6862 67.683C33.6862 67.8043 33.6605 67.9187 33.6092 68.026C33.5625 68.1287 33.4972 68.222 33.4132 68.306C33.3339 68.3853 33.2382 68.4483 33.1262 68.495C33.0189 68.5417 32.9045 68.565 32.7832 68.565C32.6619 68.565 32.5475 68.5417 32.4402 68.495C32.3375 68.4483 32.2465 68.3853 32.1672 68.306C32.0879 68.222 32.0249 68.1287 31.9782 68.026C31.9315 67.9187 31.9082 67.8043 31.9082 67.683C31.9082 67.5617 31.9315 67.4473 31.9782 67.34C32.0249 67.228 32.0879 67.1323 32.1672 67.053C32.2465 66.969 32.3375 66.9037 32.4402 66.857C32.5475 66.8103 32.6619 66.787 32.7832 66.787C32.9045 66.787 33.0189 66.8103 33.1262 66.857C33.2382 66.9037 33.3339 66.969 33.4132 67.053C33.4972 67.1323 33.5625 67.228 33.6092 67.34C33.6605 67.4473 33.6862 67.5617 33.6862 67.683ZM36.6435 70.938C36.7975 70.7653 36.9608 70.609 37.1335 70.469C37.3061 70.329 37.4881 70.21 37.6795 70.112C37.8755 70.0093 38.0808 69.9323 38.2955 69.881C38.5148 69.825 38.7505 69.797 39.0025 69.797C39.3898 69.797 39.7305 69.8623 40.0245 69.993C40.3231 70.119 40.5705 70.301 40.7665 70.539C40.9671 70.7723 41.1188 71.0547 41.2215 71.386C41.3241 71.7173 41.3755 72.0837 41.3755 72.485V77H40.1225V72.485C40.1225 71.9483 39.9988 71.533 39.7515 71.239C39.5088 70.9403 39.1378 70.791 38.6385 70.791C38.2698 70.791 37.9245 70.8797 37.6025 71.057C37.2851 71.2343 36.9911 71.4747 36.7205 71.778V77H35.4675V69.909H36.2165C36.3938 69.909 36.5035 69.9953 36.5455 70.168L36.6435 70.938ZM45.7451 73.535C45.9971 73.535 46.2188 73.5 46.4101 73.43C46.6014 73.36 46.7624 73.262 46.8931 73.136C47.0238 73.01 47.1218 72.8607 47.1871 72.688C47.2524 72.5107 47.2851 72.317 47.2851 72.107C47.2851 71.673 47.1521 71.3277 46.8861 71.071C46.6248 70.8143 46.2444 70.686 45.7451 70.686C45.2411 70.686 44.8561 70.8143 44.5901 71.071C44.3288 71.3277 44.1981 71.673 44.1981 72.107C44.1981 72.317 44.2308 72.5107 44.2961 72.688C44.3661 72.8607 44.4664 73.01 44.5971 73.136C44.7278 73.262 44.8888 73.36 45.0801 73.43C45.2714 73.5 45.4931 73.535 45.7451 73.535ZM47.9921 77.385C47.9921 77.2123 47.9431 77.0723 47.8451 76.965C47.7471 76.8577 47.6141 76.7737 47.4461 76.713C47.2828 76.6523 47.0914 76.6103 46.8721 76.587C46.6528 76.559 46.4194 76.538 46.1721 76.524C45.9294 76.51 45.6821 76.496 45.4301 76.482C45.1781 76.468 44.9354 76.4447 44.7021 76.412C44.4408 76.5333 44.2261 76.6873 44.0581 76.874C43.8948 77.056 43.8131 77.2707 43.8131 77.518C43.8131 77.6767 43.8528 77.8237 43.9321 77.959C44.0161 78.099 44.1421 78.218 44.3101 78.316C44.4781 78.4187 44.6881 78.498 44.9401 78.554C45.1968 78.6147 45.4978 78.645 45.8431 78.645C46.1791 78.645 46.4801 78.6147 46.7461 78.554C47.0121 78.4933 47.2361 78.407 47.4181 78.295C47.6048 78.183 47.7471 78.05 47.8451 77.896C47.9431 77.742 47.9921 77.5717 47.9921 77.385ZM49.2591 70.189V70.651C49.2591 70.805 49.1611 70.903 48.9651 70.945L48.1601 71.05C48.3188 71.358 48.3981 71.6987 48.3981 72.072C48.3981 72.4173 48.3304 72.7323 48.1951 73.017C48.0644 73.297 47.8824 73.5373 47.6491 73.738C47.4158 73.9387 47.1358 74.0927 46.8091 74.2C46.4824 74.3073 46.1278 74.361 45.7451 74.361C45.4138 74.361 45.1011 74.3213 44.8071 74.242C44.6578 74.3353 44.5434 74.4357 44.4641 74.543C44.3848 74.6457 44.3451 74.7507 44.3451 74.858C44.3451 75.026 44.4128 75.1543 44.5481 75.243C44.6881 75.327 44.8701 75.3877 45.0941 75.425C45.3181 75.4623 45.5724 75.4857 45.8571 75.495C46.1464 75.5043 46.4404 75.5207 46.7391 75.544C47.0424 75.5627 47.3364 75.5977 47.6211 75.649C47.9104 75.7003 48.1671 75.7843 48.3911 75.901C48.6151 76.0177 48.7948 76.1787 48.9301 76.384C49.0701 76.5893 49.1401 76.8553 49.1401 77.182C49.1401 77.4853 49.0631 77.7793 48.9091 78.064C48.7598 78.3487 48.5428 78.6007 48.2581 78.82C47.9734 79.044 47.6234 79.2213 47.2081 79.352C46.7974 79.4873 46.3331 79.555 45.8151 79.555C45.2971 79.555 44.8444 79.5037 44.4571 79.401C44.0698 79.2983 43.7478 79.1607 43.4911 78.988C43.2344 78.8153 43.0408 78.6147 42.9101 78.386C42.7841 78.162 42.7211 77.9263 42.7211 77.679C42.7211 77.329 42.8308 77.0327 43.0501 76.79C43.2694 76.5473 43.5704 76.3537 43.9531 76.209C43.7431 76.1157 43.5751 75.992 43.4491 75.838C43.3278 75.6793 43.2671 75.467 43.2671 75.201C43.2671 75.0983 43.2858 74.9933 43.3231 74.886C43.3604 74.774 43.4164 74.6643 43.4911 74.557C43.5704 74.445 43.6661 74.34 43.7781 74.242C43.8901 74.144 44.0208 74.0577 44.1701 73.983C43.8201 73.787 43.5471 73.528 43.3511 73.206C43.1551 72.8793 43.0571 72.5013 43.0571 72.072C43.0571 71.7267 43.1224 71.414 43.2531 71.134C43.3884 70.8493 43.5751 70.609 43.8131 70.413C44.0511 70.2123 44.3334 70.0583 44.6601 69.951C44.9914 69.8437 45.3531 69.79 45.7451 69.79C46.0531 69.79 46.3401 69.825 46.6061 69.895C46.8721 69.9603 47.1148 70.0583 47.3341 70.189H49.2591ZM56.3066 77.112C55.7466 77.112 55.3149 76.9557 55.0116 76.643C54.7129 76.3303 54.5636 75.88 54.5636 75.292V70.952H53.7096C53.6349 70.952 53.5719 70.931 53.5206 70.889C53.4692 70.8423 53.4436 70.7723 53.4436 70.679V70.182L54.6056 70.035L54.8926 67.844C54.9066 67.774 54.9369 67.718 54.9836 67.676C55.0349 67.6293 55.1002 67.606 55.1796 67.606H55.8096V70.049H57.8606V70.952H55.8096V75.208C55.8096 75.5067 55.8819 75.7283 56.0266 75.873C56.1712 76.0177 56.3579 76.09 56.5866 76.09C56.7172 76.09 56.8292 76.0737 56.9226 76.041C57.0206 76.0037 57.1046 75.964 57.1746 75.922C57.2446 75.88 57.3029 75.8427 57.3496 75.81C57.4009 75.7727 57.4452 75.754 57.4826 75.754C57.5479 75.754 57.6062 75.7937 57.6576 75.873L58.0216 76.468C57.8069 76.6687 57.5479 76.8273 57.2446 76.944C56.9412 77.056 56.6286 77.112 56.3066 77.112ZM62.0951 69.797C62.6131 69.797 63.0798 69.8833 63.4951 70.056C63.9105 70.2287 64.2651 70.4737 64.5591 70.791C64.8531 71.1083 65.0771 71.4933 65.2311 71.946C65.3898 72.394 65.4691 72.8957 65.4691 73.451C65.4691 74.011 65.3898 74.515 65.2311 74.963C65.0771 75.411 64.8531 75.7937 64.5591 76.111C64.2651 76.4283 63.9105 76.6733 63.4951 76.846C63.0798 77.014 62.6131 77.098 62.0951 77.098C61.5725 77.098 61.1011 77.014 60.6811 76.846C60.2658 76.6733 59.9111 76.4283 59.6171 76.111C59.3231 75.7937 59.0968 75.411 58.9381 74.963C58.7841 74.515 58.7071 74.011 58.7071 73.451C58.7071 72.8957 58.7841 72.394 58.9381 71.946C59.0968 71.4933 59.3231 71.1083 59.6171 70.791C59.9111 70.4737 60.2658 70.2287 60.6811 70.056C61.1011 69.8833 61.5725 69.797 62.0951 69.797ZM62.0951 76.125C62.7951 76.125 63.3178 75.8917 63.6631 75.425C64.0085 74.9537 64.1811 74.298 64.1811 73.458C64.1811 72.6133 64.0085 71.9553 63.6631 71.484C63.3178 71.0127 62.7951 70.777 62.0951 70.777C61.7405 70.777 61.4301 70.8377 61.1641 70.959C60.9028 71.0803 60.6835 71.2553 60.5061 71.484C60.3335 71.7127 60.2028 71.995 60.1141 72.331C60.0301 72.6623 59.9881 73.038 59.9881 73.458C59.9881 74.298 60.1608 74.9537 60.5061 75.425C60.8561 75.8917 61.3858 76.125 62.0951 76.125ZM74.7615 71.078C74.7055 71.1807 74.6192 71.232 74.5025 71.232C74.4325 71.232 74.3532 71.2063 74.2645 71.155C74.1759 71.1037 74.0662 71.0477 73.9355 70.987C73.8095 70.9217 73.6579 70.8633 73.4805 70.812C73.3032 70.756 73.0932 70.728 72.8505 70.728C72.6405 70.728 72.4515 70.756 72.2835 70.812C72.1155 70.8633 71.9709 70.9357 71.8495 71.029C71.7329 71.1223 71.6419 71.232 71.5765 71.358C71.5159 71.4793 71.4855 71.6123 71.4855 71.757C71.4855 71.939 71.5369 72.0907 71.6395 72.212C71.7469 72.3333 71.8869 72.4383 72.0595 72.527C72.2322 72.6157 72.4282 72.695 72.6475 72.765C72.8669 72.8303 73.0909 72.9027 73.3195 72.982C73.5529 73.0567 73.7792 73.1407 73.9985 73.234C74.2179 73.3273 74.4139 73.444 74.5865 73.584C74.7592 73.724 74.8969 73.8967 74.9995 74.102C75.1069 74.3027 75.1605 74.5453 75.1605 74.83C75.1605 75.1567 75.1022 75.46 74.9855 75.74C74.8689 76.0153 74.6962 76.2557 74.4675 76.461C74.2389 76.6617 73.9589 76.8203 73.6275 76.937C73.2962 77.0537 72.9135 77.112 72.4795 77.112C71.9849 77.112 71.5369 77.0327 71.1355 76.874C70.7342 76.7107 70.3935 76.503 70.1135 76.251L70.4075 75.775C70.4449 75.7143 70.4892 75.6677 70.5405 75.635C70.5919 75.6023 70.6572 75.586 70.7365 75.586C70.8205 75.586 70.9092 75.6187 71.0025 75.684C71.0959 75.7493 71.2079 75.8217 71.3385 75.901C71.4739 75.9803 71.6372 76.0527 71.8285 76.118C72.0199 76.1833 72.2579 76.216 72.5425 76.216C72.7852 76.216 72.9975 76.1857 73.1795 76.125C73.3615 76.0597 73.5132 75.9733 73.6345 75.866C73.7559 75.7587 73.8445 75.635 73.9005 75.495C73.9612 75.355 73.9915 75.2057 73.9915 75.047C73.9915 74.851 73.9379 74.69 73.8305 74.564C73.7279 74.4333 73.5902 74.3237 73.4175 74.235C73.2449 74.1417 73.0465 74.0623 72.8225 73.997C72.6032 73.927 72.3769 73.8547 72.1435 73.78C71.9149 73.7053 71.6885 73.6213 71.4645 73.528C71.2452 73.43 71.0492 73.3087 70.8765 73.164C70.7039 73.0193 70.5639 72.842 70.4565 72.632C70.3539 72.4173 70.3025 72.1583 70.3025 71.855C70.3025 71.5843 70.3585 71.3253 70.4705 71.078C70.5825 70.826 70.7459 70.6067 70.9605 70.42C71.1752 70.2287 71.4389 70.077 71.7515 69.965C72.0642 69.853 72.4212 69.797 72.8225 69.797C73.2892 69.797 73.7069 69.8717 74.0755 70.021C74.4489 70.1657 74.7709 70.3663 75.0415 70.623L74.7615 71.078ZM77.9412 70.854C78.2445 70.532 78.5805 70.2753 78.9492 70.084C79.3178 69.8927 79.7425 69.797 80.2232 69.797C80.6105 69.797 80.9512 69.8623 81.2452 69.993C81.5438 70.119 81.7912 70.301 81.9872 70.539C82.1878 70.7723 82.3395 71.0547 82.4422 71.386C82.5448 71.7173 82.5962 72.0837 82.5962 72.485V77H81.3432V72.485C81.3432 71.9483 81.2195 71.533 80.9722 71.239C80.7295 70.9403 80.3585 70.791 79.8592 70.791C79.4905 70.791 79.1452 70.8797 78.8232 71.057C78.5058 71.2343 78.2118 71.4747 77.9412 71.778V77H76.6882V66.689H77.9412V70.854ZM87.4838 69.797C88.0018 69.797 88.4685 69.8833 88.8838 70.056C89.2991 70.2287 89.6538 70.4737 89.9478 70.791C90.2418 71.1083 90.4658 71.4933 90.6198 71.946C90.7785 72.394 90.8578 72.8957 90.8578 73.451C90.8578 74.011 90.7785 74.515 90.6198 74.963C90.4658 75.411 90.2418 75.7937 89.9478 76.111C89.6538 76.4283 89.2991 76.6733 88.8838 76.846C88.4685 77.014 88.0018 77.098 87.4838 77.098C86.9611 77.098 86.4898 77.014 86.0698 76.846C85.6545 76.6733 85.2998 76.4283 85.0058 76.111C84.7118 75.7937 84.4855 75.411 84.3268 74.963C84.1728 74.515 84.0958 74.011 84.0958 73.451C84.0958 72.8957 84.1728 72.394 84.3268 71.946C84.4855 71.4933 84.7118 71.1083 85.0058 70.791C85.2998 70.4737 85.6545 70.2287 86.0698 70.056C86.4898 69.8833 86.9611 69.797 87.4838 69.797ZM87.4838 76.125C88.1838 76.125 88.7065 75.8917 89.0518 75.425C89.3971 74.9537 89.5698 74.298 89.5698 73.458C89.5698 72.6133 89.3971 71.9553 89.0518 71.484C88.7065 71.0127 88.1838 70.777 87.4838 70.777C87.1291 70.777 86.8188 70.8377 86.5528 70.959C86.2915 71.0803 86.0721 71.2553 85.8948 71.484C85.7221 71.7127 85.5915 71.995 85.5028 72.331C85.4188 72.6623 85.3768 73.038 85.3768 73.458C85.3768 74.298 85.5495 74.9537 85.8948 75.425C86.2448 75.8917 86.7745 76.125 87.4838 76.125ZM102.108 69.909L99.8118 77H98.8248C98.7035 77 98.6195 76.9207 98.5728 76.762L97.0048 71.953C96.9675 71.8457 96.9371 71.7383 96.9138 71.631C96.8905 71.519 96.8671 71.4093 96.8438 71.302C96.8205 71.4093 96.7971 71.519 96.7738 71.631C96.7505 71.7383 96.7201 71.848 96.6828 71.96L95.0868 76.762C95.0448 76.9207 94.9515 77 94.8068 77H93.8688L91.5728 69.909H92.5528C92.6508 69.909 92.7325 69.9347 92.7978 69.986C92.8678 70.0373 92.9145 70.098 92.9378 70.168L94.2958 74.732C94.3751 75.068 94.4381 75.3853 94.4848 75.684C94.5268 75.53 94.5688 75.3737 94.6108 75.215C94.6575 75.0563 94.7065 74.8953 94.7578 74.732L96.2558 70.14C96.2791 70.07 96.3188 70.0117 96.3748 69.965C96.4355 69.9183 96.5078 69.895 96.5918 69.895H97.1378C97.2311 69.895 97.3081 69.9183 97.3688 69.965C97.4295 70.0117 97.4715 70.07 97.4948 70.14L98.9578 74.732C99.0091 74.8953 99.0558 75.0563 99.0978 75.215C99.1398 75.3737 99.1795 75.53 99.2168 75.684C99.2401 75.53 99.2681 75.376 99.3008 75.222C99.3381 75.0633 99.3778 74.9 99.4198 74.732L100.806 70.168C100.829 70.0933 100.873 70.0327 100.939 69.986C101.004 69.9347 101.081 69.909 101.17 69.909H102.108ZM107.869 70.854C108.172 70.532 108.508 70.2753 108.877 70.084C109.246 69.8927 109.67 69.797 110.151 69.797C110.538 69.797 110.879 69.8623 111.173 69.993C111.472 70.119 111.719 70.301 111.915 70.539C112.116 70.7723 112.267 71.0547 112.37 71.386C112.473 71.7173 112.524 72.0837 112.524 72.485V77H111.271V72.485C111.271 71.9483 111.147 71.533 110.9 71.239C110.657 70.9403 110.286 70.791 109.787 70.791C109.418 70.791 109.073 70.8797 108.751 71.057C108.434 71.2343 108.14 71.4747 107.869 71.778V77H106.616V66.689H107.869V70.854ZM119.169 72.681C119.169 72.3917 119.127 72.128 119.043 71.89C118.963 71.6473 118.844 71.4397 118.686 71.267C118.532 71.0897 118.343 70.9543 118.119 70.861C117.895 70.763 117.64 70.714 117.356 70.714C116.758 70.714 116.285 70.889 115.935 71.239C115.589 71.5843 115.375 72.065 115.291 72.681H119.169ZM120.177 76.006C120.023 76.1927 119.838 76.356 119.624 76.496C119.409 76.6313 119.178 76.7433 118.931 76.832C118.688 76.9207 118.436 76.986 118.175 77.028C117.913 77.0747 117.654 77.098 117.398 77.098C116.908 77.098 116.455 77.0163 116.04 76.853C115.629 76.685 115.272 76.4423 114.969 76.125C114.67 75.803 114.437 75.4063 114.269 74.935C114.101 74.4637 114.017 73.9223 114.017 73.311C114.017 72.8163 114.091 72.3543 114.241 71.925C114.395 71.4957 114.614 71.1247 114.899 70.812C115.183 70.4947 115.531 70.2473 115.942 70.07C116.352 69.888 116.814 69.797 117.328 69.797C117.752 69.797 118.144 69.8693 118.504 70.014C118.868 70.154 119.18 70.3593 119.442 70.63C119.708 70.896 119.915 71.2273 120.065 71.624C120.214 72.016 120.289 72.464 120.289 72.968C120.289 73.164 120.268 73.2947 120.226 73.36C120.184 73.4253 120.104 73.458 119.988 73.458H115.249C115.263 73.906 115.323 74.2957 115.431 74.627C115.543 74.9583 115.697 75.236 115.893 75.46C116.089 75.6793 116.322 75.845 116.593 75.957C116.863 76.0643 117.167 76.118 117.503 76.118C117.815 76.118 118.084 76.083 118.308 76.013C118.536 75.9383 118.732 75.859 118.896 75.775C119.059 75.691 119.194 75.614 119.302 75.544C119.414 75.4693 119.509 75.432 119.589 75.432C119.691 75.432 119.771 75.4717 119.827 75.551L120.177 76.006ZM123.002 71.33C123.226 70.8447 123.501 70.4667 123.828 70.196C124.155 69.9207 124.554 69.783 125.025 69.783C125.174 69.783 125.317 69.7993 125.452 69.832C125.592 69.8647 125.716 69.916 125.823 69.986L125.732 70.917C125.704 71.0337 125.634 71.092 125.522 71.092C125.457 71.092 125.361 71.078 125.235 71.05C125.109 71.022 124.967 71.008 124.808 71.008C124.584 71.008 124.383 71.0407 124.206 71.106C124.033 71.1713 123.877 71.2693 123.737 71.4C123.602 71.526 123.478 71.6847 123.366 71.876C123.259 72.0627 123.161 72.2773 123.072 72.52V77H121.819V69.909H122.533C122.668 69.909 122.762 69.9347 122.813 69.986C122.864 70.0373 122.899 70.126 122.918 70.252L123.002 71.33ZM131.378 72.681C131.378 72.3917 131.336 72.128 131.252 71.89C131.172 71.6473 131.053 71.4397 130.895 71.267C130.741 71.0897 130.552 70.9543 130.328 70.861C130.104 70.763 129.849 70.714 129.565 70.714C128.967 70.714 128.494 70.889 128.144 71.239C127.798 71.5843 127.584 72.065 127.5 72.681H131.378ZM132.386 76.006C132.232 76.1927 132.047 76.356 131.833 76.496C131.618 76.6313 131.387 76.7433 131.14 76.832C130.897 76.9207 130.645 76.986 130.384 77.028C130.122 77.0747 129.863 77.098 129.607 77.098C129.117 77.098 128.664 77.0163 128.249 76.853C127.838 76.685 127.481 76.4423 127.178 76.125C126.879 75.803 126.646 75.4063 126.478 74.935C126.31 74.4637 126.226 73.9223 126.226 73.311C126.226 72.8163 126.3 72.3543 126.45 71.925C126.604 71.4957 126.823 71.1247 127.108 70.812C127.392 70.4947 127.74 70.2473 128.151 70.07C128.561 69.888 129.023 69.797 129.537 69.797C129.961 69.797 130.353 69.8693 130.713 70.014C131.077 70.154 131.389 70.3593 131.651 70.63C131.917 70.896 132.124 71.2273 132.274 71.624C132.423 72.016 132.498 72.464 132.498 72.968C132.498 73.164 132.477 73.2947 132.435 73.36C132.393 73.4253 132.313 73.458 132.197 73.458H127.458C127.472 73.906 127.532 74.2957 127.64 74.627C127.752 74.9583 127.906 75.236 128.102 75.46C128.298 75.6793 128.531 75.845 128.802 75.957C129.072 76.0643 129.376 76.118 129.712 76.118C130.024 76.118 130.293 76.083 130.517 76.013C130.745 75.9383 130.941 75.859 131.105 75.775C131.268 75.691 131.403 75.614 131.511 75.544C131.623 75.4693 131.718 75.432 131.798 75.432C131.9 75.432 131.98 75.4717 132.036 75.551L132.386 76.006Z" fill="#A1A1A1"/>
<path d="M65.3446 11.557C62.9545 11.557 42 11.3939 42 5.78068C42 0.167428 62.9545 0 65.3446 0C67.7347 0 88.6891 0.163022 88.6891 5.77627C88.6891 11.3895 67.7347 11.557 65.3446 11.557ZM45.0889 5.77627C46.5131 6.86896 53.3496 8.66661 65.3446 8.66661C77.3395 8.66661 84.176 6.87337 85.6003 5.77627C84.176 4.68358 77.3395 2.88593 65.3446 2.88593C53.3496 2.88593 46.5131 4.68358 45.0889 5.77627ZM85.8272 6.00098H85.8451H85.8272Z" fill="#A1A1A1"/>
<path d="M65.3446 23.1094C62.9545 23.1094 42 22.9464 42 17.3331C42 16.5356 42.6543 15.8879 43.4599 15.8879C44.2076 15.8879 44.8263 16.4475 44.9108 17.1657C45.8099 18.2319 52.7176 20.219 65.349 20.219C77.9804 20.219 84.8881 18.2275 85.7872 17.1657C85.8717 16.4475 86.486 15.8879 87.2381 15.8879C88.0437 15.8879 88.698 16.5356 88.698 17.3331C88.6936 22.9508 67.7346 23.1094 65.3446 23.1094Z" fill="#A1A1A1"/>
<path d="M65.3446 34.667C62.9545 34.667 42 34.504 42 28.8907C42 28.0932 42.6543 27.4456 43.4599 27.4456C44.2076 27.4456 44.8263 28.0051 44.9108 28.7233C45.8099 29.7896 52.7176 31.7767 65.349 31.7767C77.9804 31.7767 84.8881 29.7851 85.7872 28.7233C85.8717 28.0051 86.486 27.4456 87.2381 27.4456C88.0437 27.4456 88.698 28.0932 88.698 28.8907C88.6936 34.504 67.7346 34.667 65.3446 34.667ZM85.7738 28.8863C85.7738 28.8907 85.7738 28.8907 85.7738 28.8863V28.8863ZM44.9153 28.8863C44.9153 28.8907 44.9153 28.8907 44.9153 28.8863V28.8863Z" fill="#A1A1A1"/>
<path d="M65.3446 46.2236C62.9545 46.2236 42 46.0606 42 40.4473V5.77647C42 4.97898 42.6543 4.3313 43.4599 4.3313C44.2655 4.3313 44.9197 4.97898 44.9197 5.77647V40.2887C45.8544 41.3594 52.7621 43.3333 65.349 43.3333C77.9359 43.3333 84.8436 41.3594 85.7783 40.2887V5.77647C85.7783 4.97898 86.4325 4.3313 87.2381 4.3313C88.0437 4.3313 88.698 4.97898 88.698 5.77647V40.4473C88.6936 46.0606 67.7346 46.2236 65.3446 46.2236Z" fill="#A1A1A1"/>
<circle cx="85.4681" cy="37.1451" r="11.8548" fill="#A1A1A1"/>
<path fill-rule="evenodd" clip-rule="evenodd" d="M90.8956 32.2147C91.2861 32.6052 91.2861 33.2384 90.8956 33.6289L81.9541 42.5704C81.5636 42.9609 80.9304 42.9609 80.5399 42.5704C80.1494 42.1798 80.1494 41.5467 80.5399 41.1562L89.4814 32.2147C89.8719 31.8242 90.5051 31.8242 90.8956 32.2147Z" fill="white"/>
<path fill-rule="evenodd" clip-rule="evenodd" d="M80.5401 32.2148C80.9306 31.8242 81.5638 31.8242 81.9543 32.2148L90.8958 41.1562C91.2863 41.5468 91.2863 42.1799 90.8958 42.5705C90.5053 42.961 89.8721 42.961 89.4816 42.5705L80.5401 33.629C80.1496 33.2385 80.1496 32.6053 80.5401 32.2148Z" fill="white"/>
</svg>
