<svg width="13" height="16" viewBox="0 0 13 16" fill="none" xmlns="http://www.w3.org/2000/svg">
<mask id="path-1-inside-1" fill="white">
<path fill-rule="evenodd" clip-rule="evenodd" d="M3 0C1.34315 0 0 1.34315 0 3V15.7059H0.0603744L6.35739 10.2213L12.6544 15.7059H12.7143V3C12.7143 1.34315 11.3711 0 9.71429 0H3Z"/>
</mask>
<path d="M0 15.7059H-1V16.7059H0V15.7059ZM0.0603744 15.7059V16.7059H0.434806L0.717158 16.46L0.0603744 15.7059ZM6.35739 10.2213L7.01417 9.46727L6.35739 8.89523L5.7006 9.46727L6.35739 10.2213ZM12.6544 15.7059L11.9976 16.46L12.28 16.7059H12.6544V15.7059ZM12.7143 15.7059V16.7059H13.7143V15.7059H12.7143ZM1 3C1 1.89543 1.89543 1 3 1V-1C0.79086 -1 -1 0.790865 -1 3H1ZM1 15.7059V3H-1V15.7059H1ZM0.0603744 14.7059H0V16.7059H0.0603744V14.7059ZM0.717158 16.46L7.01417 10.9754L5.7006 9.46727L-0.596409 14.9518L0.717158 16.46ZM5.7006 10.9754L11.9976 16.46L13.3112 14.9518L7.01417 9.46727L5.7006 10.9754ZM12.7143 14.7059H12.6544V16.7059H12.7143V14.7059ZM11.7143 3V15.7059H13.7143V3H11.7143ZM9.71429 1C10.8189 1 11.7143 1.89543 11.7143 3H13.7143C13.7143 0.790861 11.9234 -1 9.71429 -1V1ZM3 1H9.71429V-1H3V1Z" fill="#085FAB" mask="url(#path-1-inside-1)"/>
</svg>
