<svg width="141" height="123" viewBox="0 0 141 123" fill="none" xmlns="http://www.w3.org/2000/svg">
<g filter="url(#filter0_d)">
<rect x="20" y="12" width="101" height="82.935" rx="10" fill="white"/>
</g>
<path d="M62.5355 28.5249C60.7609 28.5248 59.0261 29.051 57.5505 30.0369C56.0749 31.0228 54.9248 32.4241 54.2456 34.0636C53.5664 35.7031 53.3887 37.5072 53.7349 39.2478C54.081 40.9883 54.9356 42.5871 56.1904 43.842C57.4452 45.0969 59.044 45.9515 60.7845 46.2977C62.5251 46.644 64.3292 46.4663 65.9687 45.7872C67.6083 45.1081 69.0096 43.9581 69.9956 42.4825C70.9815 41.007 71.5078 39.2722 71.5078 37.4975C71.5052 35.1187 70.5592 32.838 68.8771 31.1559C67.195 29.4737 64.9144 28.5275 62.5355 28.5249V28.5249ZM62.5355 45.188C61.0147 45.188 59.528 44.737 58.2635 43.8921C56.999 43.0472 56.0135 41.8463 55.4315 40.4412C54.8495 39.0362 54.6972 37.4901 54.9939 35.9985C55.2906 34.5069 56.0229 33.1368 57.0983 32.0614C58.1737 30.9861 59.5438 30.2537 61.0354 29.957C62.527 29.6603 64.0731 29.8126 65.4781 30.3946C66.8831 30.9766 68.0841 31.9622 68.929 33.2267C69.7739 34.4912 70.2249 35.9778 70.2249 37.4986C70.2222 39.5372 69.4113 41.4915 67.9698 42.9329C66.5283 44.3744 64.574 45.1854 62.5355 45.188V45.188Z" fill="#085FAB"/>
<path d="M62.536 59.2876C62.1557 59.2876 61.784 59.4004 61.4678 59.6116C61.1516 59.8229 60.9052 60.1232 60.7596 60.4745C60.6141 60.8258 60.576 61.2124 60.6502 61.5854C60.7244 61.9584 60.9075 62.301 61.1764 62.5699C61.4453 62.8388 61.7879 63.0219 62.1609 63.0961C62.5339 63.1703 62.9204 63.1322 63.2718 62.9867C63.6231 62.8411 63.9234 62.5947 64.1347 62.2785C64.3459 61.9623 64.4587 61.5906 64.4587 61.2103C64.4581 60.7006 64.2554 60.2118 63.8949 59.8514C63.5345 59.4909 63.0457 59.2882 62.536 59.2876V59.2876ZM62.536 61.8512C62.4092 61.8512 62.2853 61.8136 62.1799 61.7432C62.0745 61.6728 61.9924 61.5727 61.9439 61.4556C61.8954 61.3385 61.8827 61.2096 61.9074 61.0853C61.9321 60.9609 61.9932 60.8468 62.0828 60.7571C62.1724 60.6675 62.2866 60.6064 62.411 60.5817C62.5353 60.557 62.6641 60.5697 62.7813 60.6182C62.8984 60.6667 62.9985 60.7488 63.0689 60.8542C63.1393 60.9596 63.1769 61.0835 63.1769 61.2103C63.1768 61.3803 63.1092 61.5432 62.9891 61.6634C62.8689 61.7836 62.7059 61.8511 62.536 61.8512V61.8512Z" fill="#085FAB"/>
<path d="M62.536 35.5747C62.1557 35.5747 61.784 35.6875 61.4678 35.8987C61.1516 36.11 60.9052 36.4103 60.7596 36.7616C60.6141 37.113 60.576 37.4995 60.6502 37.8725C60.7244 38.2455 60.9075 38.5881 61.1764 38.857C61.4453 39.1259 61.7879 39.309 62.1609 39.3832C62.5339 39.4574 62.9204 39.4193 63.2718 39.2738C63.6231 39.1282 63.9234 38.8818 64.1347 38.5656C64.3459 38.2494 64.4587 37.8777 64.4587 37.4974C64.4581 36.9877 64.2554 36.499 63.8949 36.1385C63.5345 35.778 63.0457 35.5753 62.536 35.5747V35.5747ZM62.536 38.1383C62.4092 38.1383 62.2853 38.1007 62.1799 38.0303C62.0745 37.9599 61.9924 37.8598 61.9439 37.7427C61.8954 37.6256 61.8827 37.4967 61.9074 37.3724C61.9321 37.2481 61.9932 37.1339 62.0828 37.0442C62.1724 36.9546 62.2866 36.8936 62.411 36.8688C62.5353 36.8441 62.6641 36.8568 62.7813 36.9053C62.8984 36.9538 62.9985 37.036 63.0689 37.1413C63.1393 37.2467 63.1769 37.3707 63.1769 37.4974C63.1767 37.6673 63.1091 37.8302 62.989 37.9504C62.8688 38.0705 62.7059 38.1381 62.536 38.1383V38.1383Z" fill="#085FAB"/>
<path d="M57.409 35.5747C57.0288 35.5747 56.657 35.6875 56.3408 35.8987C56.0246 36.11 55.7782 36.4103 55.6327 36.7616C55.4872 37.113 55.4491 37.4995 55.5233 37.8725C55.5975 38.2455 55.7806 38.5881 56.0495 38.857C56.3184 39.1259 56.661 39.309 57.0339 39.3832C57.4069 39.4574 57.7935 39.4193 58.1448 39.2738C58.4962 39.1282 58.7964 38.8818 59.0077 38.5656C59.219 38.2494 59.3317 37.8777 59.3317 37.4974C59.3312 36.9877 59.1284 36.499 58.768 36.1385C58.4075 35.778 57.9188 35.5753 57.409 35.5747V35.5747ZM57.409 38.1383C57.2823 38.1383 57.1584 38.1007 57.053 38.0303C56.9476 37.9599 56.8654 37.8598 56.8169 37.7427C56.7684 37.6256 56.7557 37.4967 56.7804 37.3724C56.8052 37.2481 56.8662 37.1339 56.9559 37.0442C57.0455 36.9546 57.1597 36.8936 57.284 36.8688C57.4083 36.8441 57.5372 36.8568 57.6543 36.9053C57.7714 36.9538 57.8715 37.036 57.9419 37.1413C58.0124 37.2467 58.0499 37.3707 58.0499 37.4974C58.0497 37.6673 57.9822 37.8302 57.862 37.9504C57.7419 38.0705 57.579 38.1381 57.409 38.1383V38.1383Z" fill="#085FAB"/>
<path d="M65.7402 37.4974C65.7402 37.8777 65.853 38.2494 66.0643 38.5656C66.2755 38.8818 66.5758 39.1282 66.9272 39.2738C67.2785 39.4193 67.6651 39.4574 68.038 39.3832C68.411 39.309 68.7536 39.1259 69.0225 38.857C69.2914 38.5881 69.4745 38.2455 69.5487 37.8725C69.6229 37.4995 69.5848 37.113 69.4393 36.7616C69.2938 36.4103 69.0473 36.11 68.7311 35.8987C68.415 35.6875 68.0432 35.5747 67.6629 35.5747C67.1532 35.5753 66.6645 35.778 66.304 36.1385C65.9436 36.499 65.7408 36.9877 65.7402 37.4974V37.4974ZM68.3038 37.4974C68.3038 37.6242 68.2663 37.7481 68.1958 37.8535C68.1254 37.9589 68.0253 38.041 67.9082 38.0895C67.7911 38.138 67.6622 38.1507 67.5379 38.126C67.4136 38.1013 67.2994 38.0402 67.2098 37.9506C67.1201 37.861 67.0591 37.7468 67.0344 37.6224C67.0096 37.4981 67.0223 37.3693 67.0708 37.2522C67.1193 37.135 67.2015 37.0349 67.3069 36.9645C67.4123 36.8941 67.5362 36.8565 67.6629 36.8565C67.8329 36.8567 67.9958 36.9243 68.1159 37.0444C68.2361 37.1646 68.3037 37.3275 68.3038 37.4974V37.4974Z" fill="#085FAB"/>
<path d="M80.4805 56.7236H88.1698V58.0054H80.4805V56.7236Z" fill="#085FAB"/>
<path d="M80.4805 59.2876H85.6077V60.5694H80.4805V59.2876Z" fill="#085FAB"/>
<path d="M86.8896 59.2876H88.1715V60.5694H86.8896V59.2876Z" fill="#085FAB"/>
<path d="M80.4805 61.8511H88.1698V63.1329H80.4805V61.8511Z" fill="#085FAB"/>
<path d="M80.4805 42.6245H88.1698V43.9063H80.4805V42.6245Z" fill="#085FAB"/>
<path d="M80.4805 45.188H88.1698V46.4698H80.4805V45.188Z" fill="#085FAB"/>
<path d="M86.8896 47.752H88.1715V49.0338H86.8896V47.752Z" fill="#085FAB"/>
<path d="M80.4805 47.752H85.6077V49.0338H80.4805V47.752Z" fill="#085FAB"/>
<path d="M79.8399 37.4973H88.8125C89.322 37.4964 89.8104 37.2936 90.1706 36.9332C90.5308 36.5729 90.7334 36.0844 90.7341 35.5749V27.8841C90.7335 27.3745 90.5309 26.8859 90.1706 26.5254C89.8103 26.165 89.3218 25.9622 88.8121 25.9614H79.8399C79.3301 25.962 78.8414 26.1647 78.4809 26.5252C78.1205 26.8856 77.9177 27.3743 77.9172 27.8841V31.0886H75.0883L73.1645 33.0124C72.4098 31.2231 71.2157 29.6532 69.6928 28.4483C68.1698 27.2434 66.3673 26.4425 64.4523 26.1198C62.5374 25.7972 60.572 25.9631 58.7383 26.6024C56.9045 27.2416 55.2619 28.3335 53.9625 29.7767C52.6632 31.2199 51.7492 32.9678 51.3054 34.8583C50.8615 36.7489 50.9021 38.7209 51.4234 40.5915C51.9447 42.4622 52.9298 44.171 54.2874 45.5595C55.645 46.9481 57.3312 47.9714 59.1897 48.5346L59.4075 48.9C59.7666 49.5041 59.9613 50.1917 59.9722 50.8944L58.1371 60.0701C58.0788 60.3599 58.0493 60.6546 58.0492 60.9502V61.2103C58.0492 62.4001 58.5218 63.5413 59.3632 64.3826C60.2045 65.2239 61.3456 65.6966 62.5355 65.6966C63.7253 65.6966 64.8664 65.2239 65.7078 64.3826C66.5491 63.5413 67.0218 62.4001 67.0218 61.2103V60.9498C67.0216 60.6543 66.9924 60.3596 66.9346 60.0698L65.0998 50.8951C65.1106 50.1926 65.3053 49.5052 65.6646 48.9014L65.8824 48.5354C66.2113 48.4353 66.5321 48.3179 66.8481 48.1899L75.0084 60.5694H77.9168V63.7739C77.9176 64.2836 78.1205 64.7722 78.481 65.1325C78.8415 65.4928 79.3302 65.6954 79.8399 65.6959H88.8125C89.3219 65.695 89.8102 65.4922 90.1704 65.132C90.5306 64.7717 90.7333 64.2833 90.7341 63.7739V56.0845C90.7335 55.5748 90.5308 55.0861 90.1703 54.7256C89.8099 54.3652 89.3211 54.1624 88.8114 54.1618H79.8399C79.3301 54.1624 78.8414 54.3652 78.4809 54.7256C78.1205 55.0861 77.9177 55.5748 77.9172 56.0845V59.2891H75.6983L68.0229 47.6421C69.6191 46.7724 70.9889 45.5402 72.0221 44.0446L74.4474 46.4699H77.9172V49.6744C77.9177 50.1842 78.1205 50.6729 78.4809 51.0333C78.8414 51.3938 79.3301 51.5965 79.8399 51.5971H88.8125C89.3221 51.5962 89.8105 51.3934 90.1707 51.0329C90.5309 50.6725 90.7335 50.184 90.7341 49.6744V41.9851C90.7335 41.4753 90.5308 40.9866 90.1703 40.6261C89.8099 40.2657 89.3211 40.0629 88.8114 40.0623H79.8399C79.3301 40.0629 78.8414 40.2657 78.4809 40.6261C78.1205 40.9866 77.9177 41.4753 77.9172 41.9851V45.1896H74.9779L72.7112 42.9221C74.122 40.2974 74.4503 37.2251 73.6262 34.3615L75.6181 32.3704H77.9164V35.5749C77.917 36.0847 78.1198 36.5734 78.4802 36.9338C78.8407 37.2943 79.3294 37.497 79.8391 37.4976L79.8399 37.4973ZM79.199 56.0831C79.1991 55.9131 79.2666 55.7502 79.3868 55.63C79.5069 55.5098 79.6699 55.4423 79.8399 55.4422H88.8125C88.9824 55.4423 89.1454 55.5098 89.2656 55.63C89.3857 55.7502 89.4533 55.9131 89.4534 56.0831V63.7724C89.4533 63.9424 89.3857 64.1053 89.2656 64.2255C89.1454 64.3457 88.9824 64.4132 88.8125 64.4133H79.8399C79.6699 64.4132 79.5069 64.3457 79.3868 64.2255C79.2666 64.1053 79.1991 63.9424 79.199 63.7724V56.0831ZM79.199 41.9836C79.1992 41.8137 79.2667 41.6508 79.3869 41.5306C79.507 41.4105 79.6699 41.3429 79.8399 41.3427H88.8125C88.9824 41.3429 89.1453 41.4105 89.2655 41.5306C89.3856 41.6508 89.4532 41.8137 89.4534 41.9836V49.6729C89.4533 49.8429 89.3857 50.0058 89.2656 50.126C89.1454 50.2462 88.9824 50.3137 88.8125 50.3138H79.8399C79.6699 50.3137 79.5069 50.2462 79.3868 50.126C79.2666 50.0058 79.1991 49.8429 79.199 49.6729V41.9836ZM65.6793 60.3207C65.7207 60.528 65.7416 60.7388 65.7415 60.9502V61.2103C65.7415 62.0602 65.4039 62.8753 64.8029 63.4762C64.2019 64.0772 63.3868 64.4148 62.537 64.4148C61.6871 64.4148 60.872 64.0772 60.271 63.4762C59.6701 62.8753 59.3324 62.0602 59.3324 61.2103V60.9498C59.3323 60.7389 59.3531 60.5285 59.3946 60.3218L61.1396 51.5968H63.9461L65.6793 60.3207ZM63.8618 50.3135H61.2128C61.1543 49.8244 61.0279 49.346 60.8372 48.8919C61.3999 48.9804 61.9684 49.0271 62.5381 49.0317C63.1074 49.0271 63.6757 48.9804 64.2382 48.8919C64.0478 49.3461 63.9214 49.8245 63.8625 50.3135H63.8618ZM62.5373 47.7499C60.5091 47.7502 58.5264 47.149 56.8399 46.0224C55.1534 44.8957 53.8389 43.2943 53.0626 41.4205C52.2863 39.5468 52.0831 37.4849 52.4787 35.4957C52.8743 33.5064 53.851 31.6792 55.2851 30.2451C56.7193 28.8109 58.5465 27.8343 60.5357 27.4387C62.525 27.0431 64.5868 27.2463 66.4606 28.0225C68.3343 28.7988 69.9358 30.1134 71.0624 31.7998C72.189 33.4863 72.7902 35.4691 72.7899 37.4973C72.7872 40.2161 71.7059 42.8227 69.7835 44.7452C67.861 46.6677 65.2543 47.749 62.5355 47.7517L62.5373 47.7499ZM79.2004 27.8826C79.2006 27.7127 79.2682 27.5498 79.3884 27.4296C79.5085 27.3095 79.6714 27.2419 79.8413 27.2417H88.814C88.9839 27.2419 89.1468 27.3095 89.2669 27.4296C89.3871 27.5498 89.4547 27.7127 89.4549 27.8826V35.572C89.4547 35.7419 89.3871 35.9048 89.2669 36.025C89.1468 36.1451 88.9839 36.2127 88.814 36.2129H79.8399C79.6699 36.2127 79.507 36.1451 79.3869 36.025C79.2667 35.9048 79.1992 35.7419 79.199 35.572L79.2004 27.8826Z" fill="#085FAB"/>
<path d="M80.4805 28.5249H88.1698V29.8067H80.4805V28.5249Z" fill="#085FAB"/>
<path d="M80.4805 31.0889H81.7623V32.3707H80.4805V31.0889Z" fill="#085FAB"/>
<path d="M83.0439 31.0889H88.1712V32.3707H83.0439V31.0889Z" fill="#085FAB"/>
<path d="M80.4805 33.6523H88.1698V34.9341H80.4805V33.6523Z" fill="#085FAB"/>
<path d="M43.134 82.1918C43.198 82.1918 43.254 82.2178 43.302 82.2698L43.764 82.7678C43.412 83.1758 42.984 83.4938 42.48 83.7218C41.98 83.9498 41.374 84.0638 40.662 84.0638C40.046 84.0638 39.486 83.9578 38.982 83.7458C38.478 83.5298 38.048 83.2298 37.692 82.8458C37.336 82.4578 37.06 81.9938 36.864 81.4538C36.668 80.9138 36.57 80.3198 36.57 79.6718C36.57 79.0238 36.672 78.4298 36.876 77.8898C37.08 77.3498 37.366 76.8858 37.734 76.4978C38.106 76.1098 38.55 75.8098 39.066 75.5978C39.582 75.3818 40.152 75.2738 40.776 75.2738C41.388 75.2738 41.928 75.3718 42.396 75.5678C42.864 75.7638 43.276 76.0298 43.632 76.3658L43.248 76.8998C43.224 76.9398 43.192 76.9738 43.152 77.0018C43.116 77.0258 43.066 77.0378 43.002 77.0378C42.93 77.0378 42.842 76.9998 42.738 76.9238C42.634 76.8438 42.498 76.7558 42.33 76.6598C42.162 76.5638 41.952 76.4778 41.7 76.4018C41.448 76.3218 41.138 76.2818 40.77 76.2818C40.326 76.2818 39.92 76.3598 39.552 76.5158C39.184 76.6678 38.866 76.8898 38.598 77.1818C38.334 77.4738 38.128 77.8298 37.98 78.2498C37.832 78.6698 37.758 79.1438 37.758 79.6718C37.758 80.2078 37.834 80.6858 37.986 81.1058C38.142 81.5258 38.352 81.8818 38.616 82.1738C38.884 82.4618 39.198 82.6818 39.558 82.8338C39.922 82.9858 40.314 83.0618 40.734 83.0618C40.99 83.0618 41.22 83.0478 41.424 83.0198C41.632 82.9878 41.822 82.9398 41.994 82.8758C42.17 82.8118 42.332 82.7318 42.48 82.6358C42.632 82.5358 42.782 82.4178 42.93 82.2818C42.998 82.2218 43.066 82.1918 43.134 82.1918ZM45.9656 75.1298V83.9678H44.8976V75.1298H45.9656ZM50.9916 81.2318C50.4996 81.2478 50.0796 81.2878 49.7316 81.3518C49.3876 81.4118 49.1056 81.4918 48.8856 81.5918C48.6696 81.6918 48.5116 81.8098 48.4116 81.9458C48.3156 82.0818 48.2676 82.2338 48.2676 82.4018C48.2676 82.5618 48.2936 82.6998 48.3456 82.8158C48.3976 82.9318 48.4676 83.0278 48.5556 83.1038C48.6476 83.1758 48.7536 83.2298 48.8736 83.2658C48.9976 83.2978 49.1296 83.3138 49.2696 83.3138C49.4576 83.3138 49.6296 83.2958 49.7856 83.2598C49.9416 83.2198 50.0876 83.1638 50.2236 83.0918C50.3636 83.0198 50.4956 82.9338 50.6196 82.8338C50.7476 82.7338 50.8716 82.6198 50.9916 82.4918V81.2318ZM47.5416 78.7478C47.8776 78.4238 48.2396 78.1818 48.6276 78.0218C49.0156 77.8618 49.4456 77.7818 49.9176 77.7818C50.2576 77.7818 50.5596 77.8378 50.8236 77.9498C51.0876 78.0618 51.3096 78.2178 51.4896 78.4178C51.6696 78.6178 51.8056 78.8598 51.8976 79.1438C51.9896 79.4278 52.0356 79.7398 52.0356 80.0798V83.9678H51.5616C51.4576 83.9678 51.3776 83.9518 51.3216 83.9198C51.2656 83.8838 51.2216 83.8158 51.1896 83.7158L51.0696 83.1398C50.9096 83.2878 50.7536 83.4198 50.6016 83.5358C50.4496 83.6478 50.2896 83.7438 50.1216 83.8238C49.9536 83.8998 49.7736 83.9578 49.5816 83.9978C49.3936 84.0418 49.1836 84.0638 48.9516 84.0638C48.7156 84.0638 48.4936 84.0318 48.2856 83.9678C48.0776 83.8998 47.8956 83.7998 47.7396 83.6678C47.5876 83.5358 47.4656 83.3698 47.3736 83.1698C47.2856 82.9658 47.2416 82.7258 47.2416 82.4498C47.2416 82.2098 47.3076 81.9798 47.4396 81.7598C47.5716 81.5358 47.7856 81.3378 48.0816 81.1658C48.3776 80.9938 48.7636 80.8538 49.2396 80.7458C49.7156 80.6338 50.2996 80.5698 50.9916 80.5538V80.0798C50.9916 79.6078 50.8896 79.2518 50.6856 79.0118C50.4816 78.7678 50.1836 78.6458 49.7916 78.6458C49.5276 78.6458 49.3056 78.6798 49.1256 78.7478C48.9496 78.8118 48.7956 78.8858 48.6636 78.9698C48.5356 79.0498 48.4236 79.1238 48.3276 79.1918C48.2356 79.2558 48.1436 79.2878 48.0516 79.2878C47.9796 79.2878 47.9176 79.2698 47.8656 79.2338C47.8136 79.1938 47.7696 79.1458 47.7336 79.0898L47.5416 78.7478ZM57.2024 78.8918C57.1544 78.9798 57.0804 79.0238 56.9804 79.0238C56.9204 79.0238 56.8524 79.0018 56.7764 78.9578C56.7004 78.9138 56.6064 78.8658 56.4944 78.8138C56.3864 78.7578 56.2564 78.7078 56.1044 78.6638C55.9524 78.6158 55.7724 78.5918 55.5644 78.5918C55.3844 78.5918 55.2224 78.6158 55.0784 78.6638C54.9344 78.7078 54.8104 78.7698 54.7064 78.8498C54.6064 78.9298 54.5284 79.0238 54.4724 79.1318C54.4204 79.2358 54.3944 79.3498 54.3944 79.4738C54.3944 79.6298 54.4384 79.7598 54.5264 79.8638C54.6184 79.9678 54.7384 80.0578 54.8864 80.1338C55.0344 80.2098 55.2024 80.2778 55.3904 80.3378C55.5784 80.3938 55.7704 80.4558 55.9664 80.5238C56.1664 80.5878 56.3604 80.6598 56.5484 80.7398C56.7364 80.8198 56.9044 80.9198 57.0524 81.0398C57.2004 81.1598 57.3184 81.3078 57.4064 81.4838C57.4984 81.6558 57.5444 81.8638 57.5444 82.1078C57.5444 82.3878 57.4944 82.6478 57.3944 82.8878C57.2944 83.1238 57.1464 83.3298 56.9504 83.5058C56.7544 83.6778 56.5144 83.8138 56.2304 83.9138C55.9464 84.0138 55.6184 84.0638 55.2464 84.0638C54.8224 84.0638 54.4384 83.9958 54.0944 83.8598C53.7504 83.7198 53.4584 83.5418 53.2184 83.3258L53.4704 82.9178C53.5024 82.8658 53.5404 82.8258 53.5844 82.7978C53.6284 82.7698 53.6844 82.7558 53.7524 82.7558C53.8244 82.7558 53.9004 82.7838 53.9804 82.8398C54.0604 82.8958 54.1564 82.9578 54.2684 83.0258C54.3844 83.0938 54.5244 83.1558 54.6884 83.2118C54.8524 83.2678 55.0564 83.2958 55.3004 83.2958C55.5084 83.2958 55.6904 83.2698 55.8464 83.2178C56.0024 83.1618 56.1324 83.0878 56.2364 82.9958C56.3404 82.9038 56.4164 82.7978 56.4644 82.6778C56.5164 82.5578 56.5424 82.4298 56.5424 82.2938C56.5424 82.1258 56.4964 81.9878 56.4044 81.8798C56.3164 81.7678 56.1984 81.6738 56.0504 81.5978C55.9024 81.5178 55.7324 81.4498 55.5404 81.3938C55.3524 81.3338 55.1584 81.2718 54.9584 81.2078C54.7624 81.1438 54.5684 81.0718 54.3764 80.9918C54.1884 80.9078 54.0204 80.8038 53.8724 80.6798C53.7244 80.5558 53.6044 80.4038 53.5124 80.2238C53.4244 80.0398 53.3804 79.8178 53.3804 79.5578C53.3804 79.3258 53.4284 79.1038 53.5244 78.8918C53.6204 78.6758 53.7604 78.4878 53.9444 78.3278C54.1284 78.1638 54.3544 78.0338 54.6224 77.9378C54.8904 77.8418 55.1964 77.7938 55.5404 77.7938C55.9404 77.7938 56.2984 77.8578 56.6144 77.9858C56.9344 78.1098 57.2104 78.2818 57.4424 78.5018L57.2024 78.8918ZM62.3938 78.8918C62.3458 78.9798 62.2718 79.0238 62.1718 79.0238C62.1118 79.0238 62.0438 79.0018 61.9678 78.9578C61.8918 78.9138 61.7978 78.8658 61.6858 78.8138C61.5778 78.7578 61.4478 78.7078 61.2958 78.6638C61.1438 78.6158 60.9638 78.5918 60.7558 78.5918C60.5758 78.5918 60.4138 78.6158 60.2698 78.6638C60.1258 78.7078 60.0018 78.7698 59.8978 78.8498C59.7978 78.9298 59.7198 79.0238 59.6638 79.1318C59.6118 79.2358 59.5858 79.3498 59.5858 79.4738C59.5858 79.6298 59.6298 79.7598 59.7178 79.8638C59.8098 79.9678 59.9298 80.0578 60.0778 80.1338C60.2258 80.2098 60.3938 80.2778 60.5818 80.3378C60.7698 80.3938 60.9618 80.4558 61.1578 80.5238C61.3578 80.5878 61.5518 80.6598 61.7398 80.7398C61.9278 80.8198 62.0958 80.9198 62.2438 81.0398C62.3918 81.1598 62.5098 81.3078 62.5978 81.4838C62.6898 81.6558 62.7358 81.8638 62.7358 82.1078C62.7358 82.3878 62.6858 82.6478 62.5858 82.8878C62.4858 83.1238 62.3378 83.3298 62.1418 83.5058C61.9458 83.6778 61.7058 83.8138 61.4218 83.9138C61.1378 84.0138 60.8098 84.0638 60.4378 84.0638C60.0138 84.0638 59.6298 83.9958 59.2858 83.8598C58.9418 83.7198 58.6498 83.5418 58.4098 83.3258L58.6618 82.9178C58.6938 82.8658 58.7318 82.8258 58.7758 82.7978C58.8198 82.7698 58.8758 82.7558 58.9438 82.7558C59.0158 82.7558 59.0918 82.7838 59.1718 82.8398C59.2518 82.8958 59.3478 82.9578 59.4598 83.0258C59.5758 83.0938 59.7158 83.1558 59.8798 83.2118C60.0438 83.2678 60.2478 83.2958 60.4918 83.2958C60.6998 83.2958 60.8818 83.2698 61.0378 83.2178C61.1938 83.1618 61.3238 83.0878 61.4278 82.9958C61.5318 82.9038 61.6078 82.7978 61.6558 82.6778C61.7078 82.5578 61.7338 82.4298 61.7338 82.2938C61.7338 82.1258 61.6878 81.9878 61.5958 81.8798C61.5078 81.7678 61.3898 81.6738 61.2418 81.5978C61.0938 81.5178 60.9238 81.4498 60.7318 81.3938C60.5438 81.3338 60.3498 81.2718 60.1498 81.2078C59.9538 81.1438 59.7598 81.0718 59.5678 80.9918C59.3798 80.9078 59.2118 80.8038 59.0638 80.6798C58.9158 80.5558 58.7958 80.4038 58.7038 80.2238C58.6158 80.0398 58.5718 79.8178 58.5718 79.5578C58.5718 79.3258 58.6198 79.1038 58.7158 78.8918C58.8118 78.6758 58.9518 78.4878 59.1358 78.3278C59.3198 78.1638 59.5458 78.0338 59.8138 77.9378C60.0818 77.8418 60.3878 77.7938 60.7318 77.7938C61.1318 77.7938 61.4898 77.8578 61.8058 77.9858C62.1258 78.1098 62.4018 78.2818 62.6338 78.5018L62.3938 78.8918ZM65.1732 77.8898V83.9678H64.1052V77.8898H65.1732ZM65.4012 75.9818C65.4012 76.0858 65.3792 76.1838 65.3352 76.2758C65.2952 76.3638 65.2392 76.4438 65.1672 76.5158C65.0992 76.5838 65.0172 76.6378 64.9212 76.6778C64.8292 76.7178 64.7312 76.7378 64.6272 76.7378C64.5232 76.7378 64.4252 76.7178 64.3332 76.6778C64.2452 76.6378 64.1672 76.5838 64.0992 76.5158C64.0312 76.4438 63.9772 76.3638 63.9372 76.2758C63.8972 76.1838 63.8772 76.0858 63.8772 75.9818C63.8772 75.8778 63.8972 75.7798 63.9372 75.6878C63.9772 75.5918 64.0312 75.5098 64.0992 75.4418C64.1672 75.3698 64.2452 75.3138 64.3332 75.2738C64.4252 75.2338 64.5232 75.2138 64.6272 75.2138C64.7312 75.2138 64.8292 75.2338 64.9212 75.2738C65.0172 75.3138 65.0992 75.3698 65.1672 75.4418C65.2392 75.5098 65.2952 75.5918 65.3352 75.6878C65.3792 75.7798 65.4012 75.8778 65.4012 75.9818ZM67.336 83.9678V78.8018L66.664 78.7238C66.576 78.7038 66.506 78.6738 66.454 78.6338C66.402 78.5898 66.376 78.5278 66.376 78.4478V78.0098H67.336V77.6738C67.336 77.3018 67.394 76.9618 67.51 76.6538C67.626 76.3418 67.8 76.0738 68.032 75.8498C68.264 75.6258 68.552 75.4518 68.896 75.3278C69.244 75.2038 69.646 75.1418 70.102 75.1418C70.254 75.1418 70.41 75.1518 70.57 75.1718C70.73 75.1918 70.868 75.2218 70.984 75.2618L70.942 75.8198C70.938 75.8598 70.922 75.8878 70.894 75.9038C70.87 75.9198 70.836 75.9298 70.792 75.9338C70.748 75.9378 70.692 75.9398 70.624 75.9398C70.56 75.9358 70.486 75.9338 70.402 75.9338C69.69 75.9338 69.174 76.0818 68.854 76.3778C68.534 76.6698 68.374 77.1118 68.374 77.7038V78.0098H72.046V83.9678H70.972V78.7838H68.404V83.9678H67.336ZM78.0252 78.9698C77.9932 79.0138 77.9612 79.0478 77.9292 79.0718C77.8972 79.0958 77.8532 79.1078 77.7972 79.1078C77.7372 79.1078 77.6712 79.0838 77.5992 79.0358C77.5272 78.9838 77.4372 78.9278 77.3292 78.8678C77.2252 78.8078 77.0952 78.7538 76.9392 78.7058C76.7872 78.6538 76.5992 78.6278 76.3752 78.6278C76.0752 78.6278 75.8112 78.6818 75.5832 78.7898C75.3552 78.8938 75.1632 79.0458 75.0072 79.2458C74.8552 79.4458 74.7392 79.6878 74.6592 79.9718C74.5832 80.2558 74.5452 80.5738 74.5452 80.9258C74.5452 81.2938 74.5872 81.6218 74.6712 81.9098C74.7552 82.1938 74.8732 82.4338 75.0252 82.6298C75.1812 82.8218 75.3672 82.9698 75.5832 83.0738C75.8032 83.1738 76.0492 83.2238 76.3212 83.2238C76.5812 83.2238 76.7952 83.1938 76.9632 83.1338C77.1312 83.0698 77.2692 82.9998 77.3772 82.9238C77.4892 82.8478 77.5812 82.7798 77.6532 82.7198C77.7292 82.6558 77.8032 82.6238 77.8752 82.6238C77.9632 82.6238 78.0312 82.6578 78.0792 82.7258L78.3792 83.1158C78.2472 83.2798 78.0972 83.4198 77.9292 83.5358C77.7612 83.6518 77.5792 83.7498 77.3832 83.8298C77.1912 83.9058 76.9892 83.9618 76.7772 83.9978C76.5652 84.0338 76.3492 84.0518 76.1292 84.0518C75.7492 84.0518 75.3952 83.9818 75.0672 83.8418C74.7432 83.7018 74.4612 83.4998 74.2212 83.2358C73.9812 82.9678 73.7932 82.6398 73.6572 82.2518C73.5212 81.8638 73.4532 81.4218 73.4532 80.9258C73.4532 80.4738 73.5152 80.0558 73.6392 79.6718C73.7672 79.2878 73.9512 78.9578 74.1912 78.6818C74.4352 78.4018 74.7332 78.1838 75.0852 78.0278C75.4412 77.8718 75.8492 77.7938 76.3092 77.7938C76.7372 77.7938 77.1132 77.8638 77.4372 78.0038C77.7652 78.1398 78.0552 78.3338 78.3072 78.5858L78.0252 78.9698ZM82.8197 81.2318C82.3277 81.2478 81.9077 81.2878 81.5597 81.3518C81.2157 81.4118 80.9337 81.4918 80.7137 81.5918C80.4977 81.6918 80.3397 81.8098 80.2397 81.9458C80.1437 82.0818 80.0957 82.2338 80.0957 82.4018C80.0957 82.5618 80.1217 82.6998 80.1737 82.8158C80.2257 82.9318 80.2957 83.0278 80.3837 83.1038C80.4757 83.1758 80.5817 83.2298 80.7017 83.2658C80.8257 83.2978 80.9577 83.3138 81.0977 83.3138C81.2857 83.3138 81.4577 83.2958 81.6137 83.2598C81.7697 83.2198 81.9157 83.1638 82.0517 83.0918C82.1917 83.0198 82.3237 82.9338 82.4477 82.8338C82.5757 82.7338 82.6997 82.6198 82.8197 82.4918V81.2318ZM79.3697 78.7478C79.7057 78.4238 80.0677 78.1818 80.4557 78.0218C80.8437 77.8618 81.2737 77.7818 81.7457 77.7818C82.0857 77.7818 82.3877 77.8378 82.6517 77.9498C82.9157 78.0618 83.1377 78.2178 83.3177 78.4178C83.4977 78.6178 83.6337 78.8598 83.7257 79.1438C83.8177 79.4278 83.8637 79.7398 83.8637 80.0798V83.9678H83.3897C83.2857 83.9678 83.2057 83.9518 83.1497 83.9198C83.0937 83.8838 83.0497 83.8158 83.0177 83.7158L82.8977 83.1398C82.7377 83.2878 82.5817 83.4198 82.4297 83.5358C82.2777 83.6478 82.1177 83.7438 81.9497 83.8238C81.7817 83.8998 81.6017 83.9578 81.4097 83.9978C81.2217 84.0418 81.0117 84.0638 80.7797 84.0638C80.5437 84.0638 80.3217 84.0318 80.1137 83.9678C79.9057 83.8998 79.7237 83.7998 79.5677 83.6678C79.4157 83.5358 79.2937 83.3698 79.2017 83.1698C79.1137 82.9658 79.0697 82.7258 79.0697 82.4498C79.0697 82.2098 79.1357 81.9798 79.2677 81.7598C79.3997 81.5358 79.6137 81.3378 79.9097 81.1658C80.2057 80.9938 80.5917 80.8538 81.0677 80.7458C81.5437 80.6338 82.1277 80.5698 82.8197 80.5538V80.0798C82.8197 79.6078 82.7177 79.2518 82.5137 79.0118C82.3097 78.7678 82.0117 78.6458 81.6197 78.6458C81.3557 78.6458 81.1337 78.6798 80.9537 78.7478C80.7777 78.8118 80.6237 78.8858 80.4917 78.9698C80.3637 79.0498 80.2517 79.1238 80.1557 79.1918C80.0637 79.2558 79.9717 79.2878 79.8797 79.2878C79.8077 79.2878 79.7457 79.2698 79.6937 79.2338C79.6417 79.1938 79.5977 79.1458 79.5617 79.0898L79.3697 78.7478ZM91.0485 83.9678H89.9805V78.7838H86.8485V82.4318C86.8485 82.6878 86.9105 82.8778 87.0345 83.0018C87.1585 83.1258 87.3185 83.1878 87.5145 83.1878C87.6265 83.1878 87.7225 83.1738 87.8025 83.1458C87.8865 83.1138 87.9585 83.0798 88.0185 83.0438C88.0785 83.0078 88.1285 82.9758 88.1685 82.9478C88.2125 82.9158 88.2505 82.8998 88.2825 82.8998C88.3385 82.8998 88.3885 82.9338 88.4325 83.0018L88.7445 83.5118C88.5605 83.6838 88.3385 83.8198 88.0785 83.9198C87.8185 84.0158 87.5505 84.0638 87.2745 84.0638C86.7945 84.0638 86.4245 83.9298 86.1645 83.6618C85.9085 83.3938 85.7805 83.0078 85.7805 82.5038V78.7838H85.0485C84.9845 78.7838 84.9305 78.7658 84.8865 78.7298C84.8425 78.6898 84.8205 78.6298 84.8205 78.5498V78.1238L85.8165 77.9918L86.0625 76.1198C86.0745 76.0598 86.1005 76.0118 86.1405 75.9758C86.1845 75.9358 86.2405 75.9158 86.3085 75.9158H86.8485V78.0098H91.0485V83.9678ZM91.3125 75.9398C91.3125 76.0438 91.2905 76.1418 91.2465 76.2338C91.2065 76.3218 91.1505 76.3998 91.0785 76.4678C91.0105 76.5358 90.9305 76.5898 90.8385 76.6298C90.7465 76.6698 90.6485 76.6898 90.5445 76.6898C90.4405 76.6898 90.3425 76.6698 90.2505 76.6298C90.1625 76.5898 90.0845 76.5358 90.0165 76.4678C89.9485 76.3998 89.8945 76.3218 89.8545 76.2338C89.8145 76.1418 89.7945 76.0438 89.7945 75.9398C89.7945 75.8358 89.8145 75.7378 89.8545 75.6458C89.8945 75.5498 89.9485 75.4678 90.0165 75.3998C90.0845 75.3278 90.1625 75.2718 90.2505 75.2318C90.3425 75.1918 90.4405 75.1718 90.5445 75.1718C90.6485 75.1718 90.7465 75.1918 90.8385 75.2318C90.9305 75.2718 91.0105 75.3278 91.0785 75.3998C91.1505 75.4678 91.2065 75.5498 91.2465 75.6458C91.2905 75.7378 91.3125 75.8358 91.3125 75.9398ZM95.365 77.7938C95.809 77.7938 96.209 77.8678 96.565 78.0158C96.921 78.1638 97.225 78.3738 97.477 78.6458C97.729 78.9178 97.921 79.2478 98.053 79.6358C98.189 80.0198 98.257 80.4498 98.257 80.9258C98.257 81.4058 98.189 81.8378 98.053 82.2218C97.921 82.6058 97.729 82.9338 97.477 83.2058C97.225 83.4778 96.921 83.6878 96.565 83.8358C96.209 83.9798 95.809 84.0518 95.365 84.0518C94.917 84.0518 94.513 83.9798 94.153 83.8358C93.797 83.6878 93.493 83.4778 93.241 83.2058C92.989 82.9338 92.795 82.6058 92.659 82.2218C92.527 81.8378 92.461 81.4058 92.461 80.9258C92.461 80.4498 92.527 80.0198 92.659 79.6358C92.795 79.2478 92.989 78.9178 93.241 78.6458C93.493 78.3738 93.797 78.1638 94.153 78.0158C94.513 77.8678 94.917 77.7938 95.365 77.7938ZM95.365 83.2178C95.965 83.2178 96.413 83.0178 96.709 82.6178C97.005 82.2138 97.153 81.6518 97.153 80.9318C97.153 80.2078 97.005 79.6438 96.709 79.2398C96.413 78.8358 95.965 78.6338 95.365 78.6338C95.061 78.6338 94.795 78.6858 94.567 78.7898C94.343 78.8938 94.155 79.0438 94.003 79.2398C93.855 79.4358 93.743 79.6778 93.667 79.9658C93.595 80.2498 93.559 80.5718 93.559 80.9318C93.559 81.6518 93.707 82.2138 94.003 82.6178C94.303 83.0178 94.757 83.2178 95.365 83.2178ZM100.62 78.7718C100.752 78.6238 100.892 78.4898 101.04 78.3698C101.188 78.2498 101.344 78.1478 101.508 78.0638C101.676 77.9758 101.852 77.9098 102.036 77.8658C102.224 77.8178 102.426 77.7938 102.642 77.7938C102.974 77.7938 103.266 77.8498 103.518 77.9618C103.774 78.0698 103.986 78.2258 104.154 78.4298C104.326 78.6298 104.456 78.8718 104.544 79.1558C104.632 79.4398 104.676 79.7538 104.676 80.0978V83.9678H103.602V80.0978C103.602 79.6378 103.496 79.2818 103.284 79.0298C103.076 78.7738 102.758 78.6458 102.33 78.6458C102.014 78.6458 101.718 78.7218 101.442 78.8738C101.17 79.0258 100.918 79.2318 100.686 79.4918V83.9678H99.6116V77.8898H100.254C100.406 77.8898 100.5 77.9638 100.536 78.1118L100.62 78.7718Z" fill="#6D6D6D"/>
<defs>
<filter id="filter0_d" x="0" y="0" width="141" height="122.935" filterUnits="userSpaceOnUse" color-interpolation-filters="sRGB">
<feFlood flood-opacity="0" result="BackgroundImageFix"/>
<feColorMatrix in="SourceAlpha" type="matrix" values="0 0 0 0 0 0 0 0 0 0 0 0 0 0 0 0 0 0 127 0"/>
<feOffset dy="8"/>
<feGaussianBlur stdDeviation="10"/>
<feColorMatrix type="matrix" values="0 0 0 0 0 0 0 0 0 0 0 0 0 0 0 0 0 0 0.1 0"/>
<feBlend mode="normal" in2="BackgroundImageFix" result="effect1_dropShadow"/>
<feBlend mode="normal" in="SourceGraphic" in2="effect1_dropShadow" result="shape"/>
</filter>
</defs>
</svg>
