<svg width="141" height="123" viewBox="0 0 141 123" fill="none" xmlns="http://www.w3.org/2000/svg">
<g filter="url(#filter0_d)">
<rect x="20" y="12" width="101" height="82.935" rx="10" fill="white"/>
</g>
<path d="M42.262 76.35V79.356H45.796V80.304H42.262V84H41.098V75.402H46.396V76.35H42.262ZM49.6658 77.826C50.1098 77.826 50.5098 77.9 50.8658 78.048C51.2218 78.196 51.5258 78.406 51.7778 78.678C52.0298 78.95 52.2218 79.28 52.3538 79.668C52.4898 80.052 52.5578 80.482 52.5578 80.958C52.5578 81.438 52.4898 81.87 52.3538 82.254C52.2218 82.638 52.0298 82.966 51.7778 83.238C51.5258 83.51 51.2218 83.72 50.8658 83.868C50.5098 84.012 50.1098 84.084 49.6658 84.084C49.2178 84.084 48.8138 84.012 48.4538 83.868C48.0978 83.72 47.7938 83.51 47.5418 83.238C47.2898 82.966 47.0958 82.638 46.9598 82.254C46.8278 81.87 46.7618 81.438 46.7618 80.958C46.7618 80.482 46.8278 80.052 46.9598 79.668C47.0958 79.28 47.2898 78.95 47.5418 78.678C47.7938 78.406 48.0978 78.196 48.4538 78.048C48.8138 77.9 49.2178 77.826 49.6658 77.826ZM49.6658 83.25C50.2658 83.25 50.7138 83.05 51.0098 82.65C51.3058 82.246 51.4538 81.684 51.4538 80.964C51.4538 80.24 51.3058 79.676 51.0098 79.272C50.7138 78.868 50.2658 78.666 49.6658 78.666C49.3618 78.666 49.0958 78.718 48.8678 78.822C48.6438 78.926 48.4558 79.076 48.3038 79.272C48.1558 79.468 48.0438 79.71 47.9678 79.998C47.8958 80.282 47.8598 80.604 47.8598 80.964C47.8598 81.684 48.0078 82.246 48.3038 82.65C48.6038 83.05 49.0578 83.25 49.6658 83.25ZM54.9264 79.14C55.1184 78.724 55.3544 78.4 55.6344 78.168C55.9144 77.932 56.2564 77.814 56.6604 77.814C56.7884 77.814 56.9104 77.828 57.0264 77.856C57.1464 77.884 57.2524 77.928 57.3444 77.988L57.2664 78.786C57.2424 78.886 57.1824 78.936 57.0864 78.936C57.0304 78.936 56.9484 78.924 56.8404 78.9C56.7324 78.876 56.6104 78.864 56.4744 78.864C56.2824 78.864 56.1104 78.892 55.9584 78.948C55.8104 79.004 55.6764 79.088 55.5564 79.2C55.4404 79.308 55.3344 79.444 55.2384 79.608C55.1464 79.768 55.0624 79.952 54.9864 80.16V84H53.9124V77.922H54.5244C54.6404 77.922 54.7204 77.944 54.7644 77.988C54.8084 78.032 54.8384 78.108 54.8544 78.216L54.9264 79.14ZM62.1054 80.298C62.1054 80.05 62.0694 79.824 61.9974 79.62C61.9294 79.412 61.8274 79.234 61.6914 79.086C61.5594 78.934 61.3974 78.818 61.2054 78.738C61.0134 78.654 60.7954 78.612 60.5514 78.612C60.0394 78.612 59.6334 78.762 59.3334 79.062C59.0374 79.358 58.8534 79.77 58.7814 80.298H62.1054ZM62.9694 83.148C62.8374 83.308 62.6794 83.448 62.4954 83.568C62.3114 83.684 62.1134 83.78 61.9014 83.856C61.6934 83.932 61.4774 83.988 61.2534 84.024C61.0294 84.064 60.8074 84.084 60.5874 84.084C60.1674 84.084 59.7794 84.014 59.4234 83.874C59.0714 83.73 58.7654 83.522 58.5054 83.25C58.2494 82.974 58.0494 82.634 57.9054 82.23C57.7614 81.826 57.6894 81.362 57.6894 80.838C57.6894 80.414 57.7534 80.018 57.8814 79.65C58.0134 79.282 58.2014 78.964 58.4454 78.696C58.6894 78.424 58.9874 78.212 59.3394 78.06C59.6914 77.904 60.0874 77.826 60.5274 77.826C60.8914 77.826 61.2274 77.888 61.5354 78.012C61.8474 78.132 62.1154 78.308 62.3394 78.54C62.5674 78.768 62.7454 79.052 62.8734 79.392C63.0014 79.728 63.0654 80.112 63.0654 80.544C63.0654 80.712 63.0474 80.824 63.0114 80.88C62.9754 80.936 62.9074 80.964 62.8074 80.964H58.7454C58.7574 81.348 58.8094 81.682 58.9014 81.966C58.9974 82.25 59.1294 82.488 59.2974 82.68C59.4654 82.868 59.6654 83.01 59.8974 83.106C60.1294 83.198 60.3894 83.244 60.6774 83.244C60.9454 83.244 61.1754 83.214 61.3674 83.154C61.5634 83.09 61.7314 83.022 61.8714 82.95C62.0114 82.878 62.1274 82.812 62.2194 82.752C62.3154 82.688 62.3974 82.656 62.4654 82.656C62.5534 82.656 62.6214 82.69 62.6694 82.758L62.9694 83.148ZM68.6073 79.002C68.5753 79.046 68.5433 79.08 68.5113 79.104C68.4793 79.128 68.4353 79.14 68.3793 79.14C68.3193 79.14 68.2533 79.116 68.1813 79.068C68.1093 79.016 68.0193 78.96 67.9113 78.9C67.8073 78.84 67.6773 78.786 67.5213 78.738C67.3693 78.686 67.1813 78.66 66.9573 78.66C66.6573 78.66 66.3933 78.714 66.1653 78.822C65.9373 78.926 65.7453 79.078 65.5893 79.278C65.4373 79.478 65.3213 79.72 65.2413 80.004C65.1653 80.288 65.1273 80.606 65.1273 80.958C65.1273 81.326 65.1693 81.654 65.2533 81.942C65.3373 82.226 65.4553 82.466 65.6073 82.662C65.7633 82.854 65.9493 83.002 66.1653 83.106C66.3853 83.206 66.6313 83.256 66.9033 83.256C67.1633 83.256 67.3773 83.226 67.5453 83.166C67.7133 83.102 67.8513 83.032 67.9593 82.956C68.0713 82.88 68.1633 82.812 68.2353 82.752C68.3113 82.688 68.3853 82.656 68.4573 82.656C68.5453 82.656 68.6133 82.69 68.6613 82.758L68.9613 83.148C68.8293 83.312 68.6793 83.452 68.5113 83.568C68.3433 83.684 68.1613 83.782 67.9653 83.862C67.7733 83.938 67.5713 83.994 67.3593 84.03C67.1473 84.066 66.9313 84.084 66.7113 84.084C66.3313 84.084 65.9773 84.014 65.6493 83.874C65.3253 83.734 65.0433 83.532 64.8033 83.268C64.5633 83 64.3753 82.672 64.2393 82.284C64.1033 81.896 64.0353 81.454 64.0353 80.958C64.0353 80.506 64.0973 80.088 64.2213 79.704C64.3493 79.32 64.5333 78.99 64.7733 78.714C65.0173 78.434 65.3153 78.216 65.6673 78.06C66.0233 77.904 66.4313 77.826 66.8913 77.826C67.3193 77.826 67.6953 77.896 68.0193 78.036C68.3473 78.172 68.6373 78.366 68.8893 78.618L68.6073 79.002ZM73.4017 81.264C72.9097 81.28 72.4897 81.32 72.1417 81.384C71.7977 81.444 71.5157 81.524 71.2957 81.624C71.0797 81.724 70.9217 81.842 70.8217 81.978C70.7257 82.114 70.6777 82.266 70.6777 82.434C70.6777 82.594 70.7037 82.732 70.7557 82.848C70.8077 82.964 70.8777 83.06 70.9657 83.136C71.0577 83.208 71.1637 83.262 71.2837 83.298C71.4077 83.33 71.5397 83.346 71.6797 83.346C71.8677 83.346 72.0397 83.328 72.1957 83.292C72.3517 83.252 72.4977 83.196 72.6337 83.124C72.7737 83.052 72.9057 82.966 73.0297 82.866C73.1577 82.766 73.2817 82.652 73.4017 82.524V81.264ZM69.9517 78.78C70.2877 78.456 70.6497 78.214 71.0377 78.054C71.4257 77.894 71.8557 77.814 72.3277 77.814C72.6677 77.814 72.9697 77.87 73.2337 77.982C73.4977 78.094 73.7197 78.25 73.8997 78.45C74.0797 78.65 74.2157 78.892 74.3077 79.176C74.3997 79.46 74.4457 79.772 74.4457 80.112V84H73.9717C73.8677 84 73.7877 83.984 73.7317 83.952C73.6757 83.916 73.6317 83.848 73.5997 83.748L73.4797 83.172C73.3197 83.32 73.1637 83.452 73.0117 83.568C72.8597 83.68 72.6997 83.776 72.5317 83.856C72.3637 83.932 72.1837 83.99 71.9917 84.03C71.8037 84.074 71.5937 84.096 71.3617 84.096C71.1257 84.096 70.9037 84.064 70.6957 84C70.4877 83.932 70.3057 83.832 70.1497 83.7C69.9977 83.568 69.8757 83.402 69.7837 83.202C69.6957 82.998 69.6517 82.758 69.6517 82.482C69.6517 82.242 69.7177 82.012 69.8497 81.792C69.9817 81.568 70.1957 81.37 70.4917 81.198C70.7877 81.026 71.1737 80.886 71.6497 80.778C72.1257 80.666 72.7097 80.602 73.4017 80.586V80.112C73.4017 79.64 73.2997 79.284 73.0957 79.044C72.8917 78.8 72.5937 78.678 72.2017 78.678C71.9377 78.678 71.7157 78.712 71.5357 78.78C71.3597 78.844 71.2057 78.918 71.0737 79.002C70.9457 79.082 70.8337 79.156 70.7377 79.224C70.6457 79.288 70.5537 79.32 70.4617 79.32C70.3897 79.32 70.3277 79.302 70.2757 79.266C70.2237 79.226 70.1797 79.178 70.1437 79.122L69.9517 78.78ZM79.6126 78.924C79.5646 79.012 79.4906 79.056 79.3906 79.056C79.3306 79.056 79.2626 79.034 79.1866 78.99C79.1106 78.946 79.0166 78.898 78.9046 78.846C78.7966 78.79 78.6666 78.74 78.5146 78.696C78.3626 78.648 78.1826 78.624 77.9746 78.624C77.7946 78.624 77.6326 78.648 77.4886 78.696C77.3446 78.74 77.2206 78.802 77.1166 78.882C77.0166 78.962 76.9386 79.056 76.8826 79.164C76.8306 79.268 76.8046 79.382 76.8046 79.506C76.8046 79.662 76.8486 79.792 76.9366 79.896C77.0286 80 77.1486 80.09 77.2966 80.166C77.4446 80.242 77.6126 80.31 77.8006 80.37C77.9886 80.426 78.1806 80.488 78.3766 80.556C78.5766 80.62 78.7706 80.692 78.9586 80.772C79.1466 80.852 79.3146 80.952 79.4626 81.072C79.6106 81.192 79.7286 81.34 79.8166 81.516C79.9086 81.688 79.9546 81.896 79.9546 82.14C79.9546 82.42 79.9046 82.68 79.8046 82.92C79.7046 83.156 79.5566 83.362 79.3606 83.538C79.1646 83.71 78.9246 83.846 78.6406 83.946C78.3566 84.046 78.0286 84.096 77.6566 84.096C77.2326 84.096 76.8486 84.028 76.5046 83.892C76.1606 83.752 75.8686 83.574 75.6286 83.358L75.8806 82.95C75.9126 82.898 75.9506 82.858 75.9946 82.83C76.0386 82.802 76.0946 82.788 76.1626 82.788C76.2346 82.788 76.3106 82.816 76.3906 82.872C76.4706 82.928 76.5666 82.99 76.6786 83.058C76.7946 83.126 76.9346 83.188 77.0986 83.244C77.2626 83.3 77.4666 83.328 77.7106 83.328C77.9186 83.328 78.1006 83.302 78.2566 83.25C78.4126 83.194 78.5426 83.12 78.6466 83.028C78.7506 82.936 78.8266 82.83 78.8746 82.71C78.9266 82.59 78.9526 82.462 78.9526 82.326C78.9526 82.158 78.9066 82.02 78.8146 81.912C78.7266 81.8 78.6086 81.706 78.4606 81.63C78.3126 81.55 78.1426 81.482 77.9506 81.426C77.7626 81.366 77.5686 81.304 77.3686 81.24C77.1726 81.176 76.9786 81.104 76.7866 81.024C76.5986 80.94 76.4306 80.836 76.2826 80.712C76.1346 80.588 76.0146 80.436 75.9226 80.256C75.8346 80.072 75.7906 79.85 75.7906 79.59C75.7906 79.358 75.8386 79.136 75.9346 78.924C76.0306 78.708 76.1706 78.52 76.3546 78.36C76.5386 78.196 76.7646 78.066 77.0326 77.97C77.3006 77.874 77.6066 77.826 77.9506 77.826C78.3506 77.826 78.7086 77.89 79.0246 78.018C79.3446 78.142 79.6206 78.314 79.8526 78.534L79.6126 78.924ZM86.904 84H85.836V78.816H82.704V82.464C82.704 82.72 82.766 82.91 82.89 83.034C83.014 83.158 83.174 83.22 83.37 83.22C83.482 83.22 83.578 83.206 83.658 83.178C83.742 83.146 83.814 83.112 83.874 83.076C83.934 83.04 83.984 83.008 84.024 82.98C84.068 82.948 84.106 82.932 84.138 82.932C84.194 82.932 84.244 82.966 84.288 83.034L84.6 83.544C84.416 83.716 84.194 83.852 83.934 83.952C83.674 84.048 83.406 84.096 83.13 84.096C82.65 84.096 82.28 83.962 82.02 83.694C81.764 83.426 81.636 83.04 81.636 82.536V78.816H80.904C80.84 78.816 80.786 78.798 80.742 78.762C80.698 78.722 80.676 78.662 80.676 78.582V78.156L81.672 78.024L81.918 76.152C81.93 76.092 81.956 76.044 81.996 76.008C82.04 75.968 82.096 75.948 82.164 75.948H82.704V78.042H86.904V84ZM87.168 75.972C87.168 76.076 87.146 76.174 87.102 76.266C87.062 76.354 87.006 76.432 86.934 76.5C86.866 76.568 86.786 76.622 86.694 76.662C86.602 76.702 86.504 76.722 86.4 76.722C86.296 76.722 86.198 76.702 86.106 76.662C86.018 76.622 85.94 76.568 85.872 76.5C85.804 76.432 85.75 76.354 85.71 76.266C85.67 76.174 85.65 76.076 85.65 75.972C85.65 75.868 85.67 75.77 85.71 75.678C85.75 75.582 85.804 75.5 85.872 75.432C85.94 75.36 86.018 75.304 86.106 75.264C86.198 75.224 86.296 75.204 86.4 75.204C86.504 75.204 86.602 75.224 86.694 75.264C86.786 75.304 86.866 75.36 86.934 75.432C87.006 75.5 87.062 75.582 87.102 75.678C87.146 75.77 87.168 75.868 87.168 75.972ZM89.6665 78.804C89.7985 78.656 89.9385 78.522 90.0865 78.402C90.2345 78.282 90.3905 78.18 90.5545 78.096C90.7225 78.008 90.8985 77.942 91.0825 77.898C91.2705 77.85 91.4725 77.826 91.6885 77.826C92.0205 77.826 92.3125 77.882 92.5645 77.994C92.8205 78.102 93.0325 78.258 93.2005 78.462C93.3725 78.662 93.5025 78.904 93.5905 79.188C93.6785 79.472 93.7225 79.786 93.7225 80.13V84H92.6485V80.13C92.6485 79.67 92.5425 79.314 92.3305 79.062C92.1225 78.806 91.8045 78.678 91.3765 78.678C91.0605 78.678 90.7645 78.754 90.4885 78.906C90.2165 79.058 89.9645 79.264 89.7325 79.524V84H88.6585V77.922H89.3005C89.4525 77.922 89.5465 77.996 89.5825 78.144L89.6665 78.804ZM97.4679 81.03C97.6839 81.03 97.8739 81 98.0379 80.94C98.2019 80.88 98.3399 80.796 98.4519 80.688C98.5639 80.58 98.6479 80.452 98.7039 80.304C98.7599 80.152 98.7879 79.986 98.7879 79.806C98.7879 79.434 98.6739 79.138 98.4459 78.918C98.2219 78.698 97.8959 78.588 97.4679 78.588C97.0359 78.588 96.7059 78.698 96.4779 78.918C96.2539 79.138 96.1419 79.434 96.1419 79.806C96.1419 79.986 96.1699 80.152 96.2259 80.304C96.2859 80.452 96.3719 80.58 96.4839 80.688C96.5959 80.796 96.7339 80.88 96.8979 80.94C97.0619 81 97.2519 81.03 97.4679 81.03ZM99.3939 84.33C99.3939 84.182 99.3519 84.062 99.2679 83.97C99.1839 83.878 99.0699 83.806 98.9259 83.754C98.7859 83.702 98.6219 83.666 98.4339 83.646C98.2459 83.622 98.0459 83.604 97.8339 83.592C97.6259 83.58 97.4139 83.568 97.1979 83.556C96.9819 83.544 96.7739 83.524 96.5739 83.496C96.3499 83.6 96.1659 83.732 96.0219 83.892C95.8819 84.048 95.8119 84.232 95.8119 84.444C95.8119 84.58 95.8459 84.706 95.9139 84.822C95.9859 84.942 96.0939 85.044 96.2379 85.128C96.3819 85.216 96.5619 85.284 96.7779 85.332C96.9979 85.384 97.2559 85.41 97.5519 85.41C97.8399 85.41 98.0979 85.384 98.3259 85.332C98.5539 85.28 98.7459 85.206 98.9019 85.11C99.0619 85.014 99.1839 84.9 99.2679 84.768C99.3519 84.636 99.3939 84.49 99.3939 84.33ZM100.48 78.162V78.558C100.48 78.69 100.396 78.774 100.228 78.81L99.5379 78.9C99.6739 79.164 99.7419 79.456 99.7419 79.776C99.7419 80.072 99.6839 80.342 99.5679 80.586C99.4559 80.826 99.2999 81.032 99.0999 81.204C98.8999 81.376 98.6599 81.508 98.3799 81.6C98.0999 81.692 97.7959 81.738 97.4679 81.738C97.1839 81.738 96.9159 81.704 96.6639 81.636C96.5359 81.716 96.4379 81.802 96.3699 81.894C96.3019 81.982 96.2679 82.072 96.2679 82.164C96.2679 82.308 96.3259 82.418 96.4419 82.494C96.5619 82.566 96.7179 82.618 96.9099 82.65C97.1019 82.682 97.3199 82.702 97.5639 82.71C97.8119 82.718 98.0639 82.732 98.3199 82.752C98.5799 82.768 98.8319 82.798 99.0759 82.842C99.3239 82.886 99.5439 82.958 99.7359 83.058C99.9279 83.158 100.082 83.296 100.198 83.472C100.318 83.648 100.378 83.876 100.378 84.156C100.378 84.416 100.312 84.668 100.18 84.912C100.052 85.156 99.8659 85.372 99.6219 85.56C99.3779 85.752 99.0779 85.904 98.7219 86.016C98.3699 86.132 97.9719 86.19 97.5279 86.19C97.0839 86.19 96.6959 86.146 96.3639 86.058C96.0319 85.97 95.7559 85.852 95.5359 85.704C95.3159 85.556 95.1499 85.384 95.0379 85.188C94.9299 84.996 94.8759 84.794 94.8759 84.582C94.8759 84.282 94.9699 84.028 95.1579 83.82C95.3459 83.612 95.6039 83.446 95.9319 83.322C95.7519 83.242 95.6079 83.136 95.4999 83.004C95.3959 82.868 95.3439 82.686 95.3439 82.458C95.3439 82.37 95.3599 82.28 95.3919 82.188C95.4239 82.092 95.4719 81.998 95.5359 81.906C95.6039 81.81 95.6859 81.72 95.7819 81.636C95.8779 81.552 95.9899 81.478 96.1179 81.414C95.8179 81.246 95.5839 81.024 95.4159 80.748C95.2479 80.468 95.1639 80.144 95.1639 79.776C95.1639 79.48 95.2199 79.212 95.3319 78.972C95.4479 78.728 95.6079 78.522 95.8119 78.354C96.0159 78.182 96.2579 78.05 96.5379 77.958C96.8219 77.866 97.1319 77.82 97.4679 77.82C97.7319 77.82 97.9779 77.85 98.2059 77.91C98.4339 77.966 98.6419 78.05 98.8299 78.162H100.48Z" fill="#6D6D6D"/>
<path d="M90.5091 46.8009H88.9552V63.5998H87.4013V39.1011H85.8474V63.6002H84.2935V41.201H82.7396V63.6002H81.1857V46.8013H79.6318V63.6002H78.0779V55.9004H76.524V63.6002H74.9701V55.2008H73.4162V63.6002H71.8623V49.6009H70.3084V63.6002H68.7545V48.2003H67.2006V63.6002H65.6468V51.7007H64.0929V63.6002H62.539V59.4005H60.9851V63.6002H59.4312V57.3006H57.8773V63.6002H56.3234V54.4998H54.7695V63.6002H53.2156V60.1002H51.6617V63.5998H48.5539V27.2017H47V64.2999C47.0107 64.4955 47.0985 64.6788 47.2441 64.8099C47.3897 64.9409 47.5813 65.009 47.7769 64.9991H93.6169V63.6002H90.5091V46.8009Z" fill="#085FAB"/>
<path d="M84.7954 32.4022C84.7899 32.4021 84.7845 32.4035 84.7796 32.406C84.7746 32.4086 84.7704 32.4123 84.7673 32.4169L83.9975 33.5856C83.9949 33.5883 83.9929 33.5914 83.9917 33.5949C83.9904 33.5984 83.99 33.6021 83.9904 33.6058C83.9903 33.6112 83.9916 33.6166 83.994 33.6215C83.9964 33.6264 83.9999 33.6306 84.0042 33.6339L85.11 34.3697C85.1176 34.3697 85.1247 34.3769 85.131 34.3769C85.137 34.3758 85.1427 34.3734 85.1476 34.3698C85.1525 34.3661 85.1564 34.3613 85.1591 34.3559L85.9361 33.1938C85.94 33.186 85.9414 33.1771 85.9401 33.1685C85.9387 33.1598 85.9347 33.1518 85.9285 33.1455L84.8156 32.4097C84.8133 32.4068 84.8103 32.4045 84.8068 32.4032C84.8033 32.4019 84.7995 32.4015 84.7959 32.4022H84.7954Z" fill="#085FAB"/>
<path d="M87.4771 32.0456C87.4879 32.0441 87.4978 32.0389 87.5052 32.0309L88.2822 30.8621C88.2844 30.858 88.2858 30.8535 88.2862 30.8488C88.2867 30.8441 88.2862 30.8394 88.2848 30.8349C88.2835 30.8305 88.2812 30.8263 88.2783 30.8227C88.2753 30.819 88.2716 30.816 88.2675 30.8138L87.1621 30.0781C87.1593 30.0755 87.156 30.0735 87.1524 30.0723C87.1488 30.071 87.1449 30.0706 87.1411 30.0709C87.1356 30.0709 87.1301 30.0722 87.1252 30.0748C87.1203 30.0773 87.1161 30.0811 87.113 30.0856L86.3352 31.2548C86.3352 31.262 86.3281 31.2687 86.3352 31.283C86.3352 31.2901 86.3423 31.2968 86.3499 31.3031L87.4557 32.0389C87.4583 32.0415 87.4615 32.0435 87.465 32.0447C87.4685 32.0459 87.4722 32.0464 87.4758 32.046L87.4771 32.0456Z" fill="#085FAB"/>
<path d="M83.0609 34.7332C83.0538 34.7332 83.0408 34.7403 83.0408 34.7479L82.2638 35.9167C82.2491 35.9305 82.2567 35.9515 82.271 35.965L83.3768 36.6999C83.3839 36.6999 83.3915 36.7075 83.3978 36.7075H83.4066C83.4137 36.6999 83.4204 36.6999 83.4276 36.6928L84.2037 35.524C84.2184 35.5101 84.2112 35.4891 84.1965 35.4748L83.0908 34.7399C83.0769 34.7328 83.0689 34.726 83.0626 34.7328L83.0609 34.7332Z" fill="#085FAB"/>
<path d="M52.0044 55.4702L55.3667 48.2782L59.2653 53.4896C59.3398 53.5851 59.4348 53.6625 59.5433 53.7163C59.6517 53.7701 59.7709 53.7989 59.8919 53.8004C60.0144 53.8126 60.138 53.7941 60.2514 53.7464C60.3649 53.6987 60.4646 53.6235 60.5416 53.5274L67.9222 44.9755L73.5851 48.7612C73.7653 48.8789 73.983 48.9249 74.1953 48.8901C74.4036 48.8595 74.5912 48.7474 74.7169 48.5785L82.2575 38.0792L80.9342 37.3232L73.8497 47.1896L68.2452 43.4414C68.0767 43.3302 67.8741 43.2825 67.6737 43.3069C67.4733 43.3313 67.288 43.4261 67.1511 43.5745L59.9646 51.8996L55.8602 46.4123C55.7743 46.3038 55.6624 46.2187 55.5349 46.1649C55.4074 46.1111 55.2684 46.0903 55.1307 46.1044C54.9947 46.1128 54.8632 46.1567 54.7494 46.2316C54.6356 46.3065 54.5433 46.4099 54.4818 46.5315L50.5547 54.931L52.0044 55.4702Z" fill="#085FAB"/>
<path d="M91.3449 23.002H89.5894C88.9871 23.0026 88.4095 23.2422 87.9836 23.6682C87.5576 24.0941 87.318 24.6716 87.3174 25.274V26.5016H88.7171V25.274C88.7174 25.0427 88.8093 24.821 88.9729 24.6575C89.1364 24.4939 89.3582 24.4019 89.5894 24.4017H91.3449C91.558 24.4011 91.764 24.4785 91.924 24.6193C92.0839 24.7601 92.1868 24.9546 92.2132 25.1661C92.2395 25.3776 92.1875 25.5914 92.067 25.7672C91.9465 25.943 91.7659 26.0686 91.5591 26.1202L91.1391 26.2244C90.6469 26.3465 90.2098 26.63 89.8977 27.0297C89.5856 27.4294 89.4164 27.9221 89.4172 28.4292V29.3015H90.817V28.4297C90.8167 28.2353 90.8815 28.0463 91.0009 27.893C91.1204 27.7396 91.2878 27.6307 91.4764 27.5834L91.8963 27.4793C92.4346 27.3449 92.9052 27.0183 93.2193 26.561C93.5334 26.1037 93.6694 25.5473 93.6015 24.9966C93.5337 24.446 93.2668 23.9392 92.8511 23.5718C92.4355 23.2043 91.8997 23.0017 91.3449 23.002Z" fill="#085FAB"/>
<path d="M89.417 30.7017H90.8168V32.1014H89.417V30.7017Z" fill="#085FAB"/>
<path d="M51.8994 27.2017H54.6994V28.6014H51.8994V27.2017Z" fill="#085FAB"/>
<path d="M57.4043 27.2017H67.2039V28.6014H57.4043V27.2017Z" fill="#085FAB"/>
<path d="M51.8994 30.002H54.6994V31.4017H51.8994V30.002Z" fill="#085FAB"/>
<path d="M57.4043 30.002H67.2039V31.4017H57.4043V30.002Z" fill="#085FAB"/>
<path d="M51.8994 32.8018H54.6994V34.2015H51.8994V32.8018Z" fill="#085FAB"/>
<path d="M57.4043 32.8018H67.2039V34.2015H57.4043V32.8018Z" fill="#085FAB"/>
<defs>
<filter id="filter0_d" x="0" y="0" width="141" height="122.935" filterUnits="userSpaceOnUse" color-interpolation-filters="sRGB">
<feFlood flood-opacity="0" result="BackgroundImageFix"/>
<feColorMatrix in="SourceAlpha" type="matrix" values="0 0 0 0 0 0 0 0 0 0 0 0 0 0 0 0 0 0 127 0"/>
<feOffset dy="8"/>
<feGaussianBlur stdDeviation="10"/>
<feColorMatrix type="matrix" values="0 0 0 0 0 0 0 0 0 0 0 0 0 0 0 0 0 0 0.1 0"/>
<feBlend mode="normal" in2="BackgroundImageFix" result="effect1_dropShadow"/>
<feBlend mode="normal" in="SourceGraphic" in2="effect1_dropShadow" result="shape"/>
</filter>
</defs>
</svg>
