<svg width="141" height="123" viewBox="0 0 141 123" fill="none" xmlns="http://www.w3.org/2000/svg">
<g filter="url(#filter0_d)">
<rect x="20" y="12" width="101" height="82.935" rx="10" fill="white"/>
</g>
<path d="M46.912 76.38H44.128V84H42.97V76.38H40.18V75.402H46.912V76.38ZM49.0287 77.922V84H47.9607V77.922H49.0287ZM49.2567 76.014C49.2567 76.118 49.2347 76.216 49.1907 76.308C49.1507 76.396 49.0947 76.476 49.0227 76.548C48.9547 76.616 48.8727 76.67 48.7767 76.71C48.6847 76.75 48.5867 76.77 48.4827 76.77C48.3787 76.77 48.2807 76.75 48.1887 76.71C48.1007 76.67 48.0227 76.616 47.9547 76.548C47.8867 76.476 47.8327 76.396 47.7927 76.308C47.7527 76.216 47.7327 76.118 47.7327 76.014C47.7327 75.91 47.7527 75.812 47.7927 75.72C47.8327 75.624 47.8867 75.542 47.9547 75.474C48.0227 75.402 48.1007 75.346 48.1887 75.306C48.2807 75.266 48.3787 75.246 48.4827 75.246C48.5867 75.246 48.6847 75.266 48.7767 75.306C48.8727 75.346 48.9547 75.402 49.0227 75.474C49.0947 75.542 49.1507 75.624 49.1907 75.72C49.2347 75.812 49.2567 75.91 49.2567 76.014ZM50.7835 84V77.922H51.4255C51.5775 77.922 51.6715 77.996 51.7075 78.144L51.7855 78.768C52.0095 78.492 52.2615 78.266 52.5415 78.09C52.8215 77.914 53.1455 77.826 53.5135 77.826C53.9215 77.826 54.2515 77.94 54.5035 78.168C54.7595 78.396 54.9435 78.704 55.0555 79.092C55.1435 78.872 55.2555 78.682 55.3915 78.522C55.5315 78.362 55.6875 78.23 55.8595 78.126C56.0315 78.022 56.2135 77.946 56.4055 77.898C56.6015 77.85 56.7995 77.826 56.9995 77.826C57.3195 77.826 57.6035 77.878 57.8515 77.982C58.1035 78.082 58.3155 78.23 58.4875 78.426C58.6635 78.622 58.7975 78.864 58.8895 79.152C58.9815 79.436 59.0275 79.762 59.0275 80.13V84H57.9535V80.13C57.9535 79.654 57.8495 79.294 57.6415 79.05C57.4335 78.802 57.1335 78.678 56.7415 78.678C56.5655 78.678 56.3975 78.71 56.2375 78.774C56.0815 78.834 55.9435 78.924 55.8235 79.044C55.7035 79.164 55.6075 79.316 55.5355 79.5C55.4675 79.68 55.4335 79.89 55.4335 80.13V84H54.3595V80.13C54.3595 79.642 54.2615 79.278 54.0655 79.038C53.8695 78.798 53.5835 78.678 53.2075 78.678C52.9435 78.678 52.6995 78.75 52.4755 78.894C52.2515 79.034 52.0455 79.226 51.8575 79.47V84H50.7835ZM64.7187 80.298C64.7187 80.05 64.6827 79.824 64.6107 79.62C64.5427 79.412 64.4407 79.234 64.3047 79.086C64.1727 78.934 64.0107 78.818 63.8187 78.738C63.6267 78.654 63.4087 78.612 63.1647 78.612C62.6527 78.612 62.2467 78.762 61.9467 79.062C61.6507 79.358 61.4667 79.77 61.3947 80.298H64.7187ZM65.5827 83.148C65.4507 83.308 65.2927 83.448 65.1087 83.568C64.9247 83.684 64.7267 83.78 64.5147 83.856C64.3067 83.932 64.0907 83.988 63.8667 84.024C63.6427 84.064 63.4207 84.084 63.2007 84.084C62.7807 84.084 62.3927 84.014 62.0367 83.874C61.6847 83.73 61.3787 83.522 61.1187 83.25C60.8627 82.974 60.6627 82.634 60.5187 82.23C60.3747 81.826 60.3027 81.362 60.3027 80.838C60.3027 80.414 60.3667 80.018 60.4947 79.65C60.6267 79.282 60.8147 78.964 61.0587 78.696C61.3027 78.424 61.6007 78.212 61.9527 78.06C62.3047 77.904 62.7007 77.826 63.1407 77.826C63.5047 77.826 63.8407 77.888 64.1487 78.012C64.4607 78.132 64.7287 78.308 64.9527 78.54C65.1807 78.768 65.3587 79.052 65.4867 79.392C65.6147 79.728 65.6787 80.112 65.6787 80.544C65.6787 80.712 65.6607 80.824 65.6247 80.88C65.5887 80.936 65.5207 80.964 65.4207 80.964H61.3587C61.3707 81.348 61.4227 81.682 61.5147 81.966C61.6107 82.25 61.7427 82.488 61.9107 82.68C62.0787 82.868 62.2787 83.01 62.5107 83.106C62.7427 83.198 63.0027 83.244 63.2907 83.244C63.5587 83.244 63.7887 83.214 63.9807 83.154C64.1767 83.09 64.3447 83.022 64.4847 82.95C64.6247 82.878 64.7407 82.812 64.8327 82.752C64.9287 82.688 65.0107 82.656 65.0787 82.656C65.1667 82.656 65.2347 82.69 65.2827 82.758L65.5827 83.148ZM74.7108 76.746C74.6748 76.806 74.6348 76.852 74.5908 76.884C74.5508 76.912 74.5008 76.926 74.4408 76.926C74.3728 76.926 74.2928 76.892 74.2008 76.824C74.1088 76.756 73.9928 76.682 73.8528 76.602C73.7168 76.518 73.5508 76.442 73.3548 76.374C73.1628 76.306 72.9288 76.272 72.6528 76.272C72.3928 76.272 72.1628 76.308 71.9628 76.38C71.7668 76.448 71.6008 76.542 71.4648 76.662C71.3328 76.782 71.2328 76.924 71.1648 77.088C71.0968 77.248 71.0628 77.422 71.0628 77.61C71.0628 77.85 71.1208 78.05 71.2368 78.21C71.3568 78.366 71.5128 78.5 71.7048 78.612C71.9008 78.724 72.1208 78.822 72.3648 78.906C72.6128 78.986 72.8648 79.07 73.1208 79.158C73.3808 79.246 73.6328 79.346 73.8768 79.458C74.1248 79.566 74.3448 79.704 74.5368 79.872C74.7328 80.04 74.8888 80.246 75.0048 80.49C75.1248 80.734 75.1848 81.034 75.1848 81.39C75.1848 81.766 75.1208 82.12 74.9928 82.452C74.8648 82.78 74.6768 83.066 74.4288 83.31C74.1848 83.554 73.8828 83.746 73.5228 83.886C73.1668 84.026 72.7608 84.096 72.3048 84.096C71.7448 84.096 71.2368 83.996 70.7808 83.796C70.3248 83.592 69.9348 83.318 69.6108 82.974L69.9468 82.422C69.9788 82.378 70.0168 82.342 70.0608 82.314C70.1088 82.282 70.1608 82.266 70.2168 82.266C70.2688 82.266 70.3268 82.288 70.3908 82.332C70.4588 82.372 70.5348 82.424 70.6188 82.488C70.7028 82.552 70.7988 82.622 70.9068 82.698C71.0148 82.774 71.1368 82.844 71.2728 82.908C71.4128 82.972 71.5708 83.026 71.7468 83.07C71.9228 83.11 72.1208 83.13 72.3408 83.13C72.6168 83.13 72.8628 83.092 73.0788 83.016C73.2948 82.94 73.4768 82.834 73.6248 82.698C73.7768 82.558 73.8928 82.392 73.9728 82.2C74.0528 82.008 74.0928 81.794 74.0928 81.558C74.0928 81.298 74.0328 81.086 73.9128 80.922C73.7968 80.754 73.6428 80.614 73.4508 80.502C73.2588 80.39 73.0388 80.296 72.7908 80.22C72.5428 80.14 72.2908 80.06 72.0348 79.98C71.7788 79.896 71.5268 79.8 71.2788 79.692C71.0308 79.584 70.8108 79.444 70.6188 79.272C70.4268 79.1 70.2708 78.886 70.1508 78.63C70.0348 78.37 69.9768 78.05 69.9768 77.67C69.9768 77.366 70.0348 77.072 70.1508 76.788C70.2708 76.504 70.4428 76.252 70.6668 76.032C70.8948 75.812 71.1728 75.636 71.5008 75.504C71.8328 75.372 72.2128 75.306 72.6408 75.306C73.1208 75.306 73.5568 75.382 73.9488 75.534C74.3448 75.686 74.6928 75.906 74.9928 76.194L74.7108 76.746ZM80.6093 80.298C80.6093 80.05 80.5733 79.824 80.5013 79.62C80.4333 79.412 80.3313 79.234 80.1953 79.086C80.0633 78.934 79.9013 78.818 79.7093 78.738C79.5173 78.654 79.2993 78.612 79.0553 78.612C78.5433 78.612 78.1373 78.762 77.8373 79.062C77.5413 79.358 77.3573 79.77 77.2853 80.298H80.6093ZM81.4733 83.148C81.3413 83.308 81.1833 83.448 80.9993 83.568C80.8153 83.684 80.6173 83.78 80.4053 83.856C80.1973 83.932 79.9813 83.988 79.7573 84.024C79.5333 84.064 79.3113 84.084 79.0913 84.084C78.6713 84.084 78.2833 84.014 77.9273 83.874C77.5753 83.73 77.2693 83.522 77.0093 83.25C76.7533 82.974 76.5533 82.634 76.4093 82.23C76.2653 81.826 76.1933 81.362 76.1933 80.838C76.1933 80.414 76.2573 80.018 76.3853 79.65C76.5173 79.282 76.7053 78.964 76.9493 78.696C77.1933 78.424 77.4913 78.212 77.8433 78.06C78.1953 77.904 78.5913 77.826 79.0313 77.826C79.3953 77.826 79.7313 77.888 80.0393 78.012C80.3513 78.132 80.6193 78.308 80.8433 78.54C81.0713 78.768 81.2493 79.052 81.3773 79.392C81.5053 79.728 81.5693 80.112 81.5693 80.544C81.5693 80.712 81.5513 80.824 81.5153 80.88C81.4793 80.936 81.4113 80.964 81.3113 80.964H77.2493C77.2613 81.348 77.3133 81.682 77.4053 81.966C77.5013 82.25 77.6333 82.488 77.8013 82.68C77.9693 82.868 78.1693 83.01 78.4013 83.106C78.6333 83.198 78.8933 83.244 79.1813 83.244C79.4493 83.244 79.6793 83.214 79.8713 83.154C80.0673 83.09 80.2353 83.022 80.3753 82.95C80.5153 82.878 80.6313 82.812 80.7233 82.752C80.8193 82.688 80.9013 82.656 80.9693 82.656C81.0573 82.656 81.1253 82.69 81.1733 82.758L81.4733 83.148ZM83.8952 79.14C84.0872 78.724 84.3232 78.4 84.6032 78.168C84.8832 77.932 85.2252 77.814 85.6292 77.814C85.7572 77.814 85.8792 77.828 85.9952 77.856C86.1152 77.884 86.2212 77.928 86.3132 77.988L86.2352 78.786C86.2112 78.886 86.1512 78.936 86.0552 78.936C85.9992 78.936 85.9172 78.924 85.8092 78.9C85.7012 78.876 85.5792 78.864 85.4432 78.864C85.2512 78.864 85.0792 78.892 84.9272 78.948C84.7792 79.004 84.6452 79.088 84.5252 79.2C84.4092 79.308 84.3032 79.444 84.2072 79.608C84.1152 79.768 84.0312 79.952 83.9552 80.16V84H82.8812V77.922H83.4932C83.6092 77.922 83.6892 77.944 83.7332 77.988C83.7772 78.032 83.8072 78.108 83.8232 78.216L83.8952 79.14ZM88.3803 77.922V84H87.3123V77.922H88.3803ZM88.6083 76.014C88.6083 76.118 88.5863 76.216 88.5423 76.308C88.5023 76.396 88.4463 76.476 88.3743 76.548C88.3063 76.616 88.2243 76.67 88.1283 76.71C88.0362 76.75 87.9383 76.77 87.8343 76.77C87.7303 76.77 87.6323 76.75 87.5403 76.71C87.4523 76.67 87.3743 76.616 87.3063 76.548C87.2383 76.476 87.1843 76.396 87.1443 76.308C87.1043 76.216 87.0843 76.118 87.0843 76.014C87.0843 75.91 87.1043 75.812 87.1443 75.72C87.1843 75.624 87.2383 75.542 87.3063 75.474C87.3743 75.402 87.4523 75.346 87.5403 75.306C87.6323 75.266 87.7303 75.246 87.8343 75.246C87.9383 75.246 88.0362 75.266 88.1283 75.306C88.2243 75.346 88.3063 75.402 88.3743 75.474C88.4463 75.542 88.5023 75.624 88.5423 75.72C88.5863 75.812 88.6083 75.91 88.6083 76.014ZM94.2031 80.298C94.2031 80.05 94.1671 79.824 94.0951 79.62C94.0271 79.412 93.9251 79.234 93.7891 79.086C93.6571 78.934 93.4951 78.818 93.3031 78.738C93.1111 78.654 92.8931 78.612 92.6491 78.612C92.1371 78.612 91.7311 78.762 91.4311 79.062C91.1351 79.358 90.9511 79.77 90.8791 80.298H94.2031ZM95.0671 83.148C94.9351 83.308 94.7771 83.448 94.5931 83.568C94.4091 83.684 94.2111 83.78 93.9991 83.856C93.7911 83.932 93.5751 83.988 93.3511 84.024C93.1271 84.064 92.9051 84.084 92.6851 84.084C92.2651 84.084 91.8771 84.014 91.5211 83.874C91.1691 83.73 90.8631 83.522 90.6031 83.25C90.3471 82.974 90.1471 82.634 90.0031 82.23C89.8591 81.826 89.7871 81.362 89.7871 80.838C89.7871 80.414 89.8511 80.018 89.9791 79.65C90.1111 79.282 90.2991 78.964 90.5431 78.696C90.7871 78.424 91.0851 78.212 91.4371 78.06C91.7891 77.904 92.1851 77.826 92.6251 77.826C92.9891 77.826 93.3251 77.888 93.6331 78.012C93.9451 78.132 94.2131 78.308 94.4371 78.54C94.6651 78.768 94.8431 79.052 94.9711 79.392C95.0991 79.728 95.1631 80.112 95.1631 80.544C95.1631 80.712 95.1451 80.824 95.1091 80.88C95.0731 80.936 95.0051 80.964 94.9051 80.964H90.8431C90.8551 81.348 90.9071 81.682 90.9991 81.966C91.0951 82.25 91.2271 82.488 91.3951 82.68C91.5631 82.868 91.7631 83.01 91.9951 83.106C92.2271 83.198 92.4871 83.244 92.7751 83.244C93.0431 83.244 93.2731 83.214 93.4651 83.154C93.6611 83.09 93.8291 83.022 93.9691 82.95C94.1091 82.878 94.2251 82.812 94.3171 82.752C94.4131 82.688 94.4951 82.656 94.5631 82.656C94.6511 82.656 94.7191 82.69 94.7671 82.758L95.0671 83.148ZM100.015 78.924C99.9669 79.012 99.8929 79.056 99.7929 79.056C99.7329 79.056 99.6649 79.034 99.5889 78.99C99.5129 78.946 99.4189 78.898 99.3069 78.846C99.1989 78.79 99.0689 78.74 98.9169 78.696C98.7649 78.648 98.5849 78.624 98.3769 78.624C98.1969 78.624 98.0349 78.648 97.8909 78.696C97.7469 78.74 97.6229 78.802 97.5189 78.882C97.4189 78.962 97.3409 79.056 97.2849 79.164C97.2329 79.268 97.2069 79.382 97.2069 79.506C97.2069 79.662 97.2509 79.792 97.3389 79.896C97.4309 80 97.5509 80.09 97.6989 80.166C97.8469 80.242 98.0149 80.31 98.2029 80.37C98.3909 80.426 98.5829 80.488 98.7789 80.556C98.9789 80.62 99.1729 80.692 99.3609 80.772C99.5489 80.852 99.7169 80.952 99.8649 81.072C100.013 81.192 100.131 81.34 100.219 81.516C100.311 81.688 100.357 81.896 100.357 82.14C100.357 82.42 100.307 82.68 100.207 82.92C100.107 83.156 99.9589 83.362 99.7629 83.538C99.5669 83.71 99.3269 83.846 99.0429 83.946C98.7589 84.046 98.4309 84.096 98.0589 84.096C97.6349 84.096 97.2509 84.028 96.9069 83.892C96.5629 83.752 96.2709 83.574 96.0309 83.358L96.2829 82.95C96.3149 82.898 96.3529 82.858 96.3969 82.83C96.4409 82.802 96.4969 82.788 96.5649 82.788C96.6369 82.788 96.7129 82.816 96.7929 82.872C96.8729 82.928 96.9689 82.99 97.0809 83.058C97.1969 83.126 97.3369 83.188 97.5009 83.244C97.6649 83.3 97.8689 83.328 98.1129 83.328C98.3209 83.328 98.5029 83.302 98.6589 83.25C98.8149 83.194 98.9449 83.12 99.0489 83.028C99.1529 82.936 99.2289 82.83 99.2769 82.71C99.3289 82.59 99.3549 82.462 99.3549 82.326C99.3549 82.158 99.3089 82.02 99.2169 81.912C99.1289 81.8 99.0109 81.706 98.8629 81.63C98.7149 81.55 98.5449 81.482 98.3529 81.426C98.1649 81.366 97.9709 81.304 97.7709 81.24C97.5749 81.176 97.3809 81.104 97.1889 81.024C97.0009 80.94 96.8329 80.836 96.6849 80.712C96.5369 80.588 96.4169 80.436 96.3249 80.256C96.2369 80.072 96.1929 79.85 96.1929 79.59C96.1929 79.358 96.2409 79.136 96.3369 78.924C96.4329 78.708 96.5729 78.52 96.7569 78.36C96.9409 78.196 97.1669 78.066 97.4349 77.97C97.7029 77.874 98.0089 77.826 98.3529 77.826C98.7529 77.826 99.1109 77.89 99.4269 78.018C99.7469 78.142 100.023 78.314 100.255 78.534L100.015 78.924Z" fill="#6D6D6D"/>
<path d="M89.4241 45.8934C89.0661 42.3021 87.5844 38.9153 85.1898 36.215C82.7952 33.5147 79.6099 31.6386 76.0871 30.8538V28.693C76.7716 28.5226 77.3702 28.1078 77.7699 27.5266C78.1696 26.9454 78.343 26.2381 78.2572 25.538C78.1714 24.8379 77.8325 24.1933 77.3043 23.7258C76.7762 23.2583 76.0952 23.0001 75.3898 23H69.271C68.5657 23.0002 67.8848 23.2584 67.3566 23.7259C66.8285 24.1935 66.4897 24.838 66.404 25.5382C66.3182 26.2383 66.4916 26.9456 66.8913 27.5267C67.2911 28.1078 67.8896 28.5226 68.574 28.693V30.8583C65.4031 31.5653 62.5 33.1628 60.2058 35.4631C59.6908 35.9778 59.2089 36.5247 58.7631 37.1004C58.7416 37.1004 58.7205 37.0972 58.6987 37.0972H52.6425C52.4171 37.0972 52.201 37.1868 52.0416 37.3461C51.8822 37.5055 51.7927 37.7217 51.7927 37.9471C51.7927 38.1724 51.8822 38.3886 52.0416 38.548C52.201 38.7073 52.4171 38.7969 52.6425 38.7969H57.6063C56.9898 39.8294 56.4844 40.9242 56.0985 42.0632H46.8498C46.6244 42.0632 46.4083 42.1527 46.2489 42.3121C46.0895 42.4714 46 42.6876 46 42.913C46 43.1383 46.0895 43.3545 46.2489 43.5139C46.4083 43.6732 46.6244 43.7628 46.8498 43.7628H55.6183C55.374 44.8356 55.2328 45.9294 55.1966 47.0291H51.4387C51.2133 47.0291 50.9971 47.1186 50.8378 47.278C50.6784 47.4373 50.5889 47.6535 50.5889 47.8789C50.5889 48.1043 50.6784 48.3204 50.8378 48.4798C50.9971 48.6391 51.2133 48.7287 51.4387 48.7287H55.2236C55.2955 49.8316 55.4733 50.925 55.7544 51.9939H50.2494C50.024 51.9939 49.8079 52.0835 49.6485 52.2428C49.4891 52.4022 49.3996 52.6184 49.3996 52.8437C49.3996 53.0691 49.4891 53.2853 49.6485 53.4446C49.8079 53.604 50.024 53.6935 50.2494 53.6935H56.2966C57.4296 56.6787 59.3728 59.2887 61.9079 61.2299C64.4429 63.1712 67.4692 64.3668 70.6465 64.6824C71.2079 64.7378 71.7692 64.7654 72.3306 64.7651C75.6552 64.7662 78.9089 63.8042 81.6984 61.9953C81.8873 61.8723 82.0196 61.6793 82.0662 61.4588C82.1127 61.2383 82.0698 61.0083 81.9468 60.8194C81.8238 60.6305 81.6308 60.4982 81.4103 60.4516C81.1898 60.405 80.9597 60.448 80.7709 60.571C77.5663 62.6525 73.7046 63.4741 69.9303 62.8772C66.156 62.2803 62.7362 60.3072 60.3304 57.3384C57.9245 54.3696 56.7029 50.6153 56.901 46.7992C57.0992 42.9831 58.703 39.3754 61.4034 36.6718C64.1038 33.9681 67.7095 32.3598 71.5254 32.1571C75.3412 31.9543 79.0971 33.1713 82.0688 35.5736C85.0405 37.9758 87.0177 41.3932 87.6192 45.1668C88.2206 48.9404 87.4038 52.8031 85.3261 56.0101C85.2654 56.1037 85.2236 56.2084 85.2033 56.3181C85.183 56.4278 85.1845 56.5405 85.2077 56.6496C85.2309 56.7588 85.2754 56.8623 85.3386 56.9542C85.4018 57.0462 85.4825 57.1248 85.5761 57.1856C85.6697 57.2463 85.7744 57.2881 85.8841 57.3084C85.9938 57.3287 86.1065 57.3272 86.2156 57.304C86.3248 57.2808 86.4283 57.2363 86.5202 57.1731C86.6122 57.1099 86.6908 57.0292 86.7516 56.9356C88.8659 53.6632 89.808 49.7705 89.4241 45.8934ZM68.0814 25.891C68.0817 25.5756 68.2072 25.2732 68.4302 25.0502C68.6532 24.8272 68.9556 24.7017 69.271 24.7013H75.3895C75.705 24.7013 76.0076 24.8267 76.2307 25.0498C76.4538 25.2729 76.5791 25.5755 76.5791 25.891C76.5791 26.2065 76.4538 26.5091 76.2307 26.7322C76.0076 26.9553 75.705 27.0806 75.3895 27.0806H69.271C68.9556 27.0802 68.6532 26.9548 68.4302 26.7318C68.2072 26.5088 68.0817 26.2064 68.0814 25.891ZM70.2733 30.5674V28.7802H74.3872V30.5643C73.0206 30.4019 71.6396 30.4029 70.2733 30.5674Z" fill="#085FAB"/>
<path d="M83.8796 58.2881C83.6829 58.288 83.4923 58.3561 83.3403 58.4809C83.1882 58.6056 83.0841 58.7791 83.0457 58.972C83.0073 59.1649 83.0369 59.3651 83.1296 59.5386C83.2222 59.712 83.3722 59.848 83.5539 59.9233C83.7356 59.9986 83.9377 60.0085 84.1259 59.9515C84.3141 59.8944 84.4767 59.7739 84.586 59.6103C84.6953 59.4468 84.7444 59.2505 84.7252 59.0548C84.7059 58.8591 84.6194 58.6761 84.4803 58.537C84.3207 58.3781 84.1048 58.2886 83.8796 58.2881Z" fill="#085FAB"/>
<path d="M72.3437 34.418C69.7364 34.418 67.1877 35.1911 65.0198 36.6396C62.852 38.0881 61.1624 40.147 60.1646 42.5558C59.1668 44.9645 58.9058 47.6151 59.4144 50.1723C59.9231 52.7294 61.1786 55.0783 63.0222 56.9219C64.8658 58.7655 67.2147 60.0211 69.7719 60.5297C72.329 61.0384 74.9796 60.7773 77.3884 59.7796C79.7972 58.7818 81.856 57.0922 83.3045 54.9243C84.753 52.7565 85.5262 50.2077 85.5262 47.6005C85.5222 44.1055 84.1321 40.7547 81.6607 38.2834C79.1894 35.812 75.8387 34.4219 72.3437 34.418ZM72.3437 59.0834C70.0726 59.0834 67.8524 58.4099 65.9641 57.1482C64.0757 55.8864 62.604 54.093 61.7348 51.9948C60.8657 49.8966 60.6383 47.5878 61.0814 45.3603C61.5245 43.1328 62.6181 41.0868 64.224 39.4809C65.8299 37.8749 67.876 36.7813 70.1035 36.3382C72.3309 35.8952 74.6397 36.1226 76.738 36.9917C78.8362 37.8608 80.6296 39.3326 81.8913 41.2209C83.1531 43.1093 83.8266 45.3294 83.8266 47.6005C83.8234 50.645 82.6126 53.5639 80.4599 55.7167C78.3071 57.8695 75.3882 59.0803 72.3437 59.0834Z" fill="#085FAB"/>
<path d="M77.7186 41.0237L73.5081 45.2324C73.1454 45.0532 72.7463 44.96 72.3417 44.96C71.9371 44.96 71.538 45.0532 71.1753 45.2324L69.2915 43.3486C69.2126 43.2696 69.1189 43.2071 69.0158 43.1643C68.9127 43.1216 68.8022 43.0997 68.6906 43.0997C68.579 43.0997 68.4685 43.1216 68.3654 43.1643C68.2623 43.2071 68.1686 43.2696 68.0897 43.3486C68.0108 43.4275 67.9482 43.5211 67.9055 43.6242C67.8628 43.7273 67.8408 43.8378 67.8408 43.9494C67.8408 44.061 67.8628 44.1715 67.9055 44.2746C67.9482 44.3777 68.0108 44.4714 68.0897 44.5503L69.9735 46.4341C69.7749 46.8367 69.6822 47.2833 69.7042 47.7317C69.7262 48.18 69.8621 48.6154 70.0992 48.9967C70.3362 49.3779 70.6665 49.6924 71.0589 49.9105C71.4513 50.1286 71.8928 50.243 72.3417 50.243C72.7906 50.243 73.2321 50.1286 73.6245 49.9105C74.0169 49.6924 74.3472 49.3779 74.5842 48.9967C74.8213 48.6154 74.9572 48.18 74.9792 47.7317C75.0012 47.2833 74.9085 46.8367 74.7099 46.4341L78.7953 42.3487L78.9189 42.2251C79.0783 42.0657 79.1678 41.8496 79.1678 41.6242C79.1678 41.3988 79.0783 41.1827 78.9189 41.0233C78.7596 40.8639 78.5434 40.7744 78.3181 40.7744C78.0927 40.7744 77.8766 40.8639 77.7172 41.0233L77.7186 41.0237ZM72.3431 48.5419C72.157 48.5419 71.975 48.4867 71.8203 48.3833C71.6655 48.2799 71.5449 48.133 71.4737 47.961C71.4025 47.7891 71.3838 47.5998 71.4201 47.4173C71.4564 47.2348 71.5461 47.0671 71.6777 46.9355C71.8093 46.8039 71.977 46.7142 72.1595 46.6779C72.342 46.6416 72.5313 46.6603 72.7032 46.7315C72.8752 46.8027 73.0221 46.9233 73.1255 47.0781C73.2289 47.2328 73.2841 47.4148 73.2841 47.6009C73.2838 47.8503 73.1847 48.0895 73.0083 48.2659C72.832 48.4423 72.5929 48.5416 72.3434 48.5419H72.3431Z" fill="#085FAB"/>
<path d="M81.4281 46.7612H80.6408C80.4154 46.7612 80.1993 46.8508 80.0399 47.0101C79.8805 47.1695 79.791 47.3857 79.791 47.611C79.791 47.8364 79.8805 48.0526 80.0399 48.2119C80.1993 48.3713 80.4154 48.4609 80.6408 48.4609H81.4281C81.6535 48.4609 81.8697 48.3713 82.029 48.2119C82.1884 48.0526 82.2779 47.8364 82.2779 47.611C82.2779 47.3857 82.1884 47.1695 82.029 47.0101C81.8697 46.8508 81.6535 46.7612 81.4281 46.7612Z" fill="#085FAB"/>
<path d="M64.0444 46.7412H63.257C63.0317 46.7412 62.8155 46.8307 62.6561 46.9901C62.4968 47.1495 62.4072 47.3656 62.4072 47.591C62.4072 47.8164 62.4968 48.0326 62.6561 48.1919C62.8155 48.3513 63.0317 48.4408 63.257 48.4408H64.0444C64.2697 48.4408 64.4859 48.3513 64.6453 48.1919C64.8046 48.0326 64.8942 47.8164 64.8942 47.591C64.8942 47.3656 64.8046 47.1495 64.6453 46.9901C64.4859 46.8307 64.2697 46.7412 64.0444 46.7412Z" fill="#085FAB"/>
<path d="M72.3539 40.1513C72.5792 40.1513 72.7953 40.0618 72.9547 39.9025C73.114 39.7431 73.2035 39.527 73.2035 39.3017V38.5144C73.2035 38.289 73.114 38.0728 72.9546 37.9135C72.7953 37.7541 72.5791 37.6646 72.3537 37.6646C72.1283 37.6646 71.9122 37.7541 71.7528 37.9135C71.5934 38.0728 71.5039 38.289 71.5039 38.5144V39.3017C71.504 39.527 71.5936 39.7431 71.753 39.9025C71.9124 40.0618 72.1285 40.1513 72.3539 40.1513Z" fill="#085FAB"/>
<path d="M72.3321 55.0493C72.1068 55.0494 71.8907 55.139 71.7314 55.2983C71.5721 55.4576 71.4825 55.6736 71.4824 55.8989V56.6863C71.4824 56.9117 71.572 57.1278 71.7313 57.2872C71.8907 57.4465 72.1068 57.5361 72.3322 57.5361C72.5576 57.5361 72.7738 57.4465 72.9331 57.2872C73.0925 57.1278 73.182 56.9117 73.182 56.6863V55.8989C73.182 55.7873 73.1601 55.6768 73.1173 55.5737C73.0746 55.4706 73.012 55.377 72.9331 55.298C72.8541 55.2191 72.7604 55.1566 72.6573 55.1139C72.5542 55.0712 72.4437 55.0493 72.3321 55.0493Z" fill="#085FAB"/>
<path d="M46.8504 51.9946C46.7107 51.9947 46.5732 52.0291 46.45 52.095C46.3268 52.1609 46.2218 52.2561 46.1441 52.3723C46.0665 52.4884 46.0188 52.6219 46.0051 52.761C45.9914 52.9 46.0122 53.0402 46.0656 53.1693C46.1191 53.2984 46.2035 53.4123 46.3115 53.5009C46.4195 53.5896 46.5476 53.6502 46.6846 53.6775C46.8216 53.7048 46.9633 53.6979 47.097 53.6574C47.2307 53.6169 47.3523 53.5441 47.4511 53.4453C47.57 53.3265 47.651 53.1751 47.6839 53.0102C47.7167 52.8454 47.6999 52.6745 47.6356 52.5192C47.5713 52.3639 47.4624 52.2312 47.3226 52.1378C47.1828 52.0444 47.0185 51.9946 46.8504 51.9946Z" fill="#085FAB"/>
<defs>
<filter id="filter0_d" x="0" y="0" width="141" height="122.935" filterUnits="userSpaceOnUse" color-interpolation-filters="sRGB">
<feFlood flood-opacity="0" result="BackgroundImageFix"/>
<feColorMatrix in="SourceAlpha" type="matrix" values="0 0 0 0 0 0 0 0 0 0 0 0 0 0 0 0 0 0 127 0"/>
<feOffset dy="8"/>
<feGaussianBlur stdDeviation="10"/>
<feColorMatrix type="matrix" values="0 0 0 0 0 0 0 0 0 0 0 0 0 0 0 0 0 0 0.1 0"/>
<feBlend mode="normal" in2="BackgroundImageFix" result="effect1_dropShadow"/>
<feBlend mode="normal" in="SourceGraphic" in2="effect1_dropShadow" result="shape"/>
</filter>
</defs>
</svg>
