<svg width="60" height="85" viewBox="0 0 60 85" fill="none" xmlns="http://www.w3.org/2000/svg">
<path d="M54.8165 49.6326C54.247 49.6268 53.79 49.1605 53.7958 48.591L53.8096 47.2351C53.8227 45.9451 54.6205 44.8173 55.842 44.362C56.9568 43.9464 57.6643 42.8662 57.6024 41.6738C57.533 40.3372 56.4331 39.2146 55.0982 39.1182C54.3401 39.063 53.6162 39.315 53.0604 39.8268C52.504 40.3392 52.1934 41.0377 52.1857 41.7936C52.1799 42.3631 51.7135 42.82 51.144 42.8142C50.5746 42.8084 50.1176 42.3421 50.1234 41.7726C50.1367 40.4608 50.698 39.1987 51.6633 38.3097C52.6423 37.4082 53.9149 36.9652 55.2469 37.0611C56.3984 37.1443 57.4829 37.6499 58.3009 38.4846C59.1189 39.3193 59.6022 40.414 59.662 41.5669C59.7708 43.6631 58.5251 45.563 56.5623 46.2945C56.1474 46.4492 55.8763 46.8267 55.8719 47.2561L55.8582 48.6119C55.8523 49.1815 55.386 49.6384 54.8165 49.6326Z" fill="#302A4D"/>
<path d="M53.7739 52.9357C53.6664 52.3922 54.0304 51.8358 54.5955 51.7313C55.5432 51.5447 56.1951 52.6724 55.5772 53.4064C55.0329 54.0675 53.9344 53.7952 53.7739 52.9357Z" fill="#302A4D"/>
<path d="M39.2142 42.8916C39.2142 42.8916 47.8121 45.3917 50.9465 55.9085C54.0808 66.4253 48.7849 59.6153 42.687 58.7521C36.5891 57.8888 39.2142 42.8916 39.2142 42.8916Z" fill="#D2D2D2"/>
<path d="M17.8312 42.8916C17.8312 42.8916 9.2328 45.3917 6.09846 55.9085C2.96412 66.4253 8.26008 59.6153 14.3579 58.7521C20.4558 57.8888 17.8312 42.8916 17.8312 42.8916Z" fill="#D2D2D2"/>
<path d="M46.0522 48.5738C46.0522 58.2557 40.4858 70.6197 28.4857 70.6959C16.4855 70.7721 11.5977 58.2552 11.5977 48.5738C11.5977 38.8923 46.0522 38.8918 46.0522 48.5738Z" fill="#D9D9D9"/>
<path d="M43.0314 49.9521C43.0314 57.8963 38.4641 68.0407 28.6182 68.1029C18.7723 68.1652 14.7617 57.8963 14.7617 49.9521C14.7617 42.0079 43.0314 42.0084 43.0314 49.9521Z" fill="#F087A3"/>
<path d="M38.2237 0H19.2436C8.61567 0 0 8.76752 0 19.5828C0 30.3981 8.61567 39.1656 19.2436 39.1656H38.2237C48.8516 39.1656 57.4673 30.3981 57.4673 19.5828C57.4673 8.76752 48.8516 0 38.2237 0Z" fill="#D9D9D9"/>
<path d="M19.2436 0H28.9973V39.1656H19.2436C14.1399 39.1656 9.24521 37.1024 5.63633 33.4299C2.02745 29.7574 0 24.7765 0 19.5828C0 14.3891 2.02745 9.40816 5.63633 5.73567C9.24521 2.06318 14.1399 0 19.2436 0V0Z" fill="#EFF4F9"/>
<path d="M38.2254 6.97461H19.7725C12.9299 6.97461 7.38281 12.6195 7.38281 19.5827C7.38281 26.546 12.9299 32.1908 19.7725 32.1908H38.2254C45.068 32.1908 50.6151 26.546 50.6151 19.5827C50.6151 12.6195 45.068 6.97461 38.2254 6.97461Z" fill="#F087A3"/>
<path d="M19.5093 9.12012H28.9993V30.5807H19.5093C16.7127 30.5807 14.0307 29.4502 12.0532 27.4379C10.0758 25.4256 8.96484 22.6963 8.96484 19.8504V19.8504C8.96484 17.0046 10.0758 14.2753 12.0532 12.2629C14.0307 10.2506 16.7127 9.12012 19.5093 9.12012V9.12012Z" fill="#F892AD"/>
<path d="M28.9993 84.2325C40.064 84.2325 49.0338 82.6712 49.0338 80.7452C49.0338 78.8192 40.064 77.2578 28.9993 77.2578C17.9346 77.2578 8.96484 78.8192 8.96484 80.7452C8.96484 82.6712 17.9346 84.2325 28.9993 84.2325Z" fill="#F5F7F8"/>
<path d="M21.283 22.8248C22.5136 22.8248 23.5113 21.8271 23.5113 20.5965C23.5113 19.3658 22.5136 18.3682 21.283 18.3682C20.0523 18.3682 19.0547 19.3658 19.0547 20.5965C19.0547 21.8271 20.0523 22.8248 21.283 22.8248Z" fill="#302A4D"/>
<path d="M37.6228 22.8248C38.8535 22.8248 39.8511 21.8271 39.8511 20.5965C39.8511 19.3658 38.8535 18.3682 37.6228 18.3682C36.3922 18.3682 35.3945 19.3658 35.3945 20.5965C35.3945 21.8271 36.3922 22.8248 37.6228 22.8248Z" fill="#302A4D"/>
<path d="M39.626 13.3183L35.3138 14.522C35.1815 14.5589 35.1047 14.698 35.1423 14.8327C35.1798 14.9673 35.3176 15.0465 35.4499 15.0096L39.7621 13.8059C39.8944 13.769 39.9712 13.6299 39.9336 13.4953C39.896 13.3606 39.7583 13.2814 39.626 13.3183Z" fill="#302A4D"/>
<path d="M19.1214 16.27L23.536 17.0152C23.6714 17.0381 23.8001 16.9449 23.8234 16.8071C23.8467 16.6692 23.7557 16.539 23.6203 16.5161L19.2057 15.7708C19.0702 15.748 18.9416 15.8412 18.9183 15.979C18.895 16.1169 18.986 16.2471 19.1214 16.27Z" fill="#302A4D"/>
<path d="M26.4844 27.2809C28.2175 26.6619 31.3123 27.281 32.7979 27.2809" stroke="#302A4D" stroke-linecap="round"/>
<g clip-path="url(#clip0)">
<path d="M30.532 54.4707C30.359 54.4707 30.2188 54.6109 30.2188 54.7839V60.7035C30.2188 60.8763 30.359 61.0167 30.532 61.0167C30.7049 61.0167 30.8452 60.8763 30.8452 60.7035V54.7839C30.8452 54.6109 30.7049 54.4707 30.532 54.4707Z" fill="#302A4D"/>
<path d="M26.8366 54.4707C26.6636 54.4707 26.5234 54.6109 26.5234 54.7839V60.7035C26.5234 60.8763 26.6636 61.0167 26.8366 61.0167C27.0096 61.0167 27.1498 60.8763 27.1498 60.7035V54.7839C27.1498 54.6109 27.0096 54.4707 26.8366 54.4707Z" fill="#302A4D"/>
<path d="M24.1435 53.6075V61.3242C24.1435 61.7803 24.3107 62.2086 24.6029 62.5159C24.8937 62.8241 25.2984 62.9991 25.722 62.9998H31.6479C32.0715 62.9991 32.4763 62.8241 32.7669 62.5159C33.0591 62.2086 33.2264 61.7803 33.2264 61.3242V53.6075C33.8071 53.4533 34.1835 52.8923 34.1058 52.2963C34.028 51.7005 33.5204 51.2548 32.9194 51.2547H31.3158V50.8632C31.3176 50.5339 31.1875 50.2178 30.9544 49.9852C30.7213 49.7528 30.4047 49.6233 30.0755 49.626H27.2943C26.9651 49.6233 26.6485 49.7528 26.4154 49.9852C26.1823 50.2178 26.0522 50.5339 26.054 50.8632V51.2547H24.4504C23.8495 51.2548 23.3419 51.7005 23.264 52.2963C23.1863 52.8923 23.5627 53.4533 24.1435 53.6075V53.6075ZM31.6479 62.3734H25.722C25.1864 62.3734 24.7699 61.9134 24.7699 61.3242V53.635H32.5999V61.3242C32.5999 61.9134 32.1834 62.3734 31.6479 62.3734ZM26.6804 50.8632C26.6783 50.7001 26.7424 50.5431 26.8582 50.428C26.9738 50.3129 27.1311 50.2496 27.2943 50.2524H30.0755C30.2387 50.2496 30.396 50.3129 30.5116 50.428C30.6274 50.543 30.6915 50.7001 30.6894 50.8632V51.2547H26.6804V50.8632ZM24.4504 51.8811H32.9194C33.2308 51.8811 33.4832 52.1335 33.4832 52.4448C33.4832 52.7562 33.2308 53.0086 32.9194 53.0086H24.4504C24.1391 53.0086 23.8867 52.7562 23.8867 52.4448C23.8867 52.1335 24.1391 51.8811 24.4504 51.8811V51.8811Z" fill="#302A4D"/>
<path d="M28.6843 54.4707C28.5113 54.4707 28.3711 54.6109 28.3711 54.7839V60.7035C28.3711 60.8763 28.5113 61.0167 28.6843 61.0167C28.8573 61.0167 28.9975 60.8763 28.9975 60.7035V54.7839C28.9975 54.6109 28.8573 54.4707 28.6843 54.4707Z" fill="#302A4D"/>
</g>
<defs>
<clipPath id="clip0">
<rect width="13.3738" height="13.3738" fill="white" transform="translate(22 49.626)"/>
</clipPath>
</defs>
</svg>
