<svg width="58" height="85" viewBox="0 0 58 85" fill="none" xmlns="http://www.w3.org/2000/svg">
<path d="M39.2142 42.8916C39.2142 42.8916 47.8121 45.3917 50.9465 55.9085C54.0808 66.4253 48.7849 59.6153 42.687 58.7521C36.5891 57.8888 39.2142 42.8916 39.2142 42.8916Z" fill="#D2D2D2"/>
<path d="M17.8312 42.8916C17.8312 42.8916 9.2328 45.3917 6.09846 55.9085C2.96412 66.4253 8.26008 59.6153 14.3579 58.7521C20.4558 57.8888 17.8312 42.8916 17.8312 42.8916Z" fill="#D2D2D2"/>
<path d="M46.0522 48.5738C46.0522 58.2557 40.4858 70.6197 28.4857 70.6959C16.4855 70.7721 11.5977 58.2552 11.5977 48.5738C11.5977 38.8923 46.0522 38.8918 46.0522 48.5738Z" fill="#D9D9D9"/>
<path d="M43.0314 49.9521C43.0314 57.8963 38.4641 68.0407 28.6182 68.1029C18.7723 68.1652 14.7617 57.8963 14.7617 49.9521C14.7617 42.0079 43.0314 42.0084 43.0314 49.9521Z" fill="#292345"/>
<path d="M38.2237 0H19.2436C8.61567 0 0 8.76752 0 19.5828C0 30.3981 8.61567 39.1656 19.2436 39.1656H38.2237C48.8516 39.1656 57.4673 30.3981 57.4673 19.5828C57.4673 8.76752 48.8516 0 38.2237 0Z" fill="#D9D9D9"/>
<path d="M19.2436 0H28.9973V39.1656H19.2436C14.1399 39.1656 9.24521 37.1024 5.63633 33.4299C2.02745 29.7574 0 24.7765 0 19.5828C0 14.3891 2.02745 9.40816 5.63633 5.73567C9.24521 2.06318 14.1399 0 19.2436 0V0Z" fill="#EFF4F9"/>
<path d="M38.2254 6.97461H19.7725C12.9299 6.97461 7.38281 12.6195 7.38281 19.5827C7.38281 26.546 12.9299 32.1908 19.7725 32.1908H38.2254C45.068 32.1908 50.6151 26.546 50.6151 19.5827C50.6151 12.6195 45.068 6.97461 38.2254 6.97461Z" fill="#292345"/>
<path d="M19.5093 9.12012H28.9993V30.5807H19.5093C16.7127 30.5807 14.0307 29.4502 12.0532 27.4379C10.0758 25.4256 8.96484 22.6963 8.96484 19.8504V19.8504C8.96484 17.0046 10.0758 14.2753 12.0532 12.2629C14.0307 10.2506 16.7127 9.12012 19.5093 9.12012V9.12012Z" fill="#5A576A"/>
<path d="M20.2982 19.9017C21.8996 19.9017 23.1979 18.5805 23.1979 16.9508C23.1979 15.3211 21.8996 14 20.2982 14C18.6967 14 17.3984 15.3211 17.3984 16.9508C17.3984 18.5805 18.6967 19.9017 20.2982 19.9017Z" fill="#8AD1C0"/>
<path d="M37.6966 19.9017C39.2981 19.9017 40.5963 18.5805 40.5963 16.9508C40.5963 15.3211 39.2981 14 37.6966 14C36.0951 14 34.7969 15.3211 34.7969 16.9508C34.7969 18.5805 36.0951 19.9017 37.6966 19.9017Z" fill="#8AD1C0"/>
<path d="M28.9989 26.0477C27.849 26.0477 26.763 25.818 25.941 25.4009C25.3139 25.0827 24.9007 24.6881 24.7461 24.2676H33.2519C33.0973 24.6881 32.6841 25.0827 32.057 25.4009C31.2349 25.818 30.1488 26.0477 28.9989 26.0477Z" fill="#8AD1C0"/>
<path d="M28.9984 25.7802C30.1083 25.7802 31.1525 25.5604 31.9388 25.1615C32.3047 24.9758 32.5917 24.7615 32.7831 24.5365H25.2138C25.4052 24.7615 25.6922 24.9758 26.0581 25.1615C26.8443 25.5604 27.8885 25.7802 28.9984 25.7802ZM28.9984 26.3167C27.8084 26.3167 26.6807 26.0769 25.8228 25.6416C24.9674 25.2076 24.4685 24.6246 24.418 24H33.579C33.5284 24.6247 33.0294 25.2076 32.1741 25.6416C31.3162 26.0769 30.1883 26.3167 28.9984 26.3167Z" fill="#8AD1C0"/>
<path d="M28.9993 84.2325C40.064 84.2325 49.0338 82.6712 49.0338 80.7452C49.0338 78.8192 40.064 77.2578 28.9993 77.2578C17.9346 77.2578 8.96484 78.8192 8.96484 80.7452C8.96484 82.6712 17.9346 84.2325 28.9993 84.2325Z" fill="#F5F7F8"/>
<path d="M30.9512 55.7765C30.8662 55.607 30.6932 55.5 30.5037 55.5H29.5037V50.5C29.5037 50.224 29.2802 50 29.0037 50C28.7273 50 28.5038 50.224 28.5038 50.5V55.5H27.5037C27.3143 55.5 27.1412 55.607 27.0563 55.7765C26.9723 55.946 26.9903 56.1485 27.1038 56.3L28.6038 58.3C28.6103 58.3085 28.6203 58.3115 28.6273 58.3195C28.6603 58.3585 28.6993 58.3885 28.7428 58.416C28.7608 58.427 28.7748 58.4415 28.7943 58.4505C28.8583 58.4805 28.9283 58.5 29.0038 58.5C29.0793 58.5 29.1493 58.4805 29.2138 58.4505C29.2328 58.4415 29.2473 58.427 29.2648 58.416C29.3083 58.3885 29.3473 58.3585 29.3803 58.3195C29.3868 58.3115 29.3973 58.3085 29.4038 58.3L30.9038 56.3C31.0178 56.1485 31.0358 55.946 30.9512 55.7765Z" fill="#8AD1C0"/>
<path d="M34.5 57.5C34.2235 57.5 34 57.724 34 58V59.5C34 60.327 33.327 61 32.5 61H25.5C24.673 61 24 60.327 24 59.5V58C24 57.724 23.7765 57.5 23.5 57.5C23.2235 57.5 23 57.724 23 58V59.5C23 60.8785 24.1215 62 25.5 62H32.5C33.8785 62 35 60.8785 35 59.5V58C35 57.724 34.7765 57.5 34.5 57.5Z" fill="#8AD1C0"/>
</svg>
