<svg width="89" height="107" viewBox="0 0 89 107" fill="none" xmlns="http://www.w3.org/2000/svg">
<path d="M78.6001 77.9895L87.7897 93.9065C88.1267 94.4902 88.3205 95.1669 88.3205 95.8893C88.3205 98.0832 86.542 99.8618 84.348 99.8618H75.1584L71.9805 87.9309L75.1584 76C76.6299 76 77.9136 76.8007 78.6001 77.9895Z" fill="#3B4145"/>
<path d="M71.7204 77.9895L62.5307 93.9065C62.1938 94.4902 62 95.1669 62 95.8893C62 98.0832 63.7785 99.8618 65.9725 99.8618H75.162V76C73.6906 76 72.4069 76.8007 71.7204 77.9895Z" fill="#3B4145"/>
<path d="M86.4174 94.7015L77.2278 78.7847C76.8136 78.067 76.053 77.6141 75.2305 77.5908L83.0901 98.2735H84.3518C85.6659 98.2735 86.7352 97.2042 86.7352 95.89C86.7352 95.4726 86.625 95.0616 86.4174 94.7015Z" fill="#FFD764"/>
<path d="M84.8726 94.7011C85.0522 95.0613 85.147 95.4723 85.147 95.8897C85.147 97.2038 84.2248 98.2731 83.0908 98.2731H65.9733C64.6592 98.2731 63.5898 97.2038 63.5898 95.8897C63.5898 95.4723 63.7 95.0613 63.9076 94.7011L73.0972 78.7843C73.5231 78.047 74.3144 77.5889 75.1629 77.5889C75.1857 77.5889 75.2084 77.5894 75.2312 77.5905C75.9372 77.618 76.5893 78.0698 76.9446 78.7843L84.8726 94.7011Z" fill="#FFD764"/>
<rect x="74.3867" y="82.6348" width="1.59384" height="9.76871" rx="0.796921" fill="#3B4145"/>
<rect x="74.4414" y="93.8955" width="1.54243" height="1.54243" rx="0.771214" fill="#3B4145"/>
<path d="M49.8114 54.4854C49.8114 54.4854 60.7332 57.6612 64.7147 71.0206C68.6963 84.3799 61.9689 75.7293 54.2228 74.6327C46.4768 73.5361 49.8114 54.4854 49.8114 54.4854Z" fill="#D2D2D2"/>
<path d="M22.6485 54.4854C22.6485 54.4854 11.726 57.6612 7.74449 71.0206C3.76297 84.3799 10.4904 75.7293 18.2364 74.6327C25.9824 73.5361 22.6485 54.4854 22.6485 54.4854Z" fill="#D2D2D2"/>
<path d="M58.5016 61.7024C58.5016 74.0013 51.4306 89.7071 36.187 89.8039C20.9434 89.9007 14.7344 74.0006 14.7344 61.7024C14.7344 49.4042 58.5016 49.4035 58.5016 61.7024Z" fill="#D9D9D9"/>
<path d="M54.6646 63.454C54.6646 73.5454 48.8627 86.4318 36.3556 86.5108C23.8485 86.5899 18.7539 73.5454 18.7539 63.454C18.7539 53.3626 54.6646 53.3633 54.6646 63.454Z" fill="#292345"/>
<path d="M48.555 0H24.445C10.9444 0 0 11.1373 0 24.8758C0 38.6143 10.9444 49.7516 24.445 49.7516H48.555C62.0556 49.7516 73 38.6143 73 24.8758C73 11.1373 62.0556 0 48.555 0Z" fill="#D9D9D9"/>
<path d="M24.445 0H36.8349V49.7516H24.445C17.9617 49.7516 11.7441 47.1308 7.15976 42.4656C2.57544 37.8005 0 31.4733 0 24.8758C0 18.2783 2.57544 11.9511 7.15976 7.28595C11.7441 2.62083 17.9617 0 24.445 0V0Z" fill="#EFF4F9"/>
<path d="M48.5539 8.85938H25.1135C16.4214 8.85938 9.375 16.0299 9.375 24.8753C9.375 33.7206 16.4214 40.8912 25.1135 40.8912H48.5539C57.2461 40.8912 64.2924 33.7206 64.2924 24.8753C64.2924 16.0299 57.2461 8.85938 48.5539 8.85938Z" fill="#292345"/>
<path d="M24.7812 11.5859H36.8363V38.8471H24.7812C21.2288 38.8471 17.8218 37.411 15.3099 34.8548C12.7979 32.2985 11.3867 28.8316 11.3867 25.2165V25.2165C11.3867 21.6015 12.7979 18.1345 15.3099 15.5782C17.8218 13.022 21.2288 11.5859 24.7812 11.5859V11.5859Z" fill="#5A576A"/>
<path d="M25.785 25.4968C27.8194 25.4968 29.4685 23.8186 29.4685 21.7484C29.4685 19.6782 27.8194 18 25.785 18C23.7507 18 22.1016 19.6782 22.1016 21.7484C22.1016 23.8186 23.7507 25.4968 25.785 25.4968Z" fill="#8AD1C0"/>
<path d="M47.8866 25.4968C49.9209 25.4968 51.5701 23.8186 51.5701 21.7484C51.5701 19.6782 49.9209 18 47.8866 18C45.8523 18 44.2031 19.6782 44.2031 21.7484C44.2031 23.8186 45.8523 25.4968 47.8866 25.4968Z" fill="#8AD1C0"/>
<path d="M36.8359 33.6021C35.3752 33.6021 33.9957 33.3103 32.9514 32.7804C32.1549 32.3762 31.63 31.875 31.4336 31.3408H42.2385C42.042 31.875 41.5171 32.3762 40.7205 32.7804C39.6762 33.3103 38.2966 33.6021 36.8359 33.6021Z" fill="#8AD1C0"/>
<path d="M36.8341 33.2613C38.244 33.2613 39.5705 32.9822 40.5693 32.4754C41.034 32.2396 41.3986 31.9674 41.6418 31.6815H32.0266C32.2698 31.9674 32.6343 32.2396 33.099 32.4754C34.0977 32.9822 35.4242 33.2613 36.8341 33.2613ZM36.8341 33.9428C35.3225 33.9428 33.8899 33.6383 32.8002 33.0853C31.7136 32.534 31.0799 31.7934 31.0156 31H42.6528C42.5885 31.7935 41.9546 32.534 40.8681 33.0853C39.7783 33.6383 38.3457 33.9428 36.8341 33.9428Z" fill="#8AD1C0"/>
<path d="M36.8363 107.001C50.8917 107.001 62.2858 105.017 62.2858 102.571C62.2858 100.124 50.8917 98.1406 36.8363 98.1406C22.7809 98.1406 11.3867 100.124 11.3867 102.571C11.3867 105.017 22.7809 107.001 36.8363 107.001Z" fill="#F5F7F8"/>
<path d="M36.6569 66.9572C35.9053 66.9572 29.3164 66.906 29.3164 65.1409C29.3164 63.3759 35.9053 63.3232 36.6569 63.3232C37.4084 63.3232 43.9974 63.3745 43.9974 65.1395C43.9974 66.9046 37.4084 66.9572 36.6569 66.9572ZM30.2877 65.1395C30.7355 65.4831 32.8852 66.0484 36.6569 66.0484C40.4286 66.0484 42.5783 65.4845 43.0261 65.1395C42.5783 64.796 40.4286 64.2307 36.6569 64.2307C32.8852 64.2307 30.7355 64.796 30.2877 65.1395ZM43.0975 65.2102H43.1031H43.0975Z" fill="#8AD1C0"/>
<path d="M36.6569 70.5891C35.9053 70.5891 29.3164 70.5378 29.3164 68.7728C29.3164 68.522 29.5221 68.3184 29.7754 68.3184C30.0106 68.3184 30.2051 68.4943 30.2317 68.7201C30.5144 69.0554 32.6864 69.6802 36.6583 69.6802C40.6301 69.6802 42.8022 69.054 43.0849 68.7201C43.1115 68.4943 43.3046 68.3184 43.5411 68.3184C43.7944 68.3184 44.0002 68.522 44.0002 68.7728C43.9988 70.5392 37.4084 70.5891 36.6569 70.5891Z" fill="#8AD1C0"/>
<path d="M36.6569 74.2238C35.9053 74.2238 29.3164 74.1726 29.3164 72.4075C29.3164 72.1568 29.5221 71.9531 29.7754 71.9531C30.0106 71.9531 30.2051 72.1291 30.2317 72.3549C30.5144 72.6902 32.6864 73.315 36.6583 73.315C40.6301 73.315 42.8022 72.6888 43.0849 72.3549C43.1115 72.1291 43.3046 71.9531 43.5411 71.9531C43.7944 71.9531 44.0002 72.1568 44.0002 72.4075C43.9988 74.1726 37.4084 74.2238 36.6569 74.2238ZM43.0807 72.4062C43.0807 72.4075 43.0807 72.4075 43.0807 72.4062V72.4062ZM30.2331 72.4062C30.2331 72.4075 30.2331 72.4075 30.2331 72.4062V72.4062Z" fill="#8AD1C0"/>
<path d="M36.6569 77.8572C35.9053 77.8572 29.3164 77.806 29.3164 76.0409V65.139C29.3164 64.8882 29.5221 64.6846 29.7754 64.6846C30.0288 64.6846 30.2345 64.8882 30.2345 65.139V75.9911C30.5284 76.3277 32.7004 76.9484 36.6583 76.9484C40.6161 76.9484 42.7882 76.3277 43.0821 75.9911V65.139C43.0821 64.8882 43.2878 64.6846 43.5411 64.6846C43.7944 64.6846 44.0002 64.8882 44.0002 65.139V76.0409C43.9988 77.806 37.4084 77.8572 36.6569 77.8572Z" fill="#8AD1C0"/>
<rect x="33" y="69" width="8" height="6" fill="#292345"/>
<path d="M39.2417 70.9811V70.1251C39.2417 68.8515 38.2056 67.8154 36.932 67.8154C35.6585 67.8154 34.6224 68.8515 34.6224 70.1251V70.9811H33.8633V73.0161C33.8633 74.7082 35.2399 76.0849 36.932 76.0849C38.6241 76.0849 40.0008 74.7082 40.0008 73.0161V70.9811H39.2417ZM35.1069 70.1251C35.1069 69.1187 35.9257 68.3 36.932 68.3C37.9384 68.3 38.7571 69.1187 38.7571 70.1251V70.9811H35.1069V70.1251ZM39.5162 73.0161C39.5162 74.4411 38.357 75.6003 36.932 75.6003C35.5071 75.6003 34.3478 74.4411 34.3478 73.0161V71.4656H39.5162V73.0161Z" fill="#8AD1C0"/>
<path d="M36.6928 73.854V74.6088H37.1772V73.854C37.5495 73.7483 37.8231 73.4052 37.8231 72.9994C37.8231 72.5097 37.4247 72.1113 36.935 72.1113C36.4453 72.1113 36.0469 72.5097 36.0469 72.9994C36.0469 73.4052 36.3204 73.7483 36.6928 73.854ZM36.935 72.5957C37.1576 72.5957 37.3387 72.7768 37.3387 72.9994C37.3387 73.222 37.1576 73.4031 36.935 73.4031C36.7124 73.4031 36.5313 73.222 36.5313 72.9994C36.5313 72.7768 36.7124 72.5957 36.935 72.5957Z" fill="#8AD1C0"/>
</svg>
