<svg width="88" height="107" viewBox="0 0 88 107" fill="none" xmlns="http://www.w3.org/2000/svg">
<path d="M49.8114 54.4854C49.8114 54.4854 60.7332 57.6612 64.7147 71.0206C68.6963 84.3799 61.9689 75.7293 54.2228 74.6327C46.4768 73.5361 49.8114 54.4854 49.8114 54.4854Z" fill="#D2D2D2"/>
<path d="M22.6485 54.4854C22.6485 54.4854 11.726 57.6612 7.74449 71.0206C3.76297 84.3799 10.4904 75.7293 18.2364 74.6327C25.9824 73.5361 22.6485 54.4854 22.6485 54.4854Z" fill="#D2D2D2"/>
<path d="M58.5016 61.7024C58.5016 74.0013 51.4306 89.7071 36.187 89.8039C20.9434 89.9007 14.7344 74.0006 14.7344 61.7024C14.7344 49.4042 58.5016 49.4035 58.5016 61.7024Z" fill="#D9D9D9"/>
<path d="M54.6646 63.454C54.6646 73.5454 48.8627 86.4318 36.3556 86.5108C23.8485 86.5899 18.7539 73.5454 18.7539 63.454C18.7539 53.3626 54.6646 53.3633 54.6646 63.454Z" fill="#292345"/>
<path d="M48.555 0H24.445C10.9444 0 0 11.1373 0 24.8758C0 38.6143 10.9444 49.7516 24.445 49.7516H48.555C62.0556 49.7516 73 38.6143 73 24.8758C73 11.1373 62.0556 0 48.555 0Z" fill="#D9D9D9"/>
<path d="M24.445 0H36.8349V49.7516H24.445C17.9617 49.7516 11.7441 47.1308 7.15976 42.4656C2.57544 37.8005 0 31.4733 0 24.8758C0 18.2783 2.57544 11.9511 7.15976 7.28595C11.7441 2.62083 17.9617 0 24.445 0V0Z" fill="#EFF4F9"/>
<path d="M48.5539 8.85938H25.1135C16.4214 8.85938 9.375 16.0299 9.375 24.8753C9.375 33.7206 16.4214 40.8912 25.1135 40.8912H48.5539C57.2461 40.8912 64.2924 33.7206 64.2924 24.8753C64.2924 16.0299 57.2461 8.85938 48.5539 8.85938Z" fill="#292345"/>
<path d="M24.7812 11.5859H36.8363V38.8471H24.7812C21.2288 38.8471 17.8218 37.411 15.3099 34.8548C12.7979 32.2985 11.3867 28.8316 11.3867 25.2165V25.2165C11.3867 21.6015 12.7979 18.1345 15.3099 15.5782C17.8218 13.022 21.2288 11.5859 24.7812 11.5859V11.5859Z" fill="#5A576A"/>
<path d="M25.785 25.4968C27.8194 25.4968 29.4685 23.8186 29.4685 21.7484C29.4685 19.6782 27.8194 18 25.785 18C23.7507 18 22.1016 19.6782 22.1016 21.7484C22.1016 23.8186 23.7507 25.4968 25.785 25.4968Z" fill="#8AD1C0"/>
<path d="M47.8866 25.4968C49.9209 25.4968 51.5701 23.8186 51.5701 21.7484C51.5701 19.6782 49.9209 18 47.8866 18C45.8523 18 44.2031 19.6782 44.2031 21.7484C44.2031 23.8186 45.8523 25.4968 47.8866 25.4968Z" fill="#8AD1C0"/>
<path d="M36.8359 33.6021C35.3752 33.6021 33.9957 33.3103 32.9514 32.7804C32.1549 32.3762 31.63 31.875 31.4336 31.3408H42.2385C42.042 31.875 41.5171 32.3762 40.7205 32.7804C39.6762 33.3103 38.2966 33.6021 36.8359 33.6021Z" fill="#8AD1C0"/>
<path d="M36.8341 33.2613C38.244 33.2613 39.5705 32.9822 40.5693 32.4754C41.034 32.2396 41.3986 31.9674 41.6418 31.6815H32.0266C32.2698 31.9674 32.6343 32.2396 33.099 32.4754C34.0977 32.9822 35.4242 33.2613 36.8341 33.2613ZM36.8341 33.9428C35.3225 33.9428 33.8899 33.6383 32.8002 33.0853C31.7136 32.534 31.0799 31.7934 31.0156 31H42.6528C42.5885 31.7935 41.9546 32.534 40.8681 33.0853C39.7783 33.6383 38.3457 33.9428 36.8341 33.9428Z" fill="#8AD1C0"/>
<path d="M36.8363 107.001C50.8917 107.001 62.2858 105.017 62.2858 102.571C62.2858 100.124 50.8917 98.1406 36.8363 98.1406C22.7809 98.1406 11.3867 100.124 11.3867 102.571C11.3867 105.017 22.7809 107.001 36.8363 107.001Z" fill="#F5F7F8"/>
<path d="M80.2574 90.0379C79.3992 90.0292 78.7105 89.3264 78.7192 88.4681L78.74 86.4248C78.7598 84.4807 79.962 82.781 81.8029 82.0948C83.483 81.4686 84.5491 79.8406 84.4559 78.0436C84.3513 76.0293 82.6937 74.3374 80.682 74.1921C79.5395 74.1091 78.4486 74.4888 77.611 75.2602C76.7724 76.0324 76.3043 77.085 76.2927 78.2241C76.284 79.0824 75.5811 79.771 74.7229 79.7623C73.8647 79.7536 73.176 79.0508 73.1847 78.1925C73.2048 76.2156 74.0507 74.3135 75.5054 72.9738C76.9808 71.6152 78.8986 70.9475 80.9061 71.092C82.6414 71.2175 84.2759 71.9794 85.5086 73.2373C86.7413 74.4952 87.4698 76.145 87.5599 77.8825C87.7238 81.0416 85.8466 83.9048 82.8885 85.0072C82.2631 85.2404 81.8546 85.8092 81.848 86.4564L81.8273 88.4997C81.8185 89.358 81.1156 90.0466 80.2574 90.0379Z" fill="#302A4D"/>
<path d="M78.6882 95.0163C78.5263 94.1971 79.0747 93.3587 79.9265 93.2012C81.3546 92.92 82.3371 94.6194 81.406 95.7256C80.5856 96.7219 78.9301 96.3116 78.6882 95.0163Z" fill="#302A4D"/>
<path d="M36.6569 67.9928C35.9753 67.9928 30 67.9463 30 66.3457C30 64.745 35.9753 64.6973 36.6569 64.6973C37.3384 64.6973 43.3137 64.7438 43.3137 66.3444C43.3137 67.9451 37.3384 67.9928 36.6569 67.9928ZM30.8808 66.3444C31.2869 66.656 33.2364 67.1686 36.6569 67.1686C40.0773 67.1686 42.0268 66.6573 42.4329 66.3444C42.0268 66.0328 40.0773 65.5202 36.6569 65.5202C33.2364 65.5202 31.2869 66.0328 30.8808 66.3444ZM42.4976 66.4085H42.5027H42.4976Z" fill="#8AD1C0"/>
<path d="M36.6568 71.2868C35.9753 71.2868 30 71.2403 30 69.6396C30 69.4122 30.1866 69.2275 30.4163 69.2275C30.6295 69.2275 30.8059 69.3871 30.83 69.5919C31.0864 69.8959 33.0562 70.4626 36.6581 70.4626C40.2601 70.4626 42.2298 69.8947 42.4862 69.5919C42.5103 69.3871 42.6855 69.2275 42.8999 69.2275C43.1297 69.2275 43.3162 69.4122 43.3162 69.6396C43.315 71.2416 37.3384 71.2868 36.6568 71.2868Z" fill="#8AD1C0"/>
<path d="M36.6568 74.5827C35.9753 74.5827 30 74.5362 30 72.9355C30 72.7081 30.1866 72.5234 30.4163 72.5234C30.6295 72.5234 30.8059 72.683 30.83 72.8878C31.0864 73.1918 33.0562 73.7585 36.6581 73.7585C40.2601 73.7585 42.2298 73.1906 42.4862 72.8878C42.5103 72.683 42.6855 72.5234 42.8999 72.5234C43.1297 72.5234 43.3162 72.7081 43.3162 72.9355C43.315 74.5362 37.3384 74.5827 36.6568 74.5827ZM42.4824 72.9343C42.4824 72.9355 42.4824 72.9355 42.4824 72.9343V72.9343ZM30.8313 72.9343C30.8313 72.9355 30.8313 72.9355 30.8313 72.9343V72.9343Z" fill="#8AD1C0"/>
<path d="M36.6568 77.8775C35.9753 77.8775 30 77.831 30 76.2304V66.3437C30 66.1163 30.1866 65.9316 30.4163 65.9316C30.646 65.9316 30.8326 66.1163 30.8326 66.3437V76.1851C31.0991 76.4904 33.0689 77.0533 36.6581 77.0533C40.2474 77.0533 42.2171 76.4904 42.4837 76.1851V66.3437C42.4837 66.1163 42.6702 65.9316 42.8999 65.9316C43.1297 65.9316 43.3162 66.1163 43.3162 66.3437V76.2304C43.315 77.831 37.3384 77.8775 36.6568 77.8775Z" fill="#8AD1C0"/>
</svg>
