<svg width="58" height="85" viewBox="0 0 58 85" fill="none" xmlns="http://www.w3.org/2000/svg">
<path d="M39.2142 42.8916C39.2142 42.8916 47.8121 45.3917 50.9465 55.9085C54.0808 66.4253 48.7849 59.6153 42.687 58.7521C36.5891 57.8888 39.2142 42.8916 39.2142 42.8916Z" fill="#D2D2D2"/>
<path d="M17.8312 42.8916C17.8312 42.8916 9.2328 45.3917 6.09846 55.9085C2.96412 66.4253 8.26008 59.6153 14.3579 58.7521C20.4558 57.8888 17.8312 42.8916 17.8312 42.8916Z" fill="#D2D2D2"/>
<path d="M46.0522 48.5738C46.0522 58.2557 40.4858 70.6197 28.4857 70.6959C16.4855 70.7721 11.5977 58.2552 11.5977 48.5738C11.5977 38.8923 46.0522 38.8918 46.0522 48.5738Z" fill="#D9D9D9"/>
<path d="M43.0314 49.9521C43.0314 57.8963 38.4641 68.0407 28.6182 68.1029C18.7723 68.1652 14.7617 57.8963 14.7617 49.9521C14.7617 42.0079 43.0314 42.0084 43.0314 49.9521Z" fill="#292345"/>
<path d="M38.2237 0H19.2436C8.61567 0 0 8.76752 0 19.5828C0 30.3981 8.61567 39.1656 19.2436 39.1656H38.2237C48.8516 39.1656 57.4673 30.3981 57.4673 19.5828C57.4673 8.76752 48.8516 0 38.2237 0Z" fill="#D9D9D9"/>
<path d="M19.2436 0H28.9973V39.1656H19.2436C14.1399 39.1656 9.24521 37.1024 5.63633 33.4299C2.02745 29.7574 0 24.7765 0 19.5828C0 14.3891 2.02745 9.40816 5.63633 5.73567C9.24521 2.06318 14.1399 0 19.2436 0V0Z" fill="#EFF4F9"/>
<path d="M38.2254 6.97461H19.7725C12.9299 6.97461 7.38281 12.6195 7.38281 19.5827C7.38281 26.546 12.9299 32.1908 19.7725 32.1908H38.2254C45.068 32.1908 50.6151 26.546 50.6151 19.5827C50.6151 12.6195 45.068 6.97461 38.2254 6.97461Z" fill="#292345"/>
<path d="M19.5093 9.12012H28.9993V30.5807H19.5093C16.7127 30.5807 14.0307 29.4502 12.0532 27.4379C10.0758 25.4256 8.96484 22.6963 8.96484 19.8504V19.8504C8.96484 17.0046 10.0758 14.2753 12.0532 12.2629C14.0307 10.2506 16.7127 9.12012 19.5093 9.12012V9.12012Z" fill="#5A576A"/>
<path d="M20.2982 19.9017C21.8996 19.9017 23.1979 18.5805 23.1979 16.9508C23.1979 15.3211 21.8996 14 20.2982 14C18.6967 14 17.3984 15.3211 17.3984 16.9508C17.3984 18.5805 18.6967 19.9017 20.2982 19.9017Z" fill="#8AD1C0"/>
<path d="M37.6966 19.9017C39.2981 19.9017 40.5963 18.5805 40.5963 16.9508C40.5963 15.3211 39.2981 14 37.6966 14C36.0951 14 34.7969 15.3211 34.7969 16.9508C34.7969 18.5805 36.0951 19.9017 37.6966 19.9017Z" fill="#8AD1C0"/>
<path d="M28.9989 25.7683C27.849 25.7683 26.763 25.5699 25.941 25.2098C25.3139 24.9351 24.9007 24.5945 24.7461 24.2314H33.2519C33.0973 24.5945 32.6841 24.9351 32.057 25.2098C31.2349 25.5699 30.1489 25.7683 28.9989 25.7683Z" fill="#8AD1C0"/>
<path d="M28.9984 25.5368C30.1083 25.5368 31.1525 25.3471 31.9388 25.0027C32.3047 24.8424 32.5917 24.6574 32.7831 24.4632H25.2138C25.4052 24.6574 25.6922 24.8424 26.0581 25.0027C26.8443 25.3471 27.8885 25.5368 28.9984 25.5368ZM28.9984 26C27.8084 26 26.6807 25.793 25.8228 25.4172C24.9674 25.0425 24.4685 24.5392 24.418 24H33.579C33.5284 24.5393 33.0294 25.0425 32.1741 25.4172C31.3162 25.793 30.1883 26 28.9984 26Z" fill="#8AD1C0"/>
<path d="M28.9993 84.2325C40.064 84.2325 49.0338 82.6712 49.0338 80.7452C49.0338 78.8192 40.064 77.2578 28.9993 77.2578C17.9346 77.2578 8.96484 78.8192 8.96484 80.7452C8.96484 82.6712 17.9346 84.2325 28.9993 84.2325Z" fill="#F5F7F8"/>
<path d="M30.9091 52.181C30.8541 52.1262 30.7714 52.1099 30.6997 52.1397C30.6279 52.1696 30.5811 52.2396 30.5811 52.3174V53.3438C29.5423 53.3852 29.022 53.8157 28.9424 53.8874C28.4182 54.3176 28.0603 54.917 27.9303 55.5824C27.8654 55.904 27.8537 56.234 27.896 56.5592L27.8962 56.5604C27.8965 56.5632 27.897 56.5662 27.8974 56.569L27.9383 56.804C27.9521 56.8831 28.0136 56.9454 28.0926 56.9601C28.1716 56.9748 28.2514 56.9388 28.2927 56.87L28.4152 56.6659C28.7915 56.0401 29.2605 55.6253 29.8092 55.4331C30.0567 55.3456 30.3189 55.3071 30.5811 55.3199V56.383C30.5811 56.4608 30.628 56.5311 30.7 56.5607C30.7721 56.5905 30.8549 56.5738 30.9098 56.5186L32.9425 54.4756C33.0175 54.4003 33.0172 54.2785 32.9419 54.2036L30.9091 52.181Z" fill="#8AD1C0"/>
<path d="M32.5918 57.5323C32.4817 57.5323 32.3923 57.6349 32.3923 57.7614V58.7299C32.392 59.1093 32.1242 59.4169 31.7938 59.4173H25.2631C24.9327 59.4169 24.665 59.1093 24.6646 58.7299V53.2707C24.665 52.8912 24.9327 52.5837 25.2631 52.5833H26.6429C26.7531 52.5833 26.8424 52.4807 26.8424 52.3541C26.8424 52.2276 26.7531 52.125 26.6429 52.125H25.2631C24.7125 52.1257 24.2662 52.6382 24.2656 53.2707V58.7299C24.2662 59.3623 24.7125 59.8748 25.2631 59.8756H31.7938C32.3445 59.8748 32.7907 59.3623 32.7913 58.7299V57.7614C32.7913 57.6349 32.702 57.5323 32.5918 57.5323Z" fill="#8AD1C0"/>
</svg>
