<svg width="27" height="27" viewBox="0 0 27 27" fill="none" xmlns="http://www.w3.org/2000/svg">
<path d="M15.6339 17.6997C14.9736 17.239 14.2681 16.8637 13.5302 16.5769C14.5118 15.6846 15.163 14.4347 15.2763 13.0354C16.7648 11.5848 18.7159 10.7896 20.8076 10.7896C22.4405 10.7896 24.0083 11.2814 25.342 12.2116C25.8199 12.5449 26.477 12.4279 26.8103 11.9499C27.1434 11.4722 27.0264 10.8148 26.5487 10.4816C25.8885 10.021 25.1827 9.6458 24.4448 9.35882C25.528 8.37425 26.209 6.95458 26.209 5.37894C26.209 2.41289 23.7964 0 20.8307 0C17.8652 0 15.4526 2.41289 15.4526 5.37894C15.4526 6.94819 16.128 8.36271 17.2037 9.34687C17.0565 9.40352 16.91 9.46347 16.765 9.52734C16.105 9.81783 15.4845 10.1751 14.9075 10.5945C14.1118 8.61735 12.1744 7.21807 9.91608 7.21807C6.95058 7.21807 4.53777 9.63097 4.53777 12.5968C4.53777 14.1617 5.20952 15.5723 6.27945 16.5561C3.41881 17.628 1.09932 19.9303 0.155041 22.8664C-0.15807 23.8401 0.00775496 24.8727 0.610082 25.6994C1.21241 26.5259 2.14433 27 3.16688 27H12.3417C12.924 27 13.3961 26.5278 13.3961 25.9452C13.3961 25.3628 12.924 24.8906 12.3417 24.8906H3.16688C2.82596 24.8906 2.51532 24.7326 2.31448 24.4569C2.11363 24.1812 2.05843 23.837 2.16266 23.5123C3.20499 20.2712 6.38389 18.0077 9.89301 18.0077C11.5257 18.0077 13.0937 18.4995 14.4274 19.4296C14.9051 19.763 15.5624 19.6457 15.8957 19.168C16.2288 18.6902 16.1118 18.0328 15.6339 17.6997ZM20.8307 2.10943C22.6333 2.10943 24.0998 3.57607 24.0998 5.37894C24.0998 7.18161 22.6333 8.64846 20.8307 8.64846C19.0282 8.64846 17.5616 7.18161 17.5616 5.37894C17.5616 3.57607 19.0282 2.10943 20.8307 2.10943ZM9.91608 9.3273C11.7187 9.3273 13.1852 10.7941 13.1852 12.5968C13.1852 14.3997 11.7187 15.8663 9.91608 15.8663C8.11342 15.8663 6.64695 14.3997 6.64695 12.5968C6.64695 10.7941 8.11342 9.3273 9.91608 9.3273ZM27 21.9902C27 22.5727 26.5279 23.0449 25.9453 23.0449H23.0453V25.9452C23.0453 26.5278 22.5732 27 21.9908 27C21.4083 27 20.9361 26.5278 20.9361 25.9452V23.0449H18.0362C17.4538 23.0449 16.9817 22.5727 16.9817 21.9902C16.9817 21.4076 17.4538 20.9354 18.0362 20.9354H20.9361V18.0351C20.9361 17.4527 21.4083 16.9805 21.9908 16.9805C22.5732 16.9805 23.0453 17.4527 23.0453 18.0351V20.9354H25.9453C26.5279 20.9354 27 21.4076 27 21.9902Z" fill="#085FAB"/>
</svg>
