<svg width="14" height="19" viewBox="0 0 14 19" fill="none" xmlns="http://www.w3.org/2000/svg">
<path d="M12.2684 7.22105V5.26842C12.2684 2.36338 9.90504 0 7 0C4.09496 0 1.73158 2.36338 1.73158 5.26842V7.22105H0V11.8632C0 15.723 3.14016 18.8632 7 18.8632C10.8598 18.8632 14 15.723 14 11.8632V7.22105H12.2684ZM2.83684 5.26842C2.83684 2.97283 4.70441 1.10526 7 1.10526C9.29559 1.10526 11.1632 2.97283 11.1632 5.26842V7.22105H2.83684V5.26842ZM12.8947 11.8632C12.8947 15.1135 10.2504 17.7579 7 17.7579C3.74961 17.7579 1.10526 15.1135 1.10526 11.8632V8.32632H12.8947V11.8632Z" fill="#F087A3"/>
<path d="M6.44732 13.7768V15.499H7.55258V13.7768C8.40216 13.5357 9.02626 12.7529 9.02626 11.8271C9.02626 10.7098 8.11726 9.80078 6.99995 9.80078C5.88264 9.80078 4.97363 10.7098 4.97363 11.8271C4.97363 12.7529 5.59774 13.5357 6.44732 13.7768ZM6.99995 10.906C7.50782 10.906 7.921 11.3192 7.921 11.8271C7.921 12.335 7.50782 12.7481 6.99995 12.7481C6.49208 12.7481 6.0789 12.335 6.0789 11.8271C6.0789 11.3192 6.49208 10.906 6.99995 10.906Z" fill="#F087A3"/>
</svg>
