<svg width="35" height="35" viewBox="0 0 35 35" fill="none" xmlns="http://www.w3.org/2000/svg">
<path d="M5.12559 22.6253C7.03165 20.7194 9.30036 19.3084 11.7757 18.4542C9.12454 16.6283 7.38281 13.5725 7.38281 10.1171C7.38281 4.53853 11.9214 0 17.5 0C23.0786 0 27.6172 4.53853 27.6172 10.1171C27.6172 13.5725 25.8755 16.6283 23.2243 18.4542C25.6996 19.3084 27.9683 20.7194 29.8743 22.6253C33.1797 25.9307 35 30.3253 35 34.9996H32.2656C32.2656 26.8579 25.6418 20.2342 17.5 20.2342C9.35819 20.2342 2.73438 26.8579 2.73438 34.9996H0C0 30.3253 1.82034 25.9307 5.12559 22.6253ZM17.5 17.4998C21.5709 17.4998 24.8828 14.188 24.8828 10.1171C24.8828 6.04618 21.5709 2.73435 17.5 2.73435C13.4291 2.73435 10.1172 6.04618 10.1172 10.1171C10.1172 14.188 13.4291 17.4998 17.5 17.4998Z" fill="#085FAB"/>
<path d="M17.282 34.5299C17.282 34.7895 17.058 34.9999 16.7816 34.9999H14.5798C13.476 34.9999 12.5781 34.1566 12.5781 33.12V24.8486C12.5781 23.812 13.476 22.9688 14.5798 22.9688H20.7321C21.8357 22.9688 22.7337 23.812 22.7337 24.8486V29.3368C22.7337 29.5964 22.5096 29.8067 22.2333 29.8067C21.9569 29.8067 21.7329 29.5964 21.7329 29.3368V24.8486C21.7329 24.3304 21.2839 23.9087 20.7321 23.9087H14.5798C14.0279 23.9087 13.5789 24.3304 13.5789 24.8486V33.12C13.5789 33.6383 14.0279 34.0599 14.5798 34.0599H16.7816C17.058 34.0599 17.282 34.2703 17.282 34.5299ZM20.2317 25.7885H15.0774C14.801 25.7885 14.577 25.9989 14.577 26.2585C14.577 26.5181 14.801 26.7285 15.0774 26.7285H20.2317C20.508 26.7285 20.7321 26.5181 20.7321 26.2585C20.7321 25.9989 20.508 25.7885 20.2317 25.7885ZM20.7321 28.1384C20.7321 27.8788 20.508 27.6684 20.2317 27.6684H15.0774C14.801 27.6684 14.577 27.8788 14.577 28.1384C14.577 28.398 14.801 28.6083 15.0774 28.6083H20.2317C20.508 28.6083 20.7321 28.398 20.7321 28.1384ZM15.0774 29.5483C14.801 29.5483 14.577 29.7587 14.577 30.0182C14.577 30.2778 14.801 30.4882 15.0774 30.4882H17.7073C17.9837 30.4882 18.2077 30.2778 18.2077 30.0182C18.2077 29.7587 17.9837 29.5483 17.7073 29.5483H15.0774ZM23.9715 32.9907C23.9539 33.0143 23.8936 33.0944 23.8562 33.1387C23.6886 33.3367 23.2963 33.8002 22.7504 34.2093C22.0505 34.7339 21.3303 34.9999 20.6097 34.9999C19.8891 34.9999 19.1689 34.7339 18.469 34.2093C17.9231 33.8002 17.5308 33.3366 17.3633 33.1387C17.3258 33.0944 17.2655 33.0142 17.2479 32.9907C17.1266 32.8286 17.1266 32.6124 17.2479 32.4503C17.2655 32.4268 17.3258 32.3466 17.3633 32.3022C17.5308 32.1043 17.9231 31.6409 18.469 31.2318C19.1689 30.7072 19.8891 30.4412 20.6097 30.4412C21.3303 30.4412 22.0505 30.7072 22.7504 31.2318C23.2963 31.6409 23.6886 32.1044 23.8561 32.3023C23.8936 32.3467 23.9539 32.4269 23.9715 32.4504C24.0928 32.6125 24.0928 32.8286 23.9715 32.9907ZM22.9277 32.7205C22.132 31.8315 21.353 31.3811 20.6097 31.3811C19.8665 31.3811 19.0874 31.8315 18.2917 32.7205C19.0874 33.6095 19.8664 34.0599 20.6097 34.0599C21.353 34.0599 22.132 33.6096 22.9277 32.7205ZM20.6347 31.8276C20.1096 31.8276 19.6839 32.2273 19.6839 32.7205C19.6839 33.2137 20.1096 33.6135 20.6347 33.6135C21.1599 33.6135 21.5855 33.2137 21.5855 32.7205C21.5855 32.2273 21.1599 31.8276 20.6347 31.8276Z" fill="#085FAB"/>
</svg>
