<svg width="35" height="35" viewBox="0 0 35 35" fill="none" xmlns="http://www.w3.org/2000/svg">
<path d="M5.12559 22.4761C7.03165 20.5827 9.30036 19.181 11.7757 18.3325C9.12454 16.5186 7.38281 13.4829 7.38281 10.0503C7.38281 4.50859 11.9214 0 17.5 0C23.0786 0 27.6172 4.50859 27.6172 10.0503C27.6172 13.4829 25.8755 16.5186 23.2243 18.3325C25.6996 19.181 27.9683 20.5827 29.8743 22.4761C33.1797 25.7596 35 30.1252 35 34.7687H32.2656C32.2656 26.6807 25.6418 20.1006 17.5 20.1006C9.35819 20.1006 2.73438 26.6807 2.73438 34.7687H0C0 30.1252 1.82034 25.7596 5.12559 22.4761ZM17.5 17.3843C21.5709 17.3843 24.8828 14.0944 24.8828 10.0503C24.8828 6.00629 21.5709 2.7163 17.5 2.7163C13.4291 2.7163 10.1172 6.00629 10.1172 10.0503C10.1172 14.0944 13.4291 17.3843 17.5 17.3843Z" fill="#085FAB"/>
<path d="M21.1152 29.0578C21.0726 28.8791 20.9404 28.7354 20.7652 28.6776L18.1521 27.8121L20.0079 24.1252C20.1244 23.8932 20.0547 23.6111 19.843 23.4592C19.6303 23.3078 19.339 23.3305 19.1549 23.5144L13.829 28.8052C13.6984 28.9349 13.6448 29.1224 13.687 29.3007C13.7296 29.4794 13.8617 29.6231 14.037 29.6809L16.65 30.5464L14.7943 34.2333C14.6778 34.4653 14.7475 34.7474 14.9592 34.8993C15.1712 35.0503 15.4619 35.0282 15.6473 34.8441L20.9732 29.5533C21.1038 29.4236 21.1574 29.2361 21.1152 29.0578Z" fill="#085FAB"/>
</svg>
