<svg width="13" height="13" viewBox="0 0 13 13" fill="none" xmlns="http://www.w3.org/2000/svg">
<circle cx="6.5" cy="6.5" r="6.5" fill="#6D6D6D"/>
<path d="M4 2.89634C4.147 2.77439 4.30696 2.65854 4.4799 2.54878C4.65716 2.43902 4.84738 2.3435 5.05058 2.2622C5.25378 2.18089 5.47428 2.11789 5.71206 2.07317C5.94985 2.02439 6.20709 2 6.48379 2C6.85992 2 7.20147 2.04878 7.50843 2.14634C7.81971 2.2439 8.0856 2.38415 8.3061 2.56707C8.52659 2.74593 8.69736 2.96341 8.81842 3.21951C8.93947 3.47561 9 3.7622 9 4.07927C9 4.38821 8.95244 4.6565 8.85733 4.88415C8.76221 5.10772 8.64332 5.30285 8.50065 5.46951C8.35798 5.63618 8.20017 5.78049 8.02724 5.90244C7.85863 6.02439 7.69866 6.14024 7.54734 6.25C7.39602 6.35569 7.26416 6.46138 7.15175 6.56707C7.04367 6.6687 6.97882 6.78455 6.9572 6.91463L6.80804 7.80488H5.71206L5.60182 6.81098C5.57588 6.61992 5.60398 6.45325 5.68612 6.31098C5.77259 6.16463 5.885 6.03252 6.02335 5.91463C6.16602 5.79268 6.32382 5.67683 6.49676 5.56707C6.66969 5.45325 6.83182 5.3313 6.98314 5.20122C7.13446 5.06707 7.25984 4.9187 7.35927 4.7561C7.46303 4.58943 7.51492 4.39228 7.51492 4.16463C7.51492 4.01829 7.48465 3.88821 7.42412 3.77439C7.36792 3.6565 7.28794 3.55691 7.18418 3.47561C7.08041 3.39024 6.95504 3.3252 6.80804 3.28049C6.66537 3.23577 6.50973 3.21341 6.34111 3.21341C6.09468 3.21341 5.885 3.23984 5.71206 3.29268C5.54345 3.34146 5.39862 3.39837 5.27756 3.46341C5.16083 3.52439 5.06139 3.5813 4.97925 3.63415C4.8971 3.68293 4.82361 3.70732 4.75875 3.70732C4.60311 3.70732 4.4907 3.64634 4.42153 3.52439L4 2.89634ZM5.22568 10.0854C5.22568 9.95935 5.24946 9.83943 5.29702 9.72561C5.3489 9.61179 5.41807 9.51423 5.50454 9.43293C5.59101 9.35163 5.69477 9.28659 5.81582 9.23781C5.93688 9.18902 6.06658 9.16463 6.20493 9.16463C6.34328 9.16463 6.47082 9.18902 6.58755 9.23781C6.7086 9.28659 6.81236 9.35163 6.89883 9.43293C6.98962 9.51423 7.06096 9.61179 7.11284 9.72561C7.16472 9.83943 7.19066 9.95935 7.19066 10.0854C7.19066 10.2154 7.16472 10.3374 7.11284 10.4512C7.06096 10.561 6.98962 10.6565 6.89883 10.7378C6.81236 10.8191 6.7086 10.8821 6.58755 10.9268C6.47082 10.9756 6.34328 11 6.20493 11C6.06658 11 5.93688 10.9756 5.81582 10.9268C5.69477 10.8821 5.59101 10.8191 5.50454 10.7378C5.41807 10.6565 5.3489 10.561 5.29702 10.4512C5.24946 10.3374 5.22568 10.2154 5.22568 10.0854Z" fill="white"/>
</svg>
