<svg width="25" height="28" viewBox="0 0 25 28" fill="none" xmlns="http://www.w3.org/2000/svg">
<path d="M14.4414 4.48024C13.5248 4.48024 5.48169 4.41748 5.48169 2.24049C5.48169 0.0634926 13.5248 0 14.4414 0C15.3581 0 23.4019 0.0627628 23.4019 2.23976C23.4019 4.41675 15.3588 4.48024 14.4414 4.48024ZM6.66761 2.23976C7.21423 2.66377 9.83713 3.36 14.4422 3.36C19.0472 3.36 21.6701 2.66377 22.216 2.23976C21.6694 1.81574 19.0465 1.11951 14.4422 1.11951C9.83786 1.11951 7.21423 1.81574 6.66761 2.23976ZM22.3021 2.3266H22.3094H22.3021Z" fill="#085FAB"/>
<path d="M14.4422 8.95967C13.5255 8.95967 5.48242 8.89691 5.48242 6.71991C5.48242 6.41048 5.73347 6.16016 6.04218 6.16016C6.32972 6.16016 6.56617 6.37691 6.59829 6.65569C6.94348 7.06876 9.59411 7.84016 14.4422 7.84016C19.2902 7.84016 21.9409 7.06876 22.2861 6.65569C22.3182 6.37618 22.5546 6.16016 22.8422 6.16016C23.1516 6.16016 23.4019 6.41121 23.4019 6.71991C23.4027 8.89691 15.3595 8.95967 14.4422 8.95967ZM22.2824 6.71918C22.2824 6.71991 22.2824 6.71991 22.2824 6.71918V6.71918ZM6.60266 6.71918C6.60266 6.71991 6.60266 6.71991 6.60266 6.71918V6.71918Z" fill="#085FAB"/>
<path d="M14.4422 13.4401C13.5255 13.4401 5.48242 13.3774 5.48242 11.2004C5.48242 10.8909 5.73347 10.6406 6.04218 10.6406C6.32972 10.6406 6.56617 10.8574 6.59829 11.1362C6.94348 11.5492 9.59411 12.3206 14.4422 12.3206C19.2902 12.3206 21.9409 11.5492 22.2861 11.1362C22.3182 10.8566 22.5546 10.6406 22.8422 10.6406C23.1516 10.6406 23.4019 10.8917 23.4019 11.2004C23.4027 13.3774 15.3595 13.4401 14.4422 13.4401ZM22.2824 11.1989C22.2824 11.1997 22.2824 11.1997 22.2824 11.1989V11.1989ZM6.60266 11.1989C6.60266 11.1997 6.60266 11.1997 6.60266 11.1989V11.1989Z" fill="#085FAB"/>
<path d="M14.4422 15.6568C13.5255 15.6568 5.48242 16.3238 5.48242 14.1469V2.23944C5.48242 1.93001 5.73347 1.67969 6.04218 1.67969C6.35161 1.67969 6.60193 1.93074 6.60193 2.23944V14.0863C6.961 14.5015 9.6109 14.8467 14.4422 14.8467C19.2734 14.8467 21.9226 14.5015 22.2824 14.0863V2.23944C22.2824 1.93001 22.5335 1.67969 22.8422 1.67969C23.1509 1.67969 23.4019 1.93074 23.4019 2.23944V14.1469C23.4027 16.3238 15.3595 15.6568 14.4422 15.6568Z" fill="#085FAB"/>
<path d="M24.9313 14.8251C24.9247 14.7192 24.9167 14.6134 24.9072 14.4733C24.3796 14.4733 23.8738 14.4733 23.3673 14.4733C23.3644 14.4631 23.3622 14.455 23.36 14.4463H21.7216C16.6743 14.4463 11.6285 14.4463 6.57244 14.4463H4.55674C4.53776 14.4521 4.51879 14.4558 4.502 14.4572C4.05682 14.4799 3.60946 14.4667 3.12414 14.4667C3.12414 14.8696 3.11903 15.2316 3.12487 15.5928C3.13801 16.37 3.26937 17.1933 3.37884 17.9566L4.47646 23.2316C4.92237 23.1477 5.32376 23.0674 5.72806 22.9981C5.94627 22.9609 5.99444 22.8507 5.95722 22.6405L4.6538 16.0613C10.9264 16.0613 17.1144 16.0613 23.3316 16.0613L22.1529 22.323C21.842 24.1023 21.5275 25.8815 21.2159 27.6608H22.8032L24.9313 14.8251Z" fill="#085FAB"/>
<path d="M6.54504 26.0278C9.51241 24.8762 10.4422 24.1917 12.3528 21.7892C12.4243 21.6994 12.5652 21.6344 12.6834 21.6162C13.5993 21.4717 14.1839 20.6324 13.9919 19.7187C13.816 18.8787 12.895 18.3335 12.0485 18.5678C11.1785 18.8086 10.7217 19.7114 11.0019 20.5901C11.0443 20.7229 11.0224 20.9316 10.9421 21.0396C9.5 22.97 7.66456 24.3084 5.23943 24.7003C4.3374 24.8463 3.44631 24.7755 2.63478 24.2756C1.55029 23.6078 1.13869 21.6264 2.175 20.4266C2.26039 20.3274 2.3538 20.1748 2.33921 20.0595C2.2728 19.5355 2.16843 19.0159 2.07648 18.4839C0.737296 19.2867 -0.286613 20.8784 0.0724488 22.8138C0.580389 25.5527 2.49028 26.3767 5.00517 26.3154C5.08544 26.7671 5.16572 27.2145 5.24527 27.6611H6.82966C6.73333 27.1138 6.63846 26.5679 6.54504 26.0278Z" fill="#085FAB"/>
</svg>
