<svg width="27" height="27" viewBox="0 0 27 27" fill="none" xmlns="http://www.w3.org/2000/svg">
<path d="M19.0119 7.91365C18.9227 7.65595 18.7555 7.43243 18.5335 7.27416C18.3114 7.1159 18.0455 7.03077 17.7729 7.0306H17.3333V6.15139H17.7729C18.1221 6.15038 18.4568 6.01119 18.7037 5.76423C18.9507 5.51727 19.0899 5.18261 19.0909 4.83335V1.31805C19.0899 0.96879 18.9507 0.634127 18.7037 0.387165C18.4568 0.140202 18.1221 0.00101205 17.7729 0H1.95477C1.60551 0.00101205 1.27085 0.140202 1.02388 0.387165C0.776921 0.634127 0.637731 0.96879 0.636719 1.31805V4.83335C0.637731 5.18261 0.776921 5.51727 1.02388 5.76423C1.27085 6.01119 1.60551 6.15038 1.95477 6.15139H2.39437V7.02984H1.95477C1.60538 7.03085 1.2706 7.17015 1.02361 7.41727C0.776629 7.6644 0.637528 7.99926 0.636719 8.34865V11.864C0.637731 12.2132 0.776921 12.5479 1.02388 12.7948C1.27085 13.0418 1.60551 13.181 1.95477 13.182H2.39437V14.0604H1.95477C1.60551 14.0615 1.27085 14.2006 1.02388 14.4476C0.776921 14.6946 0.637731 15.0292 0.636719 15.3785V18.8938C0.637731 19.243 0.776921 19.5777 1.02388 19.8247C1.27085 20.0716 1.60551 20.2108 1.95477 20.2118H10.3034V23.7271C10.3034 25.4587 14.5038 26.3632 18.6521 26.3632C22.8003 26.3632 27.0007 25.4579 27.0007 23.7271V10.5451C26.9999 8.86267 23.0389 7.96582 19.0119 7.91365ZM1.95477 5.27295C1.83817 5.27295 1.72636 5.22664 1.64392 5.1442C1.56148 5.06175 1.51516 4.94994 1.51516 4.83335V1.31805C1.51516 1.20146 1.56148 1.08964 1.64392 1.0072C1.72636 0.924757 1.83817 0.878442 1.95477 0.878442H17.7729C17.8894 0.878442 18.0013 0.924757 18.0837 1.0072C18.1661 1.08964 18.2125 1.20146 18.2125 1.31805V4.83335C18.2125 4.89108 18.2011 4.94824 18.179 5.00158C18.1569 5.05491 18.1245 5.10338 18.0837 5.1442C18.0429 5.18502 17.9944 5.2174 17.9411 5.23949C17.8878 5.26158 17.8306 5.27295 17.7729 5.27295H1.95477ZM16.4548 6.15139V7.02984H14.6972V6.15139H16.4548ZM13.8187 6.15139V7.02984H5.90967V6.15139H13.8187ZM5.03123 6.15139V7.02984H3.27281V6.15139H5.03123ZM10.3034 19.3334H1.95477C1.83817 19.3334 1.72636 19.2871 1.64392 19.2046C1.56148 19.1222 1.51516 19.0104 1.51516 18.8938V15.3785C1.51516 15.2619 1.56148 15.1501 1.64392 15.0676C1.72636 14.9852 1.83817 14.9389 1.95477 14.9389H10.3034V19.3334ZM3.27281 14.0604V13.182H5.03046V14.0604H3.27281ZM10.3034 14.0604H5.90967V13.182H10.3034V14.0604ZM10.3034 10.5451V12.3028H1.95477C1.89704 12.3028 1.83987 12.2914 1.78654 12.2693C1.7332 12.2472 1.68474 12.2149 1.64392 12.174C1.6031 12.1332 1.57072 12.0848 1.54862 12.0314C1.52653 11.9781 1.51516 11.9209 1.51516 11.8632V8.34865C1.51516 8.23206 1.56148 8.12024 1.64392 8.0378C1.72636 7.95536 1.83817 7.90905 1.95477 7.90905H17.7729C17.7937 7.91129 17.8143 7.91566 17.8342 7.92209C13.9676 8.0318 10.3034 8.92865 10.3034 10.5451ZM26.1215 23.7271C26.1215 24.3248 23.4854 25.4848 18.6521 25.4848C13.8187 25.4848 11.1826 24.3248 11.1826 23.7271V20.5724C12.628 21.4931 15.647 21.9695 18.6521 21.9695C21.6572 21.9695 24.6761 21.4908 26.1215 20.5724V23.7271ZM26.1215 19.3334C26.1215 19.931 23.4854 21.091 18.6521 21.091C13.8187 21.091 11.1826 19.931 11.1826 19.3334V16.1787C12.628 17.0993 15.647 17.5757 18.6521 17.5757C21.6572 17.5757 24.6761 17.097 26.1215 16.1787V19.3334ZM26.1215 14.9397C26.1215 15.5373 23.4854 16.6973 18.6521 16.6973C13.8187 16.6973 11.1826 15.5373 11.1826 14.9397V11.7842C12.628 12.7048 15.647 13.1812 18.6521 13.1812C21.6572 13.1812 24.6761 12.7025 26.1215 11.7842V14.9397ZM18.6521 12.3036C13.8187 12.3036 11.1826 11.1436 11.1826 10.5459C11.1826 9.94826 13.8187 8.78826 18.6521 8.78826C23.4854 8.78826 26.1215 9.94826 26.1215 10.5459C26.1215 11.1436 23.4854 12.3028 18.6521 12.3028V12.3036Z" fill="#085FAB"/>
<path d="M18.2136 14.5H19.0921V15.3784H18.2136V14.5Z" fill="#085FAB"/>
<path d="M18.2136 19.3335H19.0921V20.2119H18.2136V19.3335Z" fill="#085FAB"/>
<path d="M18.2136 23.2876H19.0921V24.166H18.2136V23.2876Z" fill="#085FAB"/>
<path d="M4.59179 8.7876H2.83414C2.71755 8.7876 2.60573 8.83391 2.52329 8.91635C2.44085 8.9988 2.39453 9.11061 2.39453 9.2272V10.9849C2.39453 11.1014 2.44085 11.2133 2.52329 11.2957C2.60573 11.3781 2.71755 11.4245 2.83414 11.4245H4.59179C4.64952 11.4245 4.70668 11.4131 4.76002 11.391C4.81335 11.3689 4.86181 11.3365 4.90263 11.2957C4.94345 11.2549 4.97584 11.2064 4.99793 11.1531C5.02002 11.0997 5.03139 11.0426 5.03139 10.9849V9.2272C5.03139 9.16947 5.02002 9.11231 4.99793 9.05897C4.97584 9.00564 4.94345 8.95718 4.90263 8.91635C4.86181 8.87553 4.81335 8.84315 4.76002 8.82106C4.70668 8.79897 4.64952 8.7876 4.59179 8.7876ZM4.15218 10.5452H3.27297V9.66604H4.15218V10.5452Z" fill="#085FAB"/>
<path d="M8.10753 8.7876H6.34988C6.23329 8.7876 6.12148 8.83391 6.03904 8.91635C5.95659 8.9988 5.91028 9.11061 5.91028 9.2272V10.9849C5.91028 11.1014 5.95659 11.2133 6.03904 11.2957C6.12148 11.3781 6.23329 11.4245 6.34988 11.4245H8.10753C8.22412 11.4245 8.33594 11.3781 8.41838 11.2957C8.50082 11.2133 8.54714 11.1014 8.54714 10.9849V9.2272C8.54714 9.11061 8.50082 8.9988 8.41838 8.91635C8.33594 8.83391 8.22412 8.7876 8.10753 8.7876ZM7.66793 10.5452H6.78872V9.66604H7.66716L7.66793 10.5452Z" fill="#085FAB"/>
<path d="M4.59179 1.75781H2.83414C2.71755 1.75781 2.60573 1.80413 2.52329 1.88657C2.44085 1.96901 2.39453 2.08083 2.39453 2.19742V3.95507C2.39453 4.0128 2.4059 4.06996 2.42799 4.1233C2.45009 4.17663 2.48247 4.22509 2.52329 4.26592C2.56411 4.30674 2.61257 4.33912 2.66591 4.36121C2.71924 4.3833 2.77641 4.39467 2.83414 4.39467H4.59179C4.64952 4.39467 4.70668 4.3833 4.76002 4.36121C4.81335 4.33912 4.86181 4.30674 4.90263 4.26592C4.94345 4.22509 4.97584 4.17663 4.99793 4.1233C5.02002 4.06996 5.03139 4.0128 5.03139 3.95507V2.19742C5.03139 2.13969 5.02002 2.08252 4.99793 2.02919C4.97584 1.97585 4.94345 1.92739 4.90263 1.88657C4.86181 1.84575 4.81335 1.81337 4.76002 1.79128C4.70668 1.76918 4.64952 1.75781 4.59179 1.75781ZM4.15218 3.51546H3.27297V2.63625H4.15218V3.51546Z" fill="#085FAB"/>
<path d="M8.10753 1.75781H6.34988C6.23329 1.75781 6.12148 1.80413 6.03904 1.88657C5.95659 1.96901 5.91028 2.08083 5.91028 2.19742V3.95507C5.91028 4.0128 5.92165 4.06996 5.94374 4.1233C5.96583 4.17663 5.99821 4.22509 6.03904 4.26592C6.07986 4.30674 6.12832 4.33912 6.18165 4.36121C6.23499 4.3833 6.29215 4.39467 6.34988 4.39467H8.10753C8.16526 4.39467 8.22243 4.3833 8.27576 4.36121C8.3291 4.33912 8.37756 4.30674 8.41838 4.26592C8.4592 4.22509 8.49158 4.17663 8.51368 4.1233C8.53577 4.06996 8.54714 4.0128 8.54714 3.95507V2.19742C8.54714 2.08083 8.50082 1.96901 8.41838 1.88657C8.33594 1.80413 8.22412 1.75781 8.10753 1.75781ZM7.66793 3.51546H6.78872V2.63625H7.66716L7.66793 3.51546Z" fill="#085FAB"/>
<path d="M9.42432 2.63623H15.5757V3.51467H9.42432V2.63623Z" fill="#085FAB"/>
<path d="M16.4542 2.63623H17.3327V3.51467H16.4542V2.63623Z" fill="#085FAB"/>
<path d="M4.59179 15.8179H2.83414C2.71755 15.8179 2.60573 15.8642 2.52329 15.9466C2.44085 16.0291 2.39453 16.1409 2.39453 16.2575V18.0151C2.39453 18.1317 2.44085 18.2435 2.52329 18.326C2.60573 18.4084 2.71755 18.4547 2.83414 18.4547H4.59179C4.64952 18.4547 4.70668 18.4434 4.76002 18.4213C4.81335 18.3992 4.86181 18.3668 4.90263 18.326C4.94345 18.2852 4.97584 18.2367 4.99793 18.1834C5.02002 18.13 5.03139 18.0729 5.03139 18.0151V16.2575C5.03139 16.1997 5.02002 16.1426 4.99793 16.0892C4.97584 16.0359 4.94345 15.9874 4.90263 15.9466C4.86181 15.9058 4.81335 15.8734 4.76002 15.8513C4.70668 15.8292 4.64952 15.8179 4.59179 15.8179ZM4.15218 17.5755H3.27297V16.6963H4.15218V17.5755Z" fill="#085FAB"/>
<path d="M8.10753 15.8179H6.34988C6.23329 15.8179 6.12148 15.8642 6.03904 15.9466C5.95659 16.0291 5.91028 16.1409 5.91028 16.2575V18.0151C5.91028 18.1317 5.95659 18.2435 6.03904 18.326C6.12148 18.4084 6.23329 18.4547 6.34988 18.4547H8.10753C8.22412 18.4547 8.33594 18.4084 8.41838 18.326C8.50082 18.2435 8.54714 18.1317 8.54714 18.0151V16.2575C8.54714 16.1409 8.50082 16.0291 8.41838 15.9466C8.33594 15.8642 8.22412 15.8179 8.10753 15.8179ZM7.66793 17.5755H6.78872V16.6963H7.66716L7.66793 17.5755Z" fill="#085FAB"/>
</svg>
