<svg width="94" height="115" viewBox="0 0 94 115" fill="none" xmlns="http://www.w3.org/2000/svg">
<g filter="url(#filter0_d)">
<path d="M53.8114 54.4854C53.8114 54.4854 64.7332 57.6612 68.7147 71.0206C72.6963 84.3799 65.9689 75.7293 58.2228 74.6327C50.4768 73.5361 53.8114 54.4854 53.8114 54.4854Z" fill="#D9D9D9"/>
<path d="M26.6504 54.4854C26.6504 54.4854 15.728 57.6612 11.7464 71.0206C7.76493 84.3799 14.4923 75.7293 22.2384 74.6327C29.9844 73.5361 26.6504 54.4854 26.6504 54.4854Z" fill="#D9D9D9"/>
<path d="M62.5016 61.7024C62.5016 74.0013 55.4306 89.7071 40.187 89.8039C24.9434 89.9007 18.7344 74.0006 18.7344 61.7024C18.7344 49.4042 62.5016 49.4035 62.5016 61.7024Z" fill="#D9D9D9"/>
<path d="M58.6626 63.4535C58.6626 73.5449 52.8608 86.4313 40.3537 86.5103C27.8465 86.5894 22.752 73.5449 22.752 63.4535C22.752 53.3621 58.6626 53.3628 58.6626 63.4535Z" fill="#EC547A"/>
<path d="M52.555 0H28.445C14.9444 0 4 11.1373 4 24.8758C4 38.6143 14.9444 49.7516 28.445 49.7516H52.555C66.0556 49.7516 77 38.6143 77 24.8758C77 11.1373 66.0556 0 52.555 0Z" fill="#D9D9D9"/>
<path d="M28.445 0H40.8349V49.7516H28.445C21.9617 49.7516 15.7441 47.1308 11.1598 42.4656C6.57544 37.8005 4 31.4733 4 24.8758C4 18.2783 6.57544 11.9511 11.1598 7.28595C15.7441 2.62083 21.9617 0 28.445 0V0Z" fill="#EFF4F9"/>
<path d="M52.5559 8.85986H29.1155C20.4233 8.85986 13.377 16.0304 13.377 24.8758C13.377 33.7211 20.4233 40.8917 29.1155 40.8917H52.5559C61.248 40.8917 68.2944 33.7211 68.2944 24.8758C68.2944 16.0304 61.248 8.85986 52.5559 8.85986Z" fill="#EC547A"/>
<path d="M28.7793 11.5859H40.8343V38.8471H28.7793C25.2268 38.8471 21.8199 37.411 19.3079 34.8548C16.796 32.2985 15.3848 28.8316 15.3848 25.2165V25.2165C15.3848 21.6015 16.796 18.1345 19.3079 15.5782C21.8199 13.022 25.2268 11.5859 28.7793 11.5859V11.5859Z" fill="#F45F84"/>
<path d="M30 27C31.6569 27 33 25.6569 33 24C33 22.3431 31.6569 21 30 21C28.3431 21 27 22.3431 27 24C27 25.6569 28.3431 27 30 27Z" fill="#302A4D"/>
<path d="M52 27C53.6569 27 55 25.6569 55 24C55 22.3431 53.6569 21 52 21C50.3431 21 49 22.3431 49 24C49 25.6569 50.3431 27 52 27Z" fill="#302A4D"/>
<path d="M40.8343 107C54.8897 107 66.2838 105.017 66.2838 102.57C66.2838 100.123 54.8897 98.1401 40.8343 98.1401C26.7789 98.1401 15.3848 100.123 15.3848 102.57C15.3848 105.017 26.7789 107 40.8343 107Z" fill="#F5F7F8"/>
<path d="M54.6965 14.2021L48.8909 15.8226C48.7128 15.8723 48.6094 16.0595 48.66 16.2408C48.7106 16.4221 48.896 16.5287 49.0741 16.479L54.8797 14.8585C55.0579 14.8088 55.1612 14.6215 55.1106 14.4403C55.06 14.259 54.8746 14.1524 54.6965 14.2021Z" fill="#302A4D"/>
<path d="M27.0916 18.1753L33.035 19.1786C33.2174 19.2094 33.3906 19.0839 33.422 18.8984C33.4533 18.7128 33.3308 18.5374 33.1485 18.5066L27.2051 17.5033C27.0227 17.4725 26.8495 17.598 26.8181 17.7836C26.7868 17.9691 26.9093 18.1445 27.0916 18.1753Z" fill="#302A4D"/>
<g clip-path="url(#clip0)">
<path d="M42.2927 69.71C42.1246 69.71 41.9883 69.8462 41.9883 70.0144V75.7685C41.9883 75.9365 42.1246 76.073 42.2927 76.073C42.4609 76.073 42.5972 75.9365 42.5972 75.7685V70.0144C42.5972 69.8462 42.4609 69.71 42.2927 69.71Z" fill="#302A4D"/>
<path d="M38.7009 69.71C38.5328 69.71 38.3965 69.8462 38.3965 70.0144V75.7685C38.3965 75.9365 38.5328 76.073 38.7009 76.073C38.8691 76.073 39.0054 75.9365 39.0054 75.7685V70.0144C39.0054 69.8462 38.8691 69.71 38.7009 69.71Z" fill="#302A4D"/>
<path d="M36.0825 68.8702V76.3712C36.0825 76.8146 36.245 77.2309 36.529 77.5297C36.8117 77.8292 37.2051 77.9993 37.6168 78H43.3771C43.7889 77.9993 44.1823 77.8292 44.4649 77.5297C44.7489 77.2309 44.9115 76.8146 44.9115 76.3712V68.8702C45.476 68.7204 45.8418 68.175 45.7663 67.5957C45.6907 67.0165 45.1972 66.5833 44.6131 66.5832H43.0543V66.2026C43.0561 65.8826 42.9296 65.5753 42.703 65.3492C42.4765 65.1232 42.1687 64.9974 41.8487 65H39.1453C38.8252 64.9974 38.5175 65.1232 38.2909 65.3492C38.0643 65.5753 37.9378 65.8826 37.9396 66.2026V66.5832H36.3808C35.7967 66.5833 35.3033 67.0165 35.2276 67.5957C35.1521 68.175 35.5179 68.7204 36.0825 68.8702ZM43.3771 77.3911H37.6168C37.0963 77.3911 36.6914 76.9439 36.6914 76.3712V68.897H44.3026V76.3712C44.3026 76.9439 43.8976 77.3911 43.3771 77.3911ZM38.5485 66.2026C38.5465 66.0441 38.6088 65.8915 38.7213 65.7796C38.8337 65.6677 38.9866 65.6062 39.1453 65.6089H41.8487C42.0073 65.6062 42.1603 65.6677 42.2726 65.7796C42.3851 65.8914 42.4475 66.0441 42.4454 66.2026V66.5832H38.5485V66.2026ZM36.3808 67.1921H44.6131C44.9158 67.1921 45.1611 67.4374 45.1611 67.7401C45.1611 68.0427 44.9158 68.2881 44.6131 68.2881H36.3808C36.0782 68.2881 35.8328 68.0427 35.8328 67.7401C35.8328 67.4374 36.0782 67.1921 36.3808 67.1921Z" fill="#302A4D"/>
<path d="M40.4968 69.71C40.3287 69.71 40.1924 69.8462 40.1924 70.0144V75.7685C40.1924 75.9365 40.3287 76.073 40.4968 76.073C40.665 76.073 40.8013 75.9365 40.8013 75.7685V70.0144C40.8013 69.8462 40.665 69.71 40.4968 69.71Z" fill="#302A4D"/>
</g>
<path d="M37 32.9997C39.3333 32.1664 43.5 32.9998 45.5 32.9997" stroke="#302A4D" stroke-linecap="round"/>
<path d="M82.2555 67.0379C81.3973 67.0292 80.7086 66.3264 80.7173 65.4681L80.738 63.4248C80.7578 61.4807 81.9601 59.781 83.801 59.0948C85.481 58.4686 86.5472 56.8406 86.4539 55.0436C86.3494 53.0293 84.6918 51.3374 82.68 51.1921C81.5375 51.1091 80.4466 51.4888 79.609 52.2602C78.7705 53.0324 78.3023 54.085 78.2907 55.2241C78.282 56.0824 77.5792 56.771 76.721 56.7623C75.8627 56.7536 75.174 56.0508 75.1828 55.1925C75.2029 53.2156 76.0487 51.3135 77.5035 49.9738C78.9789 48.6152 80.8967 47.9475 82.9041 48.092C84.6394 48.2175 86.2739 48.9794 87.5067 50.2373C88.7393 51.4952 89.4678 53.145 89.5579 54.8825C89.7219 58.0416 87.8446 60.9048 84.8866 62.0072C84.2612 62.2404 83.8527 62.8092 83.8461 63.4564L83.8253 65.4997C83.8165 66.358 83.1137 67.0466 82.2555 67.0379Z" fill="#302A4D"/>
<path d="M80.6862 72.0158C80.5243 71.1966 81.0728 70.3582 81.9245 70.2007C83.3527 69.9195 84.3352 71.6189 83.404 72.7251C82.5836 73.7214 80.9282 73.3111 80.6862 72.0158Z" fill="#302A4D"/>
</g>
<defs>
<filter id="filter0_d" x="0" y="0" width="93.641" height="115" filterUnits="userSpaceOnUse" color-interpolation-filters="sRGB">
<feFlood flood-opacity="0" result="BackgroundImageFix"/>
<feColorMatrix in="SourceAlpha" type="matrix" values="0 0 0 0 0 0 0 0 0 0 0 0 0 0 0 0 0 0 127 0"/>
<feOffset dy="4"/>
<feGaussianBlur stdDeviation="2"/>
<feColorMatrix type="matrix" values="0 0 0 0 0 0 0 0 0 0 0 0 0 0 0 0 0 0 0.25 0"/>
<feBlend mode="normal" in2="BackgroundImageFix" result="effect1_dropShadow"/>
<feBlend mode="normal" in="SourceGraphic" in2="effect1_dropShadow" result="shape"/>
</filter>
<clipPath id="clip0">
<rect width="13" height="13" fill="white" transform="translate(34 65)"/>
</clipPath>
</defs>
</svg>
