<svg width="73" height="107" viewBox="0 0 73 107" fill="none" xmlns="http://www.w3.org/2000/svg">
<path d="M49.8114 54.4854C49.8114 54.4854 60.7332 57.6612 64.7147 71.0206C68.6963 84.3799 61.9689 75.7293 54.2228 74.6327C46.4768 73.5361 49.8114 54.4854 49.8114 54.4854Z" fill="#D2D2D2"/>
<path d="M22.6504 54.4854C22.6504 54.4854 11.728 57.6612 7.74644 71.0206C3.76493 84.3799 10.4923 75.7293 18.2384 74.6327C25.9844 73.5361 22.6504 54.4854 22.6504 54.4854Z" fill="#D2D2D2"/>
<path d="M58.5016 61.7024C58.5016 74.0013 51.4306 89.7071 36.187 89.8039C20.9434 89.9007 14.7344 74.0006 14.7344 61.7024C14.7344 49.4042 58.5016 49.4035 58.5016 61.7024Z" fill="#D9D9D9"/>
<path d="M54.6626 63.4535C54.6626 73.5449 48.8608 86.4313 36.3537 86.5103C23.8465 86.5894 18.752 73.5449 18.752 63.4535C18.752 53.3621 54.6626 53.3628 54.6626 63.4535Z" fill="#292345"/>
<path d="M48.555 0H24.445C10.9444 0 0 11.1373 0 24.8758C0 38.6143 10.9444 49.7516 24.445 49.7516H48.555C62.0556 49.7516 73 38.6143 73 24.8758C73 11.1373 62.0556 0 48.555 0Z" fill="#D9D9D9"/>
<path d="M24.445 0H36.8349V49.7516H24.445C17.9617 49.7516 11.7441 47.1308 7.15976 42.4656C2.57544 37.8005 0 31.4733 0 24.8758C0 18.2783 2.57544 11.9511 7.15976 7.28595C11.7441 2.62083 17.9617 0 24.445 0V0Z" fill="#EFF4F9"/>
<path d="M48.5559 8.85986H25.1155C16.4233 8.85986 9.37695 16.0304 9.37695 24.8758C9.37695 33.7211 16.4233 40.8917 25.1155 40.8917H48.5559C57.248 40.8917 64.2944 33.7211 64.2944 24.8758C64.2944 16.0304 57.248 8.85986 48.5559 8.85986Z" fill="#292345"/>
<path d="M24.7793 11.5859H36.8343V38.8471H24.7793C21.2268 38.8471 17.8199 37.411 15.3079 34.8548C12.796 32.2985 11.3848 28.8316 11.3848 25.2165V25.2165C11.3848 21.6015 12.796 18.1345 15.3079 15.5782C17.8199 13.022 21.2268 11.5859 24.7793 11.5859V11.5859Z" fill="#302A4D"/>
<path d="M25.785 27.9426C27.8194 27.9426 29.4685 26.2644 29.4685 24.1942C29.4685 22.124 27.8194 20.4458 25.785 20.4458C23.7507 20.4458 22.1016 22.124 22.1016 24.1942C22.1016 26.2644 23.7507 27.9426 25.785 27.9426Z" fill="#8AD1C0"/>
<path d="M47.8847 27.9426C49.919 27.9426 51.5681 26.2644 51.5681 24.1942C51.5681 22.124 49.919 20.4458 47.8847 20.4458C45.8503 20.4458 44.2012 22.124 44.2012 24.1942C44.2012 26.2644 45.8503 27.9426 47.8847 27.9426Z" fill="#8AD1C0"/>
<path d="M36.8359 35.4395C35.3752 35.4395 33.9957 35.1477 32.9514 34.6178C32.1549 34.2136 31.63 33.7124 31.4336 33.1782H42.2385C42.042 33.7124 41.5171 34.2136 40.7205 34.6178C39.6762 35.1477 38.2966 35.4395 36.8359 35.4395Z" fill="#8AD1C0"/>
<path d="M36.836 35.0987C38.2459 35.0987 39.5724 34.8196 40.5712 34.3128C41.036 34.077 41.4005 33.8048 41.6437 33.5189H32.0285C32.2717 33.8048 32.6362 34.077 33.101 34.3128C34.0997 34.8196 35.4262 35.0987 36.836 35.0987ZM36.836 35.7802C35.3245 35.7802 33.8919 35.4757 32.8021 34.9227C31.7156 34.3714 31.0818 33.6308 31.0176 32.8374H42.6547C42.5905 33.6309 41.9566 34.3714 40.8701 34.9227C39.7803 35.4757 38.3476 35.7802 36.836 35.7802Z" fill="#8AD1C0"/>
<path d="M36.8343 107C50.8897 107 62.2838 105.017 62.2838 102.57C62.2838 100.123 50.8897 98.1401 36.8343 98.1401C22.7789 98.1401 11.3848 100.123 11.3848 102.57C11.3848 105.017 22.7789 107 36.8343 107Z" fill="#F5F7F8"/>
<path d="M50.8995 17.7197H44.872C44.687 17.7197 44.5371 17.8723 44.5371 18.0605C44.5371 18.2487 44.687 18.4013 44.872 18.4013H50.8995C51.0844 18.4013 51.2344 18.2487 51.2344 18.0605C51.2344 17.8723 51.0844 17.7197 50.8995 17.7197Z" fill="#8AD1C0"/>
<path d="M23.1064 18.4014H29.1339C29.3188 18.4014 29.4688 18.2488 29.4688 18.0606C29.4688 17.8724 29.3188 17.7198 29.1339 17.7198H23.1064C22.9214 17.7198 22.7715 17.8724 22.7715 18.0606C22.7715 18.2488 22.9214 18.4014 23.1064 18.4014Z" fill="#8AD1C0"/>
<path d="M45.1515 65.4248H36.9848C36.6895 65.4248 36.4062 65.5442 36.1973 65.7568C35.9884 65.9693 35.8711 66.2576 35.8711 66.5582V77.5131C35.8711 77.8137 35.9884 78.1019 36.1973 78.3145C36.4062 78.527 36.6895 78.6465 36.9848 78.6465H45.1515C45.4468 78.6465 45.7301 78.527 45.939 78.3145C46.1479 78.1019 46.2652 77.8137 46.2652 77.5131V66.5582C46.2652 66.2576 46.1479 65.9693 45.939 65.7568C45.7301 65.5442 45.4468 65.4248 45.1515 65.4248ZM45.5225 77.5131C45.5225 77.5627 45.5129 77.6118 45.4942 77.6576C45.4756 77.7034 45.4483 77.745 45.4138 77.7801C45.3794 77.8151 45.3385 77.8429 45.2934 77.8619C45.2484 77.8809 45.2002 77.8906 45.1515 77.8906H36.9848C36.8864 77.8906 36.7921 77.8509 36.7225 77.7801C36.6529 77.7092 36.6138 77.6132 36.6138 77.5131V66.5582C36.6138 66.458 36.6529 66.362 36.7225 66.2912C36.7921 66.2204 36.8864 66.1806 36.9848 66.1806H45.1515C45.2002 66.1806 45.2484 66.1904 45.2934 66.2094C45.3385 66.2283 45.3794 66.2561 45.4138 66.2912C45.4483 66.3263 45.4756 66.3679 45.4942 66.4137C45.5129 66.4595 45.5225 66.5086 45.5225 66.5582V77.5131Z" fill="#1DDFA9"/>
<path d="M38.4712 70.3354H43.6683C43.8653 70.3354 44.0542 70.2558 44.1935 70.114C44.3328 69.9723 44.411 69.78 44.411 69.5796V68.0693C44.411 67.97 44.3918 67.8718 44.3545 67.7801C44.3172 67.6884 44.2625 67.605 44.1935 67.5348C44.1245 67.4647 44.0426 67.409 43.9525 67.371C43.8624 67.333 43.7658 67.3135 43.6683 67.3135H38.4712C38.3737 67.3135 38.2771 67.333 38.187 67.371C38.0969 67.409 38.015 67.4647 37.9461 67.5348C37.8771 67.605 37.8224 67.6884 37.7851 67.7801C37.7477 67.8718 37.7285 67.97 37.7285 68.0693V69.5802C37.7287 69.7806 37.807 69.9727 37.9463 70.1142C38.0856 70.2558 38.2744 70.3354 38.4712 70.3354ZM38.4712 68.0686H43.6683V69.5796H38.4712V68.0686Z" fill="#1DDFA9"/>
<path d="M39.2117 71.4688H38.0979C37.9994 71.4688 37.905 71.5086 37.8353 71.5794C37.7657 71.6503 37.7266 71.7464 37.7266 71.8467C37.7266 71.9469 37.7657 72.043 37.8353 72.1139C37.905 72.1848 37.9994 72.2246 38.0979 72.2246H39.2117C39.3102 72.2246 39.4046 72.1848 39.4743 72.1139C39.5439 72.043 39.583 71.9469 39.583 71.8467C39.583 71.7464 39.5439 71.6503 39.4743 71.5794C39.4046 71.5086 39.3102 71.4688 39.2117 71.4688Z" fill="#1DDFA9"/>
<path d="M39.2117 72.9805H38.0979C37.9994 72.9805 37.905 73.0203 37.8353 73.0912C37.7657 73.162 37.7266 73.2582 37.7266 73.3584C37.7266 73.4586 37.7657 73.5547 37.8353 73.6256C37.905 73.6965 37.9994 73.7363 38.0979 73.7363H39.2117C39.3102 73.7363 39.4046 73.6965 39.4743 73.6256C39.5439 73.5547 39.583 73.4586 39.583 73.3584C39.583 73.2582 39.5439 73.162 39.4743 73.0912C39.4046 73.0203 39.3102 72.9805 39.2117 72.9805Z" fill="#1DDFA9"/>
<path d="M39.2117 74.4912H38.0979C37.9994 74.4912 37.905 74.531 37.8353 74.6019C37.7657 74.6728 37.7266 74.7689 37.7266 74.8691C37.7266 74.9693 37.7657 75.0655 37.8353 75.1363C37.905 75.2072 37.9994 75.247 38.0979 75.247H39.2117C39.3102 75.247 39.4046 75.2072 39.4743 75.1363C39.5439 75.0655 39.583 74.9693 39.583 74.8691C39.583 74.7689 39.5439 74.6728 39.4743 74.6019C39.4046 74.531 39.3102 74.4912 39.2117 74.4912Z" fill="#1DDFA9"/>
<path d="M39.2117 76.002H38.0979C37.9994 76.002 37.905 76.0418 37.8353 76.1126C37.7657 76.1835 37.7266 76.2796 37.7266 76.3799C37.7266 76.4801 37.7657 76.5762 37.8353 76.6471C37.905 76.718 37.9994 76.7578 38.0979 76.7578H39.2117C39.3102 76.7578 39.4046 76.718 39.4743 76.6471C39.5439 76.5762 39.583 76.4801 39.583 76.3799C39.583 76.2796 39.5439 76.1835 39.4743 76.1126C39.4046 76.0418 39.3102 76.002 39.2117 76.002Z" fill="#1DDFA9"/>
<path d="M41.8093 71.4688H40.6956C40.5971 71.4688 40.5026 71.5086 40.433 71.5794C40.3633 71.6503 40.3242 71.7464 40.3242 71.8467C40.3242 71.9469 40.3633 72.043 40.433 72.1139C40.5026 72.1848 40.5971 72.2246 40.6956 72.2246H41.8093C41.9078 72.2246 42.0023 72.1848 42.0719 72.1139C42.1416 72.043 42.1807 71.9469 42.1807 71.8467C42.1807 71.7464 42.1416 71.6503 42.0719 71.5794C42.0023 71.5086 41.9078 71.4688 41.8093 71.4688Z" fill="#1DDFA9"/>
<path d="M41.8093 72.9805H40.6956C40.5971 72.9805 40.5026 73.0203 40.433 73.0912C40.3633 73.162 40.3242 73.2582 40.3242 73.3584C40.3242 73.4586 40.3633 73.5547 40.433 73.6256C40.5026 73.6965 40.5971 73.7363 40.6956 73.7363H41.8093C41.9078 73.7363 42.0023 73.6965 42.0719 73.6256C42.1416 73.5547 42.1807 73.4586 42.1807 73.3584C42.1807 73.2582 42.1416 73.162 42.0719 73.0912C42.0023 73.0203 41.9078 72.9805 41.8093 72.9805Z" fill="#1DDFA9"/>
<path d="M41.8093 74.4912H40.6956C40.5971 74.4912 40.5026 74.531 40.433 74.6019C40.3633 74.6728 40.3242 74.7689 40.3242 74.8691C40.3242 74.9693 40.3633 75.0655 40.433 75.1363C40.5026 75.2072 40.5971 75.247 40.6956 75.247H41.8093C41.9078 75.247 42.0023 75.2072 42.0719 75.1363C42.1416 75.0655 42.1807 74.9693 42.1807 74.8691C42.1807 74.7689 42.1416 74.6728 42.0719 74.6019C42.0023 74.531 41.9078 74.4912 41.8093 74.4912Z" fill="#1DDFA9"/>
<path d="M41.8093 76.002H40.6956C40.5971 76.002 40.5026 76.0418 40.433 76.1126C40.3633 76.1835 40.3242 76.2796 40.3242 76.3799C40.3242 76.4801 40.3633 76.5762 40.433 76.6471C40.5026 76.718 40.5971 76.7578 40.6956 76.7578H41.8093C41.9078 76.7578 42.0023 76.718 42.0719 76.6471C42.1416 76.5762 42.1807 76.4801 42.1807 76.3799C42.1807 76.2796 42.1416 76.1835 42.0719 76.1126C42.0023 76.0418 41.9078 76.002 41.8093 76.002Z" fill="#1DDFA9"/>
<path d="M44.4089 71.4688H43.2952C43.1967 71.4688 43.1022 71.5086 43.0326 71.5794C42.963 71.6503 42.9238 71.7464 42.9238 71.8467C42.9238 71.9469 42.963 72.043 43.0326 72.1139C43.1022 72.1848 43.1967 72.2246 43.2952 72.2246H44.4089C44.5074 72.2246 44.6019 72.1848 44.6715 72.1139C44.7412 72.043 44.7803 71.9469 44.7803 71.8467C44.7803 71.7464 44.7412 71.6503 44.6715 71.5794C44.6019 71.5086 44.5074 71.4688 44.4089 71.4688Z" fill="#1DDFA9"/>
<path d="M44.4089 72.9805H43.2952C43.1967 72.9805 43.1022 73.0203 43.0326 73.0912C42.963 73.162 42.9238 73.2582 42.9238 73.3584C42.9238 73.4586 42.963 73.5547 43.0326 73.6256C43.1022 73.6965 43.1967 73.7363 43.2952 73.7363H44.4089C44.5074 73.7363 44.6019 73.6965 44.6715 73.6256C44.7412 73.5547 44.7803 73.4586 44.7803 73.3584C44.7803 73.2582 44.7412 73.162 44.6715 73.0912C44.6019 73.0203 44.5074 72.9805 44.4089 72.9805Z" fill="#1DDFA9"/>
<path d="M44.4089 74.4912H43.2952C43.1967 74.4912 43.1022 74.531 43.0326 74.6019C42.963 74.6728 42.9238 74.7689 42.9238 74.8691C42.9238 74.9693 42.963 75.0655 43.0326 75.1363C43.1022 75.2072 43.1967 75.247 43.2952 75.247H44.4089C44.5074 75.247 44.6019 75.2072 44.6715 75.1363C44.7412 75.0655 44.7803 74.9693 44.7803 74.8691C44.7803 74.7689 44.7412 74.6728 44.6715 74.6019C44.6019 74.531 44.5074 74.4912 44.4089 74.4912Z" fill="#1DDFA9"/>
<path d="M44.4089 76.002H43.2952C43.1967 76.002 43.1022 76.0418 43.0326 76.1126C42.963 76.1835 42.9238 76.2796 42.9238 76.3799C42.9238 76.4801 42.963 76.5762 43.0326 76.6471C43.1022 76.718 43.1967 76.7578 43.2952 76.7578H44.4089C44.5074 76.7578 44.6019 76.718 44.6715 76.6471C44.7412 76.5762 44.7803 76.4801 44.7803 76.3799C44.7803 76.2796 44.7412 76.1835 44.6715 76.1126C44.6019 76.0418 44.5074 76.002 44.4089 76.002Z" fill="#1DDFA9"/>
<path d="M45.1515 65.4248H36.9848C36.6895 65.4248 36.4062 65.5442 36.1973 65.7568C35.9884 65.9693 35.8711 66.2576 35.8711 66.5582V77.5131C35.8711 77.8137 35.9884 78.1019 36.1973 78.3145C36.4062 78.527 36.6895 78.6465 36.9848 78.6465H45.1515C45.4468 78.6465 45.7301 78.527 45.939 78.3145C46.1479 78.1019 46.2652 77.8137 46.2652 77.5131V66.5582C46.2652 66.2576 46.1479 65.9693 45.939 65.7568C45.7301 65.5442 45.4468 65.4248 45.1515 65.4248ZM45.5225 77.5131C45.5225 77.5627 45.5129 77.6118 45.4942 77.6576C45.4756 77.7034 45.4483 77.745 45.4138 77.7801C45.3794 77.8151 45.3385 77.8429 45.2934 77.8619C45.2484 77.8809 45.2002 77.8906 45.1515 77.8906H36.9848C36.8864 77.8906 36.7921 77.8509 36.7225 77.7801C36.6529 77.7092 36.6138 77.6132 36.6138 77.5131V66.5582C36.6138 66.458 36.6529 66.362 36.7225 66.2912C36.7921 66.2204 36.8864 66.1806 36.9848 66.1806H45.1515C45.2002 66.1806 45.2484 66.1904 45.2934 66.2094C45.3385 66.2283 45.3794 66.2561 45.4138 66.2912C45.4483 66.3263 45.4756 66.3679 45.4942 66.4137C45.5129 66.4595 45.5225 66.5086 45.5225 66.5582V77.5131Z" fill="#8AD1C0"/>
<path d="M38.4712 70.3354H43.6683C43.8653 70.3354 44.0542 70.2558 44.1935 70.114C44.3328 69.9723 44.411 69.78 44.411 69.5796V68.0693C44.411 67.97 44.3918 67.8718 44.3545 67.7801C44.3172 67.6884 44.2625 67.605 44.1935 67.5348C44.1245 67.4647 44.0426 67.409 43.9525 67.371C43.8624 67.333 43.7658 67.3135 43.6683 67.3135H38.4712C38.3737 67.3135 38.2771 67.333 38.187 67.371C38.0969 67.409 38.015 67.4647 37.9461 67.5348C37.8771 67.605 37.8224 67.6884 37.7851 67.7801C37.7477 67.8718 37.7285 67.97 37.7285 68.0693V69.5802C37.7287 69.7806 37.807 69.9727 37.9463 70.1142C38.0856 70.2558 38.2744 70.3354 38.4712 70.3354ZM38.4712 68.0686H43.6683V69.5796H38.4712V68.0686Z" fill="#8AD1C0"/>
<path d="M39.2117 71.4692H38.0979C37.9994 71.4692 37.905 71.5091 37.8353 71.5799C37.7657 71.6508 37.7266 71.7469 37.7266 71.8471C37.7266 71.9474 37.7657 72.0435 37.8353 72.1144C37.905 72.1852 37.9994 72.2251 38.0979 72.2251H39.2117C39.3102 72.2251 39.4046 72.1852 39.4743 72.1144C39.5439 72.0435 39.583 71.9474 39.583 71.8471C39.583 71.7469 39.5439 71.6508 39.4743 71.5799C39.4046 71.5091 39.3102 71.4692 39.2117 71.4692Z" fill="#8AD1C0"/>
<path d="M39.2117 72.9805H38.0979C37.9994 72.9805 37.905 73.0203 37.8353 73.0912C37.7657 73.162 37.7266 73.2582 37.7266 73.3584C37.7266 73.4586 37.7657 73.5547 37.8353 73.6256C37.905 73.6965 37.9994 73.7363 38.0979 73.7363H39.2117C39.3102 73.7363 39.4046 73.6965 39.4743 73.6256C39.5439 73.5547 39.583 73.4586 39.583 73.3584C39.583 73.2582 39.5439 73.162 39.4743 73.0912C39.4046 73.0203 39.3102 72.9805 39.2117 72.9805Z" fill="#8AD1C0"/>
<path d="M39.2117 74.4912H38.0979C37.9994 74.4912 37.905 74.531 37.8353 74.6019C37.7657 74.6728 37.7266 74.7689 37.7266 74.8691C37.7266 74.9693 37.7657 75.0655 37.8353 75.1363C37.905 75.2072 37.9994 75.247 38.0979 75.247H39.2117C39.3102 75.247 39.4046 75.2072 39.4743 75.1363C39.5439 75.0655 39.583 74.9693 39.583 74.8691C39.583 74.7689 39.5439 74.6728 39.4743 74.6019C39.4046 74.531 39.3102 74.4912 39.2117 74.4912Z" fill="#8AD1C0"/>
<path d="M39.2117 76.002H38.0979C37.9994 76.002 37.905 76.0418 37.8353 76.1126C37.7657 76.1835 37.7266 76.2796 37.7266 76.3799C37.7266 76.4801 37.7657 76.5762 37.8353 76.6471C37.905 76.718 37.9994 76.7578 38.0979 76.7578H39.2117C39.3102 76.7578 39.4046 76.718 39.4743 76.6471C39.5439 76.5762 39.583 76.4801 39.583 76.3799C39.583 76.2796 39.5439 76.1835 39.4743 76.1126C39.4046 76.0418 39.3102 76.002 39.2117 76.002Z" fill="#8AD1C0"/>
<path d="M41.8093 71.4692H40.6956C40.5971 71.4692 40.5026 71.5091 40.433 71.5799C40.3633 71.6508 40.3242 71.7469 40.3242 71.8471C40.3242 71.9474 40.3633 72.0435 40.433 72.1144C40.5026 72.1852 40.5971 72.2251 40.6956 72.2251H41.8093C41.9078 72.2251 42.0023 72.1852 42.0719 72.1144C42.1416 72.0435 42.1807 71.9474 42.1807 71.8471C42.1807 71.7469 42.1416 71.6508 42.0719 71.5799C42.0023 71.5091 41.9078 71.4692 41.8093 71.4692Z" fill="#8AD1C0"/>
<path d="M41.8093 72.9805H40.6956C40.5971 72.9805 40.5026 73.0203 40.433 73.0912C40.3633 73.162 40.3242 73.2582 40.3242 73.3584C40.3242 73.4586 40.3633 73.5547 40.433 73.6256C40.5026 73.6965 40.5971 73.7363 40.6956 73.7363H41.8093C41.9078 73.7363 42.0023 73.6965 42.0719 73.6256C42.1416 73.5547 42.1807 73.4586 42.1807 73.3584C42.1807 73.2582 42.1416 73.162 42.0719 73.0912C42.0023 73.0203 41.9078 72.9805 41.8093 72.9805Z" fill="#8AD1C0"/>
<path d="M41.8093 74.4912H40.6956C40.5971 74.4912 40.5026 74.531 40.433 74.6019C40.3633 74.6728 40.3242 74.7689 40.3242 74.8691C40.3242 74.9693 40.3633 75.0655 40.433 75.1363C40.5026 75.2072 40.5971 75.247 40.6956 75.247H41.8093C41.9078 75.247 42.0023 75.2072 42.0719 75.1363C42.1416 75.0655 42.1807 74.9693 42.1807 74.8691C42.1807 74.7689 42.1416 74.6728 42.0719 74.6019C42.0023 74.531 41.9078 74.4912 41.8093 74.4912Z" fill="#8AD1C0"/>
<path d="M41.8093 76.002H40.6956C40.5971 76.002 40.5026 76.0418 40.433 76.1126C40.3633 76.1835 40.3242 76.2796 40.3242 76.3799C40.3242 76.4801 40.3633 76.5762 40.433 76.6471C40.5026 76.718 40.5971 76.7578 40.6956 76.7578H41.8093C41.9078 76.7578 42.0023 76.718 42.0719 76.6471C42.1416 76.5762 42.1807 76.4801 42.1807 76.3799C42.1807 76.2796 42.1416 76.1835 42.0719 76.1126C42.0023 76.0418 41.9078 76.002 41.8093 76.002Z" fill="#8AD1C0"/>
<path d="M44.409 71.4692H43.2952C43.1967 71.4692 43.1022 71.5091 43.0326 71.5799C42.963 71.6508 42.9238 71.7469 42.9238 71.8471C42.9238 71.9474 42.963 72.0435 43.0326 72.1144C43.1022 72.1852 43.1967 72.2251 43.2952 72.2251H44.409C44.5074 72.2251 44.6019 72.1852 44.6715 72.1144C44.7412 72.0435 44.7803 71.9474 44.7803 71.8471C44.7803 71.7469 44.7412 71.6508 44.6715 71.5799C44.6019 71.5091 44.5074 71.4692 44.409 71.4692Z" fill="#8AD1C0"/>
<path d="M44.409 72.9805H43.2952C43.1967 72.9805 43.1022 73.0203 43.0326 73.0912C42.963 73.162 42.9238 73.2582 42.9238 73.3584C42.9238 73.4586 42.963 73.5547 43.0326 73.6256C43.1022 73.6965 43.1967 73.7363 43.2952 73.7363H44.409C44.5074 73.7363 44.6019 73.6965 44.6715 73.6256C44.7412 73.5547 44.7803 73.4586 44.7803 73.3584C44.7803 73.2582 44.7412 73.162 44.6715 73.0912C44.6019 73.0203 44.5074 72.9805 44.409 72.9805Z" fill="#8AD1C0"/>
<path d="M44.409 74.4912H43.2952C43.1967 74.4912 43.1022 74.531 43.0326 74.6019C42.963 74.6728 42.9238 74.7689 42.9238 74.8691C42.9238 74.9693 42.963 75.0655 43.0326 75.1363C43.1022 75.2072 43.1967 75.247 43.2952 75.247H44.409C44.5074 75.247 44.6019 75.2072 44.6715 75.1363C44.7412 75.0655 44.7803 74.9693 44.7803 74.8691C44.7803 74.7689 44.7412 74.6728 44.6715 74.6019C44.6019 74.531 44.5074 74.4912 44.409 74.4912Z" fill="#8AD1C0"/>
<path d="M44.409 76.002H43.2952C43.1967 76.002 43.1022 76.0418 43.0326 76.1126C42.963 76.1835 42.9238 76.2796 42.9238 76.3799C42.9238 76.4801 42.963 76.5762 43.0326 76.6471C43.1022 76.718 43.1967 76.7578 43.2952 76.7578H44.409C44.5074 76.7578 44.6019 76.718 44.6715 76.6471C44.7412 76.5762 44.7803 76.4801 44.7803 76.3799C44.7803 76.2796 44.7412 76.1835 44.6715 76.1126C44.6019 76.0418 44.5074 76.002 44.409 76.002Z" fill="#8AD1C0"/>
<path d="M34.1759 71.6812H26.7406V61.8338C26.7406 61.7923 26.7326 61.7512 26.717 61.7128C26.7014 61.6744 26.6785 61.6396 26.6496 61.6102C26.6208 61.5808 26.5865 61.5575 26.5488 61.5416C26.5111 61.5258 26.4707 61.5176 26.4299 61.5176C26.3891 61.5176 26.3487 61.5258 26.311 61.5416C26.2733 61.5575 26.239 61.5808 26.2102 61.6102C26.1813 61.6396 26.1584 61.6744 26.1428 61.7128C26.1272 61.7512 26.1191 61.7923 26.1191 61.8338V71.9974C26.1191 72.0813 26.1519 72.1617 26.2102 72.221C26.2684 72.2804 26.3475 72.3137 26.4299 72.3137H34.1759C34.2583 72.3137 34.3374 72.2804 34.3957 72.221C34.4539 72.1617 34.4867 72.0813 34.4867 71.9974C34.4867 71.9136 34.4539 71.8331 34.3957 71.7738C34.3374 71.7145 34.2583 71.6812 34.1759 71.6812Z" fill="#5BCEAE"/>
<path d="M27.674 71.049H28.9378C29.0202 71.049 29.0993 71.0157 29.1575 70.9564C29.2158 70.8971 29.2486 70.8166 29.2486 70.7328V68.8143C29.2486 68.7304 29.2158 68.65 29.1575 68.5907C29.0993 68.5314 29.0202 68.498 28.9378 68.498H27.674C27.5916 68.498 27.5126 68.5314 27.4543 68.5907C27.396 68.65 27.3633 68.7304 27.3633 68.8143V70.7328C27.3633 70.8166 27.396 70.8971 27.4543 70.9564C27.5126 71.0157 27.5916 71.049 27.674 71.049Z" fill="#5BCEAE"/>
<path d="M30.1799 67.2324C30.0975 67.2324 30.0184 67.2657 29.9602 67.325C29.9019 67.3843 29.8691 67.4648 29.8691 67.5486V70.7327C29.8691 70.8166 29.9019 70.8971 29.9602 70.9564C30.0184 71.0157 30.0975 71.049 30.1799 71.049H31.4229C31.5053 71.049 31.5844 71.0157 31.6426 70.9564C31.7009 70.8971 31.7337 70.8166 31.7337 70.7327V67.5486C31.7337 67.4648 31.7009 67.3843 31.6426 67.325C31.5844 67.2657 31.5053 67.2324 31.4229 67.2324H30.1799Z" fill="#5BCEAE"/>
<path d="M32.6662 65.9668C32.5838 65.9668 32.5048 66.0001 32.4465 66.0594C32.3882 66.1187 32.3555 66.1992 32.3555 66.283V70.732C32.3555 70.8159 32.3882 70.8963 32.4465 70.9556C32.5048 71.015 32.5838 71.0483 32.6662 71.0483H33.9092C33.9917 71.0483 34.0707 71.015 34.129 70.9556C34.1872 70.8963 34.22 70.8159 34.22 70.732V66.283C34.22 66.1992 34.1872 66.1187 34.129 66.0594C34.0707 66.0001 33.9917 65.9668 33.9092 65.9668H32.6662Z" fill="#5BCEAE"/>
<path d="M27.4005 67.065C27.4396 67.1388 27.506 67.1939 27.585 67.218C27.6639 67.2421 27.7491 67.2334 27.8217 67.1938L35.0595 63.2409L34.8766 63.6123C34.858 63.6495 34.8468 63.6901 34.8436 63.7317C34.8404 63.7733 34.8454 63.8152 34.8582 63.8549C34.871 63.8945 34.8914 63.9312 34.9182 63.9628C34.9451 63.9944 34.9778 64.0203 35.0144 64.0389C35.0511 64.0576 35.0911 64.0687 35.132 64.0716C35.173 64.0744 35.214 64.069 35.2529 64.0557C35.2918 64.0423 35.3277 64.0213 35.3585 63.9937C35.3893 63.9662 35.4145 63.9327 35.4325 63.8952L36.054 62.6303C36.0781 62.582 36.0896 62.5282 36.0874 62.4741C36.0852 62.42 36.0694 62.3674 36.0415 62.3213C36.0136 62.2752 35.9746 62.2372 35.9281 62.2108C35.8816 62.1845 35.8293 62.1708 35.7761 62.1709H34.2223C34.1399 62.1709 34.0609 62.2042 34.0026 62.2635C33.9443 62.3228 33.9116 62.4033 33.9116 62.4871C33.9116 62.571 33.9443 62.6514 34.0026 62.7107C34.0609 62.77 34.1399 62.8034 34.2223 62.8034H34.5438L27.5271 66.637C27.4911 66.6566 27.4592 66.6833 27.4334 66.7155C27.4075 66.7477 27.3882 66.7848 27.3764 66.8246C27.3647 66.8644 27.3607 66.9062 27.3649 66.9476C27.369 66.9889 27.3811 67.0291 27.4005 67.0657V67.065Z" fill="#5BCEAE"/>
<path d="M34.1759 71.6812H26.7406V61.8338C26.7406 61.7923 26.7326 61.7512 26.717 61.7128C26.7014 61.6744 26.6785 61.6396 26.6496 61.6102C26.6208 61.5808 26.5865 61.5575 26.5488 61.5416C26.5111 61.5258 26.4707 61.5176 26.4299 61.5176C26.3891 61.5176 26.3487 61.5258 26.311 61.5416C26.2733 61.5575 26.239 61.5808 26.2102 61.6102C26.1813 61.6396 26.1584 61.6744 26.1428 61.7128C26.1272 61.7512 26.1191 61.7923 26.1191 61.8338V71.9974C26.1191 72.0813 26.1519 72.1617 26.2102 72.221C26.2684 72.2804 26.3475 72.3137 26.4299 72.3137H34.1759C34.2583 72.3137 34.3374 72.2804 34.3957 72.221C34.4539 72.1617 34.4867 72.0813 34.4867 71.9974C34.4867 71.9136 34.4539 71.8331 34.3957 71.7738C34.3374 71.7145 34.2583 71.6812 34.1759 71.6812Z" fill="#8AD1C0"/>
<path d="M27.674 71.049H28.9378C29.0202 71.049 29.0993 71.0157 29.1575 70.9564C29.2158 70.8971 29.2486 70.8166 29.2486 70.7328V68.8143C29.2486 68.7304 29.2158 68.65 29.1575 68.5907C29.0993 68.5314 29.0202 68.498 28.9378 68.498H27.674C27.5916 68.498 27.5126 68.5314 27.4543 68.5907C27.396 68.65 27.3633 68.7304 27.3633 68.8143V70.7328C27.3633 70.8166 27.396 70.8971 27.4543 70.9564C27.5126 71.0157 27.5916 71.049 27.674 71.049Z" fill="#8AD1C0"/>
<path d="M30.1799 67.2324C30.0975 67.2324 30.0184 67.2657 29.9602 67.325C29.9019 67.3843 29.8691 67.4648 29.8691 67.5486V70.7327C29.8691 70.8166 29.9019 70.8971 29.9602 70.9564C30.0184 71.0157 30.0975 71.049 30.1799 71.049H31.4229C31.5053 71.049 31.5844 71.0157 31.6426 70.9564C31.7009 70.8971 31.7337 70.8166 31.7337 70.7327V67.5486C31.7337 67.4648 31.7009 67.3843 31.6426 67.325C31.5844 67.2657 31.5053 67.2324 31.4229 67.2324H30.1799Z" fill="#8AD1C0"/>
<path d="M32.6662 65.9668C32.5838 65.9668 32.5048 66.0001 32.4465 66.0594C32.3882 66.1187 32.3555 66.1992 32.3555 66.283V70.732C32.3555 70.8159 32.3882 70.8963 32.4465 70.9556C32.5048 71.015 32.5838 71.0483 32.6662 71.0483H33.9092C33.9917 71.0483 34.0707 71.015 34.129 70.9556C34.1872 70.8963 34.22 70.8159 34.22 70.732V66.283C34.22 66.1992 34.1872 66.1187 34.129 66.0594C34.0707 66.0001 33.9917 65.9668 33.9092 65.9668H32.6662Z" fill="#8AD1C0"/>
<path d="M27.4005 67.065C27.4396 67.1388 27.506 67.1939 27.585 67.218C27.6639 67.2421 27.7491 67.2334 27.8217 67.1938L35.0595 63.2409L34.8766 63.6123C34.858 63.6495 34.8468 63.6901 34.8436 63.7317C34.8404 63.7733 34.8454 63.8152 34.8582 63.8549C34.871 63.8945 34.8914 63.9312 34.9182 63.9628C34.9451 63.9944 34.9778 64.0203 35.0144 64.0389C35.0511 64.0576 35.0911 64.0687 35.132 64.0716C35.173 64.0744 35.214 64.069 35.2529 64.0557C35.2918 64.0423 35.3277 64.0213 35.3585 63.9937C35.3893 63.9662 35.4145 63.9327 35.4325 63.8952L36.054 62.6303C36.0781 62.582 36.0896 62.5282 36.0874 62.4741C36.0852 62.42 36.0694 62.3674 36.0415 62.3213C36.0136 62.2752 35.9746 62.2372 35.9281 62.2108C35.8816 62.1845 35.8293 62.1708 35.7761 62.1709H34.2223C34.1399 62.1709 34.0609 62.2042 34.0026 62.2635C33.9443 62.3228 33.9116 62.4033 33.9116 62.4871C33.9116 62.571 33.9443 62.6514 34.0026 62.7107C34.0609 62.77 34.1399 62.8034 34.2223 62.8034H34.5438L27.5271 66.637C27.4911 66.6566 27.4592 66.6833 27.4334 66.7155C27.4075 66.7477 27.3882 66.7848 27.3764 66.8246C27.3647 66.8644 27.3607 66.9062 27.3649 66.9476C27.369 66.9889 27.3811 67.0291 27.4005 67.0657V67.065Z" fill="#8AD1C0"/>
</svg>
