<svg width="54" height="54" viewBox="0 0 54 54" fill="none" xmlns="http://www.w3.org/2000/svg">
<g filter="url(#filter0_d)">
<circle cx="27" cy="23" r="17" transform="rotate(180 27 23)" fill="white"/>
</g>
<path d="M19.6667 21.8501L32.9663 21.8501L27.8737 17.1207C27.607 16.8731 27.5967 16.4617 27.8507 16.2017C28.1043 15.942 28.5263 15.9316 28.7933 16.1792L34.6093 21.5807C34.861 21.8264 35 22.1527 35 22.5001C35 22.8472 34.861 23.1738 34.5977 23.4302L28.793 28.8206C28.664 28.9405 28.4987 29 28.3333 29C28.1573 29 27.9813 28.9324 27.8503 28.7982C27.5963 28.5382 27.6067 28.1271 27.8733 27.8794L32.9873 23.1501L19.6667 23.1501C19.2987 23.1501 19 22.8589 19 22.5001C19 22.1413 19.2987 21.8501 19.6667 21.8501Z" fill="#90A8BE"/>
<defs>
<filter id="filter0_d" x="0" y="0" width="54" height="54" filterUnits="userSpaceOnUse" color-interpolation-filters="sRGB">
<feFlood flood-opacity="0" result="BackgroundImageFix"/>
<feColorMatrix in="SourceAlpha" type="matrix" values="0 0 0 0 0 0 0 0 0 0 0 0 0 0 0 0 0 0 127 0"/>
<feOffset dy="4"/>
<feGaussianBlur stdDeviation="5"/>
<feColorMatrix type="matrix" values="0 0 0 0 0 0 0 0 0 0 0 0 0 0 0 0 0 0 0.11 0"/>
<feBlend mode="normal" in2="BackgroundImageFix" result="effect1_dropShadow"/>
<feBlend mode="normal" in="SourceGraphic" in2="effect1_dropShadow" result="shape"/>
</filter>
</defs>
</svg>
