<svg width="20" height="24" viewBox="0 0 20 24" fill="none" xmlns="http://www.w3.org/2000/svg">
<path fill-rule="evenodd" clip-rule="evenodd" d="M12.5455 20.4417H18.674V11.1841C18.674 6.35421 14.7587 2.43884 9.92882 2.43884C5.09897 2.43884 1.18359 6.35422 1.18359 11.1841V20.4417H7.2559C7.45776 21.9594 8.56503 23.12 9.90072 23.12C11.2364 23.12 12.3437 21.9594 12.5455 20.4417ZM2.37504 19.2503H8.29936L8.43694 20.2846C8.58257 21.3796 9.31866 21.9285 9.90072 21.9285C10.4828 21.9285 11.2189 21.3796 11.3645 20.2846L11.5021 19.2503H17.4826V11.1841C17.4826 7.01223 14.1007 3.63028 9.92882 3.63028C5.75698 3.63028 2.37504 7.01223 2.37504 11.1841V19.2503Z" fill="#085FAB"/>
<path d="M0 19.9428C0 19.5041 0.355618 19.1485 0.794295 19.1485H19.0631C19.5017 19.1485 19.8574 19.5041 19.8574 19.9428C19.8574 20.3815 19.5017 20.7371 19.0631 20.7371H0.794295C0.355618 20.7371 0 20.3815 0 19.9428Z" fill="#085FAB"/>
<path d="M8.73828 2.0712C8.73828 1.41319 9.27171 0.879761 9.92972 0.879761C10.5877 0.879761 11.1212 1.41319 11.1212 2.0712V2.46835H8.73828V2.0712Z" fill="#085FAB"/>
</svg>
