<svg width="35" height="33" viewBox="0 0 35 33" fill="none" xmlns="http://www.w3.org/2000/svg">
<rect width="29" height="29" rx="5" fill="#F5FAFF"/>
<circle cx="29" cy="27" r="6" fill="#085FAB"/>
<path d="M31.8713 25.1084C31.6942 24.9216 31.3989 24.9134 31.2119 25.091L28.2344 27.9148L26.8142 26.4566C26.6343 26.2721 26.3394 26.268 26.1547 26.4479C25.9701 26.6276 25.9662 26.9229 26.146 27.1074L27.8872 28.8952C27.9785 28.9889 28.0997 29.0362 28.2213 29.0362C28.3367 29.0362 28.452 28.9936 28.5424 28.9082L31.8539 25.7677C32.0407 25.5905 32.0486 25.2953 31.8713 25.1084Z" fill="#F5FAFF"/>
<path d="M9.78123 9.93695C11.849 9.93695 13.5312 11.6183 13.5312 13.6849L13.5312 19.2064L11.75 17.4261L11.087 18.0887L14 21L16.9129 18.0887L16.25 17.4261L14.4687 19.2064L14.4687 13.6849C14.4687 11.6183 16.151 9.93695 18.2188 9.93695L20 9.93695L20 9L18.2188 9C16.3656 9 14.7604 10.0804 14 11.644C13.2396 10.0803 11.6344 9 9.78123 9L8 9L8 9.93695L9.78123 9.93695Z" fill="#085FAB"/>
</svg>
