<svg width="18" height="18" viewBox="0 0 18 18" fill="none" xmlns="http://www.w3.org/2000/svg">
<path d="M2.67185 1.40543C5.77351 1.40543 8.29683 3.92748 8.29683 7.0274L8.29683 15.3096L5.62497 12.6392L4.63057 13.6331L8.99993 18L13.3693 13.6331L12.375 12.6392L9.70304 15.3096L9.70304 7.02741C9.70304 3.92748 12.2265 1.40543 15.3281 1.40543L18 1.40543L18 1.90735e-06L15.3281 1.67377e-06C12.5484 1.43076e-06 10.1405 1.62062 8.99993 3.96593C7.85947 1.62048 5.45157 8.1033e-07 2.67185 5.67319e-07L-3.33739e-07 3.33738e-07L-4.56605e-07 1.40543L2.67185 1.40543Z" fill="#085FAB"/>
</svg>
