<svg width="12" height="12" viewBox="0 0 12 12" fill="none" xmlns="http://www.w3.org/2000/svg">
<path d="M1.78123 0.936951C3.84901 0.936951 5.53122 2.61832 5.53122 4.68494L5.53122 10.2064L3.74998 8.42615L3.08705 9.08871L5.99995 12L8.91286 9.08871L8.25002 8.42615L6.46869 10.2064L6.46869 4.68494C6.46869 2.61832 8.15099 0.936951 10.2188 0.936951L12 0.936952L12 9.53674e-07L10.2188 7.97954e-07C8.36562 6.35947e-07 6.76036 1.08041 5.99995 2.64395C5.23964 1.08032 3.63438 2.22328e-07 1.78123 6.03214e-08L9.53989e-08 -9.53991e-08L1.34881e-08 0.936951L1.78123 0.936951Z" fill="#085FAB"/>
</svg>
