<svg width="16" height="16" viewBox="0 0 16 16" fill="none" xmlns="http://www.w3.org/2000/svg">
<path d="M7.92439 4.23261C7.11306 4.23261 0 4.17728 0 2.27184C0 0.366404 7.11306 0.30957 7.92439 0.30957C8.73571 0.30957 15.8488 0.364909 15.8488 2.27034C15.8488 4.17578 8.73571 4.23261 7.92439 4.23261ZM1.04853 2.27034C1.532 2.64126 3.85266 3.25148 7.92439 3.25148C11.9961 3.25148 14.3168 2.64276 14.8002 2.27034C14.3168 1.89943 11.9961 1.28921 7.92439 1.28921C3.85266 1.28921 1.532 1.89943 1.04853 2.27034ZM14.8773 2.34662H14.8833H14.8773Z" fill="black"/>
<path d="M7.92438 8.1541C7.11306 8.1541 0 8.09876 0 6.19333C0 5.92262 0.222094 5.70276 0.495557 5.70276C0.749379 5.70276 0.959387 5.8927 0.988093 6.13649C1.29328 6.49844 3.63811 7.17297 7.92589 7.17297C12.2137 7.17297 14.5585 6.49694 14.8637 6.13649C14.8924 5.8927 15.1009 5.70276 15.3562 5.70276C15.6297 5.70276 15.8518 5.92262 15.8518 6.19333C15.8503 8.10026 8.7357 8.1541 7.92438 8.1541Z" fill="black"/>
<path d="M7.92438 12.0776C7.11306 12.0776 0 12.0223 0 10.1168C0 9.84614 0.222094 9.62628 0.495557 9.62628C0.749379 9.62628 0.959387 9.81623 0.988093 10.06C1.29328 10.422 3.63811 11.0965 7.92589 11.0965C12.2137 11.0965 14.5585 10.4205 14.8637 10.06C14.8924 9.81623 15.1009 9.62628 15.3562 9.62628C15.6297 9.62628 15.8518 9.84614 15.8518 10.1168C15.8503 12.0223 8.7357 12.0776 7.92438 12.0776ZM14.8592 10.1154C14.8592 10.1168 14.8592 10.1168 14.8592 10.1154V10.1154ZM0.989604 10.1154C0.989604 10.1168 0.989604 10.1168 0.989604 10.1154V10.1154Z" fill="black"/>
<path d="M7.92438 16.0003C7.11306 16.0003 0 15.9449 0 14.0395V2.27035C0 1.99964 0.222094 1.77979 0.495557 1.77979C0.76902 1.77979 0.991114 1.99964 0.991114 2.27035V13.9856C1.30839 14.3491 3.65322 15.0191 7.92589 15.0191C12.1986 15.0191 14.5434 14.3491 14.8607 13.9856V2.27035C14.8607 1.99964 15.0828 1.77979 15.3562 1.77979C15.6297 1.77979 15.8518 1.99964 15.8518 2.27035V14.0395C15.8503 15.9449 8.7357 16.0003 7.92438 16.0003Z" fill="black"/>
</svg>
