<svg width="35" height="33" viewBox="0 0 35 33" fill="none" xmlns="http://www.w3.org/2000/svg">
<rect width="29" height="29" rx="5" fill="#F5FAFF"/>
<circle cx="29" cy="27" r="6" fill="#085FAB"/>
<path d="M31.8713 25.1084C31.6942 24.9216 31.3989 24.9134 31.2119 25.091L28.2344 27.9148L26.8142 26.4566C26.6343 26.2721 26.3394 26.268 26.1547 26.4479C25.9701 26.6276 25.9662 26.9229 26.146 27.1074L27.8872 28.8952C27.9785 28.9889 28.0997 29.0362 28.2213 29.0362C28.3367 29.0362 28.452 28.9936 28.5424 28.9082L31.8539 25.7677C32.0407 25.5905 32.0486 25.2953 31.8713 25.1084Z" fill="#F5FAFF"/>
<path d="M8.23865 10.1328C8.28261 10.0218 8.37946 9.94049 8.49629 9.91635C8.61329 9.89216 8.73435 9.92844 8.8187 10.0128L10.6467 11.8408L11.6295 11.6295L11.8408 10.6467L10.0128 8.8187C9.92839 8.73432 9.89216 8.61315 9.9163 8.49631C9.94046 8.37946 10.0218 8.28263 10.1327 8.23862C11.3877 7.74095 12.8154 8.03603 13.7699 8.99045C14.2294 9.44992 14.5449 10.027 14.6823 10.6593C14.7999 11.2003 14.7834 11.7593 14.6357 12.2893L19.514 17.1677C19.8274 17.481 20 17.8977 20 18.3409C20 18.784 19.8274 19.2007 19.514 19.5141C19.2007 19.8274 18.784 20 18.3408 20C17.8977 20 17.481 19.8274 17.1676 19.5141L12.2893 14.6357C11.7593 14.7834 11.2003 14.7999 10.6593 14.6823C10.027 14.5449 9.44989 14.2294 8.99043 13.7699C8.03603 12.8155 7.74095 11.3878 8.23865 10.1328ZM9.49171 13.2687C10.2146 13.9916 11.3052 14.239 12.2702 13.8989C12.3989 13.8536 12.5421 13.8861 12.6386 13.9826L17.6689 19.0128C17.8484 19.1923 18.0871 19.2912 18.3409 19.2912C18.5947 19.2912 18.8334 19.1923 19.0129 19.0128C19.1923 18.8333 19.2912 18.5947 19.2912 18.3409C19.2912 18.087 19.1923 17.8484 19.0128 17.6689L13.9826 12.6386C13.8861 12.5422 13.8536 12.3989 13.8989 12.2702C14.239 11.3053 13.9916 10.2146 13.2687 9.4917C12.7578 8.98077 12.0753 8.70894 11.3797 8.70894C11.2338 8.70894 11.0873 8.72089 10.9417 8.74515L12.4785 10.2819C12.5636 10.367 12.5997 10.4894 12.5744 10.607L12.2744 12.0024C12.2451 12.1386 12.1387 12.245 12.0024 12.2743L10.6071 12.5743C10.4894 12.5996 10.3671 12.5635 10.282 12.4784L8.7452 10.9416C8.6054 11.7812 8.87361 12.6506 9.49171 13.2687Z" fill="#085FAB"/>
<circle cx="18.25" cy="18.25" r="0.25" fill="#085FAB"/>
</svg>
