<svg width="15" height="15" viewBox="0 0 15 15" fill="none" xmlns="http://www.w3.org/2000/svg">
<path d="M7.22681 3.5777C6.4869 3.5777 0 3.52723 0 1.78953C0 0.051831 6.4869 0 7.22681 0C7.96671 0 14.4536 0.050467 14.4536 1.78817C14.4536 3.52587 7.96671 3.5777 7.22681 3.5777ZM0.956226 1.78817C1.39714 2.12643 3.51351 2.68293 7.22681 2.68293C10.9401 2.68293 13.0565 2.1278 13.4974 1.78817C13.0565 1.4499 10.9401 0.893402 7.22681 0.893402C3.51351 0.893402 1.39714 1.4499 0.956226 1.78817ZM13.5677 1.85773H13.5732H13.5677Z" fill="#085FAB"/>
<path d="M7.2268 7.15395C6.4869 7.15395 0 7.10348 0 5.36578C0 5.1189 0.202543 4.9184 0.451933 4.9184C0.683411 4.9184 0.874932 5.09162 0.901111 5.31395C1.17944 5.64403 3.31785 6.25918 7.22818 6.25918C11.1385 6.25918 13.2769 5.64267 13.5552 5.31395C13.5814 5.09162 13.7716 4.9184 14.0044 4.9184C14.2538 4.9184 14.4564 5.1189 14.4564 5.36578C14.455 7.10485 7.96671 7.15395 7.2268 7.15395Z" fill="#085FAB"/>
<path d="M7.2268 10.732C6.4869 10.732 0 10.6815 0 8.94381C0 8.69693 0.202543 8.49643 0.451933 8.49643C0.683411 8.49643 0.874932 8.66965 0.901111 8.89198C1.17944 9.22206 3.31785 9.83722 7.22818 9.83722C11.1385 9.83722 13.2769 9.2207 13.5552 8.89198C13.5814 8.66965 13.7716 8.49643 14.0044 8.49643C14.2538 8.49643 14.4564 8.69693 14.4564 8.94381C14.455 10.6815 7.96671 10.732 7.2268 10.732ZM13.5511 8.94245C13.5511 8.94381 13.5511 8.94381 13.5511 8.94245V8.94245ZM0.90249 8.94245C0.90249 8.94381 0.90249 8.94381 0.90249 8.94245V8.94245Z" fill="#085FAB"/>
<path d="M7.2268 14.3094C6.4869 14.3094 0 14.2589 0 12.5212V1.78811C0 1.54123 0.202543 1.34073 0.451933 1.34073C0.701323 1.34073 0.903867 1.54123 0.903867 1.78811V12.4721C1.19321 12.8036 3.33163 13.4146 7.22818 13.4146C11.1247 13.4146 13.2631 12.8036 13.5525 12.4721V1.78811C13.5525 1.54123 13.755 1.34073 14.0044 1.34073C14.2538 1.34073 14.4564 1.54123 14.4564 1.78811V12.5212C14.455 14.2589 7.96671 14.3094 7.2268 14.3094Z" fill="#085FAB"/>
</svg>
