<svg width="18" height="18" viewBox="0 0 18 18" fill="none" xmlns="http://www.w3.org/2000/svg">
<path fill-rule="evenodd" clip-rule="evenodd" d="M13.0629 4.35453C13.2581 4.54979 13.2581 4.86637 13.0629 5.06164L5.06154 13.063C4.86628 13.2582 4.54969 13.2582 4.35443 13.063C4.15917 12.8677 4.15917 12.5511 4.35443 12.3559L12.3558 4.35453C12.551 4.15927 12.8676 4.15927 13.0629 4.35453Z" fill="#90A8BE"/>
<path fill-rule="evenodd" clip-rule="evenodd" d="M13.0629 13.0625C12.8676 13.2578 12.551 13.2578 12.3558 13.0625L4.35445 5.0612C4.15919 4.86594 4.15919 4.54936 4.35445 4.35409C4.54971 4.15883 4.86629 4.15883 5.06155 4.35409L13.0629 12.3554C13.2582 12.5507 13.2582 12.8673 13.0629 13.0625Z" fill="#90A8BE"/>
</svg>
