<svg width="29" height="29" viewBox="0 0 29 29" fill="none" xmlns="http://www.w3.org/2000/svg">
<rect width="29" height="29" rx="5" fill="#F5FAFF"/>
<g clip-path="url(#clip0)">
<path d="M16.5681 12.4346C16.3741 12.4346 16.2168 12.5918 16.2168 12.7859V19.4252C16.2168 19.6191 16.3741 19.7765 16.5681 19.7765C16.7621 19.7765 16.9194 19.6191 16.9194 19.4252V12.7859C16.9194 12.5918 16.7621 12.4346 16.5681 12.4346Z" fill="#F087A3"/>
<path d="M12.4236 12.4346C12.2295 12.4346 12.0723 12.5918 12.0723 12.7859V19.4252C12.0723 19.6191 12.2295 19.7765 12.4236 19.7765C12.6176 19.7765 12.7748 19.6191 12.7748 19.4252V12.7859C12.7748 12.5918 12.6176 12.4346 12.4236 12.4346Z" fill="#F087A3"/>
<path d="M9.40396 11.4656V20.1206C9.40396 20.6322 9.59154 21.1126 9.91923 21.4573C10.2454 21.8029 10.6993 21.9992 11.1744 22H17.8209C18.2961 21.9992 18.75 21.8029 19.076 21.4573C19.4037 21.1126 19.5913 20.6322 19.5913 20.1206V11.4656C20.2427 11.2927 20.6648 10.6634 20.5776 9.99504C20.4904 9.32677 19.921 8.82688 19.247 8.82674H17.4484V8.38763C17.4505 8.01837 17.3045 7.66379 17.0431 7.40293C16.7817 7.14221 16.4265 6.99703 16.0573 7.00005H12.938C12.5687 6.99703 12.2136 7.14221 11.9522 7.40293C11.6908 7.66379 11.5448 8.01837 11.5468 8.38763V8.82674H9.74825C9.07422 8.82688 8.50489 9.32677 8.41761 9.99504C8.33048 10.6634 8.75257 11.2927 9.40396 11.4656ZM17.8209 21.2974H11.1744C10.5738 21.2974 10.1065 20.7815 10.1065 20.1206V11.4965H18.8887V20.1206C18.8887 20.7815 18.4215 21.2974 17.8209 21.2974ZM12.2494 8.38763C12.2471 8.20471 12.319 8.02866 12.4488 7.89953C12.5784 7.77041 12.7549 7.69946 12.938 7.70262H16.0573C16.2403 7.69946 16.4168 7.77041 16.5465 7.89953C16.6763 8.02852 16.7482 8.20471 16.7459 8.38763V8.82674H12.2494V8.38763ZM9.74825 9.52931H19.247C19.5962 9.52931 19.8793 9.8124 19.8793 10.1616C19.8793 10.5109 19.5962 10.7939 19.247 10.7939H9.74825C9.39902 10.7939 9.11593 10.5109 9.11593 10.1616C9.11593 9.8124 9.39902 9.52931 9.74825 9.52931Z" fill="#F087A3"/>
<path d="M14.4958 12.4346C14.3018 12.4346 14.1445 12.5918 14.1445 12.7859V19.4252C14.1445 19.6191 14.3018 19.7765 14.4958 19.7765C14.6898 19.7765 14.8471 19.6191 14.8471 19.4252V12.7859C14.8471 12.5918 14.6898 12.4346 14.4958 12.4346Z" fill="#F087A3"/>
</g>
<defs>
<clipPath id="clip0">
<rect width="15" height="15" fill="white" transform="translate(7 7)"/>
</clipPath>
</defs>
</svg>
