<svg width="17" height="17" viewBox="0 0 17 17" fill="none" xmlns="http://www.w3.org/2000/svg">
<g clip-path="url(#clip0)">
<path d="M10.8449 6.15918C10.625 6.15918 10.4468 6.3374 10.4468 6.55731V14.0819C10.4468 14.3016 10.625 14.48 10.8449 14.48C11.0648 14.48 11.243 14.3016 11.243 14.0819V6.55731C11.243 6.3374 11.0648 6.15918 10.8449 6.15918Z" fill="#F087A3"/>
<path d="M6.14691 6.15918C5.927 6.15918 5.74878 6.3374 5.74878 6.55731V14.0819C5.74878 14.3016 5.927 14.48 6.14691 14.48C6.36681 14.48 6.54503 14.3016 6.54503 14.0819V6.55731C6.54503 6.3374 6.36681 6.15918 6.14691 6.15918Z" fill="#F087A3"/>
<path d="M2.72327 5.06106V14.87C2.72327 15.4498 2.93586 15.9943 3.30724 16.3849C3.6769 16.7767 4.19136 16.9991 4.72976 17H12.2624C12.801 16.9991 13.3154 16.7767 13.6849 16.3849C14.0563 15.9943 14.2689 15.4498 14.2689 14.87V5.06106C15.0071 4.86511 15.4855 4.15191 15.3868 3.39438C15.2879 2.63701 14.6426 2.07046 13.8787 2.0703H11.8403V1.57265C11.8427 1.15415 11.6772 0.752291 11.3809 0.456652C11.0847 0.161169 10.6822 -0.00336908 10.2637 5.23104e-05H6.72847C6.30997 -0.00336908 5.90749 0.161169 5.61123 0.456652C5.31497 0.752291 5.1495 1.15415 5.15183 1.57265V2.0703H3.11346C2.34956 2.07046 1.70432 2.63701 1.60541 3.39438C1.50666 4.15191 1.98503 4.86511 2.72327 5.06106ZM12.2624 16.2037H4.72976C4.04906 16.2037 3.51952 15.619 3.51952 14.87V5.09606H13.4727V14.87C13.4727 15.619 12.9431 16.2037 12.2624 16.2037ZM5.94808 1.57265C5.94544 1.36534 6.02693 1.16581 6.17405 1.01947C6.32102 0.873129 6.52101 0.792726 6.72847 0.796303H10.2637C10.4712 0.792726 10.6712 0.873129 10.8181 1.01947C10.9652 1.16566 11.0467 1.36534 11.0441 1.57265V2.0703H5.94808V1.57265ZM3.11346 2.86655H13.8787C14.2745 2.86655 14.5953 3.18739 14.5953 3.58318C14.5953 3.97897 14.2745 4.2998 13.8787 4.2998H3.11346C2.71767 4.2998 2.39684 3.97897 2.39684 3.58318C2.39684 3.18739 2.71767 2.86655 3.11346 2.86655Z" fill="#F087A3"/>
<path d="M8.49602 6.15918C8.27612 6.15918 8.0979 6.3374 8.0979 6.55731V14.0819C8.0979 14.3016 8.27612 14.48 8.49602 14.48C8.71593 14.48 8.89415 14.3016 8.89415 14.0819V6.55731C8.89415 6.3374 8.71593 6.15918 8.49602 6.15918Z" fill="#F087A3"/>
</g>
<defs>
<clipPath id="clip0">
<rect width="17" height="17" fill="white"/>
</clipPath>
</defs>
</svg>
