<svg width="14" height="11" viewBox="0 0 14 11" fill="none" xmlns="http://www.w3.org/2000/svg">
<path d="M3.65471 6.39929L1.24753 3.64379L3.65471 0.88829C3.84923 0.665371 3.82654 0.326855 3.60362 0.132156C3.3807 -0.0623643 3.04236 -0.0394961 2.84748 0.183244L0.132369 3.29134C-0.044123 3.49319 -0.044123 3.79454 0.132369 3.99639L2.84751 7.10451C2.9536 7.22561 3.10205 7.28779 3.25138 7.28779C3.37642 7.28779 3.50198 7.24421 3.60362 7.15542C3.82656 6.96072 3.84941 6.62221 3.65471 6.39929Z" fill="#085FAB"/>
<path d="M9.21717 3.10791H0.535878C0.239898 3.10791 0 3.34778 0 3.64379C0 3.93977 0.239898 4.17967 0.535878 4.17967H9.21717C10.7735 4.17967 12.0397 5.44576 12.0397 7.00198C12.0397 8.55819 10.7735 9.82429 9.21717 9.82429H1.2504C0.954419 9.82429 0.714521 10.0642 0.714521 10.3602C0.714521 10.6561 0.954419 10.896 1.2504 10.896H9.21717C11.3643 10.896 13.1114 9.14907 13.1114 7.00198C13.1114 4.85488 11.3645 3.10791 9.21717 3.10791Z" fill="#085FAB"/>
</svg>
