<svg width="255" height="276" viewBox="0 0 255 276" fill="none" xmlns="http://www.w3.org/2000/svg">
<path d="M105.8 194.54C105.8 196.66 105.447 198.627 104.74 200.44C104.047 202.24 103.06 203.8 101.78 205.12C100.5 206.44 98.96 207.473 97.16 208.22C95.36 208.953 93.36 209.32 91.16 209.32C88.9733 209.32 86.98 208.953 85.18 208.22C83.38 207.473 81.8333 206.44 80.54 205.12C79.26 203.8 78.2667 202.24 77.56 200.44C76.8533 198.627 76.5 196.66 76.5 194.54C76.5 192.42 76.8533 190.46 77.56 188.66C78.2667 186.847 79.26 185.28 80.54 183.96C81.8333 182.64 83.38 181.613 85.18 180.88C86.98 180.133 88.9733 179.76 91.16 179.76C92.6267 179.76 94.0067 179.933 95.3 180.28C96.5933 180.613 97.78 181.093 98.86 181.72C99.94 182.333 100.907 183.087 101.76 183.98C102.627 184.86 103.36 185.847 103.96 186.94C104.56 188.033 105.013 189.22 105.32 190.5C105.64 191.78 105.8 193.127 105.8 194.54ZM100.3 194.54C100.3 192.953 100.087 191.533 99.66 190.28C99.2333 189.013 98.6267 187.94 97.84 187.06C97.0533 186.18 96.0933 185.507 94.96 185.04C93.84 184.573 92.5733 184.34 91.16 184.34C89.7467 184.34 88.4733 184.573 87.34 185.04C86.22 185.507 85.26 186.18 84.46 187.06C83.6733 187.94 83.0667 189.013 82.64 190.28C82.2133 191.533 82 192.953 82 194.54C82 196.127 82.2133 197.553 82.64 198.82C83.0667 200.073 83.6733 201.14 84.46 202.02C85.26 202.887 86.22 203.553 87.34 204.02C88.4733 204.487 89.7467 204.72 91.16 204.72C92.5733 204.72 93.84 204.487 94.96 204.02C96.0933 203.553 97.0533 202.887 97.84 202.02C98.6267 201.14 99.2333 200.073 99.66 198.82C100.087 197.553 100.3 196.127 100.3 194.54Z" fill="#085FAB"/>
<path d="M118.59 188.16C120.11 188.16 121.49 188.407 122.73 188.9C123.984 189.393 125.05 190.093 125.93 191C126.824 191.907 127.51 193.013 127.99 194.32C128.47 195.627 128.71 197.087 128.71 198.7C128.71 200.327 128.47 201.793 127.99 203.1C127.51 204.407 126.824 205.52 125.93 206.44C125.05 207.36 123.984 208.067 122.73 208.56C121.49 209.053 120.11 209.3 118.59 209.3C117.057 209.3 115.664 209.053 114.41 208.56C113.157 208.067 112.084 207.36 111.19 206.44C110.31 205.52 109.624 204.407 109.13 203.1C108.65 201.793 108.41 200.327 108.41 198.7C108.41 197.087 108.65 195.627 109.13 194.32C109.624 193.013 110.31 191.907 111.19 191C112.084 190.093 113.157 189.393 114.41 188.9C115.664 188.407 117.057 188.16 118.59 188.16ZM118.59 205.5C120.297 205.5 121.557 204.927 122.37 203.78C123.197 202.633 123.61 200.953 123.61 198.74C123.61 196.527 123.197 194.84 122.37 193.68C121.557 192.52 120.297 191.94 118.59 191.94C116.857 191.94 115.57 192.527 114.73 193.7C113.904 194.86 113.49 196.54 113.49 198.74C113.49 200.94 113.904 202.62 114.73 203.78C115.57 204.927 116.857 205.5 118.59 205.5Z" fill="#085FAB"/>
<path d="M137.419 203.68C137.979 204.36 138.586 204.84 139.239 205.12C139.906 205.4 140.626 205.54 141.399 205.54C142.146 205.54 142.819 205.4 143.419 205.12C144.019 204.84 144.526 204.413 144.939 203.84C145.366 203.267 145.692 202.547 145.919 201.68C146.146 200.8 146.259 199.767 146.259 198.58C146.259 197.38 146.159 196.367 145.959 195.54C145.772 194.7 145.499 194.02 145.139 193.5C144.779 192.98 144.339 192.6 143.819 192.36C143.312 192.12 142.732 192 142.079 192C141.052 192 140.179 192.22 139.459 192.66C138.739 193.087 138.059 193.693 137.419 194.48V203.68ZM137.159 191.28C137.999 190.333 138.952 189.567 140.019 188.98C141.086 188.393 142.339 188.1 143.779 188.1C144.899 188.1 145.919 188.333 146.839 188.8C147.772 189.267 148.572 189.947 149.239 190.84C149.919 191.72 150.439 192.813 150.799 194.12C151.172 195.413 151.359 196.9 151.359 198.58C151.359 200.113 151.152 201.533 150.739 202.84C150.326 204.147 149.732 205.28 148.959 206.24C148.199 207.2 147.272 207.953 146.179 208.5C145.099 209.033 143.886 209.3 142.539 209.3C141.392 209.3 140.412 209.127 139.599 208.78C138.786 208.42 138.059 207.927 137.419 207.3V215.7H132.479V188.48H135.499C136.139 188.48 136.559 188.78 136.759 189.38L137.159 191.28Z" fill="#085FAB"/>
<path d="M167.733 192.48C167.6 192.693 167.46 192.847 167.313 192.94C167.167 193.02 166.98 193.06 166.753 193.06C166.513 193.06 166.253 192.993 165.973 192.86C165.707 192.727 165.393 192.58 165.033 192.42C164.673 192.247 164.26 192.093 163.793 191.96C163.34 191.827 162.8 191.76 162.173 191.76C161.2 191.76 160.433 191.967 159.873 192.38C159.327 192.793 159.053 193.333 159.053 194C159.053 194.44 159.193 194.813 159.473 195.12C159.767 195.413 160.147 195.673 160.613 195.9C161.093 196.127 161.633 196.333 162.233 196.52C162.833 196.693 163.44 196.887 164.053 197.1C164.68 197.313 165.293 197.56 165.893 197.84C166.493 198.107 167.027 198.453 167.493 198.88C167.973 199.293 168.353 199.793 168.633 200.38C168.927 200.967 169.073 201.673 169.073 202.5C169.073 203.487 168.893 204.4 168.533 205.24C168.187 206.067 167.667 206.787 166.973 207.4C166.28 208 165.42 208.473 164.393 208.82C163.38 209.153 162.207 209.32 160.873 209.32C160.167 209.32 159.473 209.253 158.793 209.12C158.127 209 157.48 208.827 156.853 208.6C156.24 208.373 155.667 208.107 155.133 207.8C154.613 207.493 154.153 207.16 153.753 206.8L154.893 204.92C155.04 204.693 155.213 204.52 155.413 204.4C155.613 204.28 155.867 204.22 156.173 204.22C156.48 204.22 156.767 204.307 157.033 204.48C157.313 204.653 157.633 204.84 157.993 205.04C158.353 205.24 158.773 205.427 159.253 205.6C159.747 205.773 160.367 205.86 161.113 205.86C161.7 205.86 162.2 205.793 162.613 205.66C163.04 205.513 163.387 205.327 163.653 205.1C163.933 204.873 164.133 204.613 164.253 204.32C164.387 204.013 164.453 203.7 164.453 203.38C164.453 202.9 164.307 202.507 164.013 202.2C163.733 201.893 163.353 201.627 162.873 201.4C162.407 201.173 161.867 200.973 161.253 200.8C160.653 200.613 160.033 200.413 159.393 200.2C158.767 199.987 158.147 199.74 157.533 199.46C156.933 199.167 156.393 198.8 155.913 198.36C155.447 197.92 155.067 197.38 154.773 196.74C154.493 196.1 154.353 195.327 154.353 194.42C154.353 193.58 154.52 192.78 154.853 192.02C155.187 191.26 155.673 190.6 156.313 190.04C156.967 189.467 157.773 189.013 158.733 188.68C159.707 188.333 160.827 188.16 162.093 188.16C163.507 188.16 164.793 188.393 165.953 188.86C167.113 189.327 168.08 189.94 168.853 190.7L167.733 192.48Z" fill="#085FAB"/>
<path d="M178.312 180.08V191.52C178.312 192.733 178.252 193.927 178.132 195.1C178.012 196.26 177.858 197.493 177.672 198.8H174.312C174.125 197.493 173.972 196.26 173.852 195.1C173.732 193.927 173.672 192.733 173.672 191.52V180.08H178.312ZM172.892 206.28C172.892 205.867 172.965 205.473 173.112 205.1C173.272 204.727 173.485 204.407 173.752 204.14C174.032 203.873 174.358 203.66 174.732 203.5C175.105 203.34 175.505 203.26 175.932 203.26C176.345 203.26 176.738 203.34 177.112 203.5C177.485 203.66 177.805 203.873 178.072 204.14C178.352 204.407 178.572 204.727 178.732 205.1C178.892 205.473 178.972 205.867 178.972 206.28C178.972 206.707 178.892 207.107 178.732 207.48C178.572 207.84 178.352 208.153 178.072 208.42C177.805 208.687 177.485 208.893 177.112 209.04C176.738 209.2 176.345 209.28 175.932 209.28C175.505 209.28 175.105 209.2 174.732 209.04C174.358 208.893 174.032 208.687 173.752 208.42C173.485 208.153 173.272 207.84 173.112 207.48C172.965 207.107 172.892 206.707 172.892 206.28Z" fill="#085FAB"/>
<path d="M73.6792 238.529C74.1232 238.529 74.5102 238.475 74.8402 238.367C75.1702 238.253 75.4432 238.094 75.6592 237.89C75.8812 237.68 76.0462 237.428 76.1542 237.134C76.2622 236.834 76.3162 236.501 76.3162 236.135C76.3162 235.787 76.2622 235.472 76.1542 235.19C76.0462 234.908 75.8842 234.668 75.6682 234.47C75.4522 234.272 75.1792 234.122 74.8492 234.02C74.5192 233.912 74.1292 233.858 73.6792 233.858H71.8702V238.529H73.6792ZM73.6792 231.986C74.5492 231.986 75.3022 232.088 75.9382 232.292C76.5742 232.496 77.0992 232.781 77.5132 233.147C77.9272 233.513 78.2332 233.951 78.4312 234.461C78.6352 234.971 78.7372 235.529 78.7372 236.135C78.7372 236.765 78.6322 237.344 78.4222 237.872C78.2122 238.394 77.8972 238.844 77.4772 239.222C77.0572 239.6 76.5292 239.894 75.8932 240.104C75.2632 240.314 74.5252 240.419 73.6792 240.419H71.8702V245H69.4492V231.986H73.6792Z" fill="#6D6D6D"/>
<path d="M84.8395 241.058C84.1975 241.088 83.6575 241.145 83.2195 241.229C82.7815 241.307 82.4305 241.409 82.1665 241.535C81.9025 241.661 81.7135 241.808 81.5995 241.976C81.4855 242.144 81.4285 242.327 81.4285 242.525C81.4285 242.915 81.5425 243.194 81.7705 243.362C82.0045 243.53 82.3075 243.614 82.6795 243.614C83.1355 243.614 83.5285 243.533 83.8585 243.371C84.1945 243.203 84.5215 242.951 84.8395 242.615V241.058ZM79.7455 237.053C80.8075 236.081 82.0855 235.595 83.5795 235.595C84.1195 235.595 84.6025 235.685 85.0285 235.865C85.4545 236.039 85.8145 236.285 86.1085 236.603C86.4025 236.915 86.6245 237.29 86.7745 237.728C86.9305 238.166 87.0085 238.646 87.0085 239.168V245H86.0005C85.7905 245 85.6285 244.97 85.5145 244.91C85.4005 244.844 85.3105 244.715 85.2445 244.523L85.0465 243.857C84.8125 244.067 84.5845 244.253 84.3625 244.415C84.1405 244.571 83.9095 244.703 83.6695 244.811C83.4295 244.919 83.1715 245 82.8955 245.054C82.6255 245.114 82.3255 245.144 81.9955 245.144C81.6055 245.144 81.2455 245.093 80.9155 244.991C80.5855 244.883 80.3005 244.724 80.0605 244.514C79.8205 244.304 79.6345 244.043 79.5025 243.731C79.3705 243.419 79.3045 243.056 79.3045 242.642C79.3045 242.408 79.3435 242.177 79.4215 241.949C79.4995 241.715 79.6255 241.493 79.7995 241.283C79.9795 241.073 80.2105 240.875 80.4925 240.689C80.7745 240.503 81.1195 240.341 81.5275 240.203C81.9415 240.065 82.4215 239.954 82.9675 239.87C83.5135 239.78 84.1375 239.726 84.8395 239.708V239.168C84.8395 238.55 84.7075 238.094 84.4435 237.8C84.1795 237.5 83.7985 237.35 83.3005 237.35C82.9405 237.35 82.6405 237.392 82.4005 237.476C82.1665 237.56 81.9595 237.656 81.7795 237.764C81.5995 237.866 81.4345 237.959 81.2845 238.043C81.1405 238.127 80.9785 238.169 80.7985 238.169C80.6425 238.169 80.5105 238.13 80.4025 238.052C80.2945 237.968 80.2075 237.872 80.1415 237.764L79.7455 237.053Z" fill="#6D6D6D"/>
<path d="M92.4771 240.158C92.7531 240.158 92.9931 240.122 93.1971 240.05C93.4011 239.972 93.5691 239.867 93.7011 239.735C93.8391 239.603 93.9411 239.444 94.0071 239.258C94.0791 239.072 94.1151 238.868 94.1151 238.646C94.1151 238.19 93.9771 237.83 93.7011 237.566C93.4311 237.296 93.0231 237.161 92.4771 237.161C91.9311 237.161 91.5201 237.296 91.2441 237.566C90.9741 237.83 90.8391 238.19 90.8391 238.646C90.8391 238.862 90.8721 239.063 90.9381 239.249C91.0101 239.435 91.1121 239.597 91.2441 239.735C91.3821 239.867 91.5531 239.972 91.7571 240.05C91.9671 240.122 92.2071 240.158 92.4771 240.158ZM94.9881 245.414C94.9881 245.234 94.9341 245.087 94.8261 244.973C94.7181 244.859 94.5711 244.772 94.3851 244.712C94.1991 244.646 93.9801 244.598 93.7281 244.568C93.4821 244.538 93.2181 244.517 92.9361 244.505C92.6601 244.487 92.3721 244.472 92.0721 244.46C91.7781 244.448 91.4901 244.424 91.2081 244.388C90.9621 244.526 90.7611 244.688 90.6051 244.874C90.4551 245.06 90.3801 245.276 90.3801 245.522C90.3801 245.684 90.4191 245.834 90.4971 245.972C90.5811 246.116 90.7101 246.239 90.8841 246.341C91.0641 246.443 91.2951 246.521 91.5771 246.575C91.8591 246.635 92.2041 246.665 92.6121 246.665C93.0261 246.665 93.3831 246.632 93.6831 246.566C93.9831 246.506 94.2291 246.419 94.4211 246.305C94.6191 246.197 94.7631 246.065 94.8531 245.909C94.9431 245.759 94.9881 245.594 94.9881 245.414ZM97.2021 236.081V236.909C97.2021 237.173 97.0431 237.335 96.7251 237.395L95.8971 237.548C96.0231 237.866 96.0861 238.214 96.0861 238.592C96.0861 239.048 95.9931 239.462 95.8071 239.834C95.6271 240.2 95.3751 240.512 95.0511 240.77C94.7271 241.028 94.3431 241.229 93.8991 241.373C93.4611 241.511 92.9871 241.58 92.4771 241.58C92.2971 241.58 92.1231 241.571 91.9551 241.553C91.7871 241.535 91.6221 241.511 91.4601 241.481C91.1721 241.655 91.0281 241.85 91.0281 242.066C91.0281 242.252 91.1121 242.39 91.2801 242.48C91.4541 242.564 91.6821 242.624 91.9641 242.66C92.2461 242.696 92.5671 242.72 92.9271 242.732C93.2871 242.738 93.6561 242.756 94.0341 242.786C94.4121 242.816 94.7811 242.87 95.1411 242.948C95.5011 243.02 95.8221 243.137 96.1041 243.299C96.3861 243.461 96.6111 243.683 96.7791 243.965C96.9531 244.241 97.0401 244.598 97.0401 245.036C97.0401 245.444 96.9381 245.84 96.7341 246.224C96.5361 246.608 96.2451 246.95 95.8611 247.25C95.4831 247.55 95.0151 247.79 94.4571 247.97C93.9051 248.156 93.2751 248.249 92.5671 248.249C91.8711 248.249 91.2651 248.18 90.7491 248.042C90.2331 247.91 89.8041 247.73 89.4621 247.502C89.1201 247.28 88.8651 247.022 88.6971 246.728C88.5291 246.434 88.4451 246.128 88.4451 245.81C88.4451 245.378 88.5741 245.018 88.8321 244.73C89.0961 244.436 89.4561 244.202 89.9121 244.028C89.6661 243.902 89.4711 243.734 89.3271 243.524C89.1831 243.314 89.1111 243.038 89.1111 242.696C89.1111 242.558 89.1351 242.417 89.1831 242.273C89.2371 242.123 89.3121 241.976 89.4081 241.832C89.5101 241.688 89.6361 241.553 89.7861 241.427C89.9361 241.295 90.1131 241.178 90.3171 241.076C89.8491 240.824 89.4801 240.488 89.2101 240.068C88.9461 239.648 88.8141 239.156 88.8141 238.592C88.8141 238.136 88.9041 237.725 89.0841 237.359C89.2701 236.987 89.5251 236.672 89.8491 236.414C90.1791 236.15 90.5661 235.949 91.0101 235.811C91.4601 235.673 91.9491 235.604 92.4771 235.604C92.8731 235.604 93.2451 235.646 93.5931 235.73C93.9411 235.808 94.2591 235.925 94.5471 236.081H97.2021Z" fill="#6D6D6D"/>
<path d="M104.403 239.321C104.403 239.033 104.361 238.763 104.277 238.511C104.199 238.253 104.079 238.028 103.917 237.836C103.755 237.644 103.548 237.494 103.296 237.386C103.05 237.272 102.762 237.215 102.432 237.215C101.79 237.215 101.283 237.398 100.911 237.764C100.545 238.13 100.311 238.649 100.209 239.321H104.403ZM100.164 240.662C100.2 241.136 100.284 241.547 100.416 241.895C100.548 242.237 100.722 242.522 100.938 242.75C101.154 242.972 101.409 243.14 101.703 243.254C102.003 243.362 102.333 243.416 102.693 243.416C103.053 243.416 103.362 243.374 103.62 243.29C103.884 243.206 104.112 243.113 104.304 243.011C104.502 242.909 104.673 242.816 104.817 242.732C104.967 242.648 105.111 242.606 105.249 242.606C105.435 242.606 105.573 242.675 105.663 242.813L106.302 243.623C106.056 243.911 105.78 244.154 105.474 244.352C105.168 244.544 104.847 244.7 104.511 244.82C104.181 244.934 103.842 245.015 103.494 245.063C103.152 245.111 102.819 245.135 102.495 245.135C101.853 245.135 101.256 245.03 100.704 244.82C100.152 244.604 99.6717 244.289 99.2637 243.875C98.8557 243.455 98.5347 242.939 98.3007 242.327C98.0667 241.709 97.9497 240.995 97.9497 240.185C97.9497 239.555 98.0517 238.964 98.2557 238.412C98.4597 237.854 98.7507 237.371 99.1287 236.963C99.5127 236.549 99.9777 236.222 100.524 235.982C101.076 235.742 101.697 235.622 102.387 235.622C102.969 235.622 103.506 235.715 103.998 235.901C104.49 236.087 104.913 236.36 105.267 236.72C105.621 237.074 105.897 237.512 106.095 238.034C106.299 238.55 106.401 239.141 106.401 239.807C106.401 240.143 106.365 240.371 106.293 240.491C106.221 240.605 106.083 240.662 105.879 240.662H100.164Z" fill="#6D6D6D"/>
<path d="M114.525 236.9C114.711 236.714 114.906 236.543 115.11 236.387C115.32 236.225 115.539 236.09 115.767 235.982C116.001 235.868 116.25 235.781 116.514 235.721C116.778 235.655 117.066 235.622 117.378 235.622C117.882 235.622 118.329 235.709 118.719 235.883C119.109 236.051 119.433 236.291 119.691 236.603C119.955 236.909 120.153 237.278 120.285 237.71C120.423 238.136 120.492 238.607 120.492 239.123V245H118.269V239.123C118.269 238.559 118.14 238.124 117.882 237.818C117.624 237.506 117.231 237.35 116.703 237.35C116.319 237.35 115.959 237.437 115.623 237.611C115.287 237.785 114.969 238.022 114.669 238.322V245H112.446V235.766H113.805C114.093 235.766 114.282 235.901 114.372 236.171L114.525 236.9Z" fill="#6D6D6D"/>
<path d="M126.692 235.622C127.376 235.622 127.997 235.733 128.555 235.955C129.119 236.177 129.599 236.492 129.995 236.9C130.397 237.308 130.706 237.806 130.922 238.394C131.138 238.982 131.246 239.639 131.246 240.365C131.246 241.097 131.138 241.757 130.922 242.345C130.706 242.933 130.397 243.434 129.995 243.848C129.599 244.262 129.119 244.58 128.555 244.802C127.997 245.024 127.376 245.135 126.692 245.135C126.002 245.135 125.375 245.024 124.811 244.802C124.247 244.58 123.764 244.262 123.362 243.848C122.966 243.434 122.657 242.933 122.435 242.345C122.219 241.757 122.111 241.097 122.111 240.365C122.111 239.639 122.219 238.982 122.435 238.394C122.657 237.806 122.966 237.308 123.362 236.9C123.764 236.492 124.247 236.177 124.811 235.955C125.375 235.733 126.002 235.622 126.692 235.622ZM126.692 243.425C127.46 243.425 128.027 243.167 128.393 242.651C128.765 242.135 128.951 241.379 128.951 240.383C128.951 239.387 128.765 238.628 128.393 238.106C128.027 237.584 127.46 237.323 126.692 237.323C125.912 237.323 125.333 237.587 124.955 238.115C124.583 238.637 124.397 239.393 124.397 240.383C124.397 241.373 124.583 242.129 124.955 242.651C125.333 243.167 125.912 243.425 126.692 243.425Z" fill="#6D6D6D"/>
<path d="M135.844 245.144C135.04 245.144 134.422 244.919 133.99 244.469C133.564 244.013 133.351 243.386 133.351 242.588V237.431H132.406C132.286 237.431 132.184 237.392 132.1 237.314C132.016 237.236 131.974 237.119 131.974 236.963V236.081L133.459 235.838L133.927 233.318C133.957 233.198 134.014 233.105 134.098 233.039C134.182 232.973 134.29 232.94 134.422 232.94H135.574V235.847H138.04V237.431H135.574V242.435C135.574 242.723 135.643 242.948 135.781 243.11C135.925 243.272 136.12 243.353 136.366 243.353C136.504 243.353 136.618 243.338 136.708 243.308C136.804 243.272 136.885 243.236 136.951 243.2C137.023 243.164 137.086 243.131 137.14 243.101C137.194 243.065 137.248 243.047 137.302 243.047C137.368 243.047 137.422 243.065 137.464 243.101C137.506 243.131 137.551 243.179 137.599 243.245L138.265 244.325C137.941 244.595 137.569 244.799 137.149 244.937C136.729 245.075 136.294 245.144 135.844 245.144Z" fill="#6D6D6D"/>
<path d="M144.488 245V237.44L143.687 237.314C143.513 237.278 143.372 237.218 143.264 237.134C143.162 237.044 143.111 236.918 143.111 236.756V235.847H144.488V235.163C144.488 234.635 144.566 234.161 144.722 233.741C144.884 233.321 145.112 232.964 145.406 232.67C145.706 232.376 146.069 232.151 146.495 231.995C146.921 231.839 147.401 231.761 147.935 231.761C148.361 231.761 148.757 231.818 149.123 231.932L149.078 233.048C149.072 233.132 149.048 233.201 149.006 233.255C148.964 233.303 148.907 233.342 148.835 233.372C148.769 233.396 148.691 233.414 148.601 233.426C148.511 233.432 148.415 233.435 148.313 233.435C148.049 233.435 147.812 233.465 147.602 233.525C147.398 233.579 147.224 233.678 147.08 233.822C146.936 233.96 146.825 234.146 146.747 234.38C146.675 234.608 146.639 234.893 146.639 235.235V235.847H149.042V237.431H146.711V245H144.488Z" fill="#6D6D6D"/>
<path d="M154.131 235.622C154.815 235.622 155.436 235.733 155.994 235.955C156.558 236.177 157.038 236.492 157.434 236.9C157.836 237.308 158.145 237.806 158.361 238.394C158.577 238.982 158.685 239.639 158.685 240.365C158.685 241.097 158.577 241.757 158.361 242.345C158.145 242.933 157.836 243.434 157.434 243.848C157.038 244.262 156.558 244.58 155.994 244.802C155.436 245.024 154.815 245.135 154.131 245.135C153.441 245.135 152.814 245.024 152.25 244.802C151.686 244.58 151.203 244.262 150.801 243.848C150.405 243.434 150.096 242.933 149.874 242.345C149.658 241.757 149.55 241.097 149.55 240.365C149.55 239.639 149.658 238.982 149.874 238.394C150.096 237.806 150.405 237.308 150.801 236.9C151.203 236.492 151.686 236.177 152.25 235.955C152.814 235.733 153.441 235.622 154.131 235.622ZM154.131 243.425C154.899 243.425 155.466 243.167 155.832 242.651C156.204 242.135 156.39 241.379 156.39 240.383C156.39 239.387 156.204 238.628 155.832 238.106C155.466 237.584 154.899 237.323 154.131 237.323C153.351 237.323 152.772 237.587 152.394 238.115C152.022 238.637 151.836 239.393 151.836 240.383C151.836 241.373 152.022 242.129 152.394 242.651C152.772 243.167 153.351 243.425 154.131 243.425Z" fill="#6D6D6D"/>
<path d="M168.337 235.766V245H166.978C166.684 245 166.498 244.865 166.42 244.595L166.267 243.857C165.889 244.241 165.472 244.553 165.016 244.793C164.56 245.027 164.023 245.144 163.405 245.144C162.901 245.144 162.454 245.06 162.064 244.892C161.68 244.718 161.356 244.475 161.092 244.163C160.828 243.851 160.627 243.482 160.489 243.056C160.357 242.624 160.291 242.15 160.291 241.634V235.766H162.514V241.634C162.514 242.198 162.643 242.636 162.901 242.948C163.165 243.254 163.558 243.407 164.08 243.407C164.464 243.407 164.824 243.323 165.16 243.155C165.496 242.981 165.814 242.744 166.114 242.444V235.766H168.337Z" fill="#6D6D6D"/>
<path d="M172.621 236.9C172.807 236.714 173.002 236.543 173.206 236.387C173.416 236.225 173.635 236.09 173.863 235.982C174.097 235.868 174.346 235.781 174.61 235.721C174.874 235.655 175.162 235.622 175.474 235.622C175.978 235.622 176.425 235.709 176.815 235.883C177.205 236.051 177.529 236.291 177.787 236.603C178.051 236.909 178.249 237.278 178.381 237.71C178.519 238.136 178.588 238.607 178.588 239.123V245H176.365V239.123C176.365 238.559 176.236 238.124 175.978 237.818C175.72 237.506 175.327 237.35 174.799 237.35C174.415 237.35 174.055 237.437 173.719 237.611C173.383 237.785 173.065 238.022 172.765 238.322V245H170.542V235.766H171.901C172.189 235.766 172.378 235.901 172.468 236.171L172.621 236.9Z" fill="#6D6D6D"/>
<path d="M186.498 238.124C186.246 237.818 185.97 237.602 185.67 237.476C185.376 237.35 185.058 237.287 184.716 237.287C184.38 237.287 184.077 237.35 183.807 237.476C183.537 237.602 183.306 237.794 183.114 238.052C182.922 238.304 182.775 238.628 182.673 239.024C182.571 239.414 182.52 239.876 182.52 240.41C182.52 240.95 182.562 241.409 182.646 241.787C182.736 242.159 182.862 242.465 183.024 242.705C183.186 242.939 183.384 243.11 183.618 243.218C183.852 243.32 184.113 243.371 184.401 243.371C184.863 243.371 185.256 243.275 185.58 243.083C185.904 242.891 186.21 242.618 186.498 242.264V238.124ZM188.721 231.626V245H187.362C187.068 245 186.882 244.865 186.804 244.595L186.615 243.704C186.243 244.13 185.814 244.475 185.328 244.739C184.848 245.003 184.287 245.135 183.645 245.135C183.141 245.135 182.679 245.03 182.259 244.82C181.839 244.61 181.476 244.307 181.17 243.911C180.87 243.509 180.636 243.014 180.468 242.426C180.306 241.838 180.225 241.166 180.225 240.41C180.225 239.726 180.318 239.09 180.504 238.502C180.69 237.914 180.957 237.404 181.305 236.972C181.653 236.54 182.07 236.204 182.556 235.964C183.042 235.718 183.588 235.595 184.194 235.595C184.71 235.595 185.151 235.676 185.517 235.838C185.883 236 186.21 236.219 186.498 236.495V231.626H188.721Z" fill="#6D6D6D"/>
<path d="M8.50634 264.11H5.25834V273H3.90734V264.11H0.652344V262.969H8.50634V264.11Z" fill="#6D6D6D"/>
<path d="M10.8308 266.854C11.1341 266.532 11.4701 266.275 11.8388 266.084C12.2074 265.893 12.6321 265.797 13.1128 265.797C13.5001 265.797 13.8408 265.862 14.1348 265.993C14.4334 266.119 14.6808 266.301 14.8768 266.539C15.0774 266.772 15.2291 267.055 15.3318 267.386C15.4344 267.717 15.4858 268.084 15.4858 268.485V273H14.2328V268.485C14.2328 267.948 14.1091 267.533 13.8618 267.239C13.6191 266.94 13.2481 266.791 12.7488 266.791C12.3801 266.791 12.0348 266.88 11.7128 267.057C11.3954 267.234 11.1014 267.475 10.8308 267.778V273H9.57778V262.689H10.8308V266.854Z" fill="#6D6D6D"/>
<path d="M22.1304 268.681C22.1304 268.392 22.0884 268.128 22.0044 267.89C21.9251 267.647 21.8061 267.44 21.6474 267.267C21.4934 267.09 21.3044 266.954 21.0804 266.861C20.8564 266.763 20.6021 266.714 20.3174 266.714C19.7201 266.714 19.2464 266.889 18.8964 267.239C18.5511 267.584 18.3364 268.065 18.2524 268.681H22.1304ZM23.1384 272.006C22.9844 272.193 22.8001 272.356 22.5854 272.496C22.3708 272.631 22.1398 272.743 21.8924 272.832C21.6498 272.921 21.3978 272.986 21.1364 273.028C20.8751 273.075 20.6161 273.098 20.3594 273.098C19.8694 273.098 19.4168 273.016 19.0014 272.853C18.5908 272.685 18.2338 272.442 17.9304 272.125C17.6318 271.803 17.3984 271.406 17.2304 270.935C17.0624 270.464 16.9784 269.922 16.9784 269.311C16.9784 268.816 17.0531 268.354 17.2024 267.925C17.3564 267.496 17.5758 267.125 17.8604 266.812C18.1451 266.495 18.4928 266.247 18.9034 266.07C19.3141 265.888 19.7761 265.797 20.2894 265.797C20.7141 265.797 21.1061 265.869 21.4654 266.014C21.8294 266.154 22.1421 266.359 22.4034 266.63C22.6694 266.896 22.8771 267.227 23.0264 267.624C23.1758 268.016 23.2504 268.464 23.2504 268.968C23.2504 269.164 23.2294 269.295 23.1874 269.36C23.1454 269.425 23.0661 269.458 22.9494 269.458H18.2104C18.2244 269.906 18.2851 270.296 18.3924 270.627C18.5044 270.958 18.6584 271.236 18.8544 271.46C19.0504 271.679 19.2838 271.845 19.5544 271.957C19.8251 272.064 20.1284 272.118 20.4644 272.118C20.7771 272.118 21.0454 272.083 21.2694 272.013C21.4981 271.938 21.6941 271.859 21.8574 271.775C22.0208 271.691 22.1561 271.614 22.2634 271.544C22.3754 271.469 22.4711 271.432 22.5504 271.432C22.6531 271.432 22.7324 271.472 22.7884 271.551L23.1384 272.006Z" fill="#6D6D6D"/>
<path d="M29.6159 271.292C29.8446 271.6 30.0943 271.817 30.3649 271.943C30.6356 272.069 30.9389 272.132 31.2749 272.132C31.9376 272.132 32.4463 271.896 32.8009 271.425C33.1556 270.954 33.3329 270.282 33.3329 269.409C33.3329 268.947 33.2909 268.55 33.2069 268.219C33.1276 267.888 33.0109 267.617 32.8569 267.407C32.7029 267.192 32.5139 267.036 32.2899 266.938C32.0659 266.84 31.8116 266.791 31.5269 266.791C31.1209 266.791 30.7639 266.884 30.4559 267.071C30.1526 267.258 29.8726 267.521 29.6159 267.862V271.292ZM29.5529 267.008C29.8516 266.639 30.1969 266.343 30.5889 266.119C30.9809 265.895 31.4289 265.783 31.9329 265.783C32.3436 265.783 32.7146 265.862 33.0459 266.021C33.3773 266.175 33.6596 266.406 33.8929 266.714C34.1263 267.017 34.3059 267.395 34.4319 267.848C34.5579 268.301 34.6209 268.821 34.6209 269.409C34.6209 269.932 34.5509 270.419 34.4109 270.872C34.2709 271.32 34.0679 271.71 33.8019 272.041C33.5406 272.368 33.2186 272.627 32.8359 272.818C32.4579 273.005 32.0309 273.098 31.5549 273.098C31.1209 273.098 30.7476 273.026 30.4349 272.881C30.1269 272.732 29.8539 272.526 29.6159 272.265V275.401H28.3629V265.909H29.1119C29.2893 265.909 29.3989 265.995 29.4409 266.168L29.5529 267.008Z" fill="#6D6D6D"/>
<path d="M40.0536 269.808C39.4796 269.827 38.9896 269.873 38.5836 269.948C38.1823 270.018 37.8533 270.111 37.5966 270.228C37.3446 270.345 37.1603 270.482 37.0436 270.641C36.9316 270.8 36.8756 270.977 36.8756 271.173C36.8756 271.36 36.9059 271.521 36.9666 271.656C37.0273 271.791 37.1089 271.903 37.2116 271.992C37.3189 272.076 37.4426 272.139 37.5826 272.181C37.7273 272.218 37.8813 272.237 38.0446 272.237C38.2639 272.237 38.4646 272.216 38.6466 272.174C38.8286 272.127 38.9989 272.062 39.1576 271.978C39.3209 271.894 39.4749 271.794 39.6196 271.677C39.7689 271.56 39.9136 271.427 40.0536 271.278V269.808ZM36.0286 266.91C36.4206 266.532 36.8429 266.25 37.2956 266.063C37.7483 265.876 38.2499 265.783 38.8006 265.783C39.1973 265.783 39.5496 265.848 39.8576 265.979C40.1656 266.11 40.4246 266.292 40.6346 266.525C40.8446 266.758 41.0033 267.041 41.1106 267.372C41.2179 267.703 41.2716 268.067 41.2716 268.464V273H40.7186C40.5973 273 40.5039 272.981 40.4386 272.944C40.3733 272.902 40.3219 272.823 40.2846 272.706L40.1446 272.034C39.9579 272.207 39.7759 272.361 39.5986 272.496C39.4213 272.627 39.2346 272.739 39.0386 272.832C38.8426 272.921 38.6326 272.988 38.4086 273.035C38.1893 273.086 37.9443 273.112 37.6736 273.112C37.3983 273.112 37.1393 273.075 36.8966 273C36.6539 272.921 36.4416 272.804 36.2596 272.65C36.0823 272.496 35.9399 272.302 35.8326 272.069C35.7299 271.831 35.6786 271.551 35.6786 271.229C35.6786 270.949 35.7556 270.681 35.9096 270.424C36.0636 270.163 36.3133 269.932 36.6586 269.731C37.0039 269.53 37.4543 269.367 38.0096 269.241C38.5649 269.11 39.2463 269.036 40.0536 269.017V268.464C40.0536 267.913 39.9346 267.498 39.6966 267.218C39.4586 266.933 39.1109 266.791 38.6536 266.791C38.3456 266.791 38.0866 266.831 37.8766 266.91C37.6713 266.985 37.4916 267.071 37.3376 267.169C37.1883 267.262 37.0576 267.349 36.9456 267.428C36.8383 267.503 36.7309 267.54 36.6236 267.54C36.5396 267.54 36.4673 267.519 36.4066 267.477C36.3459 267.43 36.2946 267.374 36.2526 267.309L36.0286 266.91Z" fill="#6D6D6D"/>
<path d="M45.6406 269.535C45.8926 269.535 46.1142 269.5 46.3056 269.43C46.4969 269.36 46.6579 269.262 46.7886 269.136C46.9192 269.01 47.0172 268.861 47.0826 268.688C47.1479 268.511 47.1806 268.317 47.1806 268.107C47.1806 267.673 47.0476 267.328 46.7816 267.071C46.5202 266.814 46.1399 266.686 45.6406 266.686C45.1366 266.686 44.7516 266.814 44.4856 267.071C44.2242 267.328 44.0936 267.673 44.0936 268.107C44.0936 268.317 44.1262 268.511 44.1916 268.688C44.2616 268.861 44.3619 269.01 44.4926 269.136C44.6232 269.262 44.7842 269.36 44.9756 269.43C45.1669 269.5 45.3886 269.535 45.6406 269.535ZM47.8876 273.385C47.8876 273.212 47.8386 273.072 47.7406 272.965C47.6426 272.858 47.5096 272.774 47.3416 272.713C47.1782 272.652 46.9869 272.61 46.7676 272.587C46.5482 272.559 46.3149 272.538 46.0676 272.524C45.8249 272.51 45.5776 272.496 45.3256 272.482C45.0736 272.468 44.8309 272.445 44.5976 272.412C44.3362 272.533 44.1216 272.687 43.9536 272.874C43.7902 273.056 43.7086 273.271 43.7086 273.518C43.7086 273.677 43.7482 273.824 43.8276 273.959C43.9116 274.099 44.0376 274.218 44.2056 274.316C44.3736 274.419 44.5836 274.498 44.8356 274.554C45.0922 274.615 45.3932 274.645 45.7386 274.645C46.0746 274.645 46.3756 274.615 46.6416 274.554C46.9076 274.493 47.1316 274.407 47.3136 274.295C47.5002 274.183 47.6426 274.05 47.7406 273.896C47.8386 273.742 47.8876 273.572 47.8876 273.385ZM49.1546 266.189V266.651C49.1546 266.805 49.0566 266.903 48.8606 266.945L48.0556 267.05C48.2142 267.358 48.2936 267.699 48.2936 268.072C48.2936 268.417 48.2259 268.732 48.0906 269.017C47.9599 269.297 47.7779 269.537 47.5446 269.738C47.3112 269.939 47.0312 270.093 46.7046 270.2C46.3779 270.307 46.0232 270.361 45.6406 270.361C45.3092 270.361 44.9966 270.321 44.7026 270.242C44.5532 270.335 44.4389 270.436 44.3596 270.543C44.2802 270.646 44.2406 270.751 44.2406 270.858C44.2406 271.026 44.3082 271.154 44.4436 271.243C44.5836 271.327 44.7656 271.388 44.9896 271.425C45.2136 271.462 45.4679 271.486 45.7526 271.495C46.0419 271.504 46.3359 271.521 46.6346 271.544C46.9379 271.563 47.2319 271.598 47.5166 271.649C47.8059 271.7 48.0626 271.784 48.2866 271.901C48.5106 272.018 48.6902 272.179 48.8256 272.384C48.9656 272.589 49.0356 272.855 49.0356 273.182C49.0356 273.485 48.9586 273.779 48.8046 274.064C48.6552 274.349 48.4382 274.601 48.1536 274.82C47.8689 275.044 47.5189 275.221 47.1036 275.352C46.6929 275.487 46.2286 275.555 45.7106 275.555C45.1926 275.555 44.7399 275.504 44.3526 275.401C43.9652 275.298 43.6432 275.161 43.3866 274.988C43.1299 274.815 42.9362 274.615 42.8056 274.386C42.6796 274.162 42.6166 273.926 42.6166 273.679C42.6166 273.329 42.7262 273.033 42.9456 272.79C43.1649 272.547 43.4659 272.354 43.8486 272.209C43.6386 272.116 43.4706 271.992 43.3446 271.838C43.2232 271.679 43.1626 271.467 43.1626 271.201C43.1626 271.098 43.1812 270.993 43.2186 270.886C43.2559 270.774 43.3119 270.664 43.3866 270.557C43.4659 270.445 43.5616 270.34 43.6736 270.242C43.7856 270.144 43.9162 270.058 44.0656 269.983C43.7156 269.787 43.4426 269.528 43.2466 269.206C43.0506 268.879 42.9526 268.501 42.9526 268.072C42.9526 267.727 43.0179 267.414 43.1486 267.134C43.2839 266.849 43.4706 266.609 43.7086 266.413C43.9466 266.212 44.2289 266.058 44.5556 265.951C44.8869 265.844 45.2486 265.79 45.6406 265.79C45.9486 265.79 46.2356 265.825 46.5016 265.895C46.7676 265.96 47.0102 266.058 47.2296 266.189H49.1546Z" fill="#6D6D6D"/>
<path d="M55.0796 268.681C55.0796 268.392 55.0376 268.128 54.9536 267.89C54.8743 267.647 54.7553 267.44 54.5966 267.267C54.4426 267.09 54.2536 266.954 54.0296 266.861C53.8056 266.763 53.5513 266.714 53.2666 266.714C52.6693 266.714 52.1956 266.889 51.8456 267.239C51.5003 267.584 51.2856 268.065 51.2016 268.681H55.0796ZM56.0876 272.006C55.9336 272.193 55.7493 272.356 55.5346 272.496C55.32 272.631 55.089 272.743 54.8416 272.832C54.599 272.921 54.347 272.986 54.0856 273.028C53.8243 273.075 53.5653 273.098 53.3086 273.098C52.8186 273.098 52.366 273.016 51.9506 272.853C51.54 272.685 51.183 272.442 50.8796 272.125C50.581 271.803 50.3476 271.406 50.1796 270.935C50.0116 270.464 49.9276 269.922 49.9276 269.311C49.9276 268.816 50.0023 268.354 50.1516 267.925C50.3056 267.496 50.525 267.125 50.8096 266.812C51.0943 266.495 51.442 266.247 51.8526 266.07C52.2633 265.888 52.7253 265.797 53.2386 265.797C53.6633 265.797 54.0553 265.869 54.4146 266.014C54.7786 266.154 55.0913 266.359 55.3526 266.63C55.6186 266.896 55.8263 267.227 55.9756 267.624C56.125 268.016 56.1996 268.464 56.1996 268.968C56.1996 269.164 56.1786 269.295 56.1366 269.36C56.0946 269.425 56.0153 269.458 55.8986 269.458H51.1596C51.1736 269.906 51.2343 270.296 51.3416 270.627C51.4536 270.958 51.6076 271.236 51.8036 271.46C51.9996 271.679 52.233 271.845 52.5036 271.957C52.7743 272.064 53.0776 272.118 53.4136 272.118C53.7263 272.118 53.9946 272.083 54.2186 272.013C54.4473 271.938 54.6433 271.859 54.8066 271.775C54.97 271.691 55.1053 271.614 55.2126 271.544C55.3246 271.469 55.4203 271.432 55.4996 271.432C55.6023 271.432 55.6816 271.472 55.7376 271.551L56.0876 272.006Z" fill="#6D6D6D"/>
<path d="M67.0747 265.909L63.1197 275.093C63.0777 275.186 63.024 275.261 62.9587 275.317C62.898 275.373 62.8024 275.401 62.6717 275.401H61.7477L63.0427 272.587L60.1167 265.909H61.1947C61.302 265.909 61.386 265.937 61.4467 265.993C61.512 266.044 61.5564 266.103 61.5797 266.168L63.4767 270.634C63.5514 270.83 63.6144 271.035 63.6657 271.25C63.731 271.031 63.801 270.823 63.8757 270.627L65.7167 266.168C65.7447 266.093 65.7914 266.033 65.8567 265.986C65.9267 265.935 66.0037 265.909 66.0877 265.909H67.0747Z" fill="#6D6D6D"/>
<path d="M70.973 265.797C71.491 265.797 71.9577 265.883 72.373 266.056C72.7884 266.229 73.143 266.474 73.437 266.791C73.731 267.108 73.955 267.493 74.109 267.946C74.2677 268.394 74.347 268.896 74.347 269.451C74.347 270.011 74.2677 270.515 74.109 270.963C73.955 271.411 73.731 271.794 73.437 272.111C73.143 272.428 72.7884 272.673 72.373 272.846C71.9577 273.014 71.491 273.098 70.973 273.098C70.4504 273.098 69.979 273.014 69.559 272.846C69.1437 272.673 68.789 272.428 68.495 272.111C68.201 271.794 67.9747 271.411 67.816 270.963C67.662 270.515 67.585 270.011 67.585 269.451C67.585 268.896 67.662 268.394 67.816 267.946C67.9747 267.493 68.201 267.108 68.495 266.791C68.789 266.474 69.1437 266.229 69.559 266.056C69.979 265.883 70.4504 265.797 70.973 265.797ZM70.973 272.125C71.673 272.125 72.1957 271.892 72.541 271.425C72.8864 270.954 73.059 270.298 73.059 269.458C73.059 268.613 72.8864 267.955 72.541 267.484C72.1957 267.013 71.673 266.777 70.973 266.777C70.6184 266.777 70.308 266.838 70.042 266.959C69.7807 267.08 69.5614 267.255 69.384 267.484C69.2114 267.713 69.0807 267.995 68.992 268.331C68.908 268.662 68.866 269.038 68.866 269.458C68.866 270.298 69.0387 270.954 69.384 271.425C69.734 271.892 70.2637 272.125 70.973 272.125Z" fill="#6D6D6D"/>
<path d="M81.7584 265.909V273H81.0164C80.8391 273 80.7271 272.914 80.6804 272.741L80.5824 271.978C80.2744 272.319 79.9291 272.594 79.5464 272.804C79.1637 273.009 78.7251 273.112 78.2304 273.112C77.8431 273.112 77.5001 273.049 77.2014 272.923C76.9074 272.792 76.6601 272.61 76.4594 272.377C76.2587 272.144 76.1071 271.861 76.0044 271.53C75.9064 271.199 75.8574 270.832 75.8574 270.431V265.909H77.1034V270.431C77.1034 270.968 77.2247 271.383 77.4674 271.677C77.7147 271.971 78.0904 272.118 78.5944 272.118C78.9631 272.118 79.3061 272.032 79.6234 271.859C79.9454 271.682 80.2417 271.439 80.5124 271.131V265.909H81.7584Z" fill="#6D6D6D"/>
<path d="M88.4991 267.33C88.7231 266.845 88.9984 266.467 89.3251 266.196C89.6517 265.921 90.0507 265.783 90.5221 265.783C90.6714 265.783 90.8137 265.799 90.9491 265.832C91.0891 265.865 91.2127 265.916 91.3201 265.986L91.2291 266.917C91.2011 267.034 91.1311 267.092 91.0191 267.092C90.9537 267.092 90.8581 267.078 90.7321 267.05C90.6061 267.022 90.4637 267.008 90.3051 267.008C90.0811 267.008 89.8804 267.041 89.7031 267.106C89.5304 267.171 89.3741 267.269 89.2341 267.4C89.0987 267.526 88.9751 267.685 88.8631 267.876C88.7557 268.063 88.6577 268.277 88.5691 268.52V273H87.3161V265.909H88.0301C88.1654 265.909 88.2587 265.935 88.3101 265.986C88.3614 266.037 88.3964 266.126 88.4151 266.252L88.4991 267.33Z" fill="#6D6D6D"/>
<path d="M96.8746 268.681C96.8746 268.392 96.8326 268.128 96.7486 267.89C96.6692 267.647 96.5502 267.44 96.3916 267.267C96.2376 267.09 96.0486 266.954 95.8246 266.861C95.6006 266.763 95.3462 266.714 95.0616 266.714C94.4642 266.714 93.9906 266.889 93.6406 267.239C93.2952 267.584 93.0806 268.065 92.9966 268.681H96.8746ZM97.8826 272.006C97.7286 272.193 97.5442 272.356 97.3296 272.496C97.1149 272.631 96.8839 272.743 96.6366 272.832C96.3939 272.921 96.1419 272.986 95.8806 273.028C95.6192 273.075 95.3602 273.098 95.1036 273.098C94.6136 273.098 94.1609 273.016 93.7456 272.853C93.3349 272.685 92.9779 272.442 92.6746 272.125C92.3759 271.803 92.1426 271.406 91.9746 270.935C91.8066 270.464 91.7226 269.922 91.7226 269.311C91.7226 268.816 91.7972 268.354 91.9466 267.925C92.1006 267.496 92.3199 267.125 92.6046 266.812C92.8892 266.495 93.2369 266.247 93.6476 266.07C94.0582 265.888 94.5202 265.797 95.0336 265.797C95.4582 265.797 95.8502 265.869 96.2096 266.014C96.5736 266.154 96.8862 266.359 97.1476 266.63C97.4136 266.896 97.6212 267.227 97.7706 267.624C97.9199 268.016 97.9946 268.464 97.9946 268.968C97.9946 269.164 97.9736 269.295 97.9316 269.36C97.8896 269.425 97.8102 269.458 97.6936 269.458H92.9546C92.9686 269.906 93.0292 270.296 93.1366 270.627C93.2486 270.958 93.4026 271.236 93.5986 271.46C93.7946 271.679 94.0279 271.845 94.2986 271.957C94.5692 272.064 94.8726 272.118 95.2086 272.118C95.5212 272.118 95.7896 272.083 96.0136 272.013C96.2422 271.938 96.4382 271.859 96.6016 271.775C96.7649 271.691 96.9002 271.614 97.0076 271.544C97.1196 271.469 97.2152 271.432 97.2946 271.432C97.3972 271.432 97.4766 271.472 97.5326 271.551L97.8826 272.006Z" fill="#6D6D6D"/>
<path d="M104.145 267.589C103.921 267.29 103.671 267.078 103.396 266.952C103.121 266.821 102.815 266.756 102.479 266.756C101.821 266.756 101.315 266.992 100.96 267.463C100.605 267.934 100.428 268.606 100.428 269.479C100.428 269.941 100.468 270.338 100.547 270.669C100.626 270.996 100.743 271.266 100.897 271.481C101.051 271.691 101.24 271.845 101.464 271.943C101.688 272.041 101.942 272.09 102.227 272.09C102.638 272.09 102.995 271.997 103.298 271.81C103.606 271.623 103.888 271.36 104.145 271.019V267.589ZM105.391 265.909V275.401H104.145V271.943C103.851 272.288 103.513 272.568 103.13 272.783C102.747 272.993 102.311 273.098 101.821 273.098C101.415 273.098 101.046 273.021 100.715 272.867C100.384 272.708 100.101 272.477 99.868 272.174C99.6347 271.871 99.455 271.493 99.329 271.04C99.203 270.587 99.14 270.067 99.14 269.479C99.14 268.956 99.21 268.471 99.35 268.023C99.49 267.57 99.6907 267.178 99.952 266.847C100.213 266.516 100.533 266.257 100.911 266.07C101.294 265.879 101.723 265.783 102.199 265.783C102.661 265.783 103.053 265.865 103.375 266.028C103.697 266.191 103.982 266.42 104.229 266.714L104.313 266.168C104.36 265.995 104.472 265.909 104.649 265.909H105.391Z" fill="#6D6D6D"/>
<path d="M113.19 265.909V273H112.448C112.271 273 112.159 272.914 112.112 272.741L112.014 271.978C111.706 272.319 111.361 272.594 110.978 272.804C110.595 273.009 110.157 273.112 109.662 273.112C109.275 273.112 108.932 273.049 108.633 272.923C108.339 272.792 108.092 272.61 107.891 272.377C107.69 272.144 107.539 271.861 107.436 271.53C107.338 271.199 107.289 270.832 107.289 270.431V265.909H108.535V270.431C108.535 270.968 108.656 271.383 108.899 271.677C109.146 271.971 109.522 272.118 110.026 272.118C110.395 272.118 110.738 272.032 111.055 271.859C111.377 271.682 111.673 271.439 111.944 271.131V265.909H113.19Z" fill="#6D6D6D"/>
<path d="M119.912 268.681C119.912 268.392 119.87 268.128 119.786 267.89C119.706 267.647 119.587 267.44 119.429 267.267C119.275 267.09 119.086 266.954 118.862 266.861C118.638 266.763 118.383 266.714 118.099 266.714C117.501 266.714 117.028 266.889 116.678 267.239C116.332 267.584 116.118 268.065 116.034 268.681H119.912ZM120.92 272.006C120.766 272.193 120.581 272.356 120.367 272.496C120.152 272.631 119.921 272.743 119.674 272.832C119.431 272.921 119.179 272.986 118.918 273.028C118.656 273.075 118.397 273.098 118.141 273.098C117.651 273.098 117.198 273.016 116.783 272.853C116.372 272.685 116.015 272.442 115.712 272.125C115.413 271.803 115.18 271.406 115.012 270.935C114.844 270.464 114.76 269.922 114.76 269.311C114.76 268.816 114.834 268.354 114.984 267.925C115.138 267.496 115.357 267.125 115.642 266.812C115.926 266.495 116.274 266.247 116.685 266.07C117.095 265.888 117.557 265.797 118.071 265.797C118.495 265.797 118.887 265.869 119.247 266.014C119.611 266.154 119.923 266.359 120.185 266.63C120.451 266.896 120.658 267.227 120.808 267.624C120.957 268.016 121.032 268.464 121.032 268.968C121.032 269.164 121.011 269.295 120.969 269.36C120.927 269.425 120.847 269.458 120.731 269.458H115.992C116.006 269.906 116.066 270.296 116.174 270.627C116.286 270.958 116.44 271.236 116.636 271.46C116.832 271.679 117.065 271.845 117.336 271.957C117.606 272.064 117.91 272.118 118.246 272.118C118.558 272.118 118.827 272.083 119.051 272.013C119.279 271.938 119.475 271.859 119.639 271.775C119.802 271.691 119.937 271.614 120.045 271.544C120.157 271.469 120.252 271.432 120.332 271.432C120.434 271.432 120.514 271.472 120.57 271.551L120.92 272.006Z" fill="#6D6D6D"/>
<path d="M126.692 267.078C126.636 267.181 126.55 267.232 126.433 267.232C126.363 267.232 126.284 267.206 126.195 267.155C126.106 267.104 125.997 267.048 125.866 266.987C125.74 266.922 125.588 266.863 125.411 266.812C125.234 266.756 125.024 266.728 124.781 266.728C124.571 266.728 124.382 266.756 124.214 266.812C124.046 266.863 123.901 266.936 123.78 267.029C123.663 267.122 123.572 267.232 123.507 267.358C123.446 267.479 123.416 267.612 123.416 267.757C123.416 267.939 123.467 268.091 123.57 268.212C123.677 268.333 123.817 268.438 123.99 268.527C124.163 268.616 124.359 268.695 124.578 268.765C124.797 268.83 125.021 268.903 125.25 268.982C125.483 269.057 125.71 269.141 125.929 269.234C126.148 269.327 126.344 269.444 126.517 269.584C126.69 269.724 126.827 269.897 126.93 270.102C127.037 270.303 127.091 270.545 127.091 270.83C127.091 271.157 127.033 271.46 126.916 271.74C126.799 272.015 126.627 272.256 126.398 272.461C126.169 272.662 125.889 272.82 125.558 272.937C125.227 273.054 124.844 273.112 124.41 273.112C123.915 273.112 123.467 273.033 123.066 272.874C122.665 272.711 122.324 272.503 122.044 272.251L122.338 271.775C122.375 271.714 122.42 271.668 122.471 271.635C122.522 271.602 122.588 271.586 122.667 271.586C122.751 271.586 122.84 271.619 122.933 271.684C123.026 271.749 123.138 271.822 123.269 271.901C123.404 271.98 123.568 272.053 123.759 272.118C123.95 272.183 124.188 272.216 124.473 272.216C124.716 272.216 124.928 272.186 125.11 272.125C125.292 272.06 125.444 271.973 125.565 271.866C125.686 271.759 125.775 271.635 125.831 271.495C125.892 271.355 125.922 271.206 125.922 271.047C125.922 270.851 125.868 270.69 125.761 270.564C125.658 270.433 125.521 270.324 125.348 270.235C125.175 270.142 124.977 270.062 124.753 269.997C124.534 269.927 124.307 269.855 124.074 269.78C123.845 269.705 123.619 269.621 123.395 269.528C123.176 269.43 122.98 269.309 122.807 269.164C122.634 269.019 122.494 268.842 122.387 268.632C122.284 268.417 122.233 268.158 122.233 267.855C122.233 267.584 122.289 267.325 122.401 267.078C122.513 266.826 122.676 266.607 122.891 266.42C123.106 266.229 123.369 266.077 123.682 265.965C123.995 265.853 124.352 265.797 124.753 265.797C125.22 265.797 125.637 265.872 126.006 266.021C126.379 266.166 126.701 266.366 126.972 266.623L126.692 267.078Z" fill="#6D6D6D"/>
<path d="M130.796 273.112C130.236 273.112 129.804 272.956 129.501 272.643C129.202 272.33 129.053 271.88 129.053 271.292V266.952H128.199C128.124 266.952 128.061 266.931 128.01 266.889C127.958 266.842 127.933 266.772 127.933 266.679V266.182L129.095 266.035L129.382 263.844C129.396 263.774 129.426 263.718 129.473 263.676C129.524 263.629 129.589 263.606 129.669 263.606H130.299V266.049H132.35V266.952H130.299V271.208C130.299 271.507 130.371 271.728 130.516 271.873C130.66 272.018 130.847 272.09 131.076 272.09C131.206 272.09 131.318 272.074 131.412 272.041C131.51 272.004 131.594 271.964 131.664 271.922C131.734 271.88 131.792 271.843 131.839 271.81C131.89 271.773 131.934 271.754 131.972 271.754C132.037 271.754 132.095 271.794 132.147 271.873L132.511 272.468C132.296 272.669 132.037 272.827 131.734 272.944C131.43 273.056 131.118 273.112 130.796 273.112Z" fill="#6D6D6D"/>
<path d="M138.341 268.681C138.341 268.392 138.299 268.128 138.215 267.89C138.136 267.647 138.017 267.44 137.858 267.267C137.704 267.09 137.515 266.954 137.291 266.861C137.067 266.763 136.813 266.714 136.528 266.714C135.931 266.714 135.457 266.889 135.107 267.239C134.762 267.584 134.547 268.065 134.463 268.681H138.341ZM139.349 272.006C139.195 272.193 139.011 272.356 138.796 272.496C138.582 272.631 138.351 272.743 138.103 272.832C137.861 272.921 137.609 272.986 137.347 273.028C137.086 273.075 136.827 273.098 136.57 273.098C136.08 273.098 135.628 273.016 135.212 272.853C134.802 272.685 134.445 272.442 134.141 272.125C133.843 271.803 133.609 271.406 133.441 270.935C133.273 270.464 133.189 269.922 133.189 269.311C133.189 268.816 133.264 268.354 133.413 267.925C133.567 267.496 133.787 267.125 134.071 266.812C134.356 266.495 134.704 266.247 135.114 266.07C135.525 265.888 135.987 265.797 136.5 265.797C136.925 265.797 137.317 265.869 137.676 266.014C138.04 266.154 138.353 266.359 138.614 266.63C138.88 266.896 139.088 267.227 139.237 267.624C139.387 268.016 139.461 268.464 139.461 268.968C139.461 269.164 139.44 269.295 139.398 269.36C139.356 269.425 139.277 269.458 139.16 269.458H134.421C134.435 269.906 134.496 270.296 134.603 270.627C134.715 270.958 134.869 271.236 135.065 271.46C135.261 271.679 135.495 271.845 135.765 271.957C136.036 272.064 136.339 272.118 136.675 272.118C136.988 272.118 137.256 272.083 137.48 272.013C137.709 271.938 137.905 271.859 138.068 271.775C138.232 271.691 138.367 271.614 138.474 271.544C138.586 271.469 138.682 271.432 138.761 271.432C138.864 271.432 138.943 271.472 138.999 271.551L139.349 272.006Z" fill="#6D6D6D"/>
<path d="M145.612 267.596C145.378 267.283 145.126 267.066 144.856 266.945C144.585 266.819 144.282 266.756 143.946 266.756C143.288 266.756 142.781 266.992 142.427 267.463C142.072 267.934 141.895 268.606 141.895 269.479C141.895 269.941 141.935 270.338 142.014 270.669C142.093 270.996 142.21 271.266 142.364 271.481C142.518 271.691 142.707 271.845 142.931 271.943C143.155 272.041 143.409 272.09 143.694 272.09C144.104 272.09 144.462 271.997 144.765 271.81C145.073 271.623 145.355 271.36 145.612 271.019V267.596ZM146.858 262.689V273H146.116C145.939 273 145.826 272.914 145.78 272.741L145.668 271.88C145.365 272.244 145.019 272.538 144.632 272.762C144.245 272.986 143.797 273.098 143.288 273.098C142.882 273.098 142.513 273.021 142.182 272.867C141.851 272.708 141.568 272.477 141.335 272.174C141.102 271.871 140.922 271.493 140.796 271.04C140.67 270.587 140.607 270.067 140.607 269.479C140.607 268.956 140.677 268.471 140.817 268.023C140.957 267.57 141.158 267.178 141.419 266.847C141.68 266.516 142 266.257 142.378 266.07C142.76 265.879 143.19 265.783 143.666 265.783C144.1 265.783 144.471 265.858 144.779 266.007C145.092 266.152 145.369 266.355 145.612 266.616V262.689H146.858Z" fill="#6D6D6D"/>
<path d="M157.343 267.169C157.306 267.22 157.268 267.26 157.231 267.288C157.194 267.316 157.142 267.33 157.077 267.33C157.007 267.33 156.93 267.302 156.846 267.246C156.762 267.185 156.657 267.12 156.531 267.05C156.41 266.98 156.258 266.917 156.076 266.861C155.899 266.8 155.679 266.77 155.418 266.77C155.068 266.77 154.76 266.833 154.494 266.959C154.228 267.08 154.004 267.258 153.822 267.491C153.645 267.724 153.509 268.007 153.416 268.338C153.327 268.669 153.283 269.04 153.283 269.451C153.283 269.88 153.332 270.263 153.43 270.599C153.528 270.93 153.666 271.21 153.843 271.439C154.025 271.663 154.242 271.836 154.494 271.957C154.751 272.074 155.038 272.132 155.355 272.132C155.658 272.132 155.908 272.097 156.104 272.027C156.3 271.952 156.461 271.871 156.587 271.782C156.718 271.693 156.825 271.614 156.909 271.544C156.998 271.469 157.084 271.432 157.168 271.432C157.271 271.432 157.35 271.472 157.406 271.551L157.756 272.006C157.602 272.197 157.427 272.361 157.231 272.496C157.035 272.631 156.823 272.746 156.594 272.839C156.37 272.928 156.134 272.993 155.887 273.035C155.64 273.077 155.388 273.098 155.131 273.098C154.688 273.098 154.275 273.016 153.892 272.853C153.514 272.69 153.185 272.454 152.905 272.146C152.625 271.833 152.406 271.451 152.247 270.998C152.088 270.545 152.009 270.03 152.009 269.451C152.009 268.924 152.081 268.436 152.226 267.988C152.375 267.54 152.59 267.155 152.87 266.833C153.155 266.506 153.502 266.252 153.913 266.07C154.328 265.888 154.804 265.797 155.341 265.797C155.84 265.797 156.279 265.879 156.657 266.042C157.04 266.201 157.378 266.427 157.672 266.721L157.343 267.169Z" fill="#6D6D6D"/>
<path d="M162.936 269.808C162.362 269.827 161.872 269.873 161.466 269.948C161.065 270.018 160.736 270.111 160.479 270.228C160.227 270.345 160.043 270.482 159.926 270.641C159.814 270.8 159.758 270.977 159.758 271.173C159.758 271.36 159.789 271.521 159.849 271.656C159.91 271.791 159.992 271.903 160.094 271.992C160.202 272.076 160.325 272.139 160.465 272.181C160.61 272.218 160.764 272.237 160.927 272.237C161.147 272.237 161.347 272.216 161.529 272.174C161.711 272.127 161.882 272.062 162.04 271.978C162.204 271.894 162.358 271.794 162.502 271.677C162.652 271.56 162.796 271.427 162.936 271.278V269.808ZM158.911 266.91C159.303 266.532 159.726 266.25 160.178 266.063C160.631 265.876 161.133 265.783 161.683 265.783C162.08 265.783 162.432 265.848 162.74 265.979C163.048 266.11 163.307 266.292 163.517 266.525C163.727 266.758 163.886 267.041 163.993 267.372C164.101 267.703 164.154 268.067 164.154 268.464V273H163.601C163.48 273 163.387 272.981 163.321 272.944C163.256 272.902 163.205 272.823 163.167 272.706L163.027 272.034C162.841 272.207 162.659 272.361 162.481 272.496C162.304 272.627 162.117 272.739 161.921 272.832C161.725 272.921 161.515 272.988 161.291 273.035C161.072 273.086 160.827 273.112 160.556 273.112C160.281 273.112 160.022 273.075 159.779 273C159.537 272.921 159.324 272.804 159.142 272.65C158.965 272.496 158.823 272.302 158.715 272.069C158.613 271.831 158.561 271.551 158.561 271.229C158.561 270.949 158.638 270.681 158.792 270.424C158.946 270.163 159.196 269.932 159.541 269.731C159.887 269.53 160.337 269.367 160.892 269.241C161.448 269.11 162.129 269.036 162.936 269.017V268.464C162.936 267.913 162.817 267.498 162.579 267.218C162.341 266.933 161.994 266.791 161.536 266.791C161.228 266.791 160.969 266.831 160.759 266.91C160.554 266.985 160.374 267.071 160.22 267.169C160.071 267.262 159.94 267.349 159.828 267.428C159.721 267.503 159.614 267.54 159.506 267.54C159.422 267.54 159.35 267.519 159.289 267.477C159.229 267.43 159.177 267.374 159.135 267.309L158.911 266.91Z" fill="#6D6D6D"/>
<path d="M167.228 266.938C167.382 266.765 167.546 266.609 167.718 266.469C167.891 266.329 168.073 266.21 168.264 266.112C168.46 266.009 168.666 265.932 168.88 265.881C169.1 265.825 169.335 265.797 169.587 265.797C169.975 265.797 170.315 265.862 170.609 265.993C170.908 266.119 171.155 266.301 171.351 266.539C171.552 266.772 171.704 267.055 171.806 267.386C171.909 267.717 171.96 268.084 171.96 268.485V273H170.707V268.485C170.707 267.948 170.584 267.533 170.336 267.239C170.094 266.94 169.723 266.791 169.223 266.791C168.855 266.791 168.509 266.88 168.187 267.057C167.87 267.234 167.576 267.475 167.305 267.778V273H166.052V265.909H166.801C166.979 265.909 167.088 265.995 167.13 266.168L167.228 266.938Z" fill="#6D6D6D"/>
<path d="M178.617 266.938C178.771 266.765 178.934 266.609 179.107 266.469C179.28 266.329 179.462 266.21 179.653 266.112C179.849 266.009 180.054 265.932 180.269 265.881C180.488 265.825 180.724 265.797 180.976 265.797C181.363 265.797 181.704 265.862 181.998 265.993C182.297 266.119 182.544 266.301 182.74 266.539C182.941 266.772 183.092 267.055 183.195 267.386C183.298 267.717 183.349 268.084 183.349 268.485V273H182.096V268.485C182.096 267.948 181.972 267.533 181.725 267.239C181.482 266.94 181.111 266.791 180.612 266.791C180.243 266.791 179.898 266.88 179.576 267.057C179.259 267.234 178.965 267.475 178.694 267.778V273H177.441V265.909H178.19C178.367 265.909 178.477 265.995 178.519 266.168L178.617 266.938Z" fill="#6D6D6D"/>
<path d="M188.237 265.797C188.755 265.797 189.221 265.883 189.637 266.056C190.052 266.229 190.407 266.474 190.701 266.791C190.995 267.108 191.219 267.493 191.373 267.946C191.531 268.394 191.611 268.896 191.611 269.451C191.611 270.011 191.531 270.515 191.373 270.963C191.219 271.411 190.995 271.794 190.701 272.111C190.407 272.428 190.052 272.673 189.637 272.846C189.221 273.014 188.755 273.098 188.237 273.098C187.714 273.098 187.243 273.014 186.823 272.846C186.407 272.673 186.053 272.428 185.759 272.111C185.465 271.794 185.238 271.411 185.08 270.963C184.926 270.515 184.849 270.011 184.849 269.451C184.849 268.896 184.926 268.394 185.08 267.946C185.238 267.493 185.465 267.108 185.759 266.791C186.053 266.474 186.407 266.229 186.823 266.056C187.243 265.883 187.714 265.797 188.237 265.797ZM188.237 272.125C188.937 272.125 189.459 271.892 189.805 271.425C190.15 270.954 190.323 270.298 190.323 269.458C190.323 268.613 190.15 267.955 189.805 267.484C189.459 267.013 188.937 266.777 188.237 266.777C187.882 266.777 187.572 266.838 187.306 266.959C187.044 267.08 186.825 267.255 186.648 267.484C186.475 267.713 186.344 267.995 186.256 268.331C186.172 268.662 186.13 269.038 186.13 269.458C186.13 270.298 186.302 270.954 186.648 271.425C186.998 271.892 187.527 272.125 188.237 272.125Z" fill="#6D6D6D"/>
<path d="M195.245 273.112C194.685 273.112 194.253 272.956 193.95 272.643C193.651 272.33 193.502 271.88 193.502 271.292V266.952H192.648C192.573 266.952 192.51 266.931 192.459 266.889C192.408 266.842 192.382 266.772 192.382 266.679V266.182L193.544 266.035L193.831 263.844C193.845 263.774 193.875 263.718 193.922 263.676C193.973 263.629 194.039 263.606 194.118 263.606H194.748V266.049H196.799V266.952H194.748V271.208C194.748 271.507 194.82 271.728 194.965 271.873C195.11 272.018 195.296 272.09 195.525 272.09C195.656 272.09 195.768 272.074 195.861 272.041C195.959 272.004 196.043 271.964 196.113 271.922C196.183 271.88 196.241 271.843 196.288 271.81C196.339 271.773 196.384 271.754 196.421 271.754C196.486 271.754 196.545 271.794 196.596 271.873L196.96 272.468C196.745 272.669 196.486 272.827 196.183 272.944C195.88 273.056 195.567 273.112 195.245 273.112Z" fill="#6D6D6D"/>
<path d="M202.921 271.292C203.149 271.6 203.399 271.817 203.67 271.943C203.945 272.069 204.246 272.132 204.573 272.132C205.24 272.132 205.751 271.896 206.106 271.425C206.46 270.954 206.638 270.251 206.638 269.318C206.638 268.45 206.479 267.813 206.162 267.407C205.849 266.996 205.401 266.791 204.818 266.791C204.412 266.791 204.057 266.884 203.754 267.071C203.455 267.258 203.177 267.521 202.921 267.862V271.292ZM202.921 266.931C203.219 266.586 203.555 266.31 203.929 266.105C204.307 265.9 204.741 265.797 205.231 265.797C205.646 265.797 206.019 265.876 206.351 266.035C206.687 266.194 206.971 266.425 207.205 266.728C207.438 267.027 207.615 267.391 207.737 267.82C207.863 268.249 207.926 268.732 207.926 269.269C207.926 269.843 207.856 270.366 207.716 270.837C207.576 271.308 207.373 271.712 207.107 272.048C206.845 272.379 206.526 272.638 206.148 272.825C205.77 273.007 205.345 273.098 204.874 273.098C204.407 273.098 204.013 273.012 203.691 272.839C203.373 272.662 203.096 272.412 202.858 272.09L202.795 272.734C202.757 272.911 202.65 273 202.473 273H201.668V262.689H202.921V266.931Z" fill="#6D6D6D"/>
<path d="M214.248 268.681C214.248 268.392 214.206 268.128 214.122 267.89C214.042 267.647 213.923 267.44 213.765 267.267C213.611 267.09 213.422 266.954 213.198 266.861C212.974 266.763 212.719 266.714 212.435 266.714C211.837 266.714 211.364 266.889 211.014 267.239C210.668 267.584 210.454 268.065 210.37 268.681H214.248ZM215.256 272.006C215.102 272.193 214.917 272.356 214.703 272.496C214.488 272.631 214.257 272.743 214.01 272.832C213.767 272.921 213.515 272.986 213.254 273.028C212.992 273.075 212.733 273.098 212.477 273.098C211.987 273.098 211.534 273.016 211.119 272.853C210.708 272.685 210.351 272.442 210.048 272.125C209.749 271.803 209.516 271.406 209.348 270.935C209.18 270.464 209.096 269.922 209.096 269.311C209.096 268.816 209.17 268.354 209.32 267.925C209.474 267.496 209.693 267.125 209.978 266.812C210.262 266.495 210.61 266.247 211.021 266.07C211.431 265.888 211.893 265.797 212.407 265.797C212.831 265.797 213.223 265.869 213.583 266.014C213.947 266.154 214.259 266.359 214.521 266.63C214.787 266.896 214.994 267.227 215.144 267.624C215.293 268.016 215.368 268.464 215.368 268.968C215.368 269.164 215.347 269.295 215.305 269.36C215.263 269.425 215.183 269.458 215.067 269.458H210.328C210.342 269.906 210.402 270.296 210.51 270.627C210.622 270.958 210.776 271.236 210.972 271.46C211.168 271.679 211.401 271.845 211.672 271.957C211.942 272.064 212.246 272.118 212.582 272.118C212.894 272.118 213.163 272.083 213.387 272.013C213.615 271.938 213.811 271.859 213.975 271.775C214.138 271.691 214.273 271.614 214.381 271.544C214.493 271.469 214.588 271.432 214.668 271.432C214.77 271.432 214.85 271.472 214.906 271.551L215.256 272.006Z" fill="#6D6D6D"/>
<path d="M220.942 273V266.973L220.158 266.882C220.06 266.859 219.978 266.824 219.913 266.777C219.852 266.726 219.822 266.653 219.822 266.56V266.049H220.942V265.363C220.942 264.957 220.998 264.598 221.11 264.285C221.227 263.968 221.39 263.702 221.6 263.487C221.815 263.268 222.071 263.102 222.37 262.99C222.669 262.878 223.005 262.822 223.378 262.822C223.695 262.822 223.987 262.869 224.253 262.962L224.225 263.585C224.216 263.697 224.153 263.758 224.036 263.767C223.924 263.776 223.772 263.781 223.581 263.781C223.366 263.781 223.17 263.809 222.993 263.865C222.82 263.921 222.671 264.012 222.545 264.138C222.419 264.264 222.321 264.43 222.251 264.635C222.186 264.84 222.153 265.095 222.153 265.398V266.049H224.197V266.952H222.195V273H220.942Z" fill="#6D6D6D"/>
<path d="M228.145 265.797C228.663 265.797 229.13 265.883 229.545 266.056C229.96 266.229 230.315 266.474 230.609 266.791C230.903 267.108 231.127 267.493 231.281 267.946C231.44 268.394 231.519 268.896 231.519 269.451C231.519 270.011 231.44 270.515 231.281 270.963C231.127 271.411 230.903 271.794 230.609 272.111C230.315 272.428 229.96 272.673 229.545 272.846C229.13 273.014 228.663 273.098 228.145 273.098C227.622 273.098 227.151 273.014 226.731 272.846C226.316 272.673 225.961 272.428 225.667 272.111C225.373 271.794 225.147 271.411 224.988 270.963C224.834 270.515 224.757 270.011 224.757 269.451C224.757 268.896 224.834 268.394 224.988 267.946C225.147 267.493 225.373 267.108 225.667 266.791C225.961 266.474 226.316 266.229 226.731 266.056C227.151 265.883 227.622 265.797 228.145 265.797ZM228.145 272.125C228.845 272.125 229.368 271.892 229.713 271.425C230.058 270.954 230.231 270.298 230.231 269.458C230.231 268.613 230.058 267.955 229.713 267.484C229.368 267.013 228.845 266.777 228.145 266.777C227.79 266.777 227.48 266.838 227.214 266.959C226.953 267.08 226.733 267.255 226.556 267.484C226.383 267.713 226.253 267.995 226.164 268.331C226.08 268.662 226.038 269.038 226.038 269.458C226.038 270.298 226.211 270.954 226.556 271.425C226.906 271.892 227.436 272.125 228.145 272.125Z" fill="#6D6D6D"/>
<path d="M238.93 265.909V273H238.188C238.011 273 237.899 272.914 237.852 272.741L237.754 271.978C237.446 272.319 237.101 272.594 236.718 272.804C236.336 273.009 235.897 273.112 235.402 273.112C235.015 273.112 234.672 273.049 234.373 272.923C234.079 272.792 233.832 272.61 233.631 272.377C233.431 272.144 233.279 271.861 233.176 271.53C233.078 271.199 233.029 270.832 233.029 270.431V265.909H234.275V270.431C234.275 270.968 234.397 271.383 234.639 271.677C234.887 271.971 235.262 272.118 235.766 272.118C236.135 272.118 236.478 272.032 236.795 271.859C237.117 271.682 237.414 271.439 237.684 271.131V265.909H238.93Z" fill="#6D6D6D"/>
<path d="M242.082 266.938C242.236 266.765 242.399 266.609 242.572 266.469C242.745 266.329 242.927 266.21 243.118 266.112C243.314 266.009 243.519 265.932 243.734 265.881C243.953 265.825 244.189 265.797 244.441 265.797C244.828 265.797 245.169 265.862 245.463 265.993C245.762 266.119 246.009 266.301 246.205 266.539C246.406 266.772 246.557 267.055 246.66 267.386C246.763 267.717 246.814 268.084 246.814 268.485V273H245.561V268.485C245.561 267.948 245.437 267.533 245.19 267.239C244.947 266.94 244.576 266.791 244.077 266.791C243.708 266.791 243.363 266.88 243.041 267.057C242.724 267.234 242.43 267.475 242.159 267.778V273H240.906V265.909H241.655C241.832 265.909 241.942 265.995 241.984 266.168L242.082 266.938Z" fill="#6D6D6D"/>
<path d="M253.333 267.596C253.099 267.283 252.847 267.066 252.577 266.945C252.306 266.819 252.003 266.756 251.667 266.756C251.009 266.756 250.502 266.992 250.148 267.463C249.793 267.934 249.616 268.606 249.616 269.479C249.616 269.941 249.655 270.338 249.735 270.669C249.814 270.996 249.931 271.266 250.085 271.481C250.239 271.691 250.428 271.845 250.652 271.943C250.876 272.041 251.13 272.09 251.415 272.09C251.825 272.09 252.182 271.997 252.486 271.81C252.794 271.623 253.076 271.36 253.333 271.019V267.596ZM254.579 262.689V273H253.837C253.659 273 253.547 272.914 253.501 272.741L253.389 271.88C253.085 272.244 252.74 272.538 252.353 272.762C251.965 272.986 251.517 273.098 251.009 273.098C250.603 273.098 250.234 273.021 249.903 272.867C249.571 272.708 249.289 272.477 249.056 272.174C248.822 271.871 248.643 271.493 248.517 271.04C248.391 270.587 248.328 270.067 248.328 269.479C248.328 268.956 248.398 268.471 248.538 268.023C248.678 267.57 248.878 267.178 249.14 266.847C249.401 266.516 249.721 266.257 250.099 266.07C250.481 265.879 250.911 265.783 251.387 265.783C251.821 265.783 252.192 265.858 252.5 266.007C252.812 266.152 253.09 266.355 253.333 266.616V262.689H254.579Z" fill="#6D6D6D"/>
<path d="M145.2 101.317C145.2 101.317 159.959 106.572 175.173 94.8578C190.387 83.1439 175.901 87.3851 166.365 82.3672C156.828 77.3494 145.2 101.317 145.2 101.317Z" fill="#D2D2D2"/>
<path d="M108.2 75.049C108.2 75.049 93.1553 79.4236 87.6711 97.8249C82.1869 116.226 91.4533 104.311 102.123 102.8C112.792 101.29 108.2 75.049 108.2 75.049Z" fill="#D2D2D2"/>
<path d="M157.581 84.9899C157.581 101.931 147.841 123.564 126.844 123.697C105.847 123.831 97.2949 101.93 97.2949 84.9899C97.2949 68.0502 157.581 68.0493 157.581 84.9899Z" fill="#D9D9D9"/>
<path d="M152.292 87.4019C152.292 101.302 144.301 119.052 127.073 119.161C109.846 119.27 102.828 101.302 102.828 87.4019C102.828 73.5019 152.292 73.5028 152.292 87.4019Z" fill="#292345"/>
<path d="M143.881 0H110.671C92.075 0 77 15.3407 77 34.2643C77 53.188 92.075 68.5287 110.671 68.5287H143.881C162.476 68.5287 177.551 53.188 177.551 34.2643C177.551 15.3407 162.476 0 143.881 0Z" fill="#D9D9D9"/>
<path d="M110.671 0H127.737V68.5287H110.671C101.741 68.5287 93.1765 64.9187 86.862 58.4929C80.5475 52.0671 77 43.3518 77 34.2643C77 25.1769 80.5475 16.4616 86.862 10.0358C93.1765 3.60998 101.741 0 110.671 0V0Z" fill="#EFF4F9"/>
<path d="M143.882 12.2037H111.595C99.6218 12.2037 89.916 22.0806 89.916 34.2643C89.916 46.4481 99.6218 56.3249 111.595 56.3249H143.882C155.854 56.3249 165.56 46.4481 165.56 34.2643C165.56 22.0806 155.854 12.2037 143.882 12.2037Z" fill="#292345"/>
<path d="M111.131 15.9587H127.736V53.5086H111.131C106.238 53.5086 101.545 51.5306 98.0855 48.0096C94.6255 44.4886 92.6816 39.7131 92.6816 34.7337V34.7337C92.6816 29.7542 94.6255 24.9787 98.0855 21.4577C101.545 17.9368 106.238 15.9587 111.131 15.9587V15.9587Z" fill="#302A4D"/>
<path d="M112.517 38.4887C115.319 38.4887 117.591 36.177 117.591 33.3255C117.591 30.474 115.319 28.1624 112.517 28.1624C109.715 28.1624 107.443 30.474 107.443 33.3255C107.443 36.177 109.715 38.4887 112.517 38.4887Z" fill="#8AD1C0"/>
<path d="M142.957 38.4887C145.759 38.4887 148.03 36.177 148.03 33.3255C148.03 30.474 145.759 28.1624 142.957 28.1624C140.154 28.1624 137.883 30.474 137.883 33.3255C137.883 36.177 140.154 38.4887 142.957 38.4887Z" fill="#8AD1C0"/>
<path d="M127.736 147.384C147.096 147.384 162.791 144.652 162.791 141.282C162.791 137.912 147.096 135.18 127.736 135.18C108.376 135.18 92.6816 137.912 92.6816 141.282C92.6816 144.652 108.376 147.384 127.736 147.384Z" fill="#F5F7F8"/>
<path d="M147.761 23.8688L139.65 22.0984C139.401 22.044 139.154 22.2053 139.099 22.4586C139.044 22.7118 139.201 22.9612 139.45 23.0155L147.561 24.7859C147.81 24.8402 148.057 24.679 148.112 24.4257C148.167 24.1724 148.01 23.9231 147.761 23.8688Z" fill="#8AD1C0"/>
<path d="M114.507 22.1258L106.396 23.8958C106.147 23.9501 105.99 24.1995 106.045 24.4528C106.101 24.706 106.347 24.8673 106.596 24.813L114.708 23.0429C114.956 22.9886 115.113 22.7393 115.058 22.486C115.003 22.2327 114.756 22.0714 114.507 22.1258Z" fill="#8AD1C0"/>
<path d="M189.041 18.0273C188.411 17.186 187.575 16.69 186.535 16.5408C185.494 16.3915 184.553 16.6329 183.711 17.2626C182.87 17.8933 182.374 18.7289 182.225 19.7693C182.022 21.1826 182.495 22.3526 183.645 23.2787L172.019 104.308C171.982 104.563 172.044 104.798 172.204 105.011C172.363 105.224 172.571 105.349 172.826 105.385L174.711 105.656C174.966 105.692 175.2 105.631 175.413 105.471C175.626 105.312 175.751 105.104 175.788 104.849L187.413 23.8195C188.777 23.2535 189.56 22.264 189.763 20.8508C189.912 19.8107 189.671 18.8696 189.041 18.0273Z" fill="#C7C7C7"/>
<path d="M253.464 30.4182C252.987 29.7814 252.367 29.4082 251.605 29.2989C251.225 29.2443 250.382 29.4372 249.077 29.8784C247.773 30.3196 246.385 30.8228 244.913 31.3891C243.442 31.9557 241.73 32.4124 239.782 32.7612C237.833 33.1099 236.067 33.1703 234.486 32.9434C233.02 32.7331 231.771 32.2696 230.737 31.5532C227.293 29.2945 224.27 27.5448 221.666 26.304C219.063 25.0634 216.194 24.2184 213.059 23.7685C207.638 22.9907 201.217 23.8636 193.798 26.3876C191.976 26.9935 190.728 27.4576 190.054 27.7794C189.049 28.3234 188.479 29.0635 188.344 30.0013L183.665 62.6143C183.556 63.3761 183.74 64.0762 184.217 64.712C184.693 65.3491 185.313 65.7221 186.075 65.8314C186.543 65.8987 187.045 65.8363 187.582 65.6443C196.166 62.5094 203.271 61.3458 208.897 62.153C211.036 62.4599 213.077 63.0818 215.02 64.0181C216.965 64.9551 218.556 65.9014 219.794 66.8559C221.034 67.8112 222.522 68.7431 224.261 69.6506C226.001 70.5569 227.764 71.1393 229.551 71.3957C234.064 72.0432 239.714 71.1199 246.501 68.624C247.352 68.3277 247.987 68.0082 248.41 67.6649C248.834 67.322 249.098 66.7845 249.203 66.0511L254.015 32.5147C254.124 31.7532 253.94 31.0545 253.464 30.4182Z" fill="#302A4D"/>
<path d="M206.862 55.0322L204.832 52.4617L205.589 47.1161L208.237 45.3187L206.862 55.0322ZM199.587 44.892C199.137 44.4146 198.679 43.9434 198.213 43.4784L199.919 42.5451L205.851 43.385L207.209 44.752L205.519 45.7319L199.587 44.892ZM197.219 42.9831L198.594 33.2696L200.643 35.7097L199.88 41.0988L197.219 42.9831ZM209.655 34.8355L208.28 44.5489L206.231 42.1088L206.991 36.7414L209.655 34.8355Z" fill="white"/>
<path d="M213.698 56.9753L216.269 54.9453L221.636 55.7051L223.412 58.3504L213.698 56.9753ZM214.557 46.2134L216.584 48.8056L215.83 54.1295L213.182 55.9268L214.557 46.2134ZM224.242 57.4927L222.212 54.9222L222.969 49.5766L225.618 47.7792L224.242 57.4927ZM216.802 34.8941L226.515 36.2692L224.032 38.3116L218.708 37.5579L216.802 34.8941ZM214.599 45.4436L215.974 35.7301L218.023 38.1702L217.26 43.5593L214.599 45.4436ZM227.035 37.2959L225.66 47.0094L223.612 44.5693L224.371 39.2019L227.035 37.2959Z" fill="white"/>
<path d="M241.622 59.9532L239.592 57.3827L240.349 52.037L242.998 50.2397L241.622 59.9532ZM234.347 49.813C233.897 49.3356 233.439 48.8644 232.973 48.3994L234.679 47.4661L240.611 48.306L241.97 49.673L240.279 50.6528L234.347 49.813ZM231.979 47.904L233.354 38.1906L235.403 40.6307L234.64 46.0198L231.979 47.904ZM244.415 39.7564L243.04 49.4699L240.992 47.0298L241.751 41.6624L244.415 39.7564Z" fill="white"/>
<path d="M119.219 92.3862H119.882V93.0497H119.219V92.3862Z" fill="#8AD1C0"/>
<path d="M120.547 92.3862H121.21V93.0497H120.547V92.3862Z" fill="#8AD1C0"/>
<path d="M121.871 92.3862H122.535V93.0497H121.871V92.3862Z" fill="#8AD1C0"/>
<path d="M129.82 92.3849H130.484V93.0483H129.82V92.3849Z" fill="#8AD1C0"/>
<path d="M121.207 89.7349H121.871V90.3984H121.207V89.7349Z" fill="#8AD1C0"/>
<path d="M122.531 89.7349H123.195V90.3984H122.531V89.7349Z" fill="#8AD1C0"/>
<path d="M123.855 89.7349H124.519V90.3984H123.855V89.7349Z" fill="#8AD1C0"/>
<path d="M131.807 89.7349H132.47V90.3984H131.807V89.7349Z" fill="#8AD1C0"/>
<path d="M133.796 95.0529V89.4037C133.796 89.1401 133.691 88.8874 133.505 88.701C133.319 88.5146 133.066 88.4099 132.802 88.4099H120.878C120.614 88.4099 120.361 88.5146 120.175 88.701C119.989 88.8874 119.884 89.1401 119.884 89.4037V91.0599H118.89C118.627 91.0599 118.374 91.1646 118.188 91.3509C118.001 91.5373 117.896 91.79 117.896 92.0536V101.991C117.896 102.254 118.001 102.507 118.188 102.693C118.374 102.88 118.627 102.984 118.89 102.984H124.066C124.345 104.124 124.908 105.175 125.702 106.039C126.496 106.903 127.496 107.552 128.609 107.925C129.721 108.298 130.91 108.384 132.065 108.174C133.219 107.963 134.302 107.464 135.212 106.723C136.121 105.981 136.828 105.021 137.267 103.933C137.705 102.844 137.861 101.663 137.72 100.498C137.579 99.3327 137.145 98.2224 136.459 97.2704C135.772 96.3183 134.856 95.5555 133.796 95.0529ZM137.091 100.997H133.789C133.776 99.9342 133.646 98.8759 133.404 97.841C134.042 97.5835 134.639 97.2326 135.174 96.7996C136.324 97.9041 137.009 99.405 137.091 100.997ZM130.815 107.622C130.171 107.622 129.485 106.724 129.026 105.237C130.193 104.885 131.437 104.885 132.604 105.237C132.145 106.724 131.459 107.622 130.815 107.622ZM133.225 105.459C133.74 105.673 134.224 105.955 134.664 106.297C133.953 106.851 133.13 107.244 132.252 107.451C132.693 106.851 133.023 106.176 133.225 105.459ZM129.378 107.45C128.5 107.244 127.677 106.85 126.965 106.297C127.406 105.955 127.89 105.674 128.405 105.46C128.607 106.176 128.937 106.85 129.378 107.45ZM130.815 104.309C130.151 104.311 129.49 104.407 128.854 104.596C128.634 103.632 128.516 102.648 128.503 101.66H133.127C133.113 102.648 132.996 103.632 132.776 104.596C132.139 104.407 131.479 104.311 130.815 104.309ZM124.538 100.997C124.62 99.405 125.306 97.9041 126.455 96.7996C126.991 97.2326 127.587 97.5835 128.226 97.841C127.983 98.8759 127.854 99.9342 127.841 100.997H124.538ZM132.604 97.4197C131.437 97.7715 130.193 97.7715 129.026 97.4197C129.484 95.9291 130.17 95.0347 130.815 95.0347C131.46 95.0347 132.145 95.9321 132.604 97.4197ZM132.252 95.2053C133.13 95.412 133.953 95.8058 134.664 96.3597C134.224 96.7013 133.74 96.9827 133.225 97.1967C133.022 96.4804 132.693 95.8063 132.252 95.2066L132.252 95.2053ZM128.405 97.1977C127.89 96.9834 127.406 96.7016 126.965 96.3597C127.677 95.8058 128.5 95.4122 129.378 95.2056C128.937 95.8059 128.607 96.4807 128.405 97.1977ZM128.504 100.997C128.517 100.009 128.635 99.0244 128.855 98.0606C130.134 98.4426 131.497 98.4426 132.777 98.0606C132.997 99.0244 133.114 100.009 133.127 100.997H128.504ZM131.809 94.4517V92.0536C131.807 91.9405 131.787 91.8284 131.748 91.7223H133.133V94.778C132.704 94.6257 132.26 94.5164 131.809 94.4517ZM120.546 89.4037C120.546 89.3158 120.581 89.2316 120.643 89.1694C120.706 89.1073 120.79 89.0724 120.878 89.0724H132.802C132.89 89.0724 132.974 89.1073 133.036 89.1694C133.099 89.2316 133.133 89.3158 133.133 89.4037V91.0599H120.546V89.4037ZM118.89 102.322C118.802 102.322 118.718 102.287 118.656 102.225C118.594 102.163 118.559 102.079 118.559 101.991V94.3723H128.165V93.7098H118.559V92.0536C118.559 91.9657 118.594 91.8815 118.656 91.8194C118.718 91.7572 118.802 91.7223 118.89 91.7223H130.815C130.903 91.7223 130.987 91.7572 131.049 91.8194C131.111 91.8815 131.146 91.9657 131.146 92.0536V94.3891C131.035 94.3838 130.927 94.3723 130.815 94.3723C129.815 94.3647 128.826 94.5742 127.916 94.9864C127.005 95.3985 126.195 96.0035 125.541 96.7594C124.887 97.5153 124.405 98.4042 124.128 99.3646C123.852 100.325 123.787 101.334 123.938 102.322H118.89ZM124.538 101.66H127.841C127.854 102.722 127.983 103.781 128.226 104.816C127.587 105.073 126.991 105.424 126.455 105.857C125.306 104.753 124.62 103.252 124.538 101.66ZM135.174 105.857C134.639 105.424 134.042 105.073 133.404 104.816C133.646 103.781 133.776 102.722 133.789 101.66H137.091C137.009 103.252 136.324 104.753 135.174 105.857Z" fill="#8AD1C0"/>
<path d="M121 48.3509C123.493 46.0655 129.856 44.4675 135.336 48.3509" stroke="#8AD1C0" stroke-linecap="round"/>
</svg>
