<svg width="13" height="13" viewBox="0 0 13 13" fill="none" xmlns="http://www.w3.org/2000/svg">
<g clip-path="url(#clip0)">
<path d="M6.5 2.62549C4.01621 2.62549 1.76378 3.98439 0.101718 6.19161C-0.0339061 6.37245 -0.0339061 6.62508 0.101718 6.80591C1.76378 9.01579 4.01621 10.3747 6.5 10.3747C8.98379 10.3747 11.2362 9.01579 12.8983 6.80857C13.0339 6.62774 13.0339 6.3751 12.8983 6.19427C11.2362 3.98439 8.98379 2.62549 6.5 2.62549ZM6.67817 9.22853C5.02941 9.33225 3.66784 7.97334 3.77156 6.32192C3.85665 4.96036 4.96026 3.85675 6.32183 3.77165C7.97059 3.66793 9.33216 5.02684 9.22844 6.67826C9.14069 8.03717 8.03708 9.14078 6.67817 9.22853ZM6.59573 7.96803C5.70753 8.02387 4.97356 7.29256 5.03206 6.40436C5.07727 5.67039 5.67296 5.07736 6.40692 5.0295C7.29513 4.97365 8.0291 5.70496 7.97059 6.59317C7.92273 7.32979 7.32704 7.92282 6.59573 7.96803Z" fill="#085FAB"/>
</g>
<defs>
<clipPath id="clip0">
<rect width="13" height="13" fill="white"/>
</clipPath>
</defs>
</svg>
