<svg width="14" height="18" viewBox="0 0 14 18" fill="none" xmlns="http://www.w3.org/2000/svg">
<path d="M12.995 1.92676H12.4972V14.154C12.4966 14.5446 12.3412 14.919 12.0651 15.1952C11.7889 15.4714 11.4145 15.6268 11.0239 15.6273H1.97095V16.0807C1.97113 16.33 2.07023 16.569 2.24649 16.7452C2.42275 16.9215 2.66176 17.0206 2.91103 17.0208H12.9929C13.2422 17.0206 13.4812 16.9215 13.6575 16.7452C13.8337 16.569 13.9328 16.33 13.933 16.0807V2.86683C13.9332 2.61781 13.8345 2.37891 13.6586 2.20263C13.4827 2.02636 13.244 1.92713 12.995 1.92676Z" fill="#085FAB"/>
<path d="M5.97929 15.094H11.0199C11.2692 15.0938 11.5082 14.9947 11.6844 14.8185C11.8607 14.6422 11.9598 14.4032 11.96 14.1539V0.940079C11.9598 0.690931 11.8608 0.45203 11.6847 0.275791C11.5086 0.0995516 11.2697 0.000367678 11.0206 0L4.30464 0V0.311045C4.30829 0.344015 4.31015 0.377159 4.3102 0.41033V2.98548C4.31001 3.33676 4.17039 3.6736 3.92199 3.92199C3.6736 4.17039 3.33676 4.31001 2.98548 4.3102H0.409633C0.38325 4.3102 0.354786 4.3102 0.327708 4.30673H0V14.1539C0.000183894 14.4032 0.0992838 14.6422 0.275543 14.8185C0.451802 14.9947 0.690808 15.0938 0.940076 15.094H5.97929ZM6.16953 11.9003H2.88272C2.76487 11.9003 2.65185 11.8534 2.56852 11.7701C2.48519 11.6868 2.43837 11.5738 2.43837 11.4559C2.43837 11.3381 2.48519 11.225 2.56852 11.1417C2.65185 11.0584 2.76487 11.0116 2.88272 11.0116H6.17092C6.22927 11.0116 6.28705 11.0231 6.34096 11.0454C6.39487 11.0677 6.44386 11.1004 6.48512 11.1417C6.52638 11.183 6.55911 11.232 6.58144 11.2859C6.60377 11.3398 6.61527 11.3976 6.61527 11.4559C6.61527 11.5143 6.60377 11.572 6.58144 11.626C6.55911 11.6799 6.52638 11.7288 6.48512 11.7701C6.44386 11.8114 6.39487 11.8441 6.34096 11.8664C6.28705 11.8888 6.22927 11.9003 6.17092 11.9003H6.16953ZM9.45772 9.63199H2.88272C2.76487 9.63199 2.65185 9.58517 2.56852 9.50184C2.48519 9.41851 2.43837 9.30549 2.43837 9.18764C2.43837 9.06979 2.48519 8.95677 2.56852 8.87343C2.65185 8.7901 2.76487 8.74329 2.88272 8.74329H9.45772C9.57557 8.74329 9.68859 8.7901 9.77192 8.87343C9.85525 8.95677 9.90207 9.06979 9.90207 9.18764C9.90207 9.30549 9.85525 9.41851 9.77192 9.50184C9.68859 9.58517 9.57557 9.63199 9.45772 9.63199ZM2.88272 6.33477H9.45772C9.51607 6.33477 9.57385 6.34626 9.62776 6.36859C9.68167 6.39092 9.73066 6.42366 9.77192 6.46492C9.81318 6.50618 9.84591 6.55516 9.86824 6.60907C9.89057 6.66299 9.90207 6.72077 9.90207 6.77912C9.90207 6.83747 9.89057 6.89525 9.86824 6.94917C9.84591 7.00308 9.81318 7.05206 9.77192 7.09332C9.73066 7.13458 9.68167 7.16732 9.62776 7.18965C9.57385 7.21198 9.51607 7.22347 9.45772 7.22347H2.88272C2.76487 7.22347 2.65185 7.17665 2.56852 7.09332C2.48519 7.00999 2.43837 6.89697 2.43837 6.77912C2.43837 6.66127 2.48519 6.54825 2.56852 6.46492C2.65185 6.38158 2.76487 6.33477 2.88272 6.33477Z" fill="#085FAB"/>
<path d="M0.408457 3.77677H2.99124C3.19802 3.77496 3.39582 3.69201 3.54204 3.54579C3.68826 3.39957 3.77121 3.20177 3.77302 2.99499V0.410121C3.77311 0.357917 3.76288 0.306209 3.7429 0.257978C3.72293 0.209747 3.6936 0.165945 3.65662 0.129095C3.61965 0.0922457 3.57574 0.0630764 3.52744 0.0432677C3.47914 0.023459 3.4274 0.0134025 3.37519 0.0136774C3.32339 0.013564 3.2721 0.0238965 3.22438 0.0440571C3.17666 0.0642177 3.1335 0.0937925 3.09747 0.131014L0.127961 3.10122C0.0725865 3.15661 0.0348938 3.22718 0.0196517 3.304C0.00440949 3.38083 0.0123054 3.46044 0.042339 3.53278C0.0723726 3.60511 0.123194 3.66691 0.188369 3.71034C0.253543 3.75377 0.330136 3.77689 0.408457 3.77677Z" fill="#085FAB"/>
</svg>
