<svg width="54" height="54" viewBox="0 0 54 54" fill="none" xmlns="http://www.w3.org/2000/svg">
<g filter="url(#filter0_d)">
<circle cx="27" cy="23" r="17" fill="white"/>
</g>
<path d="M34.3333 24.1499H21.0337L26.1263 28.8793C26.393 29.1269 26.4033 29.5383 26.1493 29.7983C25.8957 30.058 25.4737 30.0684 25.2067 29.8208L19.3907 24.4193C19.139 24.1736 19 23.8473 19 23.4999C19 23.1528 19.139 22.8262 19.4023 22.5698L25.207 17.1794C25.336 17.0595 25.5013 17 25.6667 17C25.8427 17 26.0187 17.0676 26.1497 17.2018C26.4037 17.4618 26.3933 17.8729 26.1267 18.1206L21.0127 22.8499H34.3333C34.7013 22.8499 35 23.1411 35 23.4999C35 23.8587 34.7013 24.1499 34.3333 24.1499Z" fill="#90A8BE"/>
<defs>
<filter id="filter0_d" x="0" y="0" width="54" height="54" filterUnits="userSpaceOnUse" color-interpolation-filters="sRGB">
<feFlood flood-opacity="0" result="BackgroundImageFix"/>
<feColorMatrix in="SourceAlpha" type="matrix" values="0 0 0 0 0 0 0 0 0 0 0 0 0 0 0 0 0 0 127 0"/>
<feOffset dy="4"/>
<feGaussianBlur stdDeviation="5"/>
<feColorMatrix type="matrix" values="0 0 0 0 0 0 0 0 0 0 0 0 0 0 0 0 0 0 0.11 0"/>
<feBlend mode="normal" in2="BackgroundImageFix" result="effect1_dropShadow"/>
<feBlend mode="normal" in="SourceGraphic" in2="effect1_dropShadow" result="shape"/>
</filter>
</defs>
</svg>
