<svg width="24" height="20" viewBox="0 0 24 20" fill="none" xmlns="http://www.w3.org/2000/svg">
<path d="M9.90262 3.33382C9.27437 3.33382 3.76172 3.2908 3.76172 1.79872C3.76172 0.30664 9.27437 0.263123 9.90262 0.263123C10.5309 0.263123 16.044 0.306139 16.044 1.79822C16.044 3.2903 10.5314 3.33382 9.90262 3.33382ZM4.57454 1.79822C4.94918 2.08884 6.74688 2.56602 9.90312 2.56602C13.0593 2.56602 14.8571 2.08884 15.2312 1.79822C14.8566 1.50761 13.0588 1.03042 9.90312 1.03042C6.74738 1.03042 4.94918 1.50761 4.57454 1.79822ZM15.2902 1.85774H15.2952H15.2902Z" fill="#085FAB"/>
<path d="M9.90262 6.40413C9.27437 6.40413 3.76172 6.36111 3.76172 4.86903C3.76172 4.65695 3.93379 4.48538 4.14537 4.48538C4.34245 4.48538 4.50451 4.63394 4.52652 4.82501C4.76311 5.10812 6.57982 5.63683 9.90262 5.63683C13.2254 5.63683 15.0421 5.10812 15.2787 4.82501C15.3007 4.63344 15.4628 4.48538 15.6599 4.48538C15.8719 4.48538 16.0435 4.65745 16.0435 4.86903C16.044 6.36111 10.5314 6.40413 9.90262 6.40413ZM15.2762 4.86853C15.2762 4.86903 15.2762 4.86903 15.2762 4.86853V4.86853ZM4.52952 4.86853C4.52952 4.86903 4.52952 4.86903 4.52952 4.86853V4.86853Z" fill="#085FAB"/>
<path d="M9.90262 9.47481C9.27437 9.47481 3.76172 9.43179 3.76172 7.93971C3.76172 7.72763 3.93379 7.55606 4.14537 7.55606C4.34245 7.55606 4.50451 7.70462 4.52652 7.89569C4.76311 8.1788 6.57982 8.70751 9.90262 8.70751C13.2254 8.70751 15.0421 8.1788 15.2787 7.89569C15.3007 7.70412 15.4628 7.55606 15.6599 7.55606C15.8719 7.55606 16.0435 7.72813 16.0435 7.93971C16.044 9.43179 10.5314 9.47481 9.90262 9.47481ZM15.2762 7.93871C15.2762 7.93921 15.2762 7.93921 15.2762 7.93871V7.93871ZM4.52952 7.93871C4.52952 7.93921 4.52952 7.93921 4.52952 7.93871V7.93871Z" fill="#085FAB"/>
<path d="M9.90262 10.9944C9.27437 10.9944 3.76172 11.4516 3.76172 9.95948V1.79829C3.76172 1.58621 3.93379 1.41464 4.14537 1.41464C4.35745 1.41464 4.52902 1.58671 4.52902 1.79829V9.91796C4.77511 10.2026 6.59132 10.4392 9.90262 10.4392C13.2139 10.4392 15.0296 10.2026 15.2762 9.91796V1.79829C15.2762 1.58621 15.4483 1.41464 15.6599 1.41464C15.8714 1.41464 16.0435 1.58671 16.0435 1.79829V9.95948C16.044 11.4516 10.5314 10.9944 9.90262 10.9944Z" fill="#085FAB"/>
<path d="M17.0884 10.424C17.0839 10.3514 17.0784 10.2789 17.0719 10.1829C16.7102 10.1829 16.3636 10.1829 16.0165 10.1829C16.0145 10.1759 16.013 10.1704 16.0115 10.1644H14.8885C11.4292 10.1644 7.97082 10.1644 4.50547 10.1644H3.12393C3.11092 10.1684 3.09792 10.1709 3.08641 10.1719C2.78129 10.1874 2.47467 10.1784 2.14204 10.1784C2.14204 10.4545 2.13854 10.7026 2.14254 10.9502C2.15155 11.4829 2.24158 12.0471 2.31661 12.5703L3.0689 16.1857C3.37452 16.1282 3.64963 16.0732 3.92674 16.0257C4.0763 16.0001 4.10931 15.9246 4.0838 15.7806L3.19045 11.2713C7.48963 11.2713 11.7308 11.2713 15.992 11.2713L15.1841 15.563C14.9711 16.7825 14.7555 18.0019 14.5419 19.2214H15.6298L17.0884 10.424Z" fill="#085FAB"/>
<path d="M4.48589 18.1024C6.51968 17.3131 7.15693 16.8439 8.46644 15.1972C8.51546 15.1357 8.612 15.0912 8.69303 15.0787C9.32078 14.9797 9.72143 14.4044 9.58988 13.7782C9.46933 13.2025 8.83809 12.8288 8.25786 12.9894C7.66163 13.1544 7.3485 13.7732 7.54058 14.3754C7.56959 14.4665 7.55458 14.6095 7.49956 14.6835C6.51118 16.0066 5.25319 16.9239 3.59104 17.1925C2.9728 17.2926 2.36206 17.244 1.80584 16.9014C1.06255 16.4437 0.780441 15.0857 1.49072 14.2634C1.54924 14.1953 1.61327 14.0908 1.60326 14.0118C1.55774 13.6526 1.48622 13.2965 1.42319 12.9319C0.505333 13.4821 -0.196441 14.573 0.0496555 15.8995C0.397791 17.7767 1.7068 18.3415 3.43047 18.2994C3.4855 18.6091 3.54052 18.9157 3.59504 19.2218H4.68096C4.61494 18.8467 4.54991 18.4725 4.48589 18.1024Z" fill="#085FAB"/>
<path d="M18.1602 15.9999L23.0023 15.9999" stroke="#085FAB" stroke-linecap="round"/>
<path d="M20.582 13.5789V18.421" stroke="#085FAB" stroke-linecap="round"/>
</svg>
