<svg width="141" height="123" viewBox="0 0 141 123" fill="none" xmlns="http://www.w3.org/2000/svg">
<g filter="url(#filter0_d)">
<rect x="20" y="12" width="101" height="82.935" rx="10" fill="white"/>
</g>
<path d="M45.48 79.566C45.816 79.566 46.112 79.526 46.368 79.446C46.628 79.362 46.844 79.246 47.016 79.098C47.192 78.946 47.324 78.766 47.412 78.558C47.5 78.35 47.544 78.12 47.544 77.868C47.544 77.356 47.376 76.97 47.04 76.71C46.704 76.45 46.2 76.32 45.528 76.32H44.256V79.566H45.48ZM49.452 84H48.42C48.208 84 48.052 83.918 47.952 83.754L45.72 80.682C45.652 80.586 45.578 80.518 45.498 80.478C45.422 80.434 45.302 80.412 45.138 80.412H44.256V84H43.098V75.402H45.528C46.072 75.402 46.542 75.458 46.938 75.57C47.334 75.678 47.66 75.836 47.916 76.044C48.176 76.252 48.368 76.504 48.492 76.8C48.616 77.092 48.678 77.42 48.678 77.784C48.678 78.088 48.63 78.372 48.534 78.636C48.438 78.9 48.298 79.138 48.114 79.35C47.934 79.558 47.712 79.736 47.448 79.884C47.188 80.032 46.892 80.144 46.56 80.22C46.708 80.304 46.836 80.426 46.944 80.586L49.452 84ZM54.0507 80.298C54.0507 80.05 54.0147 79.824 53.9427 79.62C53.8747 79.412 53.7727 79.234 53.6367 79.086C53.5047 78.934 53.3427 78.818 53.1507 78.738C52.9587 78.654 52.7407 78.612 52.4967 78.612C51.9847 78.612 51.5787 78.762 51.2787 79.062C50.9827 79.358 50.7987 79.77 50.7267 80.298H54.0507ZM54.9147 83.148C54.7827 83.308 54.6247 83.448 54.4407 83.568C54.2567 83.684 54.0587 83.78 53.8467 83.856C53.6387 83.932 53.4227 83.988 53.1987 84.024C52.9747 84.064 52.7527 84.084 52.5327 84.084C52.1127 84.084 51.7247 84.014 51.3687 83.874C51.0167 83.73 50.7107 83.522 50.4507 83.25C50.1947 82.974 49.9947 82.634 49.8507 82.23C49.7067 81.826 49.6347 81.362 49.6347 80.838C49.6347 80.414 49.6987 80.018 49.8267 79.65C49.9587 79.282 50.1467 78.964 50.3907 78.696C50.6347 78.424 50.9327 78.212 51.2847 78.06C51.6367 77.904 52.0327 77.826 52.4727 77.826C52.8367 77.826 53.1727 77.888 53.4807 78.012C53.7927 78.132 54.0607 78.308 54.2847 78.54C54.5127 78.768 54.6907 79.052 54.8187 79.392C54.9467 79.728 55.0107 80.112 55.0107 80.544C55.0107 80.712 54.9927 80.824 54.9567 80.88C54.9207 80.936 54.8527 80.964 54.7527 80.964H50.6907C50.7027 81.348 50.7547 81.682 50.8467 81.966C50.9427 82.25 51.0747 82.488 51.2427 82.68C51.4107 82.868 51.6107 83.01 51.8427 83.106C52.0747 83.198 52.3347 83.244 52.6227 83.244C52.8907 83.244 53.1207 83.214 53.3127 83.154C53.5087 83.09 53.6767 83.022 53.8167 82.95C53.9567 82.878 54.0727 82.812 54.1647 82.752C54.2607 82.688 54.3427 82.656 54.4107 82.656C54.4987 82.656 54.5667 82.69 54.6147 82.758L54.9147 83.148ZM58.4406 81.03C58.6566 81.03 58.8466 81 59.0106 80.94C59.1746 80.88 59.3126 80.796 59.4246 80.688C59.5366 80.58 59.6206 80.452 59.6766 80.304C59.7326 80.152 59.7606 79.986 59.7606 79.806C59.7606 79.434 59.6466 79.138 59.4186 78.918C59.1946 78.698 58.8686 78.588 58.4406 78.588C58.0086 78.588 57.6786 78.698 57.4506 78.918C57.2266 79.138 57.1146 79.434 57.1146 79.806C57.1146 79.986 57.1426 80.152 57.1986 80.304C57.2586 80.452 57.3446 80.58 57.4566 80.688C57.5686 80.796 57.7066 80.88 57.8706 80.94C58.0346 81 58.2246 81.03 58.4406 81.03ZM60.3666 84.33C60.3666 84.182 60.3246 84.062 60.2406 83.97C60.1566 83.878 60.0426 83.806 59.8986 83.754C59.7586 83.702 59.5946 83.666 59.4066 83.646C59.2186 83.622 59.0186 83.604 58.8066 83.592C58.5986 83.58 58.3866 83.568 58.1706 83.556C57.9546 83.544 57.7466 83.524 57.5466 83.496C57.3226 83.6 57.1386 83.732 56.9946 83.892C56.8546 84.048 56.7846 84.232 56.7846 84.444C56.7846 84.58 56.8186 84.706 56.8866 84.822C56.9586 84.942 57.0666 85.044 57.2106 85.128C57.3546 85.216 57.5346 85.284 57.7506 85.332C57.9706 85.384 58.2286 85.41 58.5246 85.41C58.8126 85.41 59.0706 85.384 59.2986 85.332C59.5266 85.28 59.7186 85.206 59.8746 85.11C60.0346 85.014 60.1566 84.9 60.2406 84.768C60.3246 84.636 60.3666 84.49 60.3666 84.33ZM61.4526 78.162V78.558C61.4526 78.69 61.3686 78.774 61.2006 78.81L60.5106 78.9C60.6466 79.164 60.7146 79.456 60.7146 79.776C60.7146 80.072 60.6566 80.342 60.5406 80.586C60.4286 80.826 60.2726 81.032 60.0726 81.204C59.8726 81.376 59.6326 81.508 59.3526 81.6C59.0726 81.692 58.7686 81.738 58.4406 81.738C58.1566 81.738 57.8886 81.704 57.6366 81.636C57.5086 81.716 57.4106 81.802 57.3426 81.894C57.2746 81.982 57.2406 82.072 57.2406 82.164C57.2406 82.308 57.2986 82.418 57.4146 82.494C57.5346 82.566 57.6906 82.618 57.8826 82.65C58.0746 82.682 58.2926 82.702 58.5366 82.71C58.7846 82.718 59.0366 82.732 59.2926 82.752C59.5526 82.768 59.8046 82.798 60.0486 82.842C60.2966 82.886 60.5166 82.958 60.7086 83.058C60.9006 83.158 61.0546 83.296 61.1706 83.472C61.2906 83.648 61.3506 83.876 61.3506 84.156C61.3506 84.416 61.2846 84.668 61.1526 84.912C61.0246 85.156 60.8386 85.372 60.5946 85.56C60.3506 85.752 60.0506 85.904 59.6946 86.016C59.3426 86.132 58.9446 86.19 58.5006 86.19C58.0566 86.19 57.6686 86.146 57.3366 86.058C57.0046 85.97 56.7286 85.852 56.5086 85.704C56.2886 85.556 56.1226 85.384 56.0106 85.188C55.9026 84.996 55.8486 84.794 55.8486 84.582C55.8486 84.282 55.9426 84.028 56.1306 83.82C56.3186 83.612 56.5766 83.446 56.9046 83.322C56.7246 83.242 56.5806 83.136 56.4726 83.004C56.3686 82.868 56.3166 82.686 56.3166 82.458C56.3166 82.37 56.3326 82.28 56.3646 82.188C56.3966 82.092 56.4446 81.998 56.5086 81.906C56.5766 81.81 56.6586 81.72 56.7546 81.636C56.8506 81.552 56.9626 81.478 57.0906 81.414C56.7906 81.246 56.5566 81.024 56.3886 80.748C56.2206 80.468 56.1366 80.144 56.1366 79.776C56.1366 79.48 56.1926 79.212 56.3046 78.972C56.4206 78.728 56.5806 78.522 56.7846 78.354C56.9886 78.182 57.2306 78.05 57.5106 77.958C57.7946 77.866 58.1046 77.82 58.4406 77.82C58.7046 77.82 58.9506 77.85 59.1786 77.91C59.4066 77.966 59.6146 78.05 59.8026 78.162H61.4526ZM63.5709 79.14C63.7629 78.724 63.9989 78.4 64.2789 78.168C64.5589 77.932 64.9009 77.814 65.3049 77.814C65.4329 77.814 65.5549 77.828 65.6709 77.856C65.7909 77.884 65.8969 77.928 65.9889 77.988L65.9109 78.786C65.8869 78.886 65.8269 78.936 65.7309 78.936C65.6749 78.936 65.5929 78.924 65.4849 78.9C65.3769 78.876 65.2549 78.864 65.1189 78.864C64.9269 78.864 64.7549 78.892 64.6029 78.948C64.4549 79.004 64.3209 79.088 64.2009 79.2C64.0849 79.308 63.9789 79.444 63.8829 79.608C63.7909 79.768 63.7069 79.952 63.6309 80.16V84H62.5569V77.922H63.1689C63.2849 77.922 63.3649 77.944 63.4089 77.988C63.4529 78.032 63.4829 78.108 63.4989 78.216L63.5709 79.14ZM70.7499 80.298C70.7499 80.05 70.7139 79.824 70.6419 79.62C70.5739 79.412 70.4719 79.234 70.3359 79.086C70.2039 78.934 70.0419 78.818 69.8499 78.738C69.6579 78.654 69.4399 78.612 69.1959 78.612C68.6839 78.612 68.2779 78.762 67.9779 79.062C67.6819 79.358 67.4979 79.77 67.4259 80.298H70.7499ZM71.6139 83.148C71.4819 83.308 71.3239 83.448 71.1399 83.568C70.9559 83.684 70.7579 83.78 70.5459 83.856C70.3379 83.932 70.1219 83.988 69.8979 84.024C69.6739 84.064 69.4519 84.084 69.2319 84.084C68.8119 84.084 68.4239 84.014 68.0679 83.874C67.7159 83.73 67.4099 83.522 67.1499 83.25C66.8939 82.974 66.6939 82.634 66.5499 82.23C66.4059 81.826 66.3339 81.362 66.3339 80.838C66.3339 80.414 66.3979 80.018 66.5259 79.65C66.6579 79.282 66.8459 78.964 67.0899 78.696C67.3339 78.424 67.6319 78.212 67.9839 78.06C68.3359 77.904 68.7319 77.826 69.1719 77.826C69.5359 77.826 69.8719 77.888 70.1799 78.012C70.4919 78.132 70.7599 78.308 70.9839 78.54C71.2119 78.768 71.3899 79.052 71.5179 79.392C71.6459 79.728 71.7099 80.112 71.7099 80.544C71.7099 80.712 71.6919 80.824 71.6559 80.88C71.6199 80.936 71.5519 80.964 71.4519 80.964H67.3899C67.4019 81.348 67.4539 81.682 67.5459 81.966C67.6419 82.25 67.7739 82.488 67.9419 82.68C68.1099 82.868 68.3099 83.01 68.5419 83.106C68.7739 83.198 69.0339 83.244 69.3219 83.244C69.5899 83.244 69.8199 83.214 70.0119 83.154C70.2079 83.09 70.3759 83.022 70.5159 82.95C70.6559 82.878 70.7719 82.812 70.8639 82.752C70.9599 82.688 71.0419 82.656 71.1099 82.656C71.1979 82.656 71.2659 82.69 71.3139 82.758L71.6139 83.148ZM76.5618 78.924C76.5138 79.012 76.4398 79.056 76.3398 79.056C76.2798 79.056 76.2118 79.034 76.1358 78.99C76.0598 78.946 75.9658 78.898 75.8538 78.846C75.7458 78.79 75.6158 78.74 75.4638 78.696C75.3118 78.648 75.1318 78.624 74.9238 78.624C74.7438 78.624 74.5818 78.648 74.4378 78.696C74.2938 78.74 74.1698 78.802 74.0658 78.882C73.9658 78.962 73.8878 79.056 73.8318 79.164C73.7798 79.268 73.7538 79.382 73.7538 79.506C73.7538 79.662 73.7978 79.792 73.8858 79.896C73.9778 80 74.0978 80.09 74.2458 80.166C74.3938 80.242 74.5618 80.31 74.7498 80.37C74.9378 80.426 75.1298 80.488 75.3258 80.556C75.5258 80.62 75.7198 80.692 75.9078 80.772C76.0958 80.852 76.2638 80.952 76.4118 81.072C76.5598 81.192 76.6778 81.34 76.7658 81.516C76.8578 81.688 76.9038 81.896 76.9038 82.14C76.9038 82.42 76.8538 82.68 76.7538 82.92C76.6538 83.156 76.5058 83.362 76.3098 83.538C76.1138 83.71 75.8738 83.846 75.5898 83.946C75.3058 84.046 74.9778 84.096 74.6058 84.096C74.1818 84.096 73.7978 84.028 73.4538 83.892C73.1098 83.752 72.8178 83.574 72.5778 83.358L72.8298 82.95C72.8618 82.898 72.8998 82.858 72.9438 82.83C72.9878 82.802 73.0438 82.788 73.1118 82.788C73.1838 82.788 73.2598 82.816 73.3398 82.872C73.4198 82.928 73.5158 82.99 73.6278 83.058C73.7438 83.126 73.8838 83.188 74.0478 83.244C74.2118 83.3 74.4158 83.328 74.6598 83.328C74.8678 83.328 75.0498 83.302 75.2058 83.25C75.3618 83.194 75.4918 83.12 75.5958 83.028C75.6998 82.936 75.7758 82.83 75.8238 82.71C75.8758 82.59 75.9018 82.462 75.9018 82.326C75.9018 82.158 75.8558 82.02 75.7638 81.912C75.6758 81.8 75.5578 81.706 75.4098 81.63C75.2618 81.55 75.0918 81.482 74.8998 81.426C74.7118 81.366 74.5178 81.304 74.3178 81.24C74.1218 81.176 73.9278 81.104 73.7358 81.024C73.5478 80.94 73.3798 80.836 73.2318 80.712C73.0838 80.588 72.9638 80.436 72.8718 80.256C72.7838 80.072 72.7398 79.85 72.7398 79.59C72.7398 79.358 72.7878 79.136 72.8838 78.924C72.9798 78.708 73.1198 78.52 73.3038 78.36C73.4878 78.196 73.7138 78.066 73.9818 77.97C74.2498 77.874 74.5558 77.826 74.8998 77.826C75.2998 77.826 75.6578 77.89 75.9738 78.018C76.2938 78.142 76.5698 78.314 76.8018 78.534L76.5618 78.924ZM81.7532 78.924C81.7052 79.012 81.6312 79.056 81.5312 79.056C81.4712 79.056 81.4032 79.034 81.3272 78.99C81.2512 78.946 81.1572 78.898 81.0452 78.846C80.9372 78.79 80.8072 78.74 80.6552 78.696C80.5032 78.648 80.3232 78.624 80.1152 78.624C79.9352 78.624 79.7732 78.648 79.6292 78.696C79.4852 78.74 79.3612 78.802 79.2572 78.882C79.1572 78.962 79.0792 79.056 79.0232 79.164C78.9712 79.268 78.9452 79.382 78.9452 79.506C78.9452 79.662 78.9892 79.792 79.0772 79.896C79.1692 80 79.2892 80.09 79.4372 80.166C79.5852 80.242 79.7532 80.31 79.9412 80.37C80.1292 80.426 80.3212 80.488 80.5172 80.556C80.7172 80.62 80.9112 80.692 81.0992 80.772C81.2872 80.852 81.4552 80.952 81.6032 81.072C81.7512 81.192 81.8692 81.34 81.9572 81.516C82.0492 81.688 82.0952 81.896 82.0952 82.14C82.0952 82.42 82.0452 82.68 81.9452 82.92C81.8452 83.156 81.6972 83.362 81.5012 83.538C81.3052 83.71 81.0652 83.846 80.7812 83.946C80.4972 84.046 80.1692 84.096 79.7972 84.096C79.3732 84.096 78.9892 84.028 78.6452 83.892C78.3012 83.752 78.0092 83.574 77.7692 83.358L78.0212 82.95C78.0532 82.898 78.0912 82.858 78.1352 82.83C78.1792 82.802 78.2352 82.788 78.3032 82.788C78.3752 82.788 78.4512 82.816 78.5312 82.872C78.6112 82.928 78.7072 82.99 78.8192 83.058C78.9352 83.126 79.0752 83.188 79.2392 83.244C79.4032 83.3 79.6072 83.328 79.8512 83.328C80.0592 83.328 80.2412 83.302 80.3972 83.25C80.5532 83.194 80.6832 83.12 80.7872 83.028C80.8912 82.936 80.9672 82.83 81.0152 82.71C81.0672 82.59 81.0932 82.462 81.0932 82.326C81.0932 82.158 81.0472 82.02 80.9552 81.912C80.8672 81.8 80.7492 81.706 80.6012 81.63C80.4532 81.55 80.2832 81.482 80.0912 81.426C79.9032 81.366 79.7092 81.304 79.5092 81.24C79.3132 81.176 79.1192 81.104 78.9272 81.024C78.7392 80.94 78.5712 80.836 78.4232 80.712C78.2752 80.588 78.1552 80.436 78.0632 80.256C77.9752 80.072 77.9312 79.85 77.9312 79.59C77.9312 79.358 77.9792 79.136 78.0752 78.924C78.1712 78.708 78.3112 78.52 78.4952 78.36C78.6792 78.196 78.9052 78.066 79.1732 77.97C79.4412 77.874 79.7472 77.826 80.0912 77.826C80.4912 77.826 80.8492 77.89 81.1652 78.018C81.4852 78.142 81.7612 78.314 81.9932 78.534L81.7532 78.924ZM84.5326 77.922V84H83.4646V77.922H84.5326ZM84.7606 76.014C84.7606 76.118 84.7386 76.216 84.6946 76.308C84.6546 76.396 84.5986 76.476 84.5266 76.548C84.4586 76.616 84.3766 76.67 84.2806 76.71C84.1886 76.75 84.0906 76.77 83.9866 76.77C83.8826 76.77 83.7846 76.75 83.6926 76.71C83.6046 76.67 83.5266 76.616 83.4586 76.548C83.3906 76.476 83.3366 76.396 83.2966 76.308C83.2566 76.216 83.2366 76.118 83.2366 76.014C83.2366 75.91 83.2566 75.812 83.2966 75.72C83.3366 75.624 83.3906 75.542 83.4586 75.474C83.5266 75.402 83.6046 75.346 83.6926 75.306C83.7846 75.266 83.8826 75.246 83.9866 75.246C84.0906 75.246 84.1886 75.266 84.2806 75.306C84.3766 75.346 84.4586 75.402 84.5266 75.474C84.5986 75.542 84.6546 75.624 84.6946 75.72C84.7386 75.812 84.7606 75.91 84.7606 76.014ZM88.8494 77.826C89.2934 77.826 89.6934 77.9 90.0494 78.048C90.4054 78.196 90.7094 78.406 90.9614 78.678C91.2134 78.95 91.4054 79.28 91.5374 79.668C91.6734 80.052 91.7414 80.482 91.7414 80.958C91.7414 81.438 91.6734 81.87 91.5374 82.254C91.4054 82.638 91.2134 82.966 90.9614 83.238C90.7094 83.51 90.4054 83.72 90.0494 83.868C89.6934 84.012 89.2934 84.084 88.8494 84.084C88.4014 84.084 87.9974 84.012 87.6374 83.868C87.2814 83.72 86.9774 83.51 86.7254 83.238C86.4734 82.966 86.2794 82.638 86.1434 82.254C86.0114 81.87 85.9454 81.438 85.9454 80.958C85.9454 80.482 86.0114 80.052 86.1434 79.668C86.2794 79.28 86.4734 78.95 86.7254 78.678C86.9774 78.406 87.2814 78.196 87.6374 78.048C87.9974 77.9 88.4014 77.826 88.8494 77.826ZM88.8494 83.25C89.4494 83.25 89.8974 83.05 90.1934 82.65C90.4894 82.246 90.6374 81.684 90.6374 80.964C90.6374 80.24 90.4894 79.676 90.1934 79.272C89.8974 78.868 89.4494 78.666 88.8494 78.666C88.5454 78.666 88.2794 78.718 88.0514 78.822C87.8274 78.926 87.6394 79.076 87.4874 79.272C87.3394 79.468 87.2274 79.71 87.1514 79.998C87.0794 80.282 87.0434 80.604 87.0434 80.964C87.0434 81.684 87.1914 82.246 87.4874 82.65C87.7874 83.05 88.2414 83.25 88.8494 83.25ZM94.104 78.804C94.236 78.656 94.376 78.522 94.524 78.402C94.672 78.282 94.828 78.18 94.992 78.096C95.16 78.008 95.336 77.942 95.52 77.898C95.708 77.85 95.91 77.826 96.126 77.826C96.458 77.826 96.75 77.882 97.002 77.994C97.258 78.102 97.47 78.258 97.638 78.462C97.81 78.662 97.94 78.904 98.028 79.188C98.116 79.472 98.16 79.786 98.16 80.13V84H97.086V80.13C97.086 79.67 96.98 79.314 96.768 79.062C96.56 78.806 96.242 78.678 95.814 78.678C95.498 78.678 95.202 78.754 94.926 78.906C94.654 79.058 94.402 79.264 94.17 79.524V84H93.096V77.922H93.738C93.89 77.922 93.984 77.996 94.02 78.144L94.104 78.804Z" fill="#6D6D6D"/>
<path d="M89.2079 61.3562H87.8904V62.6737H85.2555V61.3562H83.9377V62.6737H81.3027V61.3562H79.9853V62.6737H77.3504V61.3562H76.031V62.6737H73.3976V61.3562H72.0801V62.6737H69.4452V61.3562H68.1277V62.6737H65.4928V61.3562H64.175V62.6737H61.5401V61.3562H60.2226V62.6737H57.5877V61.3562H56.2702V62.6737H52.3175V58.7213H53.6349V57.4035H52.3175V54.7686H53.6349V53.4511H52.3175V50.8162H53.6349V49.4969H52.3175V46.8634H53.6349V45.546H52.3175V42.911H53.6349V41.5936H52.3175V38.9586H53.6349V37.6408H52.3175V35.0059H53.6349V33.6884H52.3175V31.0535H53.6349V29.736H52.3175V27.1007H53.6349V25.7833H52.3175V24.4658H51V63.3324C51 63.5071 51.0694 63.6747 51.1929 63.7982C51.3165 63.9218 51.484 63.9912 51.6587 63.9912H90.5253V62.6737H89.2079V61.3562Z" fill="#085FAB"/>
<path d="M56.2705 52.1334C56.2705 52.5243 56.3864 52.9064 56.6036 53.2313C56.8207 53.5563 57.1293 53.8096 57.4904 53.9592C57.8515 54.1088 58.2489 54.1479 58.6322 54.0716C59.0156 53.9954 59.3677 53.8072 59.6441 53.5308C59.9205 53.2544 60.1087 52.9023 60.1849 52.519C60.2612 52.1356 60.222 51.7383 60.0725 51.3772C59.9229 51.0161 59.6696 50.7074 59.3446 50.4903C59.0196 50.2731 58.6376 50.1572 58.2467 50.1572C57.7228 50.1579 57.2205 50.3663 56.8501 50.7368C56.4796 51.1073 56.2712 51.6095 56.2705 52.1334ZM58.9054 52.1334C58.9054 52.2637 58.8668 52.3911 58.7944 52.4994C58.722 52.6077 58.6192 52.6922 58.4988 52.742C58.3784 52.7919 58.246 52.8049 58.1182 52.7795C57.9904 52.7541 57.873 52.6913 57.7809 52.5992C57.6888 52.5071 57.626 52.3897 57.6006 52.2619C57.5752 52.1342 57.5883 52.0017 57.6381 51.8813C57.688 51.761 57.7724 51.6581 57.8807 51.5857C57.9891 51.5133 58.1164 51.4747 58.2467 51.4747C58.4213 51.4749 58.5888 51.5443 58.7123 51.6678C58.8358 51.7913 58.9052 51.9588 58.9054 52.1334Z" fill="#085FAB"/>
<path d="M62.1985 44.8873C62.1985 44.4965 62.0826 44.1144 61.8654 43.7894C61.6483 43.4644 61.3396 43.2111 60.9785 43.0616C60.6174 42.912 60.2201 42.8729 59.8368 42.9491C59.4534 43.0254 59.1013 43.2136 58.8249 43.4899C58.5485 43.7663 58.3603 44.1184 58.2841 44.5018C58.2078 44.8851 58.247 45.2825 58.3965 45.6436C58.5461 46.0047 58.7994 46.3133 59.1244 46.5305C59.4494 46.7476 59.8314 46.8635 60.2223 46.8635C60.7462 46.8628 61.2485 46.6544 61.6189 46.2839C61.9894 45.9135 62.1978 45.4112 62.1985 44.8873ZM59.5636 44.8873C59.5636 44.757 59.6022 44.6297 59.6746 44.5214C59.747 44.413 59.8498 44.3286 59.9702 44.2787C60.0906 44.2289 60.223 44.2158 60.3508 44.2413C60.4786 44.2667 60.596 44.3294 60.6881 44.4215C60.7802 44.5137 60.8429 44.631 60.8684 44.7588C60.8938 44.8866 60.8807 45.019 60.8309 45.1394C60.781 45.2598 60.6966 45.3627 60.5883 45.435C60.4799 45.5074 60.3526 45.5461 60.2223 45.5461C60.0476 45.5459 59.8802 45.4764 59.7567 45.3529C59.6332 45.2294 59.5638 45.062 59.5636 44.8873Z" fill="#085FAB"/>
<path d="M87.8899 33.0294C87.8899 32.6386 87.774 32.2565 87.5568 31.9315C87.3397 31.6065 87.0311 31.3532 86.67 31.2037C86.3088 31.0541 85.9115 31.0149 85.5282 31.0912C85.1448 31.1674 84.7927 31.3557 84.5163 31.632C84.2399 31.9084 84.0517 32.2605 83.9755 32.6439C83.8992 33.0272 83.9384 33.4246 84.0879 33.7857C84.2375 34.1468 84.4908 34.4554 84.8158 34.6726C85.1408 34.8897 85.5228 35.0056 85.9137 35.0056C86.4376 35.0049 86.9399 34.7965 87.3103 34.426C87.6808 34.0556 87.8892 33.5533 87.8899 33.0294ZM85.255 33.0294C85.255 32.8991 85.2936 32.7718 85.366 32.6634C85.4384 32.5551 85.5412 32.4707 85.6616 32.4208C85.782 32.371 85.9144 32.3579 86.0422 32.3833C86.17 32.4088 86.2874 32.4715 86.3795 32.5636C86.4716 32.6557 86.5344 32.7731 86.5598 32.9009C86.5852 33.0287 86.5721 33.1611 86.5223 33.2815C86.4724 33.4019 86.388 33.5047 86.2797 33.5771C86.1713 33.6495 86.044 33.6881 85.9137 33.6881C85.739 33.688 85.5716 33.6185 85.4481 33.495C85.3246 33.3715 85.2552 33.2041 85.255 33.0294Z" fill="#085FAB"/>
<path d="M64.1748 39.6168C64.1748 40.0077 64.2907 40.3897 64.5079 40.7147C64.725 41.0397 65.0336 41.293 65.3947 41.4426C65.7558 41.5922 66.1532 41.6313 66.5365 41.555C66.9199 41.4788 67.272 41.2906 67.5484 41.0142C67.8248 40.7378 68.013 40.3857 68.0892 40.0024C68.1655 39.619 68.1263 39.2217 67.9768 38.8606C67.8272 38.4995 67.5739 38.1908 67.2489 37.9737C66.9239 37.7565 66.5419 37.6406 66.151 37.6406C65.6271 37.6413 65.1248 37.8497 64.7544 38.2202C64.3839 38.5907 64.1755 39.0929 64.1748 39.6168ZM66.8097 39.6168C66.8097 39.7471 66.7711 39.8745 66.6987 39.9828C66.6263 40.0911 66.5235 40.1755 66.4031 40.2254C66.2827 40.2753 66.1503 40.2883 66.0225 40.2629C65.8947 40.2375 65.7773 40.1747 65.6852 40.0826C65.5931 39.9905 65.5303 39.8731 65.5049 39.7453C65.4795 39.6175 65.4926 39.4851 65.5424 39.3647C65.5923 39.2444 65.6767 39.1415 65.785 39.0691C65.8934 38.9967 66.0207 38.9581 66.151 38.9581C66.3256 38.9583 66.4931 39.0277 66.6166 39.1512C66.7401 39.2747 66.8095 39.4422 66.8097 39.6168Z" fill="#085FAB"/>
<path d="M72.7393 50.816C72.7393 51.2069 72.8552 51.589 73.0723 51.914C73.2895 52.2389 73.5981 52.4922 73.9592 52.6418C74.3203 52.7914 74.7176 52.8305 75.101 52.7543C75.4843 52.678 75.8365 52.4898 76.1128 52.2134C76.3892 51.937 76.5774 51.5849 76.6537 51.2016C76.7299 50.8182 76.6908 50.4209 76.5412 50.0598C76.3916 49.6987 76.1383 49.39 75.8134 49.1729C75.4884 48.9557 75.1063 48.8398 74.7155 48.8398C74.1915 48.8405 73.6893 49.049 73.3188 49.4194C72.9484 49.7899 72.7399 50.2921 72.7393 50.816ZM75.3742 50.816C75.3742 50.9463 75.3355 51.0737 75.2632 51.182C75.1908 51.2903 75.0879 51.3748 74.9675 51.4246C74.8472 51.4745 74.7147 51.4875 74.5869 51.4621C74.4592 51.4367 74.3418 51.374 74.2497 51.2818C74.1575 51.1897 74.0948 51.0723 74.0694 50.9445C74.044 50.8168 74.057 50.6843 74.1069 50.564C74.1567 50.4436 74.2412 50.3407 74.3495 50.2683C74.4578 50.1959 74.5852 50.1573 74.7155 50.1573C74.8901 50.1575 75.0575 50.227 75.181 50.3505C75.3045 50.474 75.374 50.6414 75.3742 50.816Z" fill="#085FAB"/>
<path d="M78.0094 44.2283C78.4003 44.2283 78.7823 44.1124 79.1073 43.8952C79.4323 43.6781 79.6856 43.3694 79.8352 43.0083C79.9847 42.6472 80.0239 42.2499 79.9476 41.8665C79.8714 41.4832 79.6832 41.1311 79.4068 40.8547C79.1304 40.5783 78.7783 40.3901 78.3949 40.3139C78.0116 40.2376 77.6142 40.2767 77.2531 40.4263C76.892 40.5759 76.5834 40.8292 76.3663 41.1542C76.1491 41.4791 76.0332 41.8612 76.0332 42.2521C76.0339 42.776 76.2423 43.2782 76.6128 43.6487C76.9832 44.0192 77.4855 44.2276 78.0094 44.2283ZM78.0094 41.5933C78.1397 41.5933 78.267 41.632 78.3754 41.7044C78.4837 41.7767 78.5681 41.8796 78.618 42C78.6678 42.1204 78.6809 42.2528 78.6555 42.3806C78.6301 42.5084 78.5673 42.6257 78.4752 42.7179C78.3831 42.81 78.2657 42.8727 78.1379 42.8981C78.0101 42.9236 77.8777 42.9105 77.7573 42.8607C77.6369 42.8108 77.5341 42.7264 77.4617 42.618C77.3893 42.5097 77.3507 42.3824 77.3507 42.2521C77.3509 42.0774 77.4203 41.91 77.5438 41.7865C77.6673 41.663 77.8348 41.5935 78.0094 41.5933Z" fill="#085FAB"/>
<path d="M74.7148 31.0533C74.7148 31.4442 74.8307 31.8263 75.0479 32.1513C75.265 32.4762 75.5737 32.7295 75.9348 32.8791C76.2959 33.0287 76.6932 33.0678 77.0766 32.9916C77.4599 32.9153 77.812 32.7271 78.0884 32.4507C78.3648 32.1743 78.553 31.8222 78.6293 31.4389C78.7055 31.0555 78.6664 30.6582 78.5168 30.2971C78.3672 29.936 78.1139 29.6273 77.789 29.4102C77.464 29.1931 77.0819 29.0771 76.691 29.0771C76.1671 29.0778 75.6649 29.2863 75.2944 29.6567C74.924 30.0272 74.7155 30.5294 74.7148 31.0533ZM77.3498 31.0533C77.3498 31.1836 77.3111 31.311 77.2388 31.4193C77.1664 31.5276 77.0635 31.6121 76.9431 31.6619C76.8228 31.7118 76.6903 31.7248 76.5625 31.6994C76.4347 31.674 76.3174 31.6113 76.2252 31.5191C76.1331 31.427 76.0704 31.3096 76.045 31.1819C76.0195 31.0541 76.0326 30.9216 76.0824 30.8013C76.1323 30.6809 76.2167 30.578 76.3251 30.5056C76.4334 30.4332 76.5608 30.3946 76.691 30.3946C76.8657 30.3948 77.0331 30.4643 77.1566 30.5878C77.2801 30.7113 77.3496 30.8787 77.3498 31.0533Z" fill="#085FAB"/>
<path d="M90.0603 24L89.3963 24.6639C89.1328 24.5348 88.8434 24.4671 88.5499 24.4658C88.026 24.4665 87.5237 24.6749 87.1533 25.0454C86.7828 25.4158 86.5744 25.9181 86.5737 26.442C86.575 26.7355 86.6427 27.0249 86.7718 27.2885L85.2033 28.857C85.2939 28.4578 85.2581 28.0403 85.101 27.6623C84.9439 27.2843 84.6732 26.9645 84.3264 26.7471C83.9795 26.5297 83.5737 26.4255 83.165 26.4489C82.7563 26.4724 82.365 26.6222 82.0453 26.8778C81.7255 27.1333 81.4931 27.482 81.3801 27.8754C81.2672 28.2689 81.2794 28.6877 81.415 29.074C81.5506 29.4602 81.8028 29.7948 82.1369 30.0313C82.471 30.2679 82.8703 30.3948 83.2797 30.3944C83.4275 30.3935 83.5747 30.3756 83.7184 30.3411L80.8325 33.227C80.5688 33.0984 80.2794 33.0308 79.986 33.0293C79.4621 33.03 78.9598 33.2384 78.5894 33.6089C78.2189 33.9793 78.0105 34.4816 78.0098 35.0055C78.0111 35.299 78.0788 35.5884 78.2079 35.852L76.0084 38.0514C75.963 37.6851 75.8156 37.3388 75.5829 37.0521C75.3503 36.7654 75.0419 36.5498 74.6927 36.4298C74.3435 36.3098 73.9677 36.2903 73.608 36.3735C73.2483 36.4566 72.9192 36.6391 72.6581 36.9002C72.397 37.1613 72.2145 37.4904 72.1313 37.8501C72.0482 38.2098 72.0677 38.5856 72.1877 38.9348C72.3077 39.284 72.5233 39.5924 72.81 39.825C73.0967 40.0577 73.4429 40.2051 73.8093 40.2505L71.6099 42.45C71.3463 42.3209 71.0569 42.2532 70.7634 42.2519C70.2395 42.2526 69.7372 42.461 69.3668 42.8315C68.9963 43.202 68.7879 43.7042 68.7872 44.2281C68.7888 44.5216 68.8565 44.8109 68.9853 45.0746L66.5026 47.5555C66.387 47.5338 66.2698 47.5222 66.1523 47.5207C65.8622 47.5175 65.575 47.5789 65.3115 47.7005C65.0481 47.8221 64.815 48.0008 64.6292 48.2236C64.4434 48.4465 64.3094 48.7079 64.2372 48.9888C64.1649 49.2698 64.156 49.5634 64.2113 49.8482L58.4349 55.6246C58.171 55.4956 57.8814 55.4279 57.5877 55.4265C57.064 55.4273 56.5619 55.6357 56.1916 56.006C55.8212 56.3763 55.6127 56.8783 55.6118 57.402C55.6131 57.6955 55.6809 57.9849 55.81 58.2485L54.4873 59.573L55.4189 60.5046L56.7416 59.1819C57.0052 59.311 57.2946 59.3787 57.588 59.38C58.112 59.379 58.6142 59.1701 58.9844 58.7993C59.3546 58.4285 59.5626 57.926 59.5628 57.402C59.5615 57.1085 59.4937 56.8191 59.3647 56.5555L64.9041 51.0191C65.2807 51.3339 65.7616 51.4964 66.252 51.4745C66.7424 51.4527 67.2069 51.248 67.554 50.9008C67.9012 50.5537 68.1058 50.0892 68.1276 49.5987C68.1494 49.1083 67.9868 48.6275 67.6719 48.2509L69.9162 46.0066C70.1801 46.1354 70.4697 46.2033 70.7634 46.205C71.2873 46.2044 71.7896 45.9959 72.16 45.6255C72.5305 45.255 72.7389 44.7528 72.7396 44.2289C72.7383 43.9354 72.6706 43.646 72.5415 43.3824L79.1388 36.7843C79.4028 36.913 79.6923 36.9805 79.986 36.9821C80.5099 36.9814 81.0122 36.773 81.3826 36.4025C81.7531 36.032 81.9615 35.5298 81.9622 35.0059C81.9609 34.7124 81.8932 34.423 81.7641 34.1594L87.7042 28.2205C87.9682 28.3491 88.2577 28.4167 88.5514 28.4182C89.0753 28.4175 89.5775 28.2091 89.948 27.8386C90.3184 27.4682 90.5269 26.9659 90.5276 26.442C90.5263 26.1485 90.4585 25.8591 90.3295 25.5955L90.9934 24.9316L90.0603 24ZM82.6209 28.4182C82.6206 28.2879 82.659 28.1603 82.7312 28.0518C82.8034 27.9433 82.9062 27.8586 83.0266 27.8086C83.1469 27.7585 83.2794 27.7452 83.4073 27.7705C83.5351 27.7957 83.6527 27.8583 83.7449 27.9504C83.8372 28.0425 83.9001 28.1598 83.9256 28.2877C83.9512 28.4155 83.9382 28.548 83.8884 28.6685C83.8386 28.7889 83.7541 28.8919 83.6458 28.9643C83.5374 29.0368 83.41 29.0754 83.2797 29.0754C83.1053 29.0753 82.9381 29.006 82.8146 28.8828C82.6912 28.7596 82.6215 28.5926 82.6209 28.4182ZM73.3983 38.2995C73.3983 38.1693 73.437 38.0419 73.5093 37.9336C73.5817 37.8252 73.6846 37.7408 73.805 37.6909C73.9253 37.6411 74.0578 37.628 74.1856 37.6535C74.3134 37.6789 74.4307 37.7416 74.5229 37.8337C74.615 37.9259 74.6777 38.0432 74.7031 38.171C74.7285 38.2988 74.7155 38.4313 74.6656 38.5516C74.6158 38.672 74.5314 38.7749 74.423 38.8473C74.3147 38.9196 74.1873 38.9583 74.0571 38.9583C73.8824 38.9581 73.715 38.8886 73.5915 38.7651C73.468 38.6416 73.3985 38.4742 73.3983 38.2995ZM57.5873 58.0622C57.4571 58.0621 57.3299 58.0233 57.2217 57.9509C57.1135 57.8785 57.0292 57.7757 56.9794 57.6554C56.9296 57.5351 56.9166 57.4027 56.942 57.2751C56.9673 57.1474 57.03 57.0301 57.122 56.9379C57.214 56.8458 57.3312 56.7831 57.4589 56.7575C57.5866 56.732 57.7189 56.7449 57.8393 56.7945C57.9596 56.8442 58.0626 56.9284 58.1351 57.0365C58.2076 57.1446 58.2465 57.2718 58.2468 57.402C58.2469 57.4886 58.2299 57.5744 58.1969 57.6544C58.1638 57.7345 58.1153 57.8072 58.0541 57.8685C57.993 57.9298 57.9203 57.9785 57.8404 58.0117C57.7604 58.045 57.6746 58.0621 57.588 58.0622H57.5873ZM66.1519 50.1571C66.0216 50.1571 65.8943 50.1184 65.7859 50.046C65.6776 49.9737 65.5932 49.8708 65.5433 49.7504C65.4935 49.6301 65.4804 49.4976 65.5058 49.3698C65.5313 49.242 65.594 49.1247 65.6861 49.0325C65.7782 48.9404 65.8956 48.8777 66.0234 48.8523C66.1512 48.8268 66.2836 48.8399 66.404 48.8897C66.5244 48.9396 66.6272 49.024 66.6996 49.1324C66.772 49.2407 66.8106 49.368 66.8106 49.4983C66.8105 49.673 66.741 49.8404 66.6175 49.9639C66.494 50.0874 66.3266 50.1569 66.1519 50.1571ZM70.763 44.8865C70.6327 44.8865 70.5054 44.8478 70.3971 44.7755C70.2887 44.7031 70.2043 44.6002 70.1544 44.4798C70.1046 44.3595 70.0915 44.227 70.117 44.0992C70.1424 43.9715 70.2051 43.8541 70.2972 43.7619C70.3894 43.6698 70.5067 43.6071 70.6345 43.5817C70.7623 43.5563 70.8948 43.5693 71.0151 43.6192C71.1355 43.669 71.2384 43.7534 71.3107 43.8618C71.3831 43.9701 71.4218 44.0975 71.4218 44.2277C71.4216 44.4024 71.3521 44.5698 71.2286 44.6933C71.1051 44.8168 70.9377 44.8863 70.763 44.8865ZM79.9856 35.6646C79.8554 35.6646 79.728 35.626 79.6197 35.5536C79.5113 35.4812 79.4269 35.3783 79.3771 35.258C79.3272 35.1376 79.3141 35.0051 79.3396 34.8774C79.365 34.7496 79.4277 34.6322 79.5198 34.5401C79.612 34.448 79.7293 34.3852 79.8571 34.3598C79.9849 34.3344 80.1174 34.3474 80.2377 34.3973C80.3581 34.4472 80.461 34.5316 80.5334 34.6399C80.6057 34.7482 80.6444 34.8756 80.6444 35.0059C80.6442 35.1805 80.5747 35.348 80.4512 35.4715C80.3277 35.595 80.1603 35.6644 79.9856 35.6646ZM88.5495 27.1007C88.4192 27.1007 88.2919 27.0621 88.1835 26.9897C88.0752 26.9173 87.9908 26.8145 87.9409 26.6941C87.8911 26.5737 87.878 26.4413 87.9034 26.3135C87.9289 26.1857 87.9916 26.0683 88.0837 25.9762C88.1758 25.8841 88.2932 25.8214 88.421 25.7959C88.5488 25.7705 88.6812 25.7836 88.8016 25.8334C88.922 25.8833 89.0248 25.9677 89.0972 26.076C89.1696 26.1844 89.2082 26.3117 89.2082 26.442C89.208 26.6167 89.1386 26.7841 89.0151 26.9076C88.8916 27.0311 88.7242 27.1005 88.5495 27.1007Z" fill="#085FAB"/>
<defs>
<filter id="filter0_d" x="0" y="0" width="141" height="122.935" filterUnits="userSpaceOnUse" color-interpolation-filters="sRGB">
<feFlood flood-opacity="0" result="BackgroundImageFix"/>
<feColorMatrix in="SourceAlpha" type="matrix" values="0 0 0 0 0 0 0 0 0 0 0 0 0 0 0 0 0 0 127 0"/>
<feOffset dy="8"/>
<feGaussianBlur stdDeviation="10"/>
<feColorMatrix type="matrix" values="0 0 0 0 0 0 0 0 0 0 0 0 0 0 0 0 0 0 0.1 0"/>
<feBlend mode="normal" in2="BackgroundImageFix" result="effect1_dropShadow"/>
<feBlend mode="normal" in="SourceGraphic" in2="effect1_dropShadow" result="shape"/>
</filter>
</defs>
</svg>
