<svg width="25" height="25" viewBox="0 0 25 25" fill="none" xmlns="http://www.w3.org/2000/svg">
<rect width="25" height="25" rx="12.5" fill="#F5FAFF"/>
<path d="M12.2845 7C9.37073 7 7 9.37073 7 12.2845C7 15.1985 9.37073 17.5691 12.2845 17.5691C15.1985 17.5691 17.5691 15.1985 17.5691 12.2845C17.5691 9.37073 15.1985 7 12.2845 7ZM12.2845 16.5935C9.90862 16.5935 7.97561 14.6605 7.97561 12.2846C7.97561 9.90864 9.90862 7.97561 12.2845 7.97561C14.6605 7.97561 16.5935 9.90862 16.5935 12.2845C16.5935 14.6605 14.6605 16.5935 12.2845 16.5935Z" fill="#085FAB"/>
<path d="M18.856 18.1672L16.0593 15.3705C15.8687 15.1799 15.5601 15.1799 15.3695 15.3705C15.1789 15.5609 15.1789 15.8698 15.3695 16.0602L18.1662 18.857C18.2615 18.9523 18.3863 18.9999 18.5111 18.9999C18.6358 18.9999 18.7607 18.9523 18.856 18.857C19.0466 18.6666 19.0466 18.3576 18.856 18.1672Z" fill="#085FAB"/>
</svg>
