<svg width="32" height="32" viewBox="0 0 32 32" fill="none" xmlns="http://www.w3.org/2000/svg">
<path d="M14.0921 0C6.32195 0 0 6.32195 0 14.0921C0 21.8628 6.32195 28.1843 14.0921 28.1843C21.8628 28.1843 28.1843 21.8628 28.1843 14.0921C28.1843 6.32195 21.8628 0 14.0921 0ZM14.0921 25.5827C7.75632 25.5827 2.60163 20.428 2.60163 14.0922C2.60163 7.75639 7.75632 2.60163 14.0921 2.60163C20.428 2.60163 25.5827 7.75632 25.5827 14.0921C25.5827 20.428 20.428 25.5827 14.0921 25.5827Z" fill="#085FAB"/>
<path d="M31.6189 29.7796L24.1608 22.3216C23.6526 21.8134 22.8296 21.8134 22.3214 22.3216C21.8133 22.8293 21.8133 23.6532 22.3214 24.1609L29.7795 31.619C30.0335 31.873 30.3662 32.0001 30.6992 32.0001C31.0317 32.0001 31.3647 31.873 31.6189 31.619C32.127 31.1112 32.127 30.2873 31.6189 29.7796Z" fill="#085FAB"/>
</svg>
