<svg width="35" height="33" viewBox="0 0 35 33" fill="none" xmlns="http://www.w3.org/2000/svg">
<rect width="29" height="29" rx="5" fill="#F5FAFF"/>
<path d="M17.0822 9.01376C17.0053 8.93724 16.8898 8.91446 16.7895 8.95613C16.6893 8.99781 16.6239 9.09564 16.6239 9.20429V10.6382C15.1726 10.6961 14.4457 11.2975 14.3345 11.3977C13.6023 11.9987 13.1023 12.8361 12.9207 13.7658C12.8299 14.2149 12.8136 14.676 12.8727 15.1304L12.8729 15.132C12.8734 15.136 12.8741 15.1401 12.8747 15.1441L12.9318 15.4723C12.951 15.5828 13.037 15.6699 13.1473 15.6904C13.2577 15.711 13.3692 15.6607 13.427 15.5646L13.5981 15.2794C14.1238 14.4052 14.7789 13.8257 15.5455 13.5571C15.8913 13.4349 16.2576 13.3811 16.6239 13.399V14.8841C16.6239 14.9929 16.6895 15.091 16.7901 15.1325C16.8907 15.1741 17.0064 15.1508 17.0831 15.0736L19.923 12.2194C20.0276 12.1142 20.0272 11.9441 19.922 11.8394L17.0822 9.01376Z" fill="#085FAB"/>
<path d="M19.4329 16.4898C19.2791 16.4898 19.1542 16.6331 19.1542 16.8099V18.163C19.1537 18.693 18.7797 19.1227 18.318 19.1233H9.19434C8.73273 19.1227 8.35875 18.693 8.35821 18.163V10.5362C8.35875 10.006 8.73273 9.57642 9.19434 9.57579H11.1219C11.2759 9.57579 11.4006 9.43249 11.4006 9.25567C11.4006 9.07885 11.2759 8.93555 11.1219 8.93555H9.19434C8.42505 8.93655 7.80165 9.65257 7.80078 10.5362V18.163C7.80165 19.0464 8.42505 19.7624 9.19434 19.7636H18.318C19.0873 19.7624 19.7107 19.0464 19.7116 18.163V16.8099C19.7116 16.6331 19.5868 16.4898 19.4329 16.4898Z" fill="#085FAB"/>
<circle cx="29" cy="27" r="6" fill="#085FAB"/>
<path d="M31.8713 25.1084C31.6942 24.9216 31.3989 24.9134 31.2119 25.091L28.2344 27.9148L26.8142 26.4566C26.6343 26.2721 26.3394 26.268 26.1547 26.4479C25.9701 26.6276 25.9662 26.9229 26.146 27.1074L27.8872 28.8952C27.9785 28.9889 28.0997 29.0362 28.2213 29.0362C28.3367 29.0362 28.452 28.9936 28.5424 28.9082L31.8539 25.7677C32.0407 25.5905 32.0486 25.2953 31.8713 25.1084Z" fill="#F5FAFF"/>
</svg>
