<svg width="36" height="32" viewBox="0 0 36 32" fill="none" xmlns="http://www.w3.org/2000/svg">
<path d="M26.7226 0.963605C26.5011 0.743273 26.1686 0.677687 25.88 0.797676C25.5914 0.917664 25.4031 1.19935 25.4031 1.51217V5.64074C21.2246 5.80727 19.1316 7.5391 18.8116 7.82743C16.7032 9.55775 15.2636 11.969 14.7407 14.6456C14.4793 15.9389 14.4324 17.2663 14.6026 18.5747L14.6032 18.5793C14.6047 18.5907 14.6065 18.6025 14.6083 18.614L14.7728 19.5591C14.8281 19.8774 15.0756 20.1279 15.3933 20.1872C15.7112 20.2464 16.0322 20.1016 16.1984 19.8248L16.6911 19.0036C18.2047 16.4866 20.0909 14.8182 22.2982 14.0448C23.2938 13.693 24.3486 13.5382 25.4031 13.5896V17.8657C25.4031 18.1788 25.592 18.4614 25.8815 18.5808C26.1714 18.7004 26.5044 18.6334 26.7254 18.4112L34.9018 10.1934C35.2031 9.89051 35.2019 9.40058 34.8991 9.09925L26.7226 0.963605Z" fill="#085FAB"/>
<path d="M33.4913 22.4887C33.0484 22.4887 32.6888 22.9013 32.6888 23.4104V27.3061C32.6876 28.8323 31.6105 30.0694 30.2814 30.0712H4.01236C2.68327 30.0694 1.60651 28.8323 1.60494 27.3061V5.3469C1.60651 3.82034 2.68327 2.5836 4.01236 2.5818H9.56227C10.0055 2.5818 10.3647 2.1692 10.3647 1.6601C10.3647 1.15101 10.0055 0.738403 9.56227 0.738403H4.01236C1.79741 0.741284 0.00250772 2.80287 0 5.3469V27.3061C0.00250772 29.8497 1.79741 31.9113 4.01236 31.9146H30.2814C32.4964 31.9113 34.2913 29.8497 34.2938 27.3061V23.4104C34.2938 22.9013 33.9345 22.4887 33.4913 22.4887Z" fill="#085FAB"/>
</svg>
