<svg width="73" height="107" viewBox="0 0 73 107" fill="none" xmlns="http://www.w3.org/2000/svg">
<path d="M49.8117 54.4856C49.8117 54.4856 60.7335 57.6615 64.715 71.0208C68.6965 84.3801 61.9691 75.7295 54.2231 74.633C46.477 73.5364 49.8117 54.4856 49.8117 54.4856Z" fill="#D2D2D2"/>
<path d="M22.6498 54.4856C22.6498 54.4856 11.7273 57.6615 7.74583 71.0208C3.76432 84.3801 10.4917 75.7295 18.2377 74.633C25.9838 73.5364 22.6498 54.4856 22.6498 54.4856Z" fill="#D2D2D2"/>
<path d="M58.5011 61.7022C58.5011 74.001 51.4302 89.7069 36.1866 89.8036C20.943 89.9004 14.7339 74.0003 14.7339 61.7022C14.7339 49.404 58.5011 49.4033 58.5011 61.7022Z" fill="#D9D9D9"/>
<path d="M54.663 63.4538C54.663 73.5452 48.8611 86.4315 36.354 86.5106C23.8469 86.5896 18.7523 73.5452 18.7523 63.4538C18.7523 53.3624 54.663 53.3631 54.663 63.4538Z" fill="#292345"/>
<path d="M48.555 0H24.445C10.9444 0 0 11.1373 0 24.8758C0 38.6143 10.9444 49.7516 24.445 49.7516H48.555C62.0556 49.7516 73 38.6143 73 24.8758C73 11.1373 62.0556 0 48.555 0Z" fill="#D9D9D9"/>
<path d="M24.445 0H36.8349V49.7516H24.445C17.9617 49.7516 11.7441 47.1308 7.15976 42.4656C2.57544 37.8005 0 31.4733 0 24.8758C0 18.2783 2.57544 11.9511 7.15976 7.28595C11.7441 2.62083 17.9617 0 24.445 0V0Z" fill="#EFF4F9"/>
<path d="M48.5551 8.85986H25.1147C16.4225 8.85986 9.37616 16.0304 9.37616 24.8758C9.37616 33.7211 16.4225 40.8917 25.1147 40.8917H48.5551C57.2472 40.8917 64.2936 33.7211 64.2936 24.8758C64.2936 16.0304 57.2472 8.85986 48.5551 8.85986Z" fill="#292345"/>
<path d="M24.7798 11.5859H36.8349V38.8471H24.7798C21.2274 38.8471 17.8204 37.411 15.3085 34.8548C12.7965 32.2985 11.3853 28.8316 11.3853 25.2165V25.2165C11.3853 21.6015 12.7965 18.1345 15.3085 15.5782C17.8204 13.022 21.2274 11.5859 24.7798 11.5859V11.5859Z" fill="#302A4D"/>
<path d="M25.7844 27.9426C27.8188 27.9426 29.4679 26.2644 29.4679 24.1942C29.4679 22.124 27.8188 20.4458 25.7844 20.4458C23.7501 20.4458 22.101 22.124 22.101 24.1942C22.101 26.2644 23.7501 27.9426 25.7844 27.9426Z" fill="#8AD1C0"/>
<path d="M47.8853 27.9426C49.9197 27.9426 51.5688 26.2644 51.5688 24.1942C51.5688 22.124 49.9197 20.4458 47.8853 20.4458C45.851 20.4458 44.2018 22.124 44.2018 24.1942C44.2018 26.2644 45.851 27.9426 47.8853 27.9426Z" fill="#8AD1C0"/>
<path d="M36.8357 35.4395C35.375 35.4395 33.9955 35.1477 32.9512 34.6178C32.1547 34.2136 31.6299 33.7124 31.4334 33.1782H42.2383C42.0418 33.7124 41.517 34.2136 40.7203 34.6178C39.676 35.1477 38.2965 35.4395 36.8357 35.4395Z" fill="white"/>
<path d="M36.8357 35.0987C38.2456 35.0987 39.5721 34.8196 40.5709 34.3128C41.0357 34.077 41.4002 33.8048 41.6434 33.5189H32.0282C32.2714 33.8048 32.6359 34.077 33.1007 34.3128C34.0994 34.8196 35.4259 35.0987 36.8357 35.0987ZM36.8357 35.7802C35.3242 35.7802 33.8915 35.4757 32.8018 34.9227C31.7153 34.3714 31.0815 33.6308 31.0173 32.8374H42.6544C42.5902 33.6309 41.9563 34.3714 40.8698 34.9227C39.78 35.4757 38.3473 35.7802 36.8357 35.7802Z" fill="white"/>
<path d="M36.8349 107C50.8902 107 62.2844 105.017 62.2844 102.57C62.2844 100.123 50.8902 98.1401 36.8349 98.1401C22.7795 98.1401 11.3853 100.123 11.3853 102.57C11.3853 105.017 22.7795 107 36.8349 107Z" fill="#F5F7F8"/>
<path d="M50.8991 17.7197H44.8715C44.6866 17.7197 44.5367 17.8723 44.5367 18.0605C44.5367 18.2487 44.6866 18.4013 44.8715 18.4013H50.8991C51.084 18.4013 51.2339 18.2487 51.2339 18.0605C51.2339 17.8723 51.084 17.7197 50.8991 17.7197Z" fill="#8AD1C0"/>
<path d="M23.1055 18.4011H29.133C29.318 18.4011 29.4679 18.2486 29.4679 18.0604C29.4679 17.8722 29.318 17.7196 29.133 17.7196H23.1055C22.9206 17.7196 22.7706 17.8722 22.7706 18.0604C22.7706 18.2486 22.9206 18.4011 23.1055 18.4011Z" fill="#8AD1C0"/>
<path d="M45.1525 65.4246H36.9859C36.6905 65.4246 36.4072 65.544 36.1983 65.7565C35.9895 65.9691 35.8721 66.2574 35.8721 66.5579V77.5128C35.8721 77.8134 35.9895 78.1017 36.1983 78.3142C36.4072 78.5268 36.6905 78.6462 36.9859 78.6462H45.1525C45.4479 78.6462 45.7312 78.5268 45.94 78.3142C46.1489 78.1017 46.2663 77.8134 46.2663 77.5128V66.5579C46.2663 66.2574 46.1489 65.9691 45.94 65.7565C45.7312 65.544 45.4479 65.4246 45.1525 65.4246ZM45.5235 77.5128C45.5235 77.5624 45.5139 77.6115 45.4953 77.6573C45.4766 77.7031 45.4493 77.7447 45.4149 77.7798C45.3804 77.8149 45.3395 77.8427 45.2945 77.8617C45.2495 77.8806 45.2012 77.8904 45.1525 77.8904H36.9859C36.8875 77.8904 36.7931 77.8506 36.7235 77.7798C36.6539 77.709 36.6149 77.613 36.6149 77.5128V66.5579C36.6149 66.4578 36.6539 66.3618 36.7235 66.291C36.7931 66.2202 36.8875 66.1804 36.9859 66.1804H45.1525C45.2012 66.1804 45.2495 66.1901 45.2945 66.2091C45.3395 66.2281 45.3804 66.2559 45.4149 66.291C45.4493 66.326 45.4766 66.3676 45.4953 66.4135C45.5139 66.4593 45.5235 66.5084 45.5235 66.5579V77.5128Z" fill="#1DDFA9"/>
<path d="M38.4713 70.3349H43.6684C43.8653 70.3349 44.0543 70.2553 44.1936 70.1135C44.3328 69.9718 44.4111 69.7795 44.4111 69.5791V68.0688C44.4111 67.9695 44.3919 67.8713 44.3546 67.7796C44.3172 67.6879 44.2625 67.6045 44.1936 67.5344C44.1246 67.4642 44.0427 67.4085 43.9526 67.3705C43.8625 67.3325 43.7659 67.313 43.6684 67.313H38.4713C38.3738 67.313 38.2772 67.3325 38.1871 67.3705C38.097 67.4085 38.0151 67.4642 37.9461 67.5344C37.8771 67.6045 37.8224 67.6879 37.7851 67.7796C37.7478 67.8713 37.7286 67.9695 37.7286 68.0688V69.5798C37.7288 69.7801 37.8071 69.9722 37.9464 70.1138C38.0856 70.2554 38.2744 70.3349 38.4713 70.3349ZM38.4713 68.0681H43.6684V69.5791H38.4713V68.0681Z" fill="#1DDFA9"/>
<path d="M39.2134 71.4683H38.0996C38.0011 71.4683 37.9067 71.5081 37.837 71.579C37.7674 71.6498 37.7283 71.7459 37.7283 71.8462C37.7283 71.9464 37.7674 72.0425 37.837 72.1134C37.9067 72.1843 38.0011 72.2241 38.0996 72.2241H39.2134C39.3119 72.2241 39.4063 72.1843 39.476 72.1134C39.5456 72.0425 39.5847 71.9464 39.5847 71.8462C39.5847 71.7459 39.5456 71.6498 39.476 71.579C39.4063 71.5081 39.3119 71.4683 39.2134 71.4683Z" fill="#1DDFA9"/>
<path d="M39.2134 72.98H38.0996C38.0011 72.98 37.9067 73.0198 37.837 73.0907C37.7674 73.1615 37.7283 73.2577 37.7283 73.3579C37.7283 73.4581 37.7674 73.5543 37.837 73.6251C37.9067 73.696 38.0011 73.7358 38.0996 73.7358H39.2134C39.3119 73.7358 39.4063 73.696 39.476 73.6251C39.5456 73.5543 39.5847 73.4581 39.5847 73.3579C39.5847 73.2577 39.5456 73.1615 39.476 73.0907C39.4063 73.0198 39.3119 72.98 39.2134 72.98Z" fill="#1DDFA9"/>
<path d="M39.2134 74.491H38.0996C38.0011 74.491 37.9067 74.5308 37.837 74.6017C37.7674 74.6725 37.7283 74.7686 37.7283 74.8689C37.7283 74.9691 37.7674 75.0652 37.837 75.1361C37.9067 75.207 38.0011 75.2468 38.0996 75.2468H39.2134C39.3119 75.2468 39.4063 75.207 39.476 75.1361C39.5456 75.0652 39.5847 74.9691 39.5847 74.8689C39.5847 74.7686 39.5456 74.6725 39.476 74.6017C39.4063 74.5308 39.3119 74.491 39.2134 74.491Z" fill="#1DDFA9"/>
<path d="M39.2134 76.002H38.0996C38.0011 76.002 37.9067 76.0418 37.837 76.1126C37.7674 76.1835 37.7283 76.2796 37.7283 76.3799C37.7283 76.4801 37.7674 76.5762 37.837 76.6471C37.9067 76.718 38.0011 76.7578 38.0996 76.7578H39.2134C39.3119 76.7578 39.4063 76.718 39.476 76.6471C39.5456 76.5762 39.5847 76.4801 39.5847 76.3799C39.5847 76.2796 39.5456 76.1835 39.476 76.1126C39.4063 76.0418 39.3119 76.002 39.2134 76.002Z" fill="#1DDFA9"/>
<path d="M41.8112 71.4683H40.6974C40.5989 71.4683 40.5045 71.5081 40.4348 71.579C40.3652 71.6498 40.326 71.7459 40.326 71.8462C40.326 71.9464 40.3652 72.0425 40.4348 72.1134C40.5045 72.1843 40.5989 72.2241 40.6974 72.2241H41.8112C41.9097 72.2241 42.0041 72.1843 42.0738 72.1134C42.1434 72.0425 42.1825 71.9464 42.1825 71.8462C42.1825 71.7459 42.1434 71.6498 42.0738 71.579C42.0041 71.5081 41.9097 71.4683 41.8112 71.4683Z" fill="#1DDFA9"/>
<path d="M41.8112 72.98H40.6974C40.5989 72.98 40.5045 73.0198 40.4348 73.0907C40.3652 73.1615 40.326 73.2577 40.326 73.3579C40.326 73.4581 40.3652 73.5543 40.4348 73.6251C40.5045 73.696 40.5989 73.7358 40.6974 73.7358H41.8112C41.9097 73.7358 42.0041 73.696 42.0738 73.6251C42.1434 73.5543 42.1825 73.4581 42.1825 73.3579C42.1825 73.2577 42.1434 73.1615 42.0738 73.0907C42.0041 73.0198 41.9097 72.98 41.8112 72.98Z" fill="#1DDFA9"/>
<path d="M41.8112 74.491H40.6974C40.5989 74.491 40.5045 74.5308 40.4348 74.6017C40.3652 74.6725 40.326 74.7686 40.326 74.8689C40.326 74.9691 40.3652 75.0652 40.4348 75.1361C40.5045 75.207 40.5989 75.2468 40.6974 75.2468H41.8112C41.9097 75.2468 42.0041 75.207 42.0738 75.1361C42.1434 75.0652 42.1825 74.9691 42.1825 74.8689C42.1825 74.7686 42.1434 74.6725 42.0738 74.6017C42.0041 74.5308 41.9097 74.491 41.8112 74.491Z" fill="#1DDFA9"/>
<path d="M41.8112 76.002H40.6974C40.5989 76.002 40.5045 76.0418 40.4348 76.1126C40.3652 76.1835 40.326 76.2796 40.326 76.3799C40.326 76.4801 40.3652 76.5762 40.4348 76.6471C40.5045 76.718 40.5989 76.7578 40.6974 76.7578H41.8112C41.9097 76.7578 42.0041 76.718 42.0738 76.6471C42.1434 76.5762 42.1825 76.4801 42.1825 76.3799C42.1825 76.2796 42.1434 76.1835 42.0738 76.1126C42.0041 76.0418 41.9097 76.002 41.8112 76.002Z" fill="#1DDFA9"/>
<path d="M44.4098 71.4683H43.296C43.1976 71.4683 43.1031 71.5081 43.0335 71.579C42.9638 71.6498 42.9247 71.7459 42.9247 71.8462C42.9247 71.9464 42.9638 72.0425 43.0335 72.1134C43.1031 72.1843 43.1976 72.2241 43.296 72.2241H44.4098C44.5083 72.2241 44.6027 72.1843 44.6724 72.1134C44.742 72.0425 44.7812 71.9464 44.7812 71.8462C44.7812 71.7459 44.742 71.6498 44.6724 71.579C44.6027 71.5081 44.5083 71.4683 44.4098 71.4683Z" fill="#1DDFA9"/>
<path d="M44.4098 72.98H43.296C43.1976 72.98 43.1031 73.0198 43.0335 73.0907C42.9638 73.1615 42.9247 73.2577 42.9247 73.3579C42.9247 73.4581 42.9638 73.5543 43.0335 73.6251C43.1031 73.696 43.1976 73.7358 43.296 73.7358H44.4098C44.5083 73.7358 44.6027 73.696 44.6724 73.6251C44.742 73.5543 44.7812 73.4581 44.7812 73.3579C44.7812 73.2577 44.742 73.1615 44.6724 73.0907C44.6027 73.0198 44.5083 72.98 44.4098 72.98Z" fill="#1DDFA9"/>
<path d="M44.4098 74.491H43.296C43.1976 74.491 43.1031 74.5308 43.0335 74.6017C42.9638 74.6725 42.9247 74.7686 42.9247 74.8689C42.9247 74.9691 42.9638 75.0652 43.0335 75.1361C43.1031 75.207 43.1976 75.2468 43.296 75.2468H44.4098C44.5083 75.2468 44.6027 75.207 44.6724 75.1361C44.742 75.0652 44.7812 74.9691 44.7812 74.8689C44.7812 74.7686 44.742 74.6725 44.6724 74.6017C44.6027 74.5308 44.5083 74.491 44.4098 74.491Z" fill="#1DDFA9"/>
<path d="M44.4098 76.002H43.296C43.1976 76.002 43.1031 76.0418 43.0335 76.1126C42.9638 76.1835 42.9247 76.2796 42.9247 76.3799C42.9247 76.4801 42.9638 76.5762 43.0335 76.6471C43.1031 76.718 43.1976 76.7578 43.296 76.7578H44.4098C44.5083 76.7578 44.6027 76.718 44.6724 76.6471C44.742 76.5762 44.7812 76.4801 44.7812 76.3799C44.7812 76.2796 44.742 76.1835 44.6724 76.1126C44.6027 76.0418 44.5083 76.002 44.4098 76.002Z" fill="#1DDFA9"/>
<path d="M45.1525 65.4246H36.9859C36.6905 65.4246 36.4072 65.544 36.1983 65.7565C35.9895 65.9691 35.8721 66.2574 35.8721 66.5579V77.5128C35.8721 77.8134 35.9895 78.1017 36.1983 78.3142C36.4072 78.5268 36.6905 78.6462 36.9859 78.6462H45.1525C45.4479 78.6462 45.7312 78.5268 45.94 78.3142C46.1489 78.1017 46.2663 77.8134 46.2663 77.5128V66.5579C46.2663 66.2574 46.1489 65.9691 45.94 65.7565C45.7312 65.544 45.4479 65.4246 45.1525 65.4246ZM45.5235 77.5128C45.5235 77.5624 45.5139 77.6115 45.4953 77.6573C45.4766 77.7031 45.4493 77.7447 45.4149 77.7798C45.3804 77.8149 45.3395 77.8427 45.2945 77.8617C45.2495 77.8806 45.2012 77.8904 45.1525 77.8904H36.9859C36.8875 77.8904 36.7931 77.8506 36.7235 77.7798C36.6539 77.709 36.6149 77.613 36.6149 77.5128V66.5579C36.6149 66.4578 36.6539 66.3618 36.7235 66.291C36.7931 66.2202 36.8875 66.1804 36.9859 66.1804H45.1525C45.2012 66.1804 45.2495 66.1901 45.2945 66.2091C45.3395 66.2281 45.3804 66.2559 45.4149 66.291C45.4493 66.326 45.4766 66.3676 45.4953 66.4135C45.5139 66.4593 45.5235 66.5084 45.5235 66.5579V77.5128Z" fill="#8AD1C0"/>
<path d="M38.4713 70.3349H43.6684C43.8653 70.3349 44.0543 70.2553 44.1936 70.1135C44.3328 69.9718 44.4111 69.7795 44.4111 69.5791V68.0688C44.4111 67.9695 44.3919 67.8713 44.3546 67.7796C44.3172 67.6879 44.2625 67.6045 44.1936 67.5344C44.1246 67.4642 44.0427 67.4085 43.9526 67.3705C43.8625 67.3325 43.7659 67.313 43.6684 67.313H38.4713C38.3738 67.313 38.2772 67.3325 38.1871 67.3705C38.097 67.4085 38.0151 67.4642 37.9461 67.5344C37.8771 67.6045 37.8224 67.6879 37.7851 67.7796C37.7478 67.8713 37.7286 67.9695 37.7286 68.0688V69.5798C37.7288 69.7801 37.8071 69.9722 37.9464 70.1138C38.0856 70.2554 38.2744 70.3349 38.4713 70.3349ZM38.4713 68.0681H43.6684V69.5791H38.4713V68.0681Z" fill="#8AD1C0"/>
<path d="M39.2134 71.469H38.0996C38.0011 71.469 37.9067 71.5088 37.837 71.5797C37.7674 71.6506 37.7283 71.7467 37.7283 71.8469C37.7283 71.9471 37.7674 72.0433 37.837 72.1141C37.9067 72.185 38.0011 72.2248 38.0996 72.2248H39.2134C39.3119 72.2248 39.4063 72.185 39.476 72.1141C39.5456 72.0433 39.5847 71.9471 39.5847 71.8469C39.5847 71.7467 39.5456 71.6506 39.476 71.5797C39.4063 71.5088 39.3119 71.469 39.2134 71.469Z" fill="#8AD1C0"/>
<path d="M39.2134 72.98H38.0996C38.0011 72.98 37.9067 73.0198 37.837 73.0907C37.7674 73.1615 37.7283 73.2577 37.7283 73.3579C37.7283 73.4581 37.7674 73.5543 37.837 73.6251C37.9067 73.696 38.0011 73.7358 38.0996 73.7358H39.2134C39.3119 73.7358 39.4063 73.696 39.476 73.6251C39.5456 73.5543 39.5847 73.4581 39.5847 73.3579C39.5847 73.2577 39.5456 73.1615 39.476 73.0907C39.4063 73.0198 39.3119 72.98 39.2134 72.98Z" fill="#8AD1C0"/>
<path d="M39.2134 74.491H38.0996C38.0011 74.491 37.9067 74.5308 37.837 74.6017C37.7674 74.6725 37.7283 74.7686 37.7283 74.8689C37.7283 74.9691 37.7674 75.0652 37.837 75.1361C37.9067 75.207 38.0011 75.2468 38.0996 75.2468H39.2134C39.3119 75.2468 39.4063 75.207 39.476 75.1361C39.5456 75.0652 39.5847 74.9691 39.5847 74.8689C39.5847 74.7686 39.5456 74.6725 39.476 74.6017C39.4063 74.5308 39.3119 74.491 39.2134 74.491Z" fill="#8AD1C0"/>
<path d="M39.2134 76.002H38.0996C38.0011 76.002 37.9067 76.0418 37.837 76.1126C37.7674 76.1835 37.7283 76.2796 37.7283 76.3799C37.7283 76.4801 37.7674 76.5762 37.837 76.6471C37.9067 76.718 38.0011 76.7578 38.0996 76.7578H39.2134C39.3119 76.7578 39.4063 76.718 39.476 76.6471C39.5456 76.5762 39.5847 76.4801 39.5847 76.3799C39.5847 76.2796 39.5456 76.1835 39.476 76.1126C39.4063 76.0418 39.3119 76.002 39.2134 76.002Z" fill="#8AD1C0"/>
<path d="M41.8112 71.469H40.6974C40.5989 71.469 40.5045 71.5088 40.4348 71.5797C40.3652 71.6506 40.326 71.7467 40.326 71.8469C40.326 71.9471 40.3652 72.0433 40.4348 72.1141C40.5045 72.185 40.5989 72.2248 40.6974 72.2248H41.8112C41.9097 72.2248 42.0041 72.185 42.0738 72.1141C42.1434 72.0433 42.1825 71.9471 42.1825 71.8469C42.1825 71.7467 42.1434 71.6506 42.0738 71.5797C42.0041 71.5088 41.9097 71.469 41.8112 71.469Z" fill="#8AD1C0"/>
<path d="M41.8112 72.98H40.6974C40.5989 72.98 40.5045 73.0198 40.4348 73.0907C40.3652 73.1615 40.326 73.2577 40.326 73.3579C40.326 73.4581 40.3652 73.5543 40.4348 73.6251C40.5045 73.696 40.5989 73.7358 40.6974 73.7358H41.8112C41.9097 73.7358 42.0041 73.696 42.0738 73.6251C42.1434 73.5543 42.1825 73.4581 42.1825 73.3579C42.1825 73.2577 42.1434 73.1615 42.0738 73.0907C42.0041 73.0198 41.9097 72.98 41.8112 72.98Z" fill="#8AD1C0"/>
<path d="M41.8112 74.491H40.6974C40.5989 74.491 40.5045 74.5308 40.4348 74.6017C40.3652 74.6725 40.326 74.7686 40.326 74.8689C40.326 74.9691 40.3652 75.0652 40.4348 75.1361C40.5045 75.207 40.5989 75.2468 40.6974 75.2468H41.8112C41.9097 75.2468 42.0041 75.207 42.0738 75.1361C42.1434 75.0652 42.1825 74.9691 42.1825 74.8689C42.1825 74.7686 42.1434 74.6725 42.0738 74.6017C42.0041 74.5308 41.9097 74.491 41.8112 74.491Z" fill="#8AD1C0"/>
<path d="M41.8112 76.002H40.6974C40.5989 76.002 40.5045 76.0418 40.4348 76.1126C40.3652 76.1835 40.326 76.2796 40.326 76.3799C40.326 76.4801 40.3652 76.5762 40.4348 76.6471C40.5045 76.718 40.5989 76.7578 40.6974 76.7578H41.8112C41.9097 76.7578 42.0041 76.718 42.0738 76.6471C42.1434 76.5762 42.1825 76.4801 42.1825 76.3799C42.1825 76.2796 42.1434 76.1835 42.0738 76.1126C42.0041 76.0418 41.9097 76.002 41.8112 76.002Z" fill="#8AD1C0"/>
<path d="M44.4104 71.469H43.2967C43.1982 71.469 43.1037 71.5088 43.0341 71.5797C42.9644 71.6506 42.9253 71.7467 42.9253 71.8469C42.9253 71.9471 42.9644 72.0433 43.0341 72.1141C43.1037 72.185 43.1982 72.2248 43.2967 72.2248H44.4104C44.5089 72.2248 44.6034 72.185 44.673 72.1141C44.7427 72.0433 44.7818 71.9471 44.7818 71.8469C44.7818 71.7467 44.7427 71.6506 44.673 71.5797C44.6034 71.5088 44.5089 71.469 44.4104 71.469Z" fill="#8AD1C0"/>
<path d="M44.4104 72.98H43.2967C43.1982 72.98 43.1037 73.0198 43.0341 73.0907C42.9644 73.1615 42.9253 73.2577 42.9253 73.3579C42.9253 73.4581 42.9644 73.5543 43.0341 73.6251C43.1037 73.696 43.1982 73.7358 43.2967 73.7358H44.4104C44.5089 73.7358 44.6034 73.696 44.673 73.6251C44.7427 73.5543 44.7818 73.4581 44.7818 73.3579C44.7818 73.2577 44.7427 73.1615 44.673 73.0907C44.6034 73.0198 44.5089 72.98 44.4104 72.98Z" fill="#8AD1C0"/>
<path d="M44.4104 74.491H43.2967C43.1982 74.491 43.1037 74.5308 43.0341 74.6017C42.9644 74.6725 42.9253 74.7686 42.9253 74.8689C42.9253 74.9691 42.9644 75.0652 43.0341 75.1361C43.1037 75.207 43.1982 75.2468 43.2967 75.2468H44.4104C44.5089 75.2468 44.6034 75.207 44.673 75.1361C44.7427 75.0652 44.7818 74.9691 44.7818 74.8689C44.7818 74.7686 44.7427 74.6725 44.673 74.6017C44.6034 74.5308 44.5089 74.491 44.4104 74.491Z" fill="#8AD1C0"/>
<path d="M44.4104 76.002H43.2967C43.1982 76.002 43.1037 76.0418 43.0341 76.1126C42.9644 76.1835 42.9253 76.2796 42.9253 76.3799C42.9253 76.4801 42.9644 76.5762 43.0341 76.6471C43.1037 76.718 43.1982 76.7578 43.2967 76.7578H44.4104C44.5089 76.7578 44.6034 76.718 44.673 76.6471C44.7427 76.5762 44.7818 76.4801 44.7818 76.3799C44.7818 76.2796 44.7427 76.1835 44.673 76.1126C44.6034 76.0418 44.5089 76.002 44.4104 76.002Z" fill="#8AD1C0"/>
<path d="M34.1761 71.681H26.7408V61.8336C26.7408 61.792 26.7327 61.7509 26.7171 61.7125C26.7015 61.6742 26.6786 61.6393 26.6497 61.61C26.6209 61.5806 26.5866 61.5573 26.5489 61.5414C26.5112 61.5255 26.4708 61.5173 26.43 61.5173C26.3892 61.5173 26.3488 61.5255 26.3111 61.5414C26.2734 61.5573 26.2391 61.5806 26.2103 61.61C26.1814 61.6393 26.1585 61.6742 26.1429 61.7125C26.1273 61.7509 26.1193 61.792 26.1193 61.8336V71.9972C26.1193 72.0811 26.152 72.1615 26.2103 72.2208C26.2686 72.2801 26.3476 72.3134 26.43 72.3134H34.1761C34.2585 72.3134 34.3375 72.2801 34.3958 72.2208C34.4541 72.1615 34.4868 72.0811 34.4868 71.9972C34.4868 71.9133 34.4541 71.8329 34.3958 71.7736C34.3375 71.7143 34.2585 71.681 34.1761 71.681Z" fill="#5BCEAE"/>
<path d="M27.6737 71.0485H28.9374C29.0199 71.0485 29.0989 71.0152 29.1572 70.9559C29.2155 70.8966 29.2482 70.8162 29.2482 70.7323V68.8138C29.2482 68.7299 29.2155 68.6495 29.1572 68.5902C29.0989 68.5309 29.0199 68.4976 28.9374 68.4976H27.6737C27.5913 68.4976 27.5122 68.5309 27.4539 68.5902C27.3957 68.6495 27.3629 68.7299 27.3629 68.8138V70.7323C27.3629 70.8162 27.3957 70.8966 27.4539 70.9559C27.5122 71.0152 27.5913 71.0485 27.6737 71.0485Z" fill="#5BCEAE"/>
<path d="M30.1805 67.2319C30.0981 67.2319 30.0191 67.2652 29.9608 67.3245C29.9025 67.3839 29.8698 67.4643 29.8698 67.5482V70.7323C29.8698 70.8161 29.9025 70.8966 29.9608 70.9559C30.0191 71.0152 30.0981 71.0485 30.1805 71.0485H31.4235C31.5059 71.0485 31.585 71.0152 31.6433 70.9559C31.7015 70.8966 31.7343 70.8161 31.7343 70.7323V67.5482C31.7343 67.4643 31.7015 67.3839 31.6433 67.3245C31.585 67.2652 31.5059 67.2319 31.4235 67.2319H30.1805Z" fill="#5BCEAE"/>
<path d="M32.6671 65.9663C32.5847 65.9663 32.5057 65.9996 32.4474 66.0589C32.3891 66.1182 32.3564 66.1987 32.3564 66.2825V70.7316C32.3564 70.8154 32.3891 70.8959 32.4474 70.9552C32.5057 71.0145 32.5847 71.0478 32.6671 71.0478H33.9102C33.9926 71.0478 34.0716 71.0145 34.1299 70.9552C34.1882 70.8959 34.2209 70.8154 34.2209 70.7316V66.2825C34.2209 66.1987 34.1882 66.1182 34.1299 66.0589C34.0716 65.9996 33.9926 65.9663 33.9102 65.9663H32.6671Z" fill="#5BCEAE"/>
<path d="M27.3998 67.065C27.4389 67.1388 27.5053 67.1939 27.5842 67.218C27.6632 67.2421 27.7483 67.2334 27.821 67.1938L35.0587 63.2409L34.8759 63.6123C34.8572 63.6495 34.846 63.6901 34.8429 63.7317C34.8397 63.7733 34.8447 63.8152 34.8575 63.8549C34.8703 63.8945 34.8907 63.9312 34.9175 63.9628C34.9443 63.9944 34.977 64.0203 35.0137 64.0389C35.0504 64.0576 35.0904 64.0687 35.1313 64.0716C35.1722 64.0744 35.2133 64.069 35.2522 64.0557C35.291 64.0423 35.3269 64.0213 35.3577 63.9937C35.3886 63.9662 35.4137 63.9327 35.4318 63.8952L36.0533 62.6303C36.0774 62.582 36.0889 62.5282 36.0867 62.4741C36.0845 62.42 36.0687 62.3674 36.0408 62.3213C36.0129 62.2752 35.9738 62.2372 35.9274 62.2108C35.8809 62.1845 35.8285 62.1708 35.7753 62.1709H34.2216C34.1392 62.1709 34.0601 62.2042 34.0018 62.2635C33.9436 62.3228 33.9108 62.4033 33.9108 62.4871C33.9108 62.571 33.9436 62.6514 34.0018 62.7107C34.0601 62.77 34.1392 62.8034 34.2216 62.8034H34.543L27.5263 66.637C27.4903 66.6566 27.4585 66.6833 27.4327 66.7155C27.4068 66.7477 27.3875 66.7848 27.3757 66.8246C27.3639 66.8644 27.36 66.9062 27.3641 66.9476C27.3683 66.9889 27.3804 67.0291 27.3998 67.0657V67.065Z" fill="#5BCEAE"/>
<path d="M34.1761 71.681H26.7408V61.8336C26.7408 61.792 26.7327 61.7509 26.7171 61.7125C26.7015 61.6742 26.6786 61.6393 26.6497 61.61C26.6209 61.5806 26.5866 61.5573 26.5489 61.5414C26.5112 61.5255 26.4708 61.5173 26.43 61.5173C26.3892 61.5173 26.3488 61.5255 26.3111 61.5414C26.2734 61.5573 26.2391 61.5806 26.2103 61.61C26.1814 61.6393 26.1585 61.6742 26.1429 61.7125C26.1273 61.7509 26.1193 61.792 26.1193 61.8336V71.9972C26.1193 72.0811 26.152 72.1615 26.2103 72.2208C26.2686 72.2801 26.3476 72.3134 26.43 72.3134H34.1761C34.2585 72.3134 34.3375 72.2801 34.3958 72.2208C34.4541 72.1615 34.4868 72.0811 34.4868 71.9972C34.4868 71.9133 34.4541 71.8329 34.3958 71.7736C34.3375 71.7143 34.2585 71.681 34.1761 71.681Z" fill="#8AD1C0"/>
<path d="M27.6737 71.0485H28.9374C29.0199 71.0485 29.0989 71.0152 29.1572 70.9559C29.2155 70.8966 29.2482 70.8162 29.2482 70.7323V68.8138C29.2482 68.7299 29.2155 68.6495 29.1572 68.5902C29.0989 68.5309 29.0199 68.4976 28.9374 68.4976H27.6737C27.5913 68.4976 27.5122 68.5309 27.4539 68.5902C27.3957 68.6495 27.3629 68.7299 27.3629 68.8138V70.7323C27.3629 70.8162 27.3957 70.8966 27.4539 70.9559C27.5122 71.0152 27.5913 71.0485 27.6737 71.0485Z" fill="#8AD1C0"/>
<path d="M30.1805 67.2319C30.0981 67.2319 30.0191 67.2652 29.9608 67.3245C29.9025 67.3839 29.8698 67.4643 29.8698 67.5482V70.7323C29.8698 70.8161 29.9025 70.8966 29.9608 70.9559C30.0191 71.0152 30.0981 71.0485 30.1805 71.0485H31.4235C31.5059 71.0485 31.585 71.0152 31.6433 70.9559C31.7015 70.8966 31.7343 70.8161 31.7343 70.7323V67.5482C31.7343 67.4643 31.7015 67.3839 31.6433 67.3245C31.585 67.2652 31.5059 67.2319 31.4235 67.2319H30.1805Z" fill="#8AD1C0"/>
<path d="M32.6671 65.9663C32.5847 65.9663 32.5057 65.9996 32.4474 66.0589C32.3891 66.1182 32.3564 66.1987 32.3564 66.2825V70.7316C32.3564 70.8154 32.3891 70.8959 32.4474 70.9552C32.5057 71.0145 32.5847 71.0478 32.6671 71.0478H33.9102C33.9926 71.0478 34.0716 71.0145 34.1299 70.9552C34.1882 70.8959 34.2209 70.8154 34.2209 70.7316V66.2825C34.2209 66.1987 34.1882 66.1182 34.1299 66.0589C34.0716 65.9996 33.9926 65.9663 33.9102 65.9663H32.6671Z" fill="#8AD1C0"/>
<path d="M27.3998 67.065C27.4389 67.1388 27.5053 67.1939 27.5842 67.218C27.6632 67.2421 27.7483 67.2334 27.821 67.1938L35.0587 63.2409L34.8759 63.6123C34.8572 63.6495 34.846 63.6901 34.8429 63.7317C34.8397 63.7733 34.8447 63.8152 34.8575 63.8549C34.8703 63.8945 34.8907 63.9312 34.9175 63.9628C34.9443 63.9944 34.977 64.0203 35.0137 64.0389C35.0504 64.0576 35.0904 64.0687 35.1313 64.0716C35.1722 64.0744 35.2133 64.069 35.2522 64.0557C35.291 64.0423 35.3269 64.0213 35.3577 63.9937C35.3886 63.9662 35.4137 63.9327 35.4318 63.8952L36.0533 62.6303C36.0774 62.582 36.0889 62.5282 36.0867 62.4741C36.0845 62.42 36.0687 62.3674 36.0408 62.3213C36.0129 62.2752 35.9738 62.2372 35.9274 62.2108C35.8809 62.1845 35.8285 62.1708 35.7753 62.1709H34.2216C34.1392 62.1709 34.0601 62.2042 34.0018 62.2635C33.9436 62.3228 33.9108 62.4033 33.9108 62.4871C33.9108 62.571 33.9436 62.6514 34.0018 62.7107C34.0601 62.77 34.1392 62.8034 34.2216 62.8034H34.543L27.5263 66.637C27.4903 66.6566 27.4585 66.6833 27.4327 66.7155C27.4068 66.7477 27.3875 66.7848 27.3757 66.8246C27.3639 66.8644 27.36 66.9062 27.3641 66.9476C27.3683 66.9889 27.3804 67.0291 27.3998 67.0657V67.065Z" fill="#8AD1C0"/>
</svg>
