<svg width="13" height="13" viewBox="0 0 13 13" fill="none" xmlns="http://www.w3.org/2000/svg">
<path d="M12.1999 6.88086C12.0115 9.72809 9.72809 12.0115 6.88086 12.1999V13H6.11914V12.1999C3.27191 12.0115 0.988457 9.72809 0.800109 6.88086H0V6.11914H0.800109C0.988457 3.27191 3.27191 0.988457 6.11914 0.800109V0H6.88086V0.800109C9.72809 0.988457 12.0115 3.27191 12.1999 6.11914H13V6.88086H12.1999ZM6.11914 11.4367V9.90646C4.53276 9.73027 3.26973 8.46724 3.09354 6.88086H1.56333C1.74883 9.30797 3.69203 11.2512 6.11914 11.4367ZM6.11914 1.56333C3.69203 1.74883 1.74883 3.69203 1.56333 6.11914H3.09354C3.26973 4.53276 4.53276 3.26973 6.11914 3.09354V1.56333ZM6.11914 4.5957V3.8613C4.9533 4.02881 4.02881 4.9533 3.8613 6.11914H4.5957V6.88086H3.8613C4.02881 8.0467 4.9533 8.97119 6.11914 9.1387V8.4043H6.88086V9.1387C8.0467 8.97119 8.97119 8.0467 9.1387 6.88086H8.4043V6.11914H9.1387C8.97119 4.9533 8.0467 4.02881 6.88086 3.8613V4.5957H6.11914ZM6.88086 1.56333V3.09354C8.46724 3.26973 9.73027 4.53279 9.90646 6.11914H11.4367C11.2512 3.69203 9.30797 1.74883 6.88086 1.56333ZM9.90646 6.88086C9.73027 8.46724 8.46724 9.73027 6.88086 9.90646V11.4367C9.30797 11.2512 11.2512 9.30797 11.4367 6.88086H9.90646Z" fill="white"/>
</svg>
