<svg width="18" height="18" viewBox="0 0 18 18" fill="none" xmlns="http://www.w3.org/2000/svg">
<path d="M5.92526 4.63584C6.04532 4.87523 6.28963 5.02633 6.55725 5.02633L7.96954 5.02633L7.96954 12.0878C7.96954 12.4775 8.28518 12.7939 8.67567 12.7939C9.06615 12.7939 9.3818 12.4775 9.3818 12.0878L9.3818 5.02636L10.7941 5.02636C11.0617 5.02636 11.3061 4.87526 11.4261 4.63588C11.5447 4.3965 11.5193 4.11051 11.359 3.89655L9.24056 1.072C9.23139 1.05998 9.21726 1.05575 9.20736 1.04446C9.16075 0.989381 9.10567 0.947012 9.04424 0.908185C9.01882 0.892661 8.99906 0.872172 8.97152 0.859461C8.88112 0.817093 8.78228 0.789553 8.67563 0.789553C8.56899 0.789553 8.47015 0.817093 8.37906 0.859461C8.35221 0.872172 8.33176 0.892661 8.30703 0.908185C8.2456 0.947012 8.19052 0.989381 8.14391 1.04446C8.13474 1.05575 8.11991 1.05998 8.11071 1.072L5.99229 3.89655C5.83132 4.11048 5.8059 4.39646 5.92526 4.63584Z" fill="#085FAB"/>
<path d="M16.4522 11.3818C16.0617 11.3818 15.746 11.6981 15.746 12.0879V14.2063C15.746 15.3743 14.7956 16.3247 13.6276 16.3247H3.74165C2.57371 16.3247 1.62323 15.3743 1.62323 14.2063V12.0879C1.62323 11.6981 1.30758 11.3818 0.9171 11.3818C0.526582 11.3818 0.210938 11.6981 0.210938 12.0879V14.2063C0.210938 16.1532 1.79482 17.737 3.74165 17.737H13.6276C15.5744 17.737 17.1583 16.1532 17.1583 14.2063V12.0879C17.1583 11.6981 16.8427 11.3818 16.4522 11.3818Z" fill="#085FAB"/>
</svg>
